<svg width="16" height="16" viewBox="0 0 16 16" fill="none" xmlns="http://www.w3.org/2000/svg">
<path d="M8.02346 0C12.434 0 16 3.56599 16 8.02348C16 12.434 12.434 16 8.02346 16C6.7566 16 5.53666 15.7185 4.45748 15.2024L1.87683 15.7185C0.844575 15.9062 0.140762 14.6863 0.844575 13.8886L1.68915 12.9033C0.609971 11.4956 0 9.80647 0 8.02348C0 3.56599 3.56598 0 8.02346 0ZM8.02346 1.1261C4.17595 1.1261 1.1261 4.17596 1.1261 8.02348C1.1261 9.71263 1.73607 11.3079 2.81525 12.5748L2.90909 12.6687C3.04985 12.8094 3.04985 13.044 2.90909 13.1848L1.68915 14.5924L4.41056 14.0294L4.78592 14.1232C5.77126 14.6393 6.89736 14.8739 8.02346 14.8739C11.824 14.8739 14.8739 11.8241 14.8739 8.02348C14.8739 4.17596 11.824 1.1261 8.02346 1.1261Z" fill="#0033AE"/>
<path d="M5.06641 5.20869C5.30101 4.64564 5.67638 4.17643 6.19251 3.84798C7.41245 3.05032 9.05467 3.19109 10.0869 4.17643C11.2599 5.30253 11.3538 7.13245 10.2277 8.30547C9.85233 8.68084 9.38312 9.00928 8.86699 9.15005V9.66618H6.99016V8.63392C6.99016 8.02394 7.45937 7.50781 8.06934 7.41397C8.39778 7.41397 8.67931 7.27321 8.86699 7.0386C9.28928 6.61632 9.24236 5.95942 8.82007 5.53713C8.39778 5.11485 7.69397 5.06792 7.22476 5.39637C6.99016 5.53713 6.8494 5.72482 6.75555 5.9125L5.06641 5.20869Z" fill="#0033AE"/>
<path fill-rule="evenodd" clip-rule="evenodd" d="M7.97766 9.94922C8.63455 9.94922 9.15068 10.4653 9.15068 11.1222C9.15068 11.7322 8.63455 12.2483 7.97766 12.2483C7.36769 12.2483 6.85156 11.7322 6.85156 11.1222C6.85156 10.4653 7.36769 9.94922 7.97766 9.94922Z" fill="#0033AE"/>
</svg>
