<svg width="16" height="16" viewBox="0 0 16 16" fill="none" xmlns="http://www.w3.org/2000/svg">
<path d="M7.55556 15.1111C6.06121 15.1111 4.60042 14.668 3.35792 13.8378C2.11541 13.0076 1.147 11.8275 0.575136 10.4469C0.00327368 9.06635 -0.146351 7.54718 0.145181 6.08154C0.436714 4.61591 1.15631 3.26964 2.21297 2.21297C3.26964 1.15631 4.61591 0.436714 6.08154 0.145181C7.54718 -0.146351 9.06635 0.00327368 10.4469 0.575136C11.8275 1.147 13.0076 2.11541 13.8378 3.35792C14.668 4.60042 15.1111 6.06121 15.1111 7.55556C15.1111 9.55941 14.3151 11.4812 12.8981 12.8981C11.4812 14.3151 9.55941 15.1111 7.55556 15.1111ZM7.55556 0.863495C6.23199 0.863495 4.93815 1.25598 3.83765 1.99131C2.73714 2.72664 1.8794 3.7718 1.3729 4.99462C0.866392 6.21743 0.733867 7.56298 0.992081 8.86111C1.2503 10.1592 1.88765 11.3517 2.82355 12.2876C3.75946 13.2235 4.95187 13.8608 6.25 14.119C7.54813 14.3772 8.89368 14.2447 10.1165 13.7382C11.3393 13.2317 12.3845 12.374 13.1198 11.2735C13.8551 10.173 14.2476 8.87912 14.2476 7.55556C14.2476 5.78071 13.5426 4.07856 12.2876 2.82355C11.0326 1.56855 9.3304 0.863495 7.55556 0.863495Z" fill="#EB996E"/>
<path d="M6.26104 10.8791C6.07137 10.8785 5.88523 10.8278 5.72136 10.7323C5.55623 10.6388 5.41912 10.5028 5.32423 10.3385C5.22934 10.1741 5.18012 9.98737 5.18168 9.7976V5.31176C5.18168 5.12229 5.23156 4.93617 5.32629 4.77209C5.42103 4.60801 5.55729 4.47175 5.72137 4.37702C5.88545 4.28229 6.07158 4.23242 6.26105 4.23242C6.45051 4.23242 6.63664 4.2823 6.80072 4.37703L10.6864 6.61995C10.8505 6.71469 10.9868 6.85094 11.0815 7.01502C11.1762 7.1791 11.2261 7.36522 11.2261 7.55468C11.2261 7.74414 11.1762 7.93026 11.0815 8.09434C10.9868 8.25842 10.8505 8.39467 10.6864 8.48941L6.80072 10.7323C6.63685 10.8278 6.45071 10.8785 6.26104 10.8791ZM6.26104 5.09373C6.22303 5.09412 6.18579 5.10455 6.1531 5.12395C6.12016 5.14297 6.09283 5.17036 6.07387 5.20334C6.05492 5.23632 6.04502 5.27372 6.04517 5.31176V9.7976C6.04502 9.83564 6.05492 9.87304 6.07387 9.90602C6.09283 9.939 6.12016 9.96639 6.1531 9.98541C6.18592 10.0044 6.22315 10.0143 6.26104 10.0143C6.29893 10.0143 6.33616 10.0044 6.36898 9.98541L10.2547 7.74249C10.2879 7.72366 10.3155 7.69636 10.3348 7.66336C10.354 7.63037 10.3641 7.59287 10.3641 7.55468C10.3641 7.51649 10.354 7.47899 10.3348 7.446C10.3155 7.413 10.2879 7.3857 10.2547 7.36687L6.36898 5.12395C6.33629 5.10455 6.29905 5.09412 6.26104 5.09373Z" fill="#EB996E"/>
<path d="M5.77734 9.77756V4.88867H6.66623L7.55512 5.77756L10.6662 7.55534L7.55512 9.77756L6.22179 10.222L5.77734 9.77756Z" fill="#EB996E"/>
</svg>
