<svg width="23" height="24" viewBox="0 0 23 24" fill="none" xmlns="http://www.w3.org/2000/svg">
<path d="M17.8293 11.7869H19.5034C19.8819 11.7869 20.1898 11.479 20.1898 11.1005V9.42642C20.1898 9.04795 19.8819 8.74003 19.5034 8.74003H17.8293C17.4508 8.74003 17.1429 9.04795 17.1429 9.42642V11.1005C17.1429 11.479 17.4508 11.7869 17.8293 11.7869ZM17.846 9.44316H19.4867V11.0838H17.846V9.44316ZM17.8293 16.24H19.5034C19.8819 16.24 20.1898 15.9321 20.1898 15.5536V13.8795C20.1898 13.5011 19.8819 13.1932 19.5034 13.1932H17.8293C17.4508 13.1932 17.1429 13.5011 17.1429 13.8795V15.5536C17.1429 15.9321 17.4508 16.24 17.8293 16.24ZM17.846 13.8963H19.4867V15.5369H17.846V13.8963ZM13.052 11.7869H14.7261C15.1046 11.7869 15.4125 11.479 15.4125 11.1005V9.42642C15.4125 9.04795 15.1046 8.74003 14.7261 8.74003H13.052C12.6735 8.74003 12.3656 9.04795 12.3656 9.42642V11.1005C12.3656 11.479 12.6735 11.7869 13.052 11.7869ZM13.0687 9.44316H14.7094V11.0838H13.0687V9.44316ZM5.17147 17.4375H3.49738C3.11891 17.4375 2.81099 17.7454 2.81099 18.1239V19.798C2.81099 20.1765 3.11891 20.4844 3.49738 20.4844H5.17147C5.54994 20.4844 5.85786 20.1765 5.85786 19.798V18.1239C5.85786 17.7454 5.54994 17.4375 5.17147 17.4375ZM5.15474 19.7812H3.51411V18.1406H5.15474V19.7812ZM5.17147 8.74003H3.49738C3.11891 8.74003 2.81099 9.04795 2.81099 9.42642V11.1005C2.81099 11.479 3.11891 11.7869 3.49738 11.7869H5.17147C5.54994 11.7869 5.85786 11.479 5.85786 11.1005V9.42642C5.85786 9.04791 5.54994 8.74003 5.17147 8.74003ZM5.15474 11.0838H3.51411V9.44316H5.15474V11.0838ZM13.052 16.1356H14.7261C15.1046 16.1356 15.4125 15.8277 15.4125 15.4493V13.7752C15.4125 13.3967 15.1046 13.0888 14.7261 13.0888H13.052C12.6735 13.0888 12.3656 13.3967 12.3656 13.7752V15.4493C12.3656 15.8277 12.6735 16.1356 13.052 16.1356ZM13.0687 13.7919H14.7094V15.4325H13.0687V13.7919ZM20.539 1.60659H19.0359V1.06908C19.0359 0.479578 18.5563 0 17.9668 0H17.8054C17.2159 0 16.7363 0.479578 16.7363 1.06908V1.60659H6.26446V1.06908C6.26446 0.479578 5.78488 0 5.19538 0H5.03394C4.44444 0 3.96486 0.479578 3.96486 1.06908V1.60659H2.46182C1.49127 1.60659 0.70166 2.3962 0.70166 3.36675V22.2422C0.70166 23.2115 1.49019 24 2.45947 24H20.5414C21.5107 24 22.2992 23.2115 22.2992 22.2422V3.36675C22.2992 2.3962 21.5096 1.60659 20.539 1.60659ZM17.4395 1.06908C17.4395 0.867281 17.6036 0.703125 17.8054 0.703125H17.9668C18.1686 0.703125 18.3328 0.867281 18.3328 1.06908V1.60659H17.4395V1.06908ZM4.66803 1.06908C4.66803 0.867281 4.83219 0.703125 5.03399 0.703125H5.19543C5.39722 0.703125 5.56138 0.867281 5.56138 1.06908V1.60659H4.66808V1.06908H4.66803ZM21.596 22.2422C21.596 22.8238 21.1229 23.2969 20.5414 23.2969H2.45943C1.87785 23.2969 1.40474 22.8238 1.40474 22.2422V22.24C1.6993 22.4619 2.06544 22.5938 2.46182 22.5938H16.7157C17.1859 22.5938 17.6279 22.4107 17.9603 22.0782L21.596 18.4425V22.2422ZM17.6016 21.4425C17.6292 21.3288 17.6442 21.2101 17.6442 21.088V18.7413C17.6442 18.2988 18.0042 17.9387 18.4468 17.9387H20.7935C20.9156 17.9387 21.0342 17.9237 21.148 17.8962L17.6016 21.4425ZM21.596 6.63066H6.61602C6.42186 6.63066 6.26446 6.78806 6.26446 6.98222C6.26446 7.17637 6.42186 7.33378 6.61602 7.33378H21.596V16.4331C21.596 16.8756 21.236 17.2357 20.7935 17.2357H18.4468C17.6165 17.2357 16.941 17.9111 16.941 18.7413V21.0881C16.941 21.5306 16.581 21.8907 16.1385 21.8907H2.46182C1.87897 21.8907 1.40479 21.4165 1.40479 20.8336V7.33378H5.20977C5.40393 7.33378 5.56133 7.17637 5.56133 6.98222C5.56133 6.78806 5.40393 6.63066 5.20977 6.63066H1.40474V3.36675C1.40474 2.78391 1.87893 2.30972 2.46177 2.30972H3.96486V3.34341C3.96486 3.93291 4.44444 4.41248 5.03394 4.41248C5.2281 4.41248 5.3855 4.25508 5.3855 4.06092C5.3855 3.86677 5.2281 3.70936 5.03394 3.70936C4.83214 3.70936 4.66799 3.5452 4.66799 3.34341V2.30972H16.7363V3.34341C16.7363 3.93291 17.2159 4.41248 17.8054 4.41248C17.9996 4.41248 18.157 4.25508 18.157 4.06092C18.157 3.86677 17.9996 3.70936 17.8054 3.70936C17.6036 3.70936 17.4395 3.5452 17.4395 3.34341V2.30972H20.539C21.1219 2.30972 21.596 2.78391 21.596 3.36675V6.63066ZM5.17147 13.0888H3.49738C3.11891 13.0888 2.81099 13.3967 2.81099 13.7752V15.4493C2.81099 15.8277 3.11891 16.1356 3.49738 16.1356H5.17147C5.54994 16.1356 5.85786 15.8277 5.85786 15.4493V13.7752C5.85786 13.3966 5.54994 13.0888 5.17147 13.0888ZM5.15474 15.4325H3.51411V13.7919H5.15474V15.4325ZM8.27469 11.7869H9.94878C10.3273 11.7869 10.6352 11.479 10.6352 11.1005V9.42642C10.6352 9.04795 10.3273 8.74003 9.94878 8.74003H8.27469C7.89622 8.74003 7.5883 9.04795 7.5883 9.42642V11.1005C7.5883 11.479 7.89622 11.7869 8.27469 11.7869ZM8.29143 9.44316H9.93205V11.0838H8.29143V9.44316ZM13.0683 19.7812C13.0596 19.5948 12.9057 19.4464 12.7171 19.4464C12.523 19.4464 12.3656 19.6038 12.3656 19.798C12.3656 20.1765 12.6735 20.4844 13.052 20.4844H14.726C15.1045 20.4844 15.4124 20.1765 15.4124 19.798V18.1239C15.4124 17.7454 15.1045 17.4375 14.726 17.4375H13.052C12.6735 17.4375 12.3656 17.7454 12.3656 18.1239V18.6067C12.3656 18.8009 12.523 18.9583 12.7171 18.9583C12.9113 18.9583 13.0687 18.8009 13.0687 18.6067V18.1406H14.7093V19.7812H13.0683ZM8.27469 16.1356H9.94878C10.3273 16.1356 10.6352 15.8277 10.6352 15.4493V13.7752C10.6352 13.3967 10.3273 13.0888 9.94878 13.0888H8.27469C7.89622 13.0888 7.5883 13.3967 7.5883 13.7752V15.4493C7.5883 15.8277 7.89622 16.1356 8.27469 16.1356ZM8.29143 13.7919H9.93205V15.4325H8.29143V13.7919ZM8.27469 20.4844H9.94878C10.3273 20.4844 10.6352 20.1765 10.6352 19.798V18.1239C10.6352 17.7454 10.3273 17.4375 9.94878 17.4375H8.27469C7.89622 17.4375 7.5883 17.7454 7.5883 18.1239V19.798C7.5883 20.1765 7.89622 20.4844 8.27469 20.4844ZM8.29143 18.1406H9.93205V19.7812H8.29143V18.1406Z" fill="#E1DCDC"/>
</svg>
