<svg width="24" height="24" viewBox="0 0 24 24" fill="none" xmlns="http://www.w3.org/2000/svg">
<path d="M22.0781 12.3194C23.1537 12.2241 24 11.3187 24 10.2188V3.65625C24 2.49314 23.0537 1.54688 21.8906 1.54688H14.9062C13.7431 1.54688 12.7969 2.49314 12.7969 3.65625V6.42188H4.03125C2.86814 6.42188 1.92188 7.36814 1.92188 8.53125V16.9688C1.92188 17.2152 1.96477 17.4518 2.04281 17.6719H1.26562C0.56775 17.6719 0 18.2396 0 18.9375C0 20.876 1.57711 22.4531 3.51562 22.4531H20.4844C22.4229 22.4531 24 20.876 24 18.9375C24 18.2396 23.4322 17.6719 22.7344 17.6719H21.9572C22.0352 17.4518 22.0781 17.2152 22.0781 16.9688V12.3194ZM14.2031 3.65625C14.2031 3.26855 14.5185 2.95312 14.9062 2.95312H21.8906C22.2783 2.95312 22.5938 3.26855 22.5938 3.65625V10.2188C22.5938 10.6065 22.2783 10.9219 21.8906 10.9219H15.375C15.2432 10.9219 15.1141 10.9589 15.0023 11.0287L13.5847 11.9148L14.1735 9.95203C14.1931 9.8865 14.2031 9.81844 14.2031 9.75V3.65625ZM20.4844 21.0469H3.51562C2.39977 21.0469 1.48355 20.1759 1.41089 19.0781H22.5891C22.5165 20.1759 21.6002 21.0469 20.4844 21.0469ZM6.70312 12.375C6.70312 11.9356 7.06059 11.5781 7.5 11.5781C7.93941 11.5781 8.29688 11.9356 8.29688 12.375C8.29688 12.8144 7.93941 13.1719 7.5 13.1719C7.06059 13.1719 6.70312 12.8144 6.70312 12.375ZM6.32812 15.375C6.32812 14.9505 6.87572 14.5781 7.5 14.5781C7.83478 14.5781 8.15733 14.6826 8.38495 14.8647C8.49216 14.9504 8.67188 15.1307 8.67188 15.375V17.6719H6.32812V15.375ZM10.0781 17.6719V15.375C10.0781 14.767 9.78122 14.1808 9.26344 13.7666C9.25181 13.7573 9.23967 13.7485 9.22786 13.7394C9.52505 13.3639 9.70312 12.89 9.70312 12.375C9.70312 11.1602 8.71481 10.1719 7.5 10.1719C6.28519 10.1719 5.29688 11.1602 5.29688 12.375C5.29688 12.8906 5.47538 13.3649 5.77313 13.7407C5.25075 14.1441 4.92188 14.7273 4.92188 15.375V17.6719H4.03125C3.64355 17.6719 3.32812 17.3565 3.32812 16.9688V8.53125C3.32812 8.14355 3.64355 7.82812 4.03125 7.82812H12.7969V9.64683L12.2377 11.5107C12.0679 12.0768 12.2617 12.6743 12.7315 13.0328C12.9846 13.2259 13.2833 13.3235 13.5835 13.3235C13.8405 13.3235 14.0987 13.2518 14.3299 13.1073L15.5767 12.3281H20.6719V16.9688C20.6719 17.3565 20.3565 17.6719 19.9688 17.6719H10.0781Z" fill="#E1DCDC"/>
<path d="M19.125 7.92188H17.625C17.2367 7.92188 16.9219 8.23669 16.9219 8.625C16.9219 9.01331 17.2367 9.32812 17.625 9.32812H19.125C19.5133 9.32812 19.8281 9.01331 19.8281 8.625C19.8281 8.23669 19.5133 7.92188 19.125 7.92188Z" fill="#E1DCDC"/>
<path d="M16.5 5.95312H20.25C20.6383 5.95312 20.9531 5.63831 20.9531 5.25C20.9531 4.86169 20.6383 4.54688 20.25 4.54688H16.5C16.1117 4.54688 15.7969 4.86169 15.7969 5.25C15.7969 5.63831 16.1117 5.95312 16.5 5.95312Z" fill="#E1DCDC"/>
</svg>
