<svg width="1350" height="1710" viewBox="0 0 1440 1710" fill="none" xmlns="http://www.w3.org/2000/svg">
<path d="M0 467H1440V50.4592C1415.29 35.0576 1389 22.8701 1361.7 14.4059C1266.41 -15.1385 1160.4 1.30782 1075.95 58.7091C1009.29 103.977 956.174 172.922 885.265 209.27C802.062 251.913 1028.85 271.965 615.15 228.716C201.446 185.468 103.037 345.314 103.037 345.314C103.037 345.314 31.9605 423.902 0 467Z" fill="#FBFBFB"/>
<path d="M0 467H1440V1243H1.47223e-05L0 467Z" fill="#FBFBFB"/>
<path d="M1440 1243H1.47223e-05V1659.54C24.7088 1674.94 51.0024 1687.13 78.3045 1695.59C173.586 1725.14 279.6 1708.69 364.052 1651.29C430.711 1606.02 612.5 1557.5 552.5 1522C552.5 1522 411.147 1438.04 824.85 1481.28C1238.55 1524.53 1336.96 1364.69 1336.96 1364.69C1336.96 1364.69 1408.04 1286.1 1440 1243Z" fill="#FBFBFB"/>
</svg>
