<svg width="16" height="16" viewBox="0 0 16 16" fill="none" xmlns="http://www.w3.org/2000/svg">
<path d="M11.5453 0.0513333C12.3573 0.0886667 12.9187 0.208 13.4373 0.409333C13.9291 0.593207 14.3743 0.883194 14.7413 1.25867C15.1168 1.62566 15.4068 2.07088 15.5907 2.56267C15.792 3.082 15.9113 3.64267 15.9487 4.45467C15.9947 5.46133 16 5.816 16 8C16 10.184 15.9947 10.5387 15.9487 11.5453C15.9113 12.3573 15.792 12.9187 15.5907 13.438C15.4067 13.9295 15.1167 14.3745 14.7413 14.7413C14.3744 15.1168 13.9291 15.4068 13.4373 15.5907C12.918 15.792 12.3573 15.9113 11.5453 15.9487C10.5387 15.9947 10.1847 16 8 16C5.81533 16 5.46067 15.9947 4.45467 15.9487C3.64267 15.9113 3.08133 15.792 2.562 15.5907C2.07044 15.4067 1.62545 15.1167 1.25867 14.7413C0.883194 14.3743 0.593207 13.9291 0.409333 13.4373C0.208 12.918 0.0886667 12.3573 0.0513333 11.5453C0.00533333 10.54 0 10.1853 0 8C0 5.81533 0.00533333 5.46 0.0513333 4.45467C0.0886667 3.64267 0.208 3.08133 0.409333 2.56267C0.593207 2.07088 0.883194 1.62566 1.25867 1.25867C1.62547 0.883276 2.07045 0.593294 2.562 0.409333C3.082 0.208 3.64267 0.0886667 4.45467 0.0513333C5.46 0.00533333 5.81467 0 8 0C10.1847 0 10.54 0.00533333 11.5453 0.0513333ZM8 1.778C5.84 1.778 5.50933 1.78267 4.53533 1.82733C3.91733 1.85533 3.54667 1.934 3.206 2.06667C2.916 2.18 2.73133 2.3 2.51533 2.51533C2.29933 2.73133 2.17933 2.916 2.06667 3.206C1.93467 3.546 1.85533 3.91733 1.82733 4.53533C1.78267 5.50933 1.778 5.84 1.778 8C1.778 10.16 1.78267 10.4907 1.82733 11.4647C1.85533 12.0827 1.934 12.4533 2.06667 12.7933C2.18 13.084 2.3 13.2687 2.51533 13.4847C2.73133 13.7007 2.916 13.8207 3.206 13.9333C3.546 14.0653 3.91733 14.1447 4.53533 14.1727C5.51 14.2173 5.84067 14.222 8 14.222C10.16 14.222 10.49 14.2173 11.4647 14.1727C12.0827 14.1447 12.4533 14.066 12.794 13.9333C13.084 13.82 13.2687 13.7 13.4847 13.4847C13.7007 13.2687 13.8207 13.084 13.9333 12.794C14.0653 12.454 14.1447 12.0827 14.1727 11.4647C14.2173 10.49 14.222 10.1593 14.222 8C14.222 5.84067 14.2173 5.51 14.1727 4.53533C14.1447 3.91733 14.066 3.54667 13.9333 3.20667C13.8391 2.94472 13.6855 2.70812 13.4847 2.51533C13.2919 2.31447 13.0553 2.16092 12.7933 2.06667C12.4533 1.93467 12.082 1.85533 11.464 1.82733C10.49 1.78267 10.1593 1.778 7.99933 1.778H8ZM8 12.148C6.89988 12.148 5.84482 11.711 5.06692 10.9331C4.28902 10.1552 3.852 9.10012 3.852 8C3.852 6.89988 4.28902 5.84482 5.06692 5.06692C5.84482 4.28902 6.89988 3.852 8 3.852C9.10012 3.852 10.1552 4.28902 10.9331 5.06692C11.711 5.84482 12.148 6.89988 12.148 8C12.148 9.10012 11.711 10.1552 10.9331 10.9331C10.1552 11.711 9.10012 12.148 8 12.148ZM8 10.3707C8.62874 10.3707 9.23173 10.1209 9.67632 9.67632C10.1209 9.23173 10.3707 8.62874 10.3707 8C10.3707 7.37126 10.1209 6.76827 9.67632 6.32369C9.23173 5.8791 8.62874 5.62933 8 5.62933C7.37126 5.62933 6.76827 5.8791 6.32369 6.32369C5.8791 6.76827 5.62933 7.37126 5.62933 8C5.62933 8.62874 5.8791 9.23173 6.32369 9.67632C6.76827 10.1209 7.37126 10.3707 8 10.3707ZM12.148 4.74067C11.9122 4.74067 11.6861 4.647 11.5194 4.48028C11.3527 4.31356 11.259 4.08744 11.259 3.85167C11.259 3.61589 11.3527 3.38977 11.5194 3.22305C11.6861 3.05633 11.9122 2.96267 12.148 2.96267C12.3838 2.96267 12.6099 3.05633 12.7766 3.22305C12.9433 3.38977 13.037 3.61589 13.037 3.85167C13.037 4.08744 12.9433 4.31356 12.7766 4.48028C12.6099 4.647 12.3838 4.74067 12.148 4.74067Z" fill="white"/>
</svg>
