<svg width="24" height="24" viewBox="0 0 24 24" fill="none" xmlns="http://www.w3.org/2000/svg">
<mask id="path-1-inside-1" fill="white">
<path fill-rule="evenodd" clip-rule="evenodd" d="M5.61273 5.61273C6.00506 5.22041 6.53717 5 7.092 5C7.64683 5 8.17894 5.22041 8.57127 5.61273C8.96359 6.00506 9.184 6.53717 9.184 7.092C9.184 7.64683 8.96359 8.17894 8.57127 8.57127C8.17894 8.96359 7.64683 9.184 7.092 9.184C6.53717 9.184 6.00506 8.96359 5.61273 8.57127C5.22041 8.17894 5 7.64683 5 7.092C5 6.53717 5.22041 6.00506 5.61273 5.61273ZM16.2278 19.4855H19.0418C19.162 19.4855 19.2772 19.4378 19.3622 19.3528C19.4471 19.2679 19.4948 19.1527 19.4948 19.0325C19.4527 18.0895 19.4713 17.1358 19.4893 16.2132C19.5618 12.4983 19.6246 9.28551 15.6698 9.28551C14.8555 9.27404 14.0615 9.53955 13.4178 10.0385C13.4178 9.45306 12.9979 9.47123 12.0719 9.51132C11.6028 9.53163 11.0039 9.55756 10.2638 9.51351C10.1437 9.51351 10.0285 9.56124 9.94352 9.64619C9.85857 9.73115 9.81084 9.84637 9.81084 9.96651C9.88317 13.3658 9.83372 15.5671 9.80186 16.9858C9.75354 19.1367 9.74564 19.4885 10.2638 19.4885H13.0778C13.5931 19.4885 13.5778 19.0303 13.5345 17.7405C13.5092 16.9852 13.4743 15.9449 13.5308 14.5445C13.5308 12.9785 13.9838 12.6715 14.7658 12.6715C15.6318 12.6715 15.7768 13.2715 15.7768 14.6205C15.8334 15.9972 15.7986 17.0208 15.7733 17.7643C15.7301 19.0324 15.7147 19.4855 16.2278 19.4855ZM5.68123 9.51531C5.16501 9.51531 5.17273 9.86255 5.22049 12.0107C5.25202 13.4288 5.301 15.6316 5.22823 19.0373C5.22823 19.1574 5.27596 19.2727 5.36091 19.3576C5.44587 19.4426 5.56109 19.4903 5.68123 19.4903H8.49723C9.01346 19.4903 9.00574 19.1431 8.95798 16.9949C8.92645 15.5768 8.87747 13.374 8.95023 9.96831C8.95023 9.45715 8.46487 9.47708 7.53297 9.51534H7.53296C7.03917 9.53561 6.42 9.56102 5.68123 9.51531Z"/>
</mask>
<path fill-rule="evenodd" clip-rule="evenodd" d="M5.61273 5.61273C6.00506 5.22041 6.53717 5 7.092 5C7.64683 5 8.17894 5.22041 8.57127 5.61273C8.96359 6.00506 9.184 6.53717 9.184 7.092C9.184 7.64683 8.96359 8.17894 8.57127 8.57127C8.17894 8.96359 7.64683 9.184 7.092 9.184C6.53717 9.184 6.00506 8.96359 5.61273 8.57127C5.22041 8.17894 5 7.64683 5 7.092C5 6.53717 5.22041 6.00506 5.61273 5.61273ZM16.2278 19.4855H19.0418C19.162 19.4855 19.2772 19.4378 19.3622 19.3528C19.4471 19.2679 19.4948 19.1527 19.4948 19.0325C19.4527 18.0895 19.4713 17.1358 19.4893 16.2132C19.5618 12.4983 19.6246 9.28551 15.6698 9.28551C14.8555 9.27404 14.0615 9.53955 13.4178 10.0385C13.4178 9.45306 12.9979 9.47123 12.0719 9.51132C11.6028 9.53163 11.0039 9.55756 10.2638 9.51351C10.1437 9.51351 10.0285 9.56124 9.94352 9.64619C9.85857 9.73115 9.81084 9.84637 9.81084 9.96651C9.88317 13.3658 9.83372 15.5671 9.80186 16.9858C9.75354 19.1367 9.74564 19.4885 10.2638 19.4885H13.0778C13.5931 19.4885 13.5778 19.0303 13.5345 17.7405C13.5092 16.9852 13.4743 15.9449 13.5308 14.5445C13.5308 12.9785 13.9838 12.6715 14.7658 12.6715C15.6318 12.6715 15.7768 13.2715 15.7768 14.6205C15.8334 15.9972 15.7986 17.0208 15.7733 17.7643C15.7301 19.0324 15.7147 19.4855 16.2278 19.4855ZM5.68123 9.51531C5.16501 9.51531 5.17273 9.86255 5.22049 12.0107C5.25202 13.4288 5.301 15.6316 5.22823 19.0373C5.22823 19.1574 5.27596 19.2727 5.36091 19.3576C5.44587 19.4426 5.56109 19.4903 5.68123 19.4903H8.49723C9.01346 19.4903 9.00574 19.1431 8.95798 16.9949C8.92645 15.5768 8.87747 13.374 8.95023 9.96831C8.95023 9.45715 8.46487 9.47708 7.53297 9.51534H7.53296C7.03917 9.53561 6.42 9.56102 5.68123 9.51531Z" fill="white"/>
<path d="M5.61273 5.61273L5.47131 5.47131L5.47131 5.47131L5.61273 5.61273ZM8.57127 5.61273L8.71269 5.47131L8.57127 5.61273ZM5.61273 8.57127L5.47131 8.71269L5.61273 8.57127ZM19.4948 19.0325H19.695L19.6946 19.0236L19.4948 19.0325ZM19.4893 16.2132L19.2893 16.2093L19.4893 16.2132ZM15.6698 9.28551L15.667 9.48551H15.6698V9.28551ZM13.4178 10.0385H13.2178V10.4466L13.5404 10.1966L13.4178 10.0385ZM12.0719 9.51132L12.0805 9.71114L12.0719 9.51132ZM10.2638 9.51351L10.2757 9.31351H10.2638V9.51351ZM9.94352 9.64619L9.8021 9.50477L9.8021 9.50477L9.94352 9.64619ZM9.81084 9.96651H9.6108L9.61089 9.97077L9.81084 9.96651ZM9.80186 16.9858L10.0018 16.9903L9.80186 16.9858ZM13.5345 17.7405L13.7344 17.7338L13.5345 17.7405ZM13.5308 14.5445L13.7308 14.5526V14.5445H13.5308ZM15.7768 14.6205H15.5767L15.577 14.6287L15.7768 14.6205ZM15.7733 17.7643L15.9731 17.7711V17.7711L15.7733 17.7643ZM5.22049 12.0107L5.42044 12.0063L5.22049 12.0107ZM5.68123 9.51531L5.69361 9.31531H5.68123V9.51531ZM5.22823 19.0373L5.02823 19.033V19.0373H5.22823ZM5.36091 19.3576L5.21949 19.499H5.21949L5.36091 19.3576ZM8.95798 16.9949L9.15793 16.9904L8.95798 16.9949ZM8.95023 9.96831L9.15023 9.97258V9.96831H8.95023ZM7.53297 9.51534V9.7155L7.54117 9.71517L7.53297 9.51534ZM7.53296 9.51534V9.31517L7.52476 9.3155L7.53296 9.51534ZM7.092 4.8C6.48412 4.8 5.90114 5.04148 5.47131 5.47131L5.75415 5.75415C6.10897 5.39934 6.59021 5.2 7.092 5.2V4.8ZM8.71269 5.47131C8.28286 5.04148 7.69988 4.8 7.092 4.8V5.2C7.59379 5.2 8.07503 5.39934 8.42985 5.75415L8.71269 5.47131ZM9.384 7.092C9.384 6.48412 9.14252 5.90114 8.71269 5.47131L8.42985 5.75415C8.78467 6.10897 8.984 6.59021 8.984 7.092H9.384ZM8.71269 8.71269C9.14252 8.28286 9.384 7.69988 9.384 7.092H8.984C8.984 7.59379 8.78467 8.07503 8.42985 8.42985L8.71269 8.71269ZM7.092 9.384C7.69988 9.384 8.28286 9.14252 8.71269 8.71269L8.42985 8.42985C8.07503 8.78466 7.59379 8.984 7.092 8.984V9.384ZM5.47131 8.71269C5.90114 9.14252 6.48412 9.384 7.092 9.384V8.984C6.59021 8.984 6.10897 8.78466 5.75415 8.42985L5.47131 8.71269ZM4.8 7.092C4.8 7.69988 5.04148 8.28286 5.47131 8.71269L5.75415 8.42985C5.39934 8.07503 5.2 7.59379 5.2 7.092H4.8ZM5.47131 5.47131C5.04148 5.90114 4.8 6.48412 4.8 7.092H5.2C5.2 6.59021 5.39934 6.10897 5.75415 5.75415L5.47131 5.47131ZM19.0418 19.2855H16.2278V19.6855H19.0418V19.2855ZM19.2207 19.2114C19.1733 19.2589 19.1089 19.2855 19.0418 19.2855V19.6855C19.215 19.6855 19.3811 19.6167 19.5036 19.4943L19.2207 19.2114ZM19.2948 19.0325C19.2948 19.0996 19.2682 19.164 19.2207 19.2114L19.5036 19.4943C19.626 19.3718 19.6948 19.2057 19.6948 19.0325H19.2948ZM19.2893 16.2093C19.2713 17.1308 19.2525 18.0909 19.295 19.0414L19.6946 19.0236C19.6528 18.088 19.6712 17.1408 19.6893 16.2171L19.2893 16.2093ZM15.6698 9.48551C16.6322 9.48551 17.3283 9.68096 17.8357 10.0129C18.3413 10.3437 18.6788 10.8225 18.9023 11.4258C19.3557 12.6498 19.3259 14.3375 19.2893 16.2093L19.6893 16.2171C19.7253 14.374 19.7631 12.5979 19.2773 11.2868C19.0312 10.6225 18.6474 10.0659 18.0547 9.6782C17.4639 9.29167 16.6848 9.08551 15.6698 9.08551V9.48551ZM13.5404 10.1966C14.1482 9.72539 14.898 9.47466 15.667 9.48549L15.6727 9.08553C14.813 9.07342 13.9748 9.35371 13.2953 9.88045L13.5404 10.1966ZM12.0805 9.71114C12.3138 9.70104 12.5077 9.69271 12.6707 9.69444C12.8353 9.69619 12.9529 9.70833 13.0367 9.73251C13.1162 9.75542 13.1515 9.78492 13.1718 9.81517C13.1949 9.84949 13.2178 9.91325 13.2178 10.0385H13.6178C13.6178 9.87105 13.5883 9.71754 13.5037 9.59185C13.4164 9.46211 13.2888 9.38888 13.1475 9.34816C13.0107 9.30871 12.8496 9.29632 12.675 9.29446C12.4988 9.29259 12.293 9.30156 12.0632 9.31151L12.0805 9.71114ZM10.252 9.71316C11.0031 9.75786 11.6109 9.73147 12.0805 9.71114L12.0632 9.31151C11.5947 9.33179 11.0046 9.35725 10.2757 9.31387L10.252 9.71316ZM10.0849 9.78762C10.1324 9.74017 10.1967 9.71351 10.2638 9.71351V9.31351C10.0907 9.31351 9.92456 9.38231 9.8021 9.50477L10.0849 9.78762ZM10.0108 9.96651C10.0108 9.89941 10.0375 9.83506 10.0849 9.78761L9.8021 9.50477C9.67964 9.62723 9.61084 9.79333 9.61084 9.96651H10.0108ZM10.0018 16.9903C10.0337 15.5704 10.0832 13.3658 10.0108 9.96226L9.61089 9.97077C9.68313 13.3658 9.63375 15.5638 9.60191 16.9813L10.0018 16.9903ZM10.2638 19.2885C10.152 19.2885 10.1185 19.2684 10.1027 19.2537C10.0814 19.2338 10.0443 19.1783 10.0179 19.0123C9.96481 18.6784 9.97738 18.0778 10.0018 16.9903L9.60191 16.9813C9.57802 18.0447 9.56248 18.6954 9.62289 19.0752C9.65324 19.266 9.70837 19.4329 9.82981 19.5462C9.95678 19.6646 10.1166 19.6885 10.2638 19.6885V19.2885ZM13.0778 19.2885H10.2638V19.6885H13.0778V19.2885ZM13.3346 17.7472C13.3567 18.4053 13.3689 18.812 13.3195 19.0589C13.2958 19.1776 13.2633 19.2261 13.2391 19.2479C13.2184 19.2665 13.178 19.2885 13.0778 19.2885V19.6885C13.2353 19.6885 13.3863 19.6532 13.5062 19.5456C13.6227 19.4411 13.6803 19.2945 13.7117 19.1374C13.7727 18.8327 13.7556 18.3654 13.7344 17.7338L13.3346 17.7472ZM13.331 14.5365C13.2742 15.9445 13.3093 16.9909 13.3346 17.7472L13.7344 17.7338C13.7091 16.9795 13.6745 15.9453 13.7307 14.5526L13.331 14.5365ZM14.7658 12.4715C14.3528 12.4715 13.9649 12.5522 13.697 12.8983C13.4426 13.2269 13.3308 13.7543 13.3308 14.5445H13.7308C13.7308 13.7687 13.8456 13.3597 14.0132 13.1432C14.1673 12.9443 14.3968 12.8715 14.7658 12.8715V12.4715ZM15.9768 14.6205C15.9768 13.9523 15.9433 13.4216 15.7782 13.0575C15.6919 12.8671 15.5666 12.7145 15.3884 12.6127C15.2132 12.5126 15.0041 12.4715 14.7658 12.4715V12.8715C14.9606 12.8715 15.0944 12.9054 15.19 12.96C15.2825 13.0129 15.3558 13.0946 15.4139 13.2227C15.5379 13.496 15.5768 13.9397 15.5768 14.6205H15.9768ZM15.9731 17.7711C15.9985 17.0266 16.0335 15.9968 15.9767 14.6123L15.577 14.6287C15.6332 15.9976 15.5986 17.015 15.5734 17.7575L15.9731 17.7711ZM16.2278 19.2855C16.1279 19.2855 16.0876 19.2637 16.0672 19.2455C16.0435 19.2244 16.0115 19.1772 15.988 19.0609C15.939 18.8182 15.9511 18.4185 15.9731 17.7711L15.5734 17.7575C15.5522 18.3782 15.5351 18.8391 15.5959 19.1401C15.6273 19.2955 15.685 19.4408 15.8013 19.5444C15.921 19.6507 16.0712 19.6855 16.2278 19.6855V19.2855ZM5.42044 12.0063C5.39629 10.9201 5.3839 10.3213 5.43687 9.98892C5.4632 9.8237 5.50006 9.76899 5.52091 9.74961C5.53636 9.73525 5.56954 9.71531 5.68123 9.71531V9.31531C5.53482 9.31531 5.37537 9.33877 5.24857 9.45665C5.12717 9.5695 5.07215 9.73587 5.04186 9.92597C4.98157 10.3043 4.99693 10.9532 5.02054 12.0152L5.42044 12.0063ZM5.42819 19.0416C5.50105 15.6316 5.452 13.4255 5.42044 12.0063L5.02054 12.0152C5.05204 13.432 5.10096 15.6315 5.02828 19.033L5.42819 19.0416ZM5.50234 19.2162C5.45489 19.1688 5.42823 19.1044 5.42823 19.0373H5.02823C5.02823 19.2105 5.09703 19.3766 5.21949 19.499L5.50234 19.2162ZM5.68123 19.2903C5.61413 19.2903 5.54978 19.2637 5.50234 19.2162L5.21949 19.499C5.34195 19.6215 5.50805 19.6903 5.68123 19.6903V19.2903ZM8.49723 19.2903H5.68123V19.6903H8.49723V19.2903ZM8.75803 16.9993C8.78218 18.0855 8.79456 18.6843 8.74159 19.0167C8.71526 19.1819 8.6784 19.2366 8.65755 19.256C8.64211 19.2704 8.60893 19.2903 8.49723 19.2903V19.6903C8.64365 19.6903 8.80309 19.6668 8.9299 19.549C9.05129 19.4361 9.10631 19.2697 9.13661 19.0796C9.19689 18.7014 9.18154 18.0524 9.15793 16.9904L8.75803 16.9993ZM8.75028 9.96403C8.67742 13.374 8.72647 15.5801 8.75803 16.9993L9.15793 16.9904C9.12642 15.5736 9.07751 13.3741 9.15019 9.97258L8.75028 9.96403ZM7.54117 9.71517C8.02054 9.69549 8.34145 9.68409 8.54668 9.73081C8.6434 9.75282 8.68707 9.7825 8.70859 9.80737C8.72792 9.82971 8.75023 9.87217 8.75023 9.96831H9.15023C9.15023 9.80886 9.11188 9.66214 9.01108 9.54564C8.91247 9.43169 8.77656 9.3729 8.63545 9.34078C8.36502 9.27923 7.97731 9.29693 7.52477 9.3155L7.54117 9.71517ZM7.53296 9.71534H7.53297V9.31534H7.53296V9.71534ZM5.66888 9.71492C6.41889 9.76134 7.04714 9.73545 7.54116 9.71517L7.52476 9.3155C7.03119 9.33577 6.42111 9.36071 5.69359 9.31569L5.66888 9.71492Z" fill="white" mask="url(#path-1-inside-1)"/>
</svg>
