<svg width="412" height="259" viewBox="0 0 412 259" fill="none" xmlns="http://www.w3.org/2000/svg">
<path d="M411.727 12.3878V245.868C411.727 252.715 406.085 258.256 399.139 258.256H12.7851C5.82779 258.256 0.197266 252.704 0.197266 245.868V12.3878C0.197266 5.54103 5.83894 0 12.7851 0H399.139C399.329 0 399.518 2.34419e-06 399.697 0.0109747C399.83 0.021947 399.964 0.0219433 400.109 0.0329157H400.12C400.221 0.043888 400.31 0.0438951 400.41 0.0658397C400.577 0.0768121 400.733 0.0987517 400.901 0.120696C401.012 0.131669 401.112 0.153614 401.213 0.164587C401.269 0.175559 401.313 0.175564 401.369 0.186536C401.469 0.197508 401.57 0.219448 401.681 0.241393C407.412 1.40446 411.727 6.40785 411.727 12.3878Z" fill="white"/>
<path d="M401.67 0.252135C401.57 0.23019 401.469 0.208242 401.358 0.19727C401.313 0.186298 401.257 0.175329 401.202 0.175329C401.09 0.153384 400.99 0.142411 400.89 0.131439C400.722 0.109494 400.566 0.0875459 400.399 0.0765736C400.299 0.0656012 400.209 0.0546302 400.109 0.0436579H400.098C399.964 0.0326855 399.83 0.0217169 399.685 0.0217169C399.496 0.0107445 399.317 0.0107422 399.128 0.0107422H12.7851C5.82779 0.0107422 0.197266 5.56275 0.197266 12.3985V228.608H411.738V12.3875C411.727 6.40762 407.412 1.40423 401.67 0.252135ZM395.404 207.004C395.404 208.869 393.876 210.372 391.981 210.372H19.9431C18.0477 210.372 16.5202 208.869 16.5202 207.004V19.4318C16.5202 17.5665 18.0477 16.0633 19.9431 16.0633H391.981C393.876 16.0633 395.404 17.5665 395.404 19.4318V207.004Z" fill="#C7C7CB"/>
<path d="M395.405 19.4315V207.004C395.405 208.869 393.878 210.372 391.982 210.372H19.9444C18.0489 210.372 16.5215 208.869 16.5215 207.004V19.4315C16.5215 17.5662 18.0489 16.063 19.9444 16.063H391.982C393.878 16.063 395.405 17.5662 395.405 19.4315Z" fill="#CED3E6"/>
<path d="M395.405 19.4315V37.1299H16.5215V19.4315C16.5215 17.5662 18.0489 16.063 19.9444 16.063H391.982C393.878 16.063 395.405 17.5662 395.405 19.4315Z" fill="white"/>
<path d="M366.058 26.3115C366.058 27.8916 364.754 29.1753 363.148 29.1753C361.543 29.1753 360.238 27.8916 360.238 26.3115C360.238 24.7315 361.543 23.4478 363.148 23.4478C364.754 23.4478 366.058 24.7315 366.058 26.3115Z" fill="#DF615C"/>
<path d="M372.58 29.1748C374.187 29.1748 375.49 27.8927 375.49 26.311C375.49 24.7294 374.187 23.4473 372.58 23.4473C370.973 23.4473 369.67 24.7294 369.67 26.311C369.67 27.8927 370.973 29.1748 372.58 29.1748Z" fill="#5392F3"/>
<path d="M348.308 29.3505H52.3207C50.8266 29.3505 49.6113 28.1435 49.6113 26.6842V25.971C49.6113 24.5007 50.8378 23.3047 52.3207 23.3047H348.308C349.802 23.3047 351.017 24.5117 351.017 25.971V26.6842C351.017 28.1435 349.802 29.3505 348.308 29.3505Z" fill="#D2DCEC"/>
<path d="M30.1963 26.3116V29.1206C30.1963 29.5156 29.7615 29.7679 29.4158 29.5704L26.9518 28.166L24.4877 26.7615C24.1421 26.564 24.1421 26.0703 24.4877 25.8728L26.9518 24.4683L29.4158 23.0638C29.7615 22.8663 30.1963 23.1187 30.1963 23.5137V26.3116Z" fill="#C7C7CB"/>
<path d="M34.5371 26.3116V29.1206C34.5371 29.5156 34.9719 29.7679 35.3176 29.5704L37.7816 28.166L40.2457 26.7615C40.5913 26.564 40.5913 26.0703 40.2457 25.8728L37.7816 24.4683L35.3176 23.0638C34.9719 22.8663 34.5371 23.1187 34.5371 23.5137V26.3116Z" fill="#C7C7CB"/>
</svg>
