<svg width="15" height="12" viewBox="0 0 15 12" fill="none" xmlns="http://www.w3.org/2000/svg">
<path fill-rule="evenodd" clip-rule="evenodd" d="M4.641 11.8871C5.76649 11.8972 6.88273 11.683 7.92452 11.257C8.96632 10.8309 9.91278 10.2016 10.7087 9.40573C11.5045 8.60986 12.1339 7.66339 12.5599 6.62159C12.9859 5.5798 13.2001 4.46357 13.19 3.33807V2.93107C13.759 2.498 14.2541 1.97556 14.656 1.38407C14.11 1.62168 13.5351 1.78611 12.946 1.87307C13.5505 1.49249 14.0086 0.918782 14.246 0.245074C13.6576 0.572748 13.0275 0.819317 12.373 0.978074C12.0978 0.66793 11.7595 0.420212 11.3808 0.251535C11.002 0.0828569 10.5916 -0.00288017 10.177 7.38168e-05C9.38194 0.0121984 8.62286 0.333426 8.0606 0.895678C7.49835 1.45793 7.17713 2.21702 7.165 3.01207C7.14637 3.23235 7.17395 3.45408 7.246 3.66307C6.0479 3.60527 4.87599 3.29209 3.80877 2.74452C2.74156 2.19694 1.80369 1.42761 1.058 0.488074C0.790112 0.959573 0.649831 1.49279 0.651001 2.03507C0.6615 2.52694 0.784048 3.00993 1.00932 3.44731C1.23459 3.88468 1.55665 4.26491 1.951 4.55907C1.46163 4.54923 0.983797 4.40871 0.567001 4.15207C0.566271 4.84944 0.810463 5.52492 1.25696 6.06061C1.70346 6.5963 2.3239 6.95818 3.01 7.08307C2.74492 7.1544 2.46994 7.18177 2.196 7.16407C2.00242 7.1773 1.80823 7.1497 1.626 7.08307C1.82505 7.68658 2.20568 8.21386 2.71582 8.5928C3.22597 8.97174 3.84072 9.18383 4.476 9.20007C3.40549 10.0351 2.08864 10.4922 0.730999 10.5001C0.484706 10.5143 0.237756 10.4879 0 10.4221C1.34732 11.4006 2.97603 11.9141 4.641 11.8871Z" fill="white"/>
</svg>
