<svg width="18" height="16" viewBox="0 0 18 16" fill="none" xmlns="http://www.w3.org/2000/svg">
<path d="M16.9626 1.67054H16.2165V0.964111C16.2165 0.818494 16.0984 0.700439 15.9528 0.700439H14.363C14.2174 0.700439 14.0993 0.818494 14.0993 0.964111V1.67054H5.38833V0.964111C5.38833 0.818494 5.27027 0.700439 5.12466 0.700439H3.53489C3.38927 0.700439 3.27122 0.818494 3.27122 0.964111V1.67054H2.65521C2.01139 1.67054 1.48767 2.1943 1.48767 2.83808V9.25378C1.48767 9.39939 1.60573 9.51745 1.75134 9.51745C1.89696 9.51745 2.01501 9.39939 2.01501 9.25378V2.83811C2.01501 2.48511 2.30221 2.19792 2.65521 2.19792H16.9626C17.2438 2.19792 17.4726 2.42668 17.4726 2.70786V11.4277C17.4726 11.7089 17.2438 11.9376 16.9626 11.9376H16.4007V10.9397C16.4007 10.7941 16.2827 10.676 16.137 10.676H13.3039C13.1583 10.676 13.0402 10.7941 13.0402 10.9397V11.9376H8.81416L9.81183 11.6648C10.3286 11.5239 10.7814 11.2304 11.1215 10.8163L12.816 8.75189C12.8498 8.71089 12.8713 8.65777 12.8753 8.60479L13.0248 6.63661C13.0395 6.44205 12.9215 6.25101 12.7421 6.17592C12.8219 6.1306 12.8759 6.04496 12.8759 5.94656C12.8759 5.80094 12.7579 5.68289 12.6123 5.68289H11.4569C11.3112 5.68289 11.1932 5.80094 11.1932 5.94656C11.1932 6.09218 11.3112 6.21023 11.4569 6.21023H12.3193C12.2904 6.22851 12.2631 6.25013 12.238 6.27524L11.2704 7.24284C11.0835 7.42966 10.9297 7.66429 10.7641 7.87024C10.6728 7.98372 10.6908 8.1497 10.8043 8.24096C10.9178 8.33223 11.0837 8.31423 11.175 8.20074L11.4783 7.82362L12.2568 8.60209L10.7139 10.4817C10.4437 10.8109 10.0837 11.0441 9.67289 11.1562L5.50927 12.3543C5.18681 12.4577 5.34748 12.9599 5.67025 12.8565L6.58607 12.5629V14.7722H6.21974C6.07412 14.7722 5.95607 14.8903 5.95607 15.0359C5.95607 15.1815 6.07412 15.2996 6.21974 15.2996H7.83158C7.9772 15.2996 8.09525 15.1815 8.09525 15.0359C8.09525 14.8903 7.9772 14.7722 7.83158 14.7722H7.11345V12.4649H16.9626C17.5346 12.4649 17.9999 11.9996 17.9999 11.4277V2.70783C17.9999 2.13587 17.5346 1.67054 16.9626 1.67054ZM14.6267 1.22778H15.6891V1.6704H14.6267V1.22778ZM3.79856 1.22778H4.86098V1.6704H3.79856V1.22778ZM12.4855 6.77347L12.393 7.99244L11.8298 7.42924L12.4855 6.77347ZM13.5676 11.9376V11.2033H15.8734V11.9376H13.5676Z" fill="#969696"/>
<path d="M4.96076 14.7726H1.57535V13.3725C1.57535 12.4831 1.78045 11.5957 2.17178 10.797C2.38581 10.3602 2.83823 10.078 3.32437 10.078H7.76742C8.69607 10.078 9.59941 9.74985 10.3111 9.15391C10.4228 9.06043 10.4375 8.89411 10.344 8.78249C10.2505 8.67079 10.0842 8.6561 9.9726 8.74958C9.35568 9.26617 8.57253 9.55068 7.76746 9.55068H5.85805C6.15386 9.24279 6.33625 8.8252 6.33625 8.36557V7.39733C7.01406 7.35261 7.55195 6.78726 7.55195 6.09834C7.55195 5.38013 6.96779 4.7958 6.24976 4.7958C5.8108 4.7855 5.39293 4.88766 5.08528 5.22239C4.93492 5.38537 4.72159 5.47885 4.50004 5.47885H3.77546C3.17025 5.47885 2.67789 5.97139 2.67789 6.57678V8.55292C2.67789 8.77728 2.73182 8.99747 2.86738 9.17961C2.92852 9.26174 3.00375 9.33321 3.08879 9.39023C3.18052 9.45175 3.31429 9.47404 3.38794 9.55068C2.68203 9.53884 2.01161 9.92552 1.69826 10.5649C1.27164 11.4357 1.04804 12.4029 1.04804 13.3725V14.7726H0.263672C0.118055 14.7726 0 14.8906 0 15.0363C0 15.1819 0.118055 15.2999 0.263672 15.2999H4.96076C5.10638 15.2999 5.22443 15.1819 5.22443 15.0363C5.22443 14.8906 5.10638 14.7726 4.96076 14.7726ZM4.54887 9.54836C4.40174 9.53933 4.25876 9.50252 4.12689 9.44159C4.18806 9.4102 4.24737 9.37149 4.30042 9.32772C4.51958 9.14688 4.64031 8.8792 4.64031 8.57404V7.40053H5.8089V8.36557C5.8089 9.01905 5.27709 9.55068 4.62343 9.55068C4.59545 9.55068 4.57186 9.54998 4.54887 9.54836ZM3.2052 8.55295V6.57682C3.2052 6.2622 3.46099 6.00623 3.77543 6.00623H4.5C4.8684 6.00623 5.22299 5.85088 5.4732 5.57961C5.68037 5.35419 5.96155 5.31246 6.24973 5.32315C6.67698 5.32315 7.02457 5.67091 7.02457 6.09834C7.02457 6.52559 6.67698 6.87318 6.24973 6.87318H4.3766C4.23098 6.87318 4.11293 6.99124 4.11293 7.13686V8.57404C4.11293 8.88163 3.84152 9.07474 3.54741 9.01863C3.31186 8.9737 3.2052 8.78196 3.2052 8.55295Z" fill="#969696"/>
<path d="M9.02557 4.72735H10.4616C10.6072 4.72735 10.7252 4.6093 10.7252 4.46368V3.49344C10.7252 3.34782 10.6072 3.22977 10.4616 3.22977H9.02557C8.87996 3.22977 8.7619 3.34782 8.7619 3.49344V4.46368C8.7619 4.6093 8.87996 4.72735 9.02557 4.72735ZM9.28925 3.75711H10.1979V4.20001H9.28925V3.75711Z" fill="#969696"/>
<path d="M8.7619 6.43173C8.7619 6.57735 8.87996 6.69541 9.02557 6.69541H10.4616C10.6072 6.69541 10.7252 6.57735 10.7252 6.43173V5.46146C10.7252 5.31584 10.6072 5.19778 10.4616 5.19778H9.02557C8.87996 5.19778 8.7619 5.31584 8.7619 5.46146V6.43173ZM9.28925 5.72513H10.1979V6.16806H9.28925V5.72513Z" fill="#969696"/>
<path d="M11.4572 4.24203H16.1374C16.283 4.24203 16.4011 4.12398 16.4011 3.97836C16.4011 3.83275 16.283 3.71469 16.1374 3.71469H11.4572C11.3116 3.71469 11.1935 3.83275 11.1935 3.97836C11.1935 4.12398 11.3116 4.24203 11.4572 4.24203Z" fill="#969696"/>
</svg>
