<svg width="14" height="14" viewBox="0 0 14 14" fill="none" xmlns="http://www.w3.org/2000/svg">
<path d="M7 0C4.28608 0 2.07812 2.20795 2.07812 4.92188C2.07812 5.83882 2.33212 6.73367 2.81282 7.51002L6.71984 13.8061C6.79468 13.9267 6.92653 14 7.06833 14C7.06943 14 7.07049 14 7.07159 14C7.21462 13.9989 7.34675 13.9233 7.42022 13.8006L11.2276 7.44352C11.6818 6.68358 11.9219 5.81161 11.9219 4.92188C11.9219 2.20795 9.71392 0 7 0ZM10.5237 7.02237L7.06213 12.802L3.51004 7.07782C3.10991 6.43163 2.89297 5.68613 2.89297 4.92188C2.89297 2.66027 4.7384 0.814844 7 0.814844C9.2616 0.814844 11.1043 2.66027 11.1043 4.92188C11.1043 5.66347 10.9017 6.38991 10.5237 7.02237Z" fill="#999999"/>
<path d="M7 2.46094C5.64304 2.46094 4.53906 3.56491 4.53906 4.92188C4.53906 6.27017 5.62507 7.38281 7 7.38281C8.39188 7.38281 9.46094 6.25535 9.46094 4.92188C9.46094 3.56491 8.35696 2.46094 7 2.46094ZM7 6.56797C6.09063 6.56797 5.35391 5.82879 5.35391 4.92188C5.35391 4.01723 6.09536 3.27578 7 3.27578C7.90464 3.27578 8.64336 4.01723 8.64336 4.92188C8.64336 5.81555 7.92378 6.56797 7 6.56797Z" fill="#999999"/>
</svg>
