<svg width="17" height="17" viewBox="0 0 17 17" fill="none" xmlns="http://www.w3.org/2000/svg">
<path d="M14.8417 10.0547C14.6205 10.0547 14.4413 10.234 14.4413 10.4552V14.0111C14.4405 14.6744 13.9031 15.2119 13.2398 15.2125H2.00245C1.33914 15.2119 0.801762 14.6744 0.800979 14.0111V3.57471C0.801762 2.91156 1.33914 2.37403 2.00245 2.37325H5.55836C5.77957 2.37325 5.95885 2.19396 5.95885 1.97276C5.95885 1.7517 5.77957 1.57227 5.55836 1.57227H2.00245C0.897034 1.57352 0.00125153 2.4693 0 3.57471V14.0112C0.00125153 15.1166 0.897034 16.0124 2.00245 16.0137H13.2398C14.3452 16.0124 15.241 15.1166 15.2422 14.0112V10.4552C15.2422 10.234 15.063 10.0547 14.8417 10.0547Z" fill="#969696"/>
<path d="M15.0837 0.541544C14.3799 -0.162286 13.2388 -0.162286 12.535 0.541544L5.38999 7.68653C5.34102 7.7355 5.30567 7.7962 5.28721 7.86284L4.34762 11.255C4.30898 11.394 4.34825 11.543 4.45025 11.6451C4.5524 11.7471 4.70134 11.7864 4.84041 11.7479L8.23253 10.8082C8.29917 10.7897 8.35987 10.7543 8.40884 10.7054L15.5537 3.56024C16.2564 2.85594 16.2564 1.71579 15.5537 1.01149L15.0837 0.541544ZM6.26262 7.94685L12.1102 2.09907L13.9961 3.98497L8.14837 9.83275L6.26262 7.94685ZM5.88591 8.70278L7.3926 10.2096L5.30848 10.787L5.88591 8.70278ZM14.9874 2.99392L14.5626 3.41866L12.6766 1.5326L13.1015 1.10786C13.4924 0.716915 14.1263 0.716915 14.5173 1.10786L14.9874 1.57781C15.3777 1.96923 15.3777 2.60266 14.9874 2.99392Z" fill="#969696"/>
</svg>
