<svg width="45" height="44" viewBox="0 0 45 44" fill="none" xmlns="http://www.w3.org/2000/svg">
<path d="M22.75 42.625C34.1409 42.625 43.375 33.3909 43.375 22C43.375 10.6091 34.1409 1.375 22.75 1.375C11.3591 1.375 2.125 10.6091 2.125 22C2.125 33.3909 11.3591 42.625 22.75 42.625Z" fill="#DD4B39"/>
<path d="M33.7499 20.608H22.8417V24.2441H29.4968C28.504 27.4052 25.5513 29.6982 22.0624 29.6982C17.7591 29.6982 14.2708 26.2097 14.2708 21.9066C14.2708 17.6033 17.7592 14.115 22.0624 14.115C24.2294 14.115 26.1894 14.9998 27.6017 16.4276L30.2411 13.5588C28.1332 11.4933 25.2468 10.2192 22.0624 10.2192C15.6077 10.2192 10.375 15.4518 10.375 21.9066C10.375 28.3613 15.6077 33.5941 22.0625 33.5941C27.7167 33.5941 32.667 29.5787 33.75 24.2441V20.608L33.7499 20.608Z" fill="white"/>
</svg>
