<svg width="440" height="355" viewBox="0 0 440 355" fill="none" xmlns="http://www.w3.org/2000/svg">
<path d="M59.6779 84.0408C64.147 84.0408 67.7698 80.1875 67.7698 75.4342C67.7698 70.6809 64.147 66.8276 59.6779 66.8276C55.2088 66.8276 51.5859 70.6809 51.5859 75.4342C51.5859 80.1875 55.2088 84.0408 59.6779 84.0408Z" fill="#78E5E1"/>
<path opacity="0.7" d="M379.816 289.587C383.447 289.587 386.391 286.64 386.391 283.005C386.391 279.37 383.447 276.424 379.816 276.424C376.185 276.424 373.241 279.37 373.241 283.005C373.241 286.64 376.185 289.587 379.816 289.587Z" fill="url(#paint0_linear)"/>
<path d="M31.3565 31.3887C33.5911 31.3887 35.4025 29.5754 35.4025 27.3386C35.4025 25.1017 33.5911 23.2884 31.3565 23.2884C29.122 23.2884 27.3105 25.1017 27.3105 27.3386C27.3105 29.5754 29.122 31.3887 31.3565 31.3887Z" fill="url(#paint1_linear)"/>
<path d="M408.644 293.637C410.878 293.637 412.69 291.823 412.69 289.587C412.69 287.35 410.878 285.536 408.644 285.536C406.409 285.536 404.598 287.35 404.598 289.587C404.598 291.823 406.409 293.637 408.644 293.637Z" fill="url(#paint2_linear)"/>
<path d="M95.0805 39.4891C98.9909 39.4891 102.161 36.3158 102.161 32.4013C102.161 28.4868 98.9909 25.3135 95.0805 25.3135C91.17 25.3135 88 28.4868 88 32.4013C88 36.3158 91.17 39.4891 95.0805 39.4891Z" fill="#FBD95E"/>
<path d="M402.575 260.223C405.927 260.223 408.644 257.503 408.644 254.148C408.644 250.792 405.927 248.072 402.575 248.072C399.223 248.072 396.506 250.792 396.506 254.148C396.506 257.503 399.223 260.223 402.575 260.223Z" fill="#A6C437"/>
<path opacity="0.6" d="M386.896 56.7023C389.41 56.7023 391.448 54.6623 391.448 52.1458C391.448 49.6294 389.41 47.5894 386.896 47.5894C384.383 47.5894 382.345 49.6294 382.345 52.1458C382.345 54.6623 384.383 56.7023 386.896 56.7023Z" fill="#5ED5FB"/>
<path opacity="0.6" d="M400.046 38.4765C401.443 38.4765 402.575 37.5699 402.575 36.4514C402.575 35.333 401.443 34.4264 400.046 34.4264C398.65 34.4264 397.518 35.333 397.518 36.4514C397.518 37.5699 398.65 38.4765 400.046 38.4765Z" fill="#FBD95E"/>
<path d="M62.7122 44.5518C64.3881 44.5518 65.7467 43.1918 65.7467 41.5142C65.7467 39.8366 64.3881 38.4766 62.7122 38.4766C61.0363 38.4766 59.6777 39.8366 59.6777 41.5142C59.6777 43.1918 61.0363 44.5518 62.7122 44.5518Z" fill="#1D7DEA"/>
<path d="M439.999 315.969H14.7363V316.182H439.999V315.969ZM397.388 329.658H369.219V329.871H397.388V329.658ZM296.448 331.972H289.056V332.184H296.448V331.972ZM368.368 321.763H352.047V321.975H368.368V321.763ZM96.089 323.192H59.3547V323.405H96.089V323.192ZM109.051 323.192H103.667V323.405H109.051V323.192ZM206.232 326.782H126.555V326.995H206.232V326.782ZM216.319 278.025H52.0916C49.4126 278.025 47.2353 275.847 47.2353 273.167V42.2457C47.2353 39.5654 49.4121 37.3875 52.0916 37.3875H216.328C219.007 37.3875 221.185 39.5654 221.185 42.2452V273.167C221.176 275.847 218.999 278.025 216.319 278.025ZM52.0916 37.6002C49.5316 37.6002 47.4479 39.6844 47.4479 42.2452V273.167C47.4479 275.728 49.5316 277.812 52.0916 277.812H216.328C218.888 277.812 220.972 275.728 220.972 273.167V42.2457C220.972 39.6844 218.888 37.6002 216.328 37.6002H52.0911H52.0916ZM400.288 278.025H236.052C233.373 278.025 231.195 275.847 231.195 273.167V42.2457C231.195 39.5654 233.373 37.3875 236.052 37.3875H400.288C402.967 37.3875 405.145 39.5654 405.145 42.2452V273.167C405.145 275.847 402.967 278.025 400.288 278.025ZM236.052 37.6002C233.492 37.6002 231.408 39.6844 231.408 42.2452V273.167C231.408 275.728 233.492 277.812 236.052 277.812H400.288C402.848 277.812 404.932 275.728 404.932 273.167V42.2457C404.932 39.6844 402.848 37.6002 400.288 37.6002H236.052Z" fill="#EBEBEB"/>
<path d="M66.4961 158.143H128.857V55.0052H66.4961V158.143Z" fill="#F5F5F5"/>
<path d="M66.492 54.9977H65.2588V158.135H66.492V54.9977Z" fill="#E0E0E0"/>
<path d="M72.8242 153.6H122.537V59.5397H72.8242V153.6Z" fill="#FAFAFA"/>
<path d="M143.574 194.344H205.935V91.2065H143.574V194.344Z" fill="#F5F5F5"/>
<path d="M143.575 91.2151H142.342V194.353H143.575V91.2151Z" fill="#E0E0E0"/>
<path d="M149.902 189.81H199.616V95.7495H149.902V189.81Z" fill="#FAFAFA"/>
<path d="M103.361 289.314C104.909 261.265 100.818 216.123 96.3867 200.512C95.7999 198.444 95.1283 196.037 94.1246 195.722C91.2241 194.803 89.923 199.346 90.2888 200.903C92.0235 208.45 93.5799 227.149 95.1367 259.691C95.9104 275.889 95.1193 286.983 97.212 289.323L103.361 289.314Z" fill="#E6E6E6"/>
<path d="M98.7528 226.741C102.819 213.597 154.862 200.095 139.876 214.235C136.142 217.757 118.758 227.039 111.622 236.797C106.076 244.377 100.471 257.122 98.9912 264.2C98.3449 249.329 96.0486 235.504 98.7528 226.741Z" fill="#E6E6E6"/>
<path d="M104.679 243.407C113.746 223.406 142.749 219.815 134.95 230.373C131.888 234.516 120.661 239.238 113.516 249.005C107.971 256.585 102.366 269.33 100.886 276.408C100.24 261.528 100.895 251.761 104.679 243.407Z" fill="#E6E6E6"/>
<path d="M93.2839 241.705C82.5502 215.97 43.7744 213.928 54.0912 225.882C58.0123 230.424 71.7144 238.762 82.0654 249.499C90.1112 257.836 99.1775 271.652 102.265 279.233C100.266 263.494 97.6128 252.085 93.2839 241.705Z" fill="#E6E6E6"/>
<path d="M97.7908 212.916C107.401 195.288 136.49 193.408 128.188 203.047C124.931 206.833 114.325 211.648 107.401 221.117C102.018 228.468 95.554 238.064 94.1161 244.921C93.4872 230.492 93.5293 220.734 97.7908 212.916Z" fill="#E6E6E6"/>
<path d="M89.4208 213.265C81.8345 202.315 47.8555 190.26 56.7097 200.189C65.9887 210.593 72.5803 208.798 81.3492 217.893C88.1624 224.954 95.8424 236.652 98.4534 243.075C96.7692 229.736 94.8471 221.092 89.4208 213.265ZM98.4282 200.648C103.233 191.987 123.119 185.615 117.905 192.259C114.29 196.871 109.952 200.035 105.36 206.314C101.788 211.189 96.9398 217.331 95.9871 221.883C95.5787 212.312 95.5619 205.812 98.4282 200.648Z" fill="#E6E6E6"/>
<path d="M90.5944 203.268C85.7465 197.9 59.8223 185.13 65.7418 193.331C68.0639 196.547 77.9555 204.4 84.6239 211.308C89.8034 216.676 95.485 221.041 97.4666 225.915C96.1739 215.783 95.4508 208.637 90.5944 203.268Z" fill="#E6E6E6"/>
<path d="M97.2384 222.138C90.1537 214.294 38.5016 204.187 51.7779 212.839C56.3284 215.8 76.29 220.896 86.0284 230.986C93.5895 238.83 96.3116 251.821 99.2116 258.951C106.849 246.436 104.332 229.991 97.2384 222.138Z" fill="#E6E6E6"/>
<path d="M88.3935 288.174L89.0567 311.647C89.1335 316.096 90.1625 315.969 91.4214 315.969H108.117C109.376 315.969 110.414 316.105 110.481 311.647L111.145 288.174C111.221 283.342 110.141 279.276 108.78 279.276H90.7577C89.3972 279.267 88.3167 283.342 88.3935 288.174Z" fill="#F5F5F5"/>
<path d="M87.3971 283.546H112.139C112.504 283.546 112.811 283.316 112.845 283.01L113.432 278.518C113.474 278.161 113.151 277.855 112.726 277.855H86.8018C86.3765 277.855 86.045 278.169 86.096 278.518L86.6829 283.01C86.725 283.316 87.0313 283.546 87.3971 283.546Z" fill="#F5F5F5"/>
<path d="M262.13 184.237H243.401V310.285H262.13V184.237ZM388.969 310.285H246.999V315.969H388.969V310.285Z" fill="#F0F0F0"/>
<path d="M262.129 310.283H392.566V184.234H262.129V310.283Z" fill="#F5F5F5"/>
<path d="M260.19 179.277H241.045V184.237H260.19V179.277Z" fill="#F0F0F0"/>
<path d="M260.187 184.233H394.918V179.273H260.187V184.233Z" fill="#FAFAFA"/>
<path d="M385.736 243.748H268.959V194.736H385.736V243.748ZM270.031 242.676H384.673V195.807H270.031V242.676ZM385.736 299.788H268.959V251.464H385.736V299.788ZM270.031 298.715H384.673V252.527H270.031V298.715Z" fill="#E0E0E0"/>
<path d="M350.082 204.374H304.605C303.499 204.374 302.589 203.464 302.589 202.358C302.589 201.252 303.499 200.342 304.605 200.342H350.082C351.188 200.342 352.098 201.252 352.098 202.358C352.098 203.464 351.196 204.374 350.082 204.374ZM350.082 261.095H304.605C303.499 261.095 302.589 260.184 302.589 259.078C302.589 257.972 303.499 257.062 304.605 257.062H350.082C351.188 257.062 352.098 257.972 352.098 259.078C352.098 260.184 351.196 261.095 350.082 261.095Z" fill="#E0E0E0"/>
<path d="M321.275 179.226H375.369L379.758 130.979H325.664L321.275 179.226Z" fill="#E6E6E6"/>
<path d="M319.438 179.226H373.532L377.92 130.979H323.827L319.438 179.226Z" fill="#F0F0F0"/>
<path d="M368.675 173.883L372.094 136.322H328.683L325.264 173.883H368.675Z" fill="white"/>
<path d="M308.747 143.996L305.541 179.226H331.465L334.672 143.996H308.747Z" fill="#E6E6E6"/>
<path d="M307.404 143.996L304.197 179.226H330.13L333.328 143.996H307.404Z" fill="#F0F0F0"/>
<path d="M310.95 147.893L308.449 175.33H326.582L329.074 147.893H310.95Z" fill="white"/>
<path d="M197.83 252.315H125.561C124.072 252.315 122.848 251.099 122.848 249.601V245.739C122.848 244.25 124.064 243.025 125.561 243.025H197.83C199.319 243.025 200.543 244.242 200.543 245.739V249.601C200.535 251.09 199.319 252.315 197.83 252.315ZM197.005 339.654H199.157L196.682 252.315H193.697L197.005 339.654Z" fill="#407BFF"/>
<path opacity="0.3" d="M197.005 339.654H199.157L196.682 252.315H193.696L197.005 339.654Z" fill="white"/>
<path d="M177.162 339.654H175.011L177.494 252.315H180.471L177.162 339.654Z" fill="#407BFF"/>
<path opacity="0.3" d="M177.162 339.654H175.011L177.494 252.315H180.471L177.162 339.654Z" fill="white"/>
<path d="M146.221 339.654H148.372L145.897 252.315H142.912L146.221 339.654Z" fill="#407BFF"/>
<path opacity="0.3" d="M146.221 339.654H148.372L145.897 252.315H142.912L146.221 339.654Z" fill="white"/>
<path d="M126.386 339.654H124.226L126.709 252.315H129.686L126.386 339.654Z" fill="#407BFF"/>
<path opacity="0.3" d="M126.386 339.654H124.226L126.709 252.315H129.686L126.386 339.654Z" fill="white"/>
<path d="M165.637 218.804C165.637 218.804 203.928 225.712 206.998 238.286C213.063 263.145 226.739 302.025 226.739 302.025L212.178 306.245C212.178 306.245 191.366 261.665 188.737 246.658C167.27 246.632 141.091 248.393 137.706 239.264C134.72 231.199 135.784 218.804 135.784 218.804H165.637Z" fill="#263238"/>
<path d="M219.977 317.458L227.649 314.863L221.347 296.946L213.675 299.541L219.977 317.458Z" fill="#FFC3BD"/>
<path d="M227.079 311.902L218.667 315.594C218.361 315.731 218.242 316.028 218.386 316.326L221.576 322.809C221.907 323.481 222.911 323.813 223.608 323.498C226.509 322.162 227.818 321.388 231.51 319.763C233.79 318.768 238.374 316.981 241.214 315.161C243.987 313.374 241.827 310.685 240.432 311.222C237.123 312.481 231.629 312.429 228.618 311.783C228.074 311.655 227.53 311.706 227.079 311.902Z" fill="#263238"/>
<path opacity="0.2" d="M213.675 299.55L221.347 296.946L224.944 307.198L217.145 309.427L213.675 299.55Z" fill="black"/>
<path d="M211.378 307.778L228.389 302.155L226.935 294.472L208.385 301.006L211.378 307.778Z" fill="#798744"/>
<path d="M186.637 320.18L195.109 320.827L190.133 299.915L182.231 301.702L186.637 320.18Z" fill="#FFC3BD"/>
<path d="M194.894 318.785L185.769 317.772C185.437 317.739 185.182 317.942 185.165 318.266L184.688 325.48C184.637 326.229 185.335 327.02 186.1 327.089C189.281 327.386 190.795 327.361 194.81 327.812C197.276 328.084 202.141 328.833 205.518 328.671C208.818 328.509 208.282 325.106 206.81 324.868C203.315 324.306 198.586 321.507 196.298 319.448C195.881 319.066 195.379 318.836 194.894 318.785Z" fill="#263238"/>
<path opacity="0.2" d="M182.231 301.71L190.133 299.923L192.642 310.49L184.656 311.893L182.231 301.71Z" fill="black"/>
<path d="M145.752 218.804C145.752 218.804 192.284 225.771 190.15 243.391C187.079 268.794 194.964 305.539 194.964 305.539L180.037 308.21C180.037 308.21 169.056 262.541 168.963 247.304C153.824 247.304 127.364 248.385 123.987 239.264C121.002 231.199 122.065 218.804 122.065 218.804H145.752Z" fill="#263238"/>
<path d="M178.974 310.694L196.486 306.882L195.84 299.098L176.703 303.65L178.974 310.694Z" fill="#798744"/>
<path d="M170.265 169.842C171.508 174.724 172.725 179.613 173.914 184.509C175.105 189.401 176.27 194.301 177.503 199.133L178.43 202.741L178.906 204.51L179.153 205.387L179.187 205.497L179.204 205.557C179.213 205.582 179.179 205.48 179.161 205.446C179.093 205.272 179.011 205.105 178.915 204.944C178.88 204.877 178.837 204.815 178.787 204.757C178.754 204.715 178.728 204.672 178.694 204.629C178.609 204.536 178.575 204.493 178.524 204.442C178.337 204.272 178.319 204.298 178.362 204.34C178.396 204.391 178.532 204.485 178.668 204.587C179.043 204.836 179.435 205.058 179.842 205.251C180.76 205.701 181.833 206.119 182.929 206.543C187.361 208.186 192.243 209.581 196.989 211.087L196.24 216.515C193.595 216.549 191.018 216.43 188.407 216.208C185.796 215.979 183.193 215.647 180.523 215.103C179.124 214.829 177.744 214.471 176.389 214.03C175.609 213.775 174.845 213.474 174.101 213.128C173.684 212.925 173.267 212.712 172.783 212.397C172.306 212.082 171.788 211.708 171.175 211.07C171.022 210.899 170.877 210.747 170.707 210.517L170.469 210.193C170.38 210.064 170.298 209.931 170.223 209.794C170.047 209.496 169.899 209.183 169.78 208.858L169.636 208.458L169.313 207.522L168.675 205.667C168.258 204.434 167.849 203.209 167.475 201.975C165.936 197.066 164.533 192.166 163.206 187.24C161.884 182.32 160.654 177.376 159.515 172.411L170.265 169.842Z" fill="#FFC3BD"/>
<path d="M158.305 163.955C162.975 158.748 170.383 162.389 173.496 174.036C175.009 179.702 174.533 182.672 174.533 182.672L158.424 187.631C154.963 179.983 151.952 171.05 158.305 163.955Z" fill="#798744"/>
<path opacity="0.2" d="M158.305 163.955C162.975 158.748 170.383 162.389 173.496 174.036C175.009 179.702 174.533 182.672 174.533 182.672L158.424 187.631C154.963 179.983 151.952 171.05 158.305 163.955Z" fill="black"/>
<path d="M205.383 208.858L203.937 208.415C203.062 208.147 202.141 208.063 201.232 208.169L198.128 208.534C196.044 209.062 194.292 210.406 193.39 212.167L192.336 214.218C192.863 218.021 200.552 216.795 200.552 216.795H207.781L207.543 211.64C207.492 210.355 206.624 209.241 205.383 208.858Z" fill="#FFC3BD"/>
<path d="M210.375 200.555C210.23 202.112 209.405 203.218 208.614 204.341C207.835 205.474 207.042 206.598 206.232 207.71C204.608 209.922 202.949 212.117 201.121 214.201C201.078 214.25 201.026 214.29 200.968 214.319C200.909 214.348 200.846 214.365 200.781 214.369C200.716 214.373 200.651 214.364 200.589 214.342C200.528 214.321 200.471 214.287 200.423 214.243C200.341 214.17 200.286 214.072 200.266 213.964C200.246 213.857 200.262 213.745 200.312 213.648C201.571 211.181 202.992 208.824 204.446 206.493C205.177 205.33 205.925 204.179 206.691 203.039C207.44 201.89 208.163 200.717 209.558 200.002C209.624 199.968 209.695 199.947 209.769 199.941C209.843 199.935 209.917 199.944 209.988 199.967C210.058 199.99 210.123 200.027 210.179 200.075C210.235 200.123 210.281 200.182 210.315 200.248C210.366 200.351 210.383 200.453 210.375 200.555Z" fill="#263238"/>
<path d="M159.386 158.91L150.311 156.324L138.633 155.771C134.993 155.601 131.701 157.889 130.561 161.352C128.333 168.141 126.292 177.967 124.795 186.449C123.119 195.961 122.252 205.813 122.064 218.812H165.637C166.522 194.6 169.371 182.782 171.063 174.215C172.092 168.983 169.456 163.717 164.642 161.428L159.386 158.91Z" fill="#738047"/>
<path d="M147.215 160.612C148.321 163.453 152.607 169.519 157.583 171.892C160.347 169.893 160.934 165.537 161.36 163.487L147.215 160.612Z" fill="white"/>
<path d="M161.351 163.495C161.589 162.33 161.606 161.139 160.976 160.143C160.271 159.037 160.449 157.77 161.155 156.468C161.614 155.617 162.882 153.805 163.239 153.635L157.532 146.957L152.879 141.571C152.48 146.616 152.088 152.861 148.116 156.783C146.713 158.161 146.424 158.587 147.215 160.62C148.321 163.461 152.276 167.426 157.251 169.8C160.015 167.8 160.934 165.537 161.351 163.495Z" fill="#FFC3BD"/>
<path opacity="0.2" d="M161.486 152.487L158.272 147.255C158.203 147.382 158.127 147.535 158.05 147.689C157.762 148.336 157.531 149.008 157.362 149.696C156.766 152.019 158.739 155.337 160.908 156.927C160.993 156.775 161.069 156.63 161.163 156.477C161.572 155.711 162.719 154.052 163.111 153.729C163.153 153.686 163.196 153.661 163.238 153.635L161.486 152.487Z" fill="black"/>
<path d="M172.749 139.98C173.497 144.804 180.395 132.392 176.542 129.669C171.83 126.334 171.337 130.801 172.749 139.98Z" fill="#263238"/>
<path d="M153.092 133.685C152.649 141.52 151.978 146.072 155.575 150.598C160.985 157.404 171.37 155.158 174.236 147.654C176.813 140.899 177.102 129.227 169.575 125.092C162.158 121.026 153.534 125.858 153.092 133.685Z" fill="#FFC3BD"/>
<path d="M168.529 128.98C168.529 128.98 173.538 133.897 177.111 131.864C180.674 129.831 181.414 124.565 177.111 119.954C175.044 117.733 171.914 115.563 165.773 115.734C166.224 116.321 167.508 116.797 167.508 116.797C167.508 116.797 159.726 115.496 154.291 117.733C154.291 117.733 154.997 118.822 156.026 119.315C150.744 118.916 145.615 120.983 149.256 125.977C144.468 126.436 143.395 132.571 145.947 136.611C148.499 140.652 148.95 143.681 152.36 145.519C152.394 140.015 153.628 138.722 153.628 138.722C156.085 137.684 158.918 132.434 158.356 129.789C163.502 131.864 169.107 132.562 168.529 128.98Z" fill="#263238"/>
<path d="M150.413 125.764C148.916 124.531 147.623 123.407 146.679 121.034C146.067 123.773 148.908 126.895 148.908 126.895L150.413 125.764Z" fill="#263238"/>
<path d="M149.181 137.964C149.223 139.887 150.091 141.657 151.162 142.788C152.787 144.49 154.998 143.043 155.381 140.857C155.73 138.892 154.896 135.88 152.863 134.995C150.873 134.127 149.13 135.769 149.181 137.964Z" fill="#FFC3BD"/>
<path d="M165.918 137.726C165.791 138.373 166.02 138.977 166.437 139.07C166.854 139.172 167.296 138.73 167.432 138.083C167.56 137.437 167.33 136.833 166.913 136.739C166.496 136.646 166.046 137.088 165.918 137.726ZM173.147 139.453C173.02 140.099 173.25 140.703 173.666 140.797C174.083 140.899 174.525 140.457 174.661 139.81C174.789 139.164 174.56 138.56 174.143 138.466C173.717 138.364 173.275 138.806 173.147 139.453Z" fill="#263238"/>
<path d="M170.74 139.402C170.74 139.402 171.106 142.899 172.033 144.813C170.843 145.408 169.346 144.506 169.346 144.506L170.74 139.402Z" fill="#ED847E"/>
<path d="M168.01 148.122C165.484 147.569 164.413 145.681 164.362 145.595C164.337 145.55 164.331 145.497 164.346 145.448C164.36 145.398 164.393 145.357 164.438 145.332C164.483 145.307 164.536 145.301 164.586 145.316C164.635 145.33 164.677 145.363 164.702 145.408C164.71 145.434 165.926 147.578 168.801 147.859C168.912 147.867 168.989 147.961 168.971 148.071C168.969 148.097 168.962 148.122 168.95 148.144C168.938 148.167 168.922 148.186 168.902 148.202C168.882 148.218 168.859 148.23 168.834 148.237C168.81 148.243 168.784 148.245 168.759 148.241C168.507 148.216 168.257 148.176 168.01 148.122ZM164.966 135.123C164.907 135.099 164.854 135.061 164.813 135.012C164.748 134.933 164.717 134.831 164.727 134.729C164.736 134.628 164.786 134.534 164.864 134.468C166.488 133.123 168.198 133.685 168.266 133.71C168.461 133.753 168.581 133.999 168.504 134.195C168.488 134.243 168.463 134.287 168.43 134.325C168.397 134.363 168.356 134.394 168.311 134.416C168.266 134.438 168.217 134.451 168.167 134.454C168.117 134.457 168.067 134.45 168.019 134.433C167.951 134.408 166.633 134.008 165.357 135.063C165.303 135.107 165.239 135.136 165.17 135.147C165.101 135.157 165.03 135.149 164.966 135.123ZM174.041 135.275C174.022 135.211 174.025 135.143 174.049 135.08C174.063 135.031 174.086 134.986 174.118 134.946C174.149 134.907 174.188 134.874 174.233 134.849C174.277 134.825 174.326 134.809 174.376 134.804C174.426 134.798 174.477 134.802 174.525 134.816C176.558 135.386 177.069 137.105 177.085 137.181C177.162 137.369 177.026 137.598 176.822 137.658C176.773 137.672 176.722 137.676 176.672 137.67C176.622 137.665 176.573 137.649 176.529 137.625C176.485 137.6 176.446 137.567 176.414 137.527C176.383 137.488 176.359 137.442 176.345 137.394C176.32 137.326 175.912 136.016 174.313 135.565C174.246 135.544 174.186 135.507 174.139 135.456C174.091 135.405 174.057 135.343 174.041 135.275Z" fill="#263238"/>
<path d="M140.454 167.494C138.812 172.156 137.188 177.022 135.725 181.779C134.985 184.169 134.322 186.56 133.709 188.916C133.122 191.273 132.621 193.63 132.357 195.782C132.331 196.046 132.289 196.318 132.272 196.564L132.246 196.939C132.238 197.058 132.229 197.237 132.221 197.177C132.195 197.16 132.153 197.22 132.204 197.399C132.28 197.747 132.637 198.453 133.233 199.151C134.424 200.58 136.235 202.078 138.166 203.422C142.053 206.153 146.561 208.586 150.966 210.857L149.214 216.047C146.509 215.469 143.992 214.737 141.423 213.852C138.872 212.967 136.354 211.938 133.845 210.679C131.353 209.369 128.853 207.939 126.437 205.651C125.246 204.485 124.013 203.107 123.103 201.057C122.612 199.937 122.324 198.738 122.253 197.518C122.227 197.135 122.236 196.998 122.227 196.795L122.218 196.199C122.21 195.799 122.236 195.433 122.244 195.051C122.363 192.047 122.805 189.316 123.316 186.619C123.826 183.931 124.464 181.328 125.144 178.741C126.527 173.605 128.176 168.545 130.086 163.58L140.454 167.494Z" fill="#FFC3BD"/>
<path d="M138.08 155.762C146.398 155.685 147.972 162.16 143.447 172.42C141.083 177.788 137.119 182.91 137.119 182.91L123.366 175.602C125.204 167.409 128.563 155.847 138.08 155.762Z" fill="#798744"/>
<path d="M161.027 210.032L157.983 208.364C157.484 208.093 156.912 207.989 156.35 208.066L152.692 208.569C150.234 208.824 148.448 210.704 147.104 212.338L145.54 214.243C145.463 218.089 155.176 217.187 155.176 217.187L163.673 217.076L163.409 213.724C163.351 212.959 163.103 212.22 162.687 211.575C162.271 210.93 161.701 210.4 161.027 210.032Z" fill="#FFC3BD"/>
<path d="M342.479 215.145H112.25V225.925H342.479V215.145Z" fill="#407BFF"/>
<path opacity="0.3" d="M186.926 215.145H112.25V225.925H186.926V215.145Z" fill="white"/>
<path d="M118.417 225.925H114.896V344.759H118.417V225.925Z" fill="#407BFF"/>
<path opacity="0.7" d="M118.417 225.925H114.896V344.759H118.417V225.925Z" fill="white"/>
<path d="M184.289 225.925H180.768V344.759H184.289V225.925Z" fill="#407BFF"/>
<path opacity="0.7" d="M184.289 225.925H180.768V344.759H184.289V225.925Z" fill="white"/>
<path d="M273.969 225.925H270.448V344.759H273.969V225.925Z" fill="#407BFF"/>
<path opacity="0.7" d="M273.969 225.925H270.448V344.759H273.969V225.925Z" fill="white"/>
<path d="M339.841 225.925H336.32V344.759H339.841V225.925Z" fill="#407BFF"/>
<path opacity="0.7" d="M339.841 225.925H336.32V344.759H339.841V225.925Z" fill="white"/>
<path d="M317.482 167.503H254.543C252.408 167.503 250.384 169.247 250.027 171.382L243.461 211.274C243.112 213.409 244.566 215.153 246.701 215.153H309.64C311.775 215.153 313.799 213.409 314.157 211.274L320.722 171.382C321.071 169.247 319.617 167.503 317.482 167.503Z" fill="#263238"/>
<path d="M277.558 212.542H218.301C217.91 212.542 217.596 212.865 217.596 213.248V214.431C217.596 214.822 217.919 215.137 218.301 215.137H277.558C277.949 215.137 278.264 214.813 278.264 214.431V213.248C278.264 212.865 277.949 212.542 277.558 212.542Z" fill="#263238"/>
<path opacity="0.2" d="M317.482 167.503H255.963C253.829 167.503 251.804 169.247 251.447 171.382L244.881 211.274C244.532 213.409 245.986 215.153 248.121 215.153H309.64C311.775 215.153 313.799 213.409 314.156 211.274L320.722 171.382C321.071 169.247 319.616 167.503 317.482 167.503Z" fill="white"/>
<path d="M154.615 212.542C154.615 212.542 174.883 215.562 184.664 211.572C189.24 213.775 205.545 214.864 211.209 212.542C209.457 214.575 205.34 215.145 205.34 215.145H162.584C158.476 215.145 155.338 213.35 154.615 212.542Z" fill="#407BFF"/>
<path opacity="0.7" d="M154.615 212.542C154.615 212.542 174.883 215.562 184.664 211.572C189.24 213.775 205.545 214.864 211.209 212.542C209.457 214.575 205.34 215.145 205.34 215.145H162.584C158.476 215.145 155.338 213.35 154.615 212.542Z" fill="white"/>
<path style="mix-blend-mode:multiply" opacity="0.32" d="M205.333 349.326C267.342 349.326 317.609 345.246 317.609 340.214C317.609 335.181 267.342 331.101 205.333 331.101C143.325 331.101 93.0576 335.181 93.0576 340.214C93.0576 345.246 143.325 349.326 205.333 349.326Z" fill="#E6E6E6"/>
<defs>
<linearGradient id="paint0_linear" x1="366.667" y1="283.005" x2="379.83" y2="296.154" gradientUnits="userSpaceOnUse">
<stop stop-color="#43E695"/>
<stop offset="1" stop-color="#3BB2B8"/>
</linearGradient>
<linearGradient id="paint1_linear" x1="39.4485" y1="27.3386" x2="31.3482" y2="19.2466" gradientUnits="userSpaceOnUse">
<stop stop-color="#FF7676"/>
<stop offset="1" stop-color="#F54EA2"/>
</linearGradient>
<linearGradient id="paint2_linear" x1="416.736" y1="289.587" x2="408.635" y2="281.495" gradientUnits="userSpaceOnUse">
<stop stop-color="#FF7676"/>
<stop offset="1" stop-color="#F54EA2"/>
</linearGradient>
</defs>
</svg>
