<svg width="18" height="18" viewBox="0 0 18 18" fill="none" xmlns="http://www.w3.org/2000/svg">
<path d="M17.5486 16.324L11.9976 10.7729C12.859 9.6593 13.3249 8.29772 13.3249 6.8656C13.3249 5.15133 12.6559 3.54394 11.4461 2.33198C10.2363 1.12002 8.6246 0.453125 6.91247 0.453125C5.20034 0.453125 3.58867 1.12216 2.37885 2.33198C1.1669 3.5418 0.5 5.15133 0.5 6.8656C0.5 8.57773 1.16903 10.1894 2.37885 11.3992C3.58867 12.6112 5.1982 13.2781 6.91247 13.2781C8.34459 13.2781 9.70403 12.8121 10.8177 11.9528L16.3687 17.5018C16.385 17.518 16.4043 17.531 16.4256 17.5398C16.4469 17.5486 16.4697 17.5531 16.4927 17.5531C16.5157 17.5531 16.5385 17.5486 16.5598 17.5398C16.5811 17.531 16.6004 17.518 16.6167 17.5018L17.5486 16.5719C17.5649 16.5557 17.5778 16.5363 17.5866 16.5151C17.5955 16.4938 17.6 16.471 17.6 16.448C17.6 16.4249 17.5955 16.4021 17.5866 16.3809C17.5778 16.3596 17.5649 16.3403 17.5486 16.324ZM10.2983 10.2514C9.39196 11.1555 8.19069 11.6536 6.91247 11.6536C5.63425 11.6536 4.43298 11.1555 3.52669 10.2514C2.62253 9.34509 2.12449 8.14382 2.12449 6.8656C2.12449 5.58738 2.62253 4.38397 3.52669 3.47981C4.43298 2.57565 5.63425 2.07762 6.91247 2.07762C8.19069 2.07762 9.3941 2.57352 10.2983 3.47981C11.2024 4.38611 11.7004 5.58738 11.7004 6.8656C11.7004 8.14382 11.2024 9.34722 10.2983 10.2514Z" fill="#333333"/>
</svg>
