<svg width="23" height="25" viewBox="0 0 23 25" fill="none" xmlns="http://www.w3.org/2000/svg">
<path d="M17.8288 12.2869H19.5029C19.8814 12.2869 20.1893 11.979 20.1893 11.6005V9.92642C20.1893 9.54795 19.8814 9.24003 19.5029 9.24003H17.8288C17.4504 9.24003 17.1424 9.54795 17.1424 9.92642V11.6005C17.1424 11.979 17.4504 12.2869 17.8288 12.2869ZM17.8456 9.94316H19.4862V11.5838H17.8456V9.94316ZM17.8288 16.74H19.5029C19.8814 16.74 20.1893 16.4321 20.1893 16.0536V14.3795C20.1893 14.0011 19.8814 13.6932 19.5029 13.6932H17.8288C17.4504 13.6932 17.1424 14.0011 17.1424 14.3795V16.0536C17.1424 16.4321 17.4504 16.74 17.8288 16.74ZM17.8456 14.3963H19.4862V16.0369H17.8456V14.3963ZM13.0515 12.2869H14.7256C15.1041 12.2869 15.412 11.979 15.412 11.6005V9.92642C15.412 9.54795 15.1041 9.24003 14.7256 9.24003H13.0515C12.673 9.24003 12.3651 9.54795 12.3651 9.92642V11.6005C12.3651 11.979 12.673 12.2869 13.0515 12.2869ZM13.0682 9.94316H14.7089V11.5838H13.0682V9.94316ZM5.17098 17.9375H3.49689C3.11842 17.9375 2.8105 18.2454 2.8105 18.6239V20.298C2.8105 20.6765 3.11842 20.9844 3.49689 20.9844H5.17098C5.54945 20.9844 5.85738 20.6765 5.85738 20.298V18.6239C5.85738 18.2454 5.54945 17.9375 5.17098 17.9375ZM5.15425 20.2812H3.51362V18.6406H5.15425V20.2812ZM5.17098 9.24003H3.49689C3.11842 9.24003 2.8105 9.54795 2.8105 9.92642V11.6005C2.8105 11.979 3.11842 12.2869 3.49689 12.2869H5.17098C5.54945 12.2869 5.85738 11.979 5.85738 11.6005V9.92642C5.85738 9.54791 5.54945 9.24003 5.17098 9.24003ZM5.15425 11.5838H3.51362V9.94316H5.15425V11.5838ZM13.0515 16.6356H14.7256C15.1041 16.6356 15.412 16.3277 15.412 15.9493V14.2752C15.412 13.8967 15.1041 13.5888 14.7256 13.5888H13.0515C12.673 13.5888 12.3651 13.8967 12.3651 14.2752V15.9493C12.3651 16.3277 12.673 16.6356 13.0515 16.6356ZM13.0682 14.2919H14.7089V15.9325H13.0682V14.2919ZM20.5385 2.10659H19.0354V1.56908C19.0354 0.979578 18.5558 0.5 17.9663 0.5H17.8049C17.2154 0.5 16.7358 0.979578 16.7358 1.56908V2.10659H6.26397V1.56908C6.26397 0.979578 5.78439 0.5 5.19489 0.5H5.03345C4.44395 0.5 3.96437 0.979578 3.96437 1.56908V2.10659H2.46133C1.49078 2.10659 0.701172 2.8962 0.701172 3.86675V22.7422C0.701172 23.7115 1.4897 24.5 2.45898 24.5H20.5409C21.5102 24.5 22.2987 23.7115 22.2987 22.7422V3.86675C22.2987 2.8962 21.5091 2.10659 20.5385 2.10659ZM17.439 1.56908C17.439 1.36728 17.6031 1.20312 17.8049 1.20312H17.9664C18.1682 1.20312 18.3323 1.36728 18.3323 1.56908V2.10659H17.439V1.56908ZM4.66755 1.56908C4.66755 1.36728 4.8317 1.20312 5.0335 1.20312H5.19494C5.39673 1.20312 5.56089 1.36728 5.56089 1.56908V2.10659H4.66759V1.56908H4.66755ZM21.5956 22.7422C21.5956 23.3238 21.1224 23.7969 20.5409 23.7969H2.45894C1.87736 23.7969 1.40425 23.3238 1.40425 22.7422V22.74C1.69881 22.9619 2.06495 23.0938 2.46133 23.0938H16.7152C17.1854 23.0938 17.6274 22.9107 17.9598 22.5782L21.5956 18.9425V22.7422ZM17.6011 21.9425C17.6287 21.8288 17.6437 21.7101 17.6437 21.588V19.2413C17.6437 18.7988 18.0037 18.4387 18.4463 18.4387H20.793C20.9151 18.4387 21.0337 18.4237 21.1475 18.3962L17.6011 21.9425ZM21.5956 7.13066H6.61553C6.42137 7.13066 6.26397 7.28806 6.26397 7.48222C6.26397 7.67637 6.42137 7.83378 6.61553 7.83378H21.5956V16.9331C21.5956 17.3756 21.2355 17.7357 20.793 17.7357H18.4463C17.616 17.7357 16.9405 18.4111 16.9405 19.2413V21.5881C16.9405 22.0306 16.5805 22.3907 16.138 22.3907H2.46133C1.87848 22.3907 1.4043 21.9165 1.4043 21.3336V7.83378H5.20928C5.40344 7.83378 5.56084 7.67637 5.56084 7.48222C5.56084 7.28806 5.40344 7.13066 5.20928 7.13066H1.40425V3.86675C1.40425 3.28391 1.87844 2.80972 2.46128 2.80972H3.96437V3.84341C3.96437 4.43291 4.44395 4.91248 5.03345 4.91248C5.22761 4.91248 5.38502 4.75508 5.38502 4.56092C5.38502 4.36677 5.22761 4.20936 5.03345 4.20936C4.83166 4.20936 4.6675 4.0452 4.6675 3.84341V2.80972H16.7358V3.84341C16.7358 4.43291 17.2154 4.91248 17.8049 4.91248C17.9991 4.91248 18.1565 4.75508 18.1565 4.56092C18.1565 4.36677 17.9991 4.20936 17.8049 4.20936C17.6031 4.20936 17.439 4.0452 17.439 3.84341V2.80972H20.5385C21.1214 2.80972 21.5956 3.28391 21.5956 3.86675V7.13066ZM5.17098 13.5888H3.49689C3.11842 13.5888 2.8105 13.8967 2.8105 14.2752V15.9493C2.8105 16.3277 3.11842 16.6356 3.49689 16.6356H5.17098C5.54945 16.6356 5.85738 16.3277 5.85738 15.9493V14.2752C5.85738 13.8966 5.54945 13.5888 5.17098 13.5888ZM5.15425 15.9325H3.51362V14.2919H5.15425V15.9325ZM8.2742 12.2869H9.9483C10.3268 12.2869 10.6347 11.979 10.6347 11.6005V9.92642C10.6347 9.54795 10.3268 9.24003 9.9483 9.24003H8.2742C7.89573 9.24003 7.58781 9.54795 7.58781 9.92642V11.6005C7.58781 11.979 7.89573 12.2869 8.2742 12.2869ZM8.29094 9.94316H9.93156V11.5838H8.29094V9.94316ZM13.0678 20.2812C13.0591 20.0948 12.9052 19.9464 12.7166 19.9464C12.5225 19.9464 12.3651 20.1038 12.3651 20.298C12.3651 20.6765 12.673 20.9844 13.0515 20.9844H14.7256C15.104 20.9844 15.412 20.6765 15.412 20.298V18.6239C15.412 18.2454 15.104 17.9375 14.7256 17.9375H13.0515C12.673 17.9375 12.3651 18.2454 12.3651 18.6239V19.1067C12.3651 19.3009 12.5225 19.4583 12.7166 19.4583C12.9108 19.4583 13.0682 19.3009 13.0682 19.1067V18.6406H14.7088V20.2812H13.0678ZM8.2742 16.6356H9.9483C10.3268 16.6356 10.6347 16.3277 10.6347 15.9493V14.2752C10.6347 13.8967 10.3268 13.5888 9.9483 13.5888H8.2742C7.89573 13.5888 7.58781 13.8967 7.58781 14.2752V15.9493C7.58781 16.3277 7.89573 16.6356 8.2742 16.6356ZM8.29094 14.2919H9.93156V15.9325H8.29094V14.2919ZM8.2742 20.9844H9.9483C10.3268 20.9844 10.6347 20.6765 10.6347 20.298V18.6239C10.6347 18.2454 10.3268 17.9375 9.9483 17.9375H8.2742C7.89573 17.9375 7.58781 18.2454 7.58781 18.6239V20.298C7.58781 20.6765 7.89573 20.9844 8.2742 20.9844ZM8.29094 18.6406H9.93156V20.2812H8.29094V18.6406Z" fill="#969696"/>
</svg>
