<svg width="295" height="246" viewBox="0 0 295 246" fill="none" xmlns="http://www.w3.org/2000/svg">
<path d="M155.965 244.835C163.421 243.877 170.335 242.425 176.367 240.552C186.083 237.623 195.658 234.185 208.124 232.948C217.39 232.028 226.894 231.915 236.441 232.111C264.181 232.71 289.205 225.638 294.13 215.597C298.977 205.748 283.577 195.524 247.958 187.974C185.52 174.738 84.6141 174.738 22.5776 187.974C16.1052 189.356 4.46198 191.489 1.1695 194.039C0.509807 194.561 0.125482 195.125 0.0368303 195.7C-0.877747 201.016 15.5143 204.521 18.7857 209.416C23.6259 216.723 -3.62851 221.135 3.00569 228.91C7.17757 233.728 21.8671 235.939 33.3626 237.861C53.1586 241.139 74.0493 243.441 95.4905 244.706C105.34 245.297 115.112 245.354 124.989 245.77C136.393 246.248 146.496 246.005 155.965 244.835Z" fill="#060606" fill-opacity="0.08"/>
<path opacity="0.3" d="M85.8534 76.2897L79.931 72.3138C79.0331 71.9551 78.0586 71.8314 77.0997 71.9543C76.1405 72.0802 75.23 72.4516 74.4564 73.0326L60.1121 81.4269C56.0808 83.7605 52.8127 88.9198 52.8127 92.9676V107.318C52.7698 108.453 53.1658 109.562 53.9187 110.414C54.2126 110.728 54.5736 110.972 54.9749 111.128L60.4494 114.882L65.5977 107.141L74.4454 102.042C78.4987 99.7085 81.7447 94.5492 81.7447 90.5013V82.4333L85.8534 76.2897Z" fill="black" fill-opacity="0.5"/>
<path d="M87.7018 94.4221C87.7018 98.4478 84.4171 103.624 80.4025 105.957L66.0249 114.252C61.9937 116.58 58.7256 115.198 58.7256 111.172V96.811C58.7256 92.7798 62.0103 87.6039 66.0249 85.2703L80.4025 76.9755C84.4503 74.642 87.7018 76.0299 87.7018 80.0722V94.4221Z" fill="white"/>
<path d="M81.0873 90.7937L80.0997 91.9199C80.1178 92.1738 80.1178 92.4285 80.0997 92.6823C80.1166 92.9593 80.1166 93.237 80.0997 93.514H81.0873C81.4929 93.514 81.634 93.9471 81.4047 94.4669L79.2355 99.3876C79.0063 99.8901 78.4948 100.323 78.1069 100.306H77.1016C76.6769 100.859 76.2175 101.386 75.726 101.883V102.992C75.6987 103.256 75.6096 103.511 75.4659 103.736C75.3222 103.962 75.1276 104.151 74.8972 104.291L70.5588 106.734C70.1003 106.994 69.7299 106.855 69.7299 106.388V105.279C69.2682 105.348 68.7984 105.348 68.3367 105.279L67.3491 106.422C66.9435 106.873 66.4497 107.029 66.2205 106.769L64.0513 104.308C63.822 104.048 64.0513 103.477 64.3511 103.009L65.3387 101.9C65.3387 101.657 65.3387 101.398 65.3387 101.138C65.3387 100.878 65.3387 100.601 65.3387 100.323H64.404C64.016 100.323 63.8749 99.8901 64.1042 99.3703L66.1675 94.4669C66.3968 93.9645 66.8906 93.5313 67.2962 93.5486H68.2838C68.7197 92.9994 69.1848 92.4731 69.677 91.9719V90.863C69.7044 90.5985 69.7934 90.3436 69.9372 90.1183C70.0809 89.893 70.2755 89.7031 70.5059 89.5635L74.9854 87.0685C75.4262 86.8086 75.8142 86.9473 75.8142 87.3977V88.524C76.27 88.4541 76.734 88.4541 77.1898 88.524L78.195 87.3804C78.583 86.9299 79.0945 86.774 79.3237 87.0339L81.4929 89.4942C81.634 89.7715 81.4929 90.3432 81.0873 90.7937ZM72.728 92.7343C71.5606 93.4262 70.5725 94.3746 69.8412 95.5049C69.1098 96.6353 68.6552 97.9169 68.5131 99.249C68.5131 101.536 70.4001 102.316 72.728 100.982C73.8976 100.294 74.8866 99.3464 75.6156 98.2149C76.3445 97.0835 76.7931 95.7997 76.9253 94.4669C76.9253 92.2318 74.9854 91.4521 72.728 92.7343Z" fill="#D0BCBC"/>
<path opacity="0.3" d="M222.745 176.351C222.745 180.392 219.521 181.794 215.417 179.459L155.769 145.015C151.65 142.68 148.348 137.433 148.348 133.456V4.80409C148.348 0.763718 151.572 -0.638443 155.676 1.69686L215.329 36.1402C219.389 38.4755 222.657 43.6591 222.657 47.6995L222.745 176.351Z" fill="black" fill-opacity="0.5"/>
<path d="M208.002 42.9288L148.349 8.50499C147.576 7.92834 146.667 7.56144 145.711 7.43994C144.753 7.31516 143.779 7.43795 142.882 7.79658L135.471 11.8174L140.996 15.1201V140.245C140.996 144.285 144.221 149.474 148.325 151.809L207.259 185.744L206.39 190.766L213.562 186.902L213.757 186.809C214.315 186.38 214.756 185.817 215.038 185.172C215.32 184.527 215.434 183.821 215.369 183.12V54.4881C215.335 50.4477 212.047 45.2641 208.002 42.9288Z" fill="white"/>
<path opacity="0.4" d="M208.002 42.9288L148.349 8.50499C147.576 7.92834 146.667 7.56144 145.711 7.43994C144.753 7.31516 143.779 7.43795 142.882 7.79658L135.471 11.8174L140.996 15.1201V140.245C140.996 144.285 144.221 149.474 148.325 151.809L207.259 185.744L206.39 190.766L213.562 186.902L213.757 186.809C214.315 186.38 214.756 185.817 215.038 185.172C215.32 184.527 215.434 183.821 215.369 183.12V54.4881C215.335 50.4477 212.047 45.2641 208.002 42.9288Z" fill="url(#paint0_linear)"/>
<path d="M208.002 42.9288L148.349 8.50499C147.576 7.92834 146.667 7.56144 145.711 7.43994C144.753 7.31516 143.779 7.43795 142.882 7.79658L135.471 11.8174L140.996 15.1201V140.245C140.996 144.285 144.221 149.474 148.325 151.809L207.259 185.744L206.39 190.766L213.562 186.902L213.757 186.809C214.315 186.38 214.756 185.817 215.038 185.172C215.32 184.527 215.434 183.821 215.369 183.12V54.4881C215.335 50.4477 212.047 45.2641 208.002 42.9288Z" fill="#C7C7C7"/>
<path d="M208.144 187.004C208.144 191.059 204.919 192.446 200.815 190.111L141.162 155.672C137.117 153.337 133.834 148.168 133.834 144.108V15.4612C133.834 11.4159 137.058 10.0333 141.162 12.3686L200.893 46.7924C204.944 49.1424 208.222 54.3113 208.222 58.3517L208.144 187.004Z" fill="white"/>
<path d="M204.617 172.552L137.274 133.712V23.7861L204.617 62.6265V172.552Z" fill="url(#paint1_linear)"/>
<path d="M178.125 167.359C178.125 171.336 174.901 172.689 170.934 170.403C166.967 168.117 163.747 163.045 163.747 159.132C163.747 155.219 166.972 153.816 170.934 156.103C174.896 158.389 178.125 163.397 178.125 167.359Z" fill="#F1F2F2"/>
<path d="M198.952 178.483C198.952 180.095 197.662 180.643 196.05 179.724L183.836 172.674V166.86L196.05 173.915C196.861 174.392 197.548 175.055 198.052 175.849C198.557 176.643 198.865 177.546 198.952 178.483Z" fill="#F1F2F2"/>
<path d="M142.948 146.17C142.948 144.558 144.258 144.03 145.85 144.949L158.064 151.999V157.813L145.85 150.758C145.043 150.272 144.36 149.604 143.856 148.808C143.352 148.011 143.041 147.108 142.948 146.17Z" fill="#F1F2F2"/>
<path d="M181.24 42.7383C181.24 43.6079 180.531 43.9108 179.627 43.4125L159.597 31.7897C159.148 31.5319 158.767 31.17 158.488 30.7344C158.207 30.2933 158.039 29.79 157.999 29.2688C157.999 28.3991 158.707 28.106 159.611 28.6092L179.681 40.1831C180.13 40.4374 180.51 40.796 180.79 41.2287C181.068 41.6605 181.235 42.1536 181.279 42.665L181.24 42.7383Z" fill="#F1F2F2"/>
<path d="M201.576 54.6195C201.576 56.6323 200.159 57.502 198.254 56.7936C197.966 56.687 197.686 56.5579 197.418 56.4076L196.9 56.0656C196.531 55.815 196.186 55.5304 195.87 55.2155C195.108 54.4507 194.482 53.5619 194.018 52.5871C193.558 51.7236 193.304 50.7655 193.275 49.7876C193.275 47.467 195.147 46.6658 197.482 48.0191C197.781 48.189 198.067 48.3818 198.337 48.5956C199.184 49.2782 199.903 50.1052 200.462 51.0383C200.71 51.4304 200.932 51.8384 201.127 52.2597C201.336 52.7819 201.499 53.3214 201.615 53.872C201.635 54.1289 201.635 54.387 201.615 54.6439L201.576 54.6195Z" fill="#666666"/>
<path d="M199.683 53.5255C199.683 54.6199 198.906 55.1329 197.876 54.698C197.386 54.5008 196.942 54.2048 196.571 53.8284C195.733 53.0691 195.21 52.0232 195.105 50.8971C195.105 49.6268 196.122 49.192 197.397 49.92C198.059 50.3159 198.613 50.8698 199.009 51.5322C199.416 52.1213 199.645 52.8149 199.669 53.5304L199.683 53.5255Z" fill="#CFCEF0"/>
<path opacity="0.1" d="M200.468 51.0141L195.94 55.1961C195.157 54.4442 194.509 53.5634 194.024 52.5921L198.343 48.5957C199.19 49.2784 199.91 50.1054 200.468 51.0385V51.0141Z" fill="white"/>
<path opacity="0.1" d="M201.519 53.7792L198.295 56.7936C198.005 56.687 197.724 56.558 197.454 56.4076L196.941 56.0656L201.099 52.25C201.28 52.7476 201.42 53.259 201.519 53.7792Z" fill="white"/>
<path opacity="0.3" d="M163.553 67.8695L135.368 51.4637C133.194 50.1886 131.269 50.1251 129.994 51.0093L123.984 54.356L128.523 56.9111V77.0104C128.597 78.7554 129.079 80.4587 129.93 81.9839C129.93 81.9839 129.93 86.2148 127.316 86.337C127.316 86.337 132.72 90.4897 135.915 88.2033L162.155 103.485V108.552L168.419 105.078C169.077 104.733 169.615 104.197 169.964 103.54C170.313 102.884 170.455 102.138 170.373 101.399V78.7497C170.392 74.9389 167.324 70.0631 163.553 67.8695Z" fill="black" fill-opacity="0.5"/>
<path d="M157.89 70.1066L128.87 53.3441C124.961 51.1065 121.825 52.4403 121.825 56.3194V79.4429C121.908 81.2204 122.41 82.9531 123.291 84.4995C123.291 84.4995 123.291 88.7988 120.584 88.9405C120.584 88.9405 126.158 93.1616 129.432 90.841L157.905 107.252C161.789 109.489 164.93 108.17 164.93 104.286V81.2164C164.935 77.3372 161.774 72.3979 157.89 70.1066Z" fill="white"/>
<path d="M82.0405 150.777C82.5045 152.379 82.7542 154.035 82.7831 155.702C82.573 157.021 80.6188 160.905 79.9592 160.788C79.2997 160.67 78.7818 159.615 78.9821 158.472C79.1824 157.329 80.0471 155.702 80.0471 155.252C80.0471 154.124 78.4349 152.419 79.158 150.42C79.881 148.422 82.0405 150.777 82.0405 150.777Z" fill="#F2CAAA"/>
<path d="M143.14 101.223C143.14 101.223 143.77 100.9 144.752 102.317C144.899 102.555 145.019 102.809 145.109 103.074C145.114 103.154 145.114 103.234 145.109 103.314C145.178 103.658 145.132 104.015 144.977 104.33C144.61 105.072 143.931 104.022 142.979 104.618C142.026 105.214 141.899 106.084 139.754 104.393C138.499 103.446 137.903 105.341 137.609 107.163C137.067 106.578 136.778 105.802 136.803 105.004C136.803 102.561 140.995 100.48 142.236 99.7912C143.477 99.1023 145.993 97.4363 146.633 98.1789C147.273 98.9215 143.14 101.223 143.14 101.223Z" fill="#DABDA0"/>
<path d="M108.75 204.426L108.569 204.299C107.722 203.897 106.788 203.71 105.851 203.754C104.913 203.799 104.001 204.073 103.195 204.553L97.5524 207.773H96.3896V209.385C96.405 209.749 96.5221 210.102 96.7276 210.404C96.9331 210.705 97.2188 210.943 97.5524 211.09C98.4287 211.527 99.3946 211.755 100.374 211.755C101.353 211.755 102.319 211.527 103.195 211.09L108.569 207.548C108.869 207.412 109.131 207.204 109.332 206.942C109.53 206.681 109.662 206.376 109.718 206.053L109.522 204.441L108.75 204.426Z" fill="#E1E2E3"/>
<path d="M108.574 206.053L103.2 209.561C102.326 210.004 101.359 210.235 100.379 210.235C99.3984 210.235 98.4318 210.004 97.5574 209.561C97.2032 209.348 96.9102 209.047 96.7068 208.688C96.5034 208.328 96.3965 207.922 96.3965 207.509C96.3965 207.096 96.5034 206.69 96.7068 206.33C96.9102 205.971 97.2032 205.67 97.5574 205.457C99.4738 204.362 101.468 203.409 103.523 202.604C104.344 202.274 105.229 202.13 106.112 202.184C106.996 202.237 107.857 202.486 108.633 202.912C108.911 203.072 109.142 203.303 109.302 203.581C109.46 203.861 109.54 204.178 109.532 204.499C109.525 204.822 109.43 205.138 109.258 205.411C109.086 205.685 108.843 205.907 108.555 206.053H108.574Z" fill="#252525"/>
<path d="M106.592 204.167C106.566 204.172 106.539 204.172 106.514 204.167C106.486 204.171 106.458 204.171 106.43 204.167C105.971 203.68 105.378 203.34 104.725 203.19C104.674 203.176 104.63 203.144 104.6 203.1C104.57 203.056 104.558 203.003 104.564 202.95C104.569 202.924 104.58 202.898 104.595 202.875C104.61 202.853 104.629 202.833 104.652 202.818C104.697 202.789 104.751 202.779 104.804 202.789C105.55 202.966 106.229 203.356 106.758 203.913C106.777 203.931 106.792 203.952 106.802 203.976C106.806 204 106.806 204.025 106.802 204.049C106.807 204.075 106.807 204.102 106.802 204.128C106.792 204.15 106.777 204.17 106.758 204.186L106.592 204.167Z" fill="#E1E2E3"/>
<path d="M104.754 204.7C104.726 204.707 104.698 204.707 104.67 204.7C104.645 204.685 104.625 204.663 104.612 204.636C104.139 204.157 103.542 203.818 102.887 203.659C102.861 203.654 102.837 203.644 102.815 203.628C102.793 203.613 102.774 203.594 102.76 203.571C102.741 203.523 102.741 203.469 102.76 203.42C102.765 203.394 102.775 203.37 102.79 203.349C102.806 203.328 102.825 203.31 102.848 203.298C102.894 203.271 102.948 203.262 103 203.273C103.746 203.454 104.425 203.846 104.954 204.402C104.973 204.42 104.988 204.441 104.998 204.465C105.007 204.489 105.012 204.514 105.012 204.539C105.012 204.564 105.007 204.589 104.998 204.612C104.988 204.636 104.973 204.658 104.954 204.676C104.933 204.696 104.908 204.711 104.881 204.719C104.852 204.727 104.821 204.727 104.793 204.719L104.754 204.7Z" fill="#E1E2E3"/>
<path d="M91.7775 199.912L91.6016 199.785C90.7536 199.383 89.8195 199.196 88.8821 199.241C87.9447 199.286 87.0329 199.562 86.2275 200.044L80.5847 203.263L79.4072 202.926V204.807C79.4217 205.172 79.5384 205.526 79.7439 205.828C79.9495 206.131 80.2357 206.369 80.57 206.517C81.4455 206.954 82.4105 207.181 83.389 207.181C84.3674 207.181 85.3325 206.954 86.208 206.517L91.5821 202.99C91.8823 202.854 92.1442 202.646 92.3446 202.384C92.5449 202.122 92.6774 201.815 92.7302 201.49L92.5348 199.882L91.7775 199.912Z" fill="#E1E2E3"/>
<path d="M91.6016 201.558L86.2275 205.071C85.3531 205.514 84.3865 205.745 83.4061 205.745C82.4257 205.745 81.4591 205.514 80.5847 205.071C80.2284 204.859 79.9329 204.559 79.7266 204.199C79.5204 203.84 79.4104 203.433 79.4072 203.019C79.4081 202.603 79.5171 202.195 79.7235 201.834C79.93 201.474 80.2268 201.173 80.5847 200.962C82.5002 199.867 84.4941 198.915 86.5499 198.114C87.3713 197.783 88.2554 197.638 89.1393 197.689C90.0223 197.751 90.8802 198.01 91.6505 198.446C91.9294 198.605 92.1605 198.836 92.3198 199.115C92.438 199.324 92.5129 199.555 92.54 199.794C92.5671 200.032 92.5458 200.274 92.4774 200.504C92.409 200.735 92.2949 200.949 92.1419 201.134C91.9889 201.319 91.8002 201.472 91.587 201.582L91.6016 201.558Z" fill="#252525"/>
<path d="M89.6189 199.677C89.5915 199.682 89.5633 199.682 89.5359 199.677C89.51 199.682 89.4835 199.682 89.4577 199.677C88.9959 199.191 88.4012 198.851 87.7477 198.7C87.6962 198.684 87.6514 198.652 87.6207 198.607C87.5925 198.562 87.5804 198.509 87.5865 198.456C87.5918 198.43 87.6023 198.405 87.6174 198.383C87.6325 198.361 87.6519 198.343 87.6745 198.329C87.7187 198.298 87.7729 198.286 87.8259 198.295C88.5731 198.473 89.2521 198.865 89.7801 199.423C89.7991 199.441 89.8141 199.463 89.8241 199.487C89.8338 199.51 89.8388 199.535 89.8388 199.56C89.8388 199.585 89.8338 199.61 89.8241 199.633C89.8141 199.657 89.7991 199.679 89.7801 199.697L89.6189 199.677Z" fill="#E1E2E3"/>
<path d="M87.7828 200.204C87.7596 200.214 87.7347 200.219 87.7095 200.219C87.6844 200.219 87.6595 200.214 87.6362 200.204C87.1641 199.724 86.5666 199.385 85.9116 199.227C85.8861 199.234 85.859 199.234 85.8335 199.227C85.8108 199.213 85.7923 199.193 85.7797 199.169C85.7726 199.143 85.7726 199.116 85.7797 199.091C85.7726 199.065 85.7726 199.038 85.7797 199.012C85.7767 198.986 85.78 198.959 85.7895 198.934L85.8432 198.88H85.9214C85.9473 198.876 85.9737 198.876 85.9996 198.88C86.7455 199.062 87.4237 199.454 87.9538 200.009C87.9696 200.028 87.9828 200.05 87.9929 200.073C88.0026 200.096 88.0075 200.121 88.0075 200.146C88.0075 200.171 88.0026 200.196 87.9929 200.219C87.9828 200.242 87.9696 200.263 87.9538 200.283C87.9249 200.29 87.8947 200.29 87.8659 200.283C87.8383 200.277 87.8129 200.263 87.7926 200.244L87.7828 200.204Z" fill="#E1E2E3"/>
<path fill-rule="evenodd" clip-rule="evenodd" d="M105.047 203.893C105.109 203.603 105.136 203.306 105.125 203.009V202.266C107.919 173.222 106.473 155.194 106.102 150.479C106.073 150.132 106.053 149.854 106.038 149.654V149.102C102.77 149.331 99.5314 149.869 96.3649 150.709C96.1891 149.361 95.5246 150.968 95.5246 150.968L81.2587 149.36H80.9363C80.9342 149.391 80.9342 149.422 80.9363 149.453H80.9021C80.9002 149.483 80.9002 149.512 80.9021 149.541C80.9149 149.594 80.9247 149.648 80.9314 149.702C80.9314 149.766 80.9314 149.849 80.9314 149.942C80.9314 150.035 80.9314 150.113 80.8972 150.225C80.8047 151.036 80.772 151.852 80.7995 152.668C80.7995 153.22 80.7995 153.841 80.7995 154.529C80.7995 156.156 80.7555 158.164 80.7995 160.495C80.8239 161.526 80.9509 162.845 81.1073 164.476C81.7571 171.316 82.9247 183.574 79.6416 202.872C79.6416 203.937 81.4786 204.533 82.5094 204.758C82.789 204.783 83.0702 204.783 83.3498 204.758H83.6575C85.3626 204.724 87.7663 204.079 88.1669 202.472C88.1669 202.472 88.5089 201.328 89.0073 199.252L89.105 198.832C89.1441 198.685 89.1783 198.539 89.2173 198.387C89.2564 198.236 89.3248 197.928 89.3932 197.689C90.5218 192.666 92.2659 179.993 93.3017 169.318C96.3063 177.448 96.746 195.212 96.9219 202.393C96.9561 203.771 96.9805 204.763 97.0098 205.222V205.608C96.9952 205.743 96.9952 205.879 97.0098 206.014C97.1175 206.337 97.3058 206.629 97.5571 206.859C97.8084 207.09 98.1144 207.253 98.4462 207.333C99.4867 207.664 100.585 207.774 101.671 207.655C102.121 207.634 102.566 207.554 102.995 207.416C103.284 207.323 103.563 207.204 103.83 207.059C104.315 206.811 104.695 206.396 104.9 205.892C104.9 205.794 104.9 205.706 104.9 205.623C104.886 205.428 104.886 205.232 104.9 205.037C104.991 204.669 105.029 204.291 105.012 203.913C105.032 203.937 105.042 203.918 105.047 203.893Z" fill="#353C4F"/>
<path d="M106.796 150.822C106.796 150.822 105.819 151.662 104.314 153.157C102.072 155.117 99.2284 156.253 96.253 156.376C93.5953 156.376 85.8076 155.8 83.5505 154.422C82.4002 153.756 81.3925 152.869 80.585 151.813V149.371C80.585 149.273 80.7462 149.678 80.8243 149.859L80.6827 149.371L106.224 148.613L106.796 150.822Z" fill="#ECEDED"/>
<path d="M144.512 106.109C144.023 106.598 142.303 107.086 142.445 106.368C142.587 105.65 140.002 108.205 140.002 108.205C139.545 108.245 139.085 108.171 138.664 107.99C138.244 107.806 137.877 107.519 137.599 107.155C137.887 105.337 138.488 103.437 139.743 104.389C141.952 105.997 142.064 105.176 142.968 104.614C143.872 104.052 144.58 105.063 144.966 104.321C145.119 104.007 145.165 103.652 145.098 103.31C145.247 103.787 145.272 104.296 145.169 104.786C145.067 105.276 144.84 105.731 144.512 106.109Z" fill="#DABDA0"/>
<path d="M137.918 111.024C129.743 119.573 118.976 125.187 107.285 126.995C107.515 136.927 106.611 147.924 106.626 147.924C106.434 148.53 106.158 149.106 105.805 149.634C104.481 151.725 101.159 154.979 93.4543 154.916C85.5055 154.916 82.2664 152.014 80.9424 149.874C80.8522 149.716 80.7722 149.553 80.703 149.385V151.901C80.4061 151.975 80.096 151.975 79.7991 151.901C79.3829 151.791 79.0214 151.532 78.7829 151.173C78.7048 150.758 78.6559 150.03 78.5924 149.082C78.0599 141.241 77.542 117.766 77.542 117.766C77.542 110.296 80.1558 107.184 83.4047 105.303C84.8264 104.51 86.4811 104.242 88.0802 104.545V105.156C88.4662 105.029 88.8033 104.946 89.1257 104.868C89.5453 104.775 89.9718 104.716 90.4008 104.692L99.2682 107.911C99.2682 107.911 99.9277 107.301 104.554 111.937C104.833 112.227 105.067 112.556 105.248 112.914C124.722 116.539 135.236 105.097 136.716 104.56C137.199 104.434 137.707 104.449 138.182 104.604C138.656 104.758 139.077 105.044 139.393 105.43C141.401 107.799 139.354 109.573 137.918 111.024Z" fill="#9BC3F1"/>
<path d="M99.2579 107.14C99.2579 107.14 101.276 107.526 100.338 108.752C99.5082 109.739 98.4412 110.5 97.2369 110.961C96.0327 111.423 94.7308 111.57 93.4538 111.39C89.8434 110.99 87.0049 109.587 87.0049 107.35C87.0143 106.897 87.1333 106.454 87.3517 106.057C87.5702 105.661 87.8815 105.323 88.2591 105.073C88.6367 104.823 89.0692 104.669 89.5195 104.623C89.9699 104.577 90.4247 104.641 90.8449 104.809C92.4572 105.176 99.2579 107.14 99.2579 107.14Z" fill="#ECEDED"/>
<path d="M103.95 99.2979C103.803 99.6422 103.619 99.9698 103.403 100.275C100.96 103.495 96.2598 103.578 93.3578 102.786C92.1511 102.464 91.9556 99.1465 92.1364 95.365C92.3758 89.9909 93.3578 83.6738 93.3578 83.6738L105.332 84.4848C105.332 84.4848 105.787 95.1305 103.95 99.2979Z" fill="#DABDA0"/>
<path d="M99.2586 102.84C100.588 102.533 101.811 101.879 102.806 100.945C103.291 100.493 103.676 99.9433 103.934 99.3323C98.7261 102.264 94.842 96.8895 94.842 96.8895L92.1501 95.4238V99.5131C92.1463 99.9039 92.1956 100.293 92.2966 100.671L88.1048 99.3372V106.773C88.1048 107.115 87.9729 108.273 89.7171 109.318C91.2355 110.192 93.0049 110.526 94.7374 110.266C96.4699 110.006 98.0634 109.168 99.2586 107.887V102.84Z" fill="#DABDA0"/>
<path fill-rule="evenodd" clip-rule="evenodd" d="M92.4578 83.923C91.8076 84.2033 91.249 84.6603 90.8455 85.2421C90.7072 85.4249 90.6045 85.6321 90.5426 85.8528C90.6235 85.6224 90.7406 85.4064 90.8895 85.2128C91.2895 84.6522 91.8305 84.2072 92.4578 83.923ZM89.8049 97.1141L89.7609 97.1385C89.5884 97.3858 89.361 97.5898 89.0965 97.7345C89.3819 97.5941 89.626 97.382 89.8049 97.1189V97.1141ZM81.602 92.9173C81.5483 92.7805 81.5043 92.6389 81.4603 92.4923C80.2976 86.825 81.0255 80.591 82.799 78.1482C86.2775 73.375 94.583 72.6031 100.079 74.0834C102.251 74.5996 104.264 75.6395 105.942 77.1125C106.165 77.8193 106.184 78.5746 105.998 79.2918C105.811 80.009 105.426 80.6591 104.887 81.1675C105.444 80.6646 105.842 80.009 106.031 79.282C106.219 78.5551 106.19 77.7888 105.947 77.0783C106.48 77.5507 106.914 78.1244 107.224 78.766C107.533 79.4076 107.712 80.1044 107.75 80.8158C107.691 82.4378 105.869 84.05 104.291 85.4522C103.802 85.8968 103.314 86.3267 102.913 86.7224C101.589 88.0464 101.838 89.8345 102.024 91.1927C102.17 92.2627 102.283 93.0639 101.535 93.147C100.788 93.23 100.524 92.4483 100.143 91.5982C99.5761 90.328 98.9458 88.9258 97.1479 90.1326C95.5357 91.2465 94.4755 98.438 94.4755 100.26C94.4755 102.083 88.8327 104.257 86.3166 101.726C83.9509 99.2895 82.3173 96.2373 81.602 92.9173Z" fill="#3F3F3F"/>
<path d="M133.922 114.693C126.35 121.175 117.13 125.433 107.286 126.995C107.51 136.927 106.606 147.924 106.621 147.924C106.43 148.53 106.153 149.106 105.8 149.634C104.481 151.725 101.159 154.979 93.4496 154.916C85.5056 154.916 82.2616 152.014 80.9425 149.874C80.8508 149.716 80.7692 149.553 80.6982 149.385C80.6982 149.385 86.1799 153.782 91.9839 152.61C97.788 151.437 100.045 136.829 99.2048 131.436C98.3645 126.042 101.257 121.386 109.914 121.933C118.571 122.48 130.131 115.655 135.705 111.229C139.882 107.897 139.799 106.202 139.496 105.576C139.826 105.941 140.051 106.388 140.146 106.871C140.249 107.359 140.213 107.867 140.043 108.337C139.452 110.017 137.161 111.971 133.922 114.693Z" fill="#9BC3F1"/>
<path d="M80.9623 149.844C80.8792 149.678 80.7815 149.522 80.718 149.356C80.6545 149.19 80.718 151.256 80.718 151.799C80.4224 151.882 80.1097 151.882 79.8142 151.799C79.6062 151.75 79.4101 151.661 79.2377 151.535C79.0616 151.413 78.9134 151.254 78.8028 151.071C78.7013 150.378 78.6361 149.68 78.6074 148.98C80.7668 148.98 79.1399 130.126 79.4624 123.037C79.581 120.639 79.8388 118.249 80.2343 115.88C79.7458 121.899 80.7668 148.999 80.7668 148.999L80.8646 149.322L80.9623 149.844Z" fill="#E2E6EB"/>
<path d="M80.718 149.375C80.8494 149.854 80.9312 150.345 80.9623 150.841C80.9623 151.29 80.6692 151.564 80.6692 151.818C80.4398 151.518 80.2509 151.19 80.1073 150.841C79.8142 150.02 80.718 149.375 80.718 149.375Z" fill="#ECEDED"/>
<path opacity="0.5" d="M246.973 141.465L233.89 133.905C233.529 133.63 233.096 133.466 232.643 133.434C232.19 133.403 231.738 133.504 231.343 133.726L226.895 136.328L230.695 139V148.365C230.797 149.396 231.14 150.389 231.694 151.264C232.249 152.139 233.001 152.873 233.89 153.405L244.907 159.74L244.783 163.982L249.465 161.227C249.725 161.052 249.933 160.81 250.066 160.526C250.2 160.243 250.254 159.928 250.223 159.616V146.533C250.119 145.492 249.77 144.49 249.205 143.609C248.64 142.729 247.875 141.994 246.973 141.465Z" fill="url(#paint2_linear)"/>
<path d="M245.663 162.26C245.663 164.023 244.286 164.629 242.468 163.638L229.427 156.049C228.54 155.516 227.79 154.783 227.238 153.907C226.685 153.032 226.346 152.039 226.246 151.009V137.926C226.246 136.15 227.623 135.557 229.427 136.549L242.523 144.096C243.412 144.628 244.164 145.361 244.719 146.237C245.274 147.112 245.616 148.105 245.718 149.136L245.663 162.26Z" fill="white"/>
<path d="M240.307 147.235C239.407 145.593 238.092 144.216 236.493 143.241C235.945 142.853 235.305 142.613 234.637 142.545C233.968 142.477 233.293 142.585 232.678 142.856C230.929 143.847 230.64 146.643 231.728 149.618L229.084 151.133C228.506 151.463 228.506 152.51 229.084 153.543C229.329 153.997 229.69 154.377 230.131 154.644C230.283 154.753 230.46 154.821 230.646 154.84C230.832 154.86 231.02 154.83 231.191 154.754L233.863 153.281C234.61 154.22 235.519 155.018 236.548 155.636C237.092 156.024 237.728 156.262 238.393 156.325C239.058 156.388 239.728 156.274 240.335 155.994C242.401 154.727 242.414 150.843 240.307 147.235ZM238.93 153.694C238.523 153.878 238.073 153.951 237.628 153.905C237.183 153.859 236.758 153.696 236.397 153.432C235.343 152.788 234.475 151.882 233.876 150.802C232.499 148.475 232.499 145.872 233.876 145.087C234.283 144.91 234.729 144.84 235.171 144.886C235.612 144.932 236.035 145.091 236.397 145.349C237.445 145.988 238.309 146.89 238.903 147.965C240.445 150.416 240.445 152.909 238.985 153.694H238.93Z" fill="#D0BCBC"/>
<defs>
<linearGradient id="paint0_linear" x1="137.039" y1="42.4647" x2="208.872" y2="138.369" gradientUnits="userSpaceOnUse">
<stop stop-color="#E5E1F8"/>
<stop offset="1" stop-color="#471BA6"/>
</linearGradient>
<linearGradient id="paint1_linear" x1="140.333" y1="136.184" x2="204.734" y2="56.2362" gradientUnits="userSpaceOnUse">
<stop offset="0.03" stop-color="#F1F5F9"/>
<stop offset="1" stop-color="#67A4EA"/>
</linearGradient>
<linearGradient id="paint2_linear" x1="3007.68" y1="3700.48" x2="3402.07" y2="3700.48" gradientUnits="userSpaceOnUse">
<stop offset="0.24" stop-color="#C4BEFA"/>
<stop offset="1" stop-color="#5A5CDB"/>
</linearGradient>
</defs>
</svg>
