<svg width="15" height="14" viewBox="0 0 15 14" fill="none" xmlns="http://www.w3.org/2000/svg">
<path d="M7.00195 0C3.14211 0 0.00195312 3.14016 0.00195312 7C0.00195312 10.8598 3.14211 14 7.00195 14C10.8618 14 14.002 10.8598 14.002 7C14.002 3.14016 10.8618 0 7.00195 0ZM7.00195 12.9756C3.707 12.9756 1.02633 10.2949 1.02633 7C1.02633 3.70505 3.707 1.02438 7.00195 1.02438C10.2969 1.02438 12.9776 3.70505 12.9776 7C12.9776 10.2949 10.2969 12.9756 7.00195 12.9756Z" fill="#999999"/>
<path d="M9.22749 3.76229C8.99455 3.60184 8.67558 3.6606 8.51516 3.89363C8.3547 4.1266 8.41349 4.44553 8.64649 4.60599C9.43601 5.14974 9.90736 6.04405 9.90736 6.99829C9.90736 8.59869 8.60534 9.90072 7.00493 9.90072C5.40453 9.90072 4.1025 8.59867 4.1025 6.99826C4.1025 6.07175 4.55253 5.19251 5.30631 4.64629C5.53537 4.48031 5.5865 4.16004 5.42053 3.93101C5.2545 3.70195 4.93425 3.65076 4.70524 3.81679C3.68639 4.55507 3.07812 5.74439 3.07812 6.99826C3.07812 9.16351 4.83969 10.9251 7.00496 10.9251C9.17023 10.9251 10.9318 9.16351 10.9318 6.99826C10.9318 5.70695 10.2947 4.49721 9.22749 3.76229Z" fill="#999999"/>
<path d="M7.00244 5.8394C7.28531 5.8394 7.51464 5.61007 7.51464 5.3272V2.61377C7.51464 2.33089 7.28531 2.10156 7.00244 2.10156C6.71957 2.10156 6.49023 2.33089 6.49023 2.61377V5.3272C6.49023 5.61007 6.71957 5.8394 7.00244 5.8394Z" fill="#999999"/>
</svg>
