<svg width="17" height="11" viewBox="0 0 17 11" fill="none" xmlns="http://www.w3.org/2000/svg">
<path d="M15.9003 4.7877C15.7573 4.59217 12.3516 0 8.00188 0C3.65215 0 0.246266 4.59217 0.103485 4.78751C-0.0318907 4.97301 -0.0318907 5.22461 0.103485 5.41011C0.246266 5.60564 3.65215 10.1978 8.00188 10.1978C12.3516 10.1978 15.7573 5.60561 15.9003 5.41027C16.0358 5.2248 16.0358 4.97301 15.9003 4.7877ZM8.00188 9.14287C4.79784 9.14287 2.0228 6.09495 1.20133 5.09855C2.02174 4.10126 4.79097 1.05494 8.00188 1.05494C11.2058 1.05494 13.9806 4.10232 14.8024 5.09926C13.982 6.09652 11.2128 9.14287 8.00188 9.14287Z" fill="#999999"/>
<path d="M7.99981 1.93555C6.25475 1.93555 4.83496 3.35533 4.83496 5.1004C4.83496 6.84547 6.25475 8.26525 7.99981 8.26525C9.74488 8.26525 11.1647 6.84547 11.1647 5.1004C11.1647 3.35533 9.74488 1.93555 7.99981 1.93555ZM7.99981 7.21028C6.83637 7.21028 5.88993 6.26381 5.88993 5.1004C5.88993 3.93699 6.8364 2.99052 7.99981 2.99052C9.16322 2.99052 10.1097 3.93699 10.1097 5.1004C10.1097 6.26381 9.16325 7.21028 7.99981 7.21028Z" fill="#999999"/>
</svg>
