<svg width="22" height="22" viewBox="0 0 22 22" fill="none" xmlns="http://www.w3.org/2000/svg">
<path d="M21.9141 13.1914C21.9141 12.9473 21.7761 12.7241 21.5578 12.6149L19.7029 11.6875L21.5578 10.7601C21.7761 10.6509 21.9141 10.4277 21.9141 10.1836C21.9141 9.93945 21.7761 9.71627 21.5578 9.60713L16.7057 7.18111C16.681 6.98844 16.5705 6.80904 16.3893 6.70441L15.8608 6.39925C15.8858 6.1985 15.8984 5.99844 15.8984 5.80078C15.8984 5.60313 15.8858 5.40306 15.8608 5.20231L16.3893 4.89715C16.6976 4.71913 16.8032 4.32498 16.6252 4.01672L15.3361 1.78402C15.1581 1.47572 14.7639 1.37006 14.4557 1.54812L13.9249 1.85453C13.6031 1.61051 13.2573 1.40942 12.8906 1.25297V0.644531C12.8906 0.288578 12.602 0 12.2461 0H9.66797C9.31202 0 9.02344 0.288578 9.02344 0.644531V1.25297C8.65674 1.40942 8.31097 1.61051 7.98918 1.85453L7.45839 1.54812C7.15 1.37006 6.75589 1.47576 6.57796 1.78402L5.28889 4.01672C5.11088 4.32498 5.21649 4.71917 5.52479 4.89715L6.05331 5.20231C6.02826 5.40306 6.01562 5.60313 6.01562 5.80078C6.01562 5.99844 6.02826 6.1985 6.05331 6.39925L5.52479 6.70441C5.34359 6.80904 5.23308 6.98848 5.20837 7.18111L0.356297 9.60713C0.13793 9.71627 0 9.93945 0 10.1836C0 10.4277 0.13793 10.6509 0.356297 10.7601L2.21117 11.6875L0.356297 12.6149C0.13793 12.7241 0 12.9473 0 13.1914C0 13.4356 0.13793 13.6587 0.356297 13.7679L2.21117 14.6953L0.356297 15.6228C0.13793 15.7319 0 15.9551 0 16.1992C0 16.4434 0.13793 16.6665 0.356297 16.7757L10.6688 21.9319C10.7595 21.9773 10.8582 22 10.957 22C11.0558 22 11.1546 21.9773 11.2453 21.9319L21.5578 16.7757C21.7761 16.6665 21.9141 16.4434 21.9141 16.1992C21.9141 15.9551 21.7761 15.7319 21.5578 15.6228L19.7029 14.6953L21.5578 13.7679C21.7761 13.6587 21.9141 13.4356 21.9141 13.1914ZM7.39372 6.59347C7.33464 6.32668 7.30469 6.05997 7.30469 5.80078C7.30469 5.54159 7.33464 5.27489 7.39372 5.00809C7.45456 4.73348 7.3303 4.45113 7.08671 4.31054L6.72749 4.10313L7.37202 2.9868L7.7339 3.19567C7.97771 3.33639 8.2845 3.30266 8.49191 3.1124C8.89462 2.74295 9.35528 2.47509 9.86111 2.31619C10.1298 2.23175 10.3125 1.98284 10.3125 1.70126V1.28906H11.6016V1.70126C11.6016 1.98284 11.7843 2.2318 12.0529 2.31619C12.5588 2.47509 13.0194 2.743 13.4221 3.1124C13.6295 3.30266 13.9364 3.33639 14.1802 3.19567L14.542 2.9868L15.1866 4.10313L14.8274 4.31054C14.5838 4.45113 14.4595 4.73352 14.5203 5.00809C14.5794 5.27489 14.6094 5.54159 14.6094 5.80078C14.6094 6.05997 14.5794 6.32668 14.5203 6.59347C14.4595 6.86808 14.5838 7.15043 14.8274 7.29102L15.1866 7.49843L14.542 8.61476L14.1802 8.40585C13.9364 8.26513 13.6295 8.29886 13.4221 8.48912C13.0195 8.85857 12.5588 9.12648 12.0529 9.28537C11.7843 9.36977 11.6016 9.61873 11.6016 9.9003V10.3125H10.3125V9.9003C10.3125 9.61873 10.1298 9.36977 9.86111 9.28537C9.35524 9.12648 8.89457 8.85852 8.49191 8.48912C8.28459 8.29886 7.97771 8.26508 7.7339 8.40585L7.37202 8.61476L6.72749 7.49843L7.08671 7.29102C7.33034 7.15043 7.45456 6.86808 7.39372 6.59347ZM2.08575 10.1836L5.73564 8.35863L6.57796 9.8175C6.75598 10.1258 7.15017 10.2315 7.45839 10.0534L7.98918 9.74695C8.31097 9.99101 8.65674 10.1921 9.02344 10.3486V10.957C9.02344 11.313 9.31202 11.6016 9.66797 11.6016H12.2461C12.602 11.6016 12.8906 11.313 12.8906 10.957V10.3486C13.2573 10.1921 13.6031 9.99105 13.9249 9.74699L14.4557 10.0534C14.7639 10.2315 15.1581 10.1258 15.3361 9.81754L16.1784 8.35867L19.8283 10.1836L10.957 14.6192L2.08575 10.1836ZM19.8283 16.1992L10.957 20.6348L2.08575 16.1992L3.65234 15.4159L10.6688 18.9241C10.7595 18.9695 10.8582 18.9922 10.957 18.9922C11.0558 18.9922 11.1546 18.9695 11.2453 18.9241L18.2617 15.4159L19.8283 16.1992ZM10.957 17.627L2.08575 13.1914L3.65234 12.4081L10.6688 15.9163C10.7595 15.9617 10.8582 15.9844 10.957 15.9844C11.0558 15.9844 11.1546 15.9617 11.2453 15.9163L18.2617 12.4081L19.8283 13.1914L10.957 17.627Z" fill="#E1DCDC"/>
<path d="M10.957 8.16406C12.2601 8.16406 13.3203 7.10389 13.3203 5.80078C13.3203 4.49767 12.2601 3.4375 10.957 3.4375C9.65392 3.4375 8.59375 4.49767 8.59375 5.80078C8.59375 7.10389 9.65392 8.16406 10.957 8.16406ZM10.957 4.72656C11.5494 4.72656 12.0312 5.20846 12.0312 5.80078C12.0312 6.39311 11.5494 6.875 10.957 6.875C10.3647 6.875 9.88281 6.39311 9.88281 5.80078C9.88281 5.20846 10.3647 4.72656 10.957 4.72656Z" fill="#E1DCDC"/>
</svg>
