<svg width="24" height="24" viewBox="0 0 24 24" fill="none" xmlns="http://www.w3.org/2000/svg">
<path d="M5.25 4H0.75C0.336 4 0 4.336 0 4.75V9.25C0 9.664 0.336 10 0.75 10H5.25C5.664 10 6 9.664 6 9.25V4.75C6 4.336 5.664 4 5.25 4ZM4.5 8.5H1.5V5.5H4.5V8.5Z" fill="#E1DCDC"/>
<path d="M24 4.75H9V6.25H24V4.75Z" fill="#E1DCDC"/>
<path d="M24 7.75H9V9.25H24V7.75Z" fill="#E1DCDC"/>
<path d="M5.25 14H0.75C0.336 14 0 14.336 0 14.75V19.25C0 19.664 0.336 20 0.75 20H5.25C5.664 20 6 19.664 6 19.25V14.75C6 14.336 5.664 14 5.25 14ZM4.5 18.5H1.5V15.5H4.5V18.5Z" fill="#E1DCDC"/>
<path d="M24 14.75H9V16.25H24V14.75Z" fill="#E1DCDC"/>
<path d="M24 17.75H9V19.25H24V17.75Z" fill="#E1DCDC"/>
</svg>
