<svg width="22" height="22" viewBox="0 0 22 22" fill="none" xmlns="http://www.w3.org/2000/svg">
<path d="M11.0003 0C8.20119 0 5.92334 2.27785 5.92334 5.07692C5.92334 7.876 8.20119 10.1538 11.0003 10.1538C13.7993 10.1538 16.0772 7.876 16.0772 5.07692C16.0772 2.27785 13.7993 0 11.0003 0ZM11.0003 8.46154C9.13365 8.46154 7.61565 6.94354 7.61565 5.07692C7.61565 3.21031 9.13365 1.69231 11.0003 1.69231C12.8669 1.69231 14.3849 3.21031 14.3849 5.07692C14.3849 6.94354 12.8669 8.46154 11.0003 8.46154Z" fill="#E1DCDC"/>
<path d="M21.1471 16.0406C21.1437 15.9797 21.1268 15.9238 21.1116 15.8663C21.098 15.8172 21.0913 15.7664 21.0693 15.7207C21.049 15.675 21.0151 15.6378 20.9847 15.5955C20.9491 15.5464 20.9187 15.4973 20.873 15.4567C20.8628 15.4483 20.8594 15.4364 20.8493 15.428C15.1411 10.6438 6.85388 10.6438 1.14573 15.428C1.13558 15.4364 1.13219 15.4483 1.12204 15.4567C1.07804 15.4973 1.04588 15.5464 1.01035 15.5972C0.981576 15.6395 0.94773 15.6767 0.927422 15.7207C0.905422 15.7664 0.898653 15.8172 0.885114 15.8663C0.869884 15.9238 0.852961 15.9797 0.849576 16.0406C0.852961 16.0524 0.846191 16.0626 0.846191 16.0761V20.3069C0.846191 21.2393 1.60604 21.9992 2.5385 21.9992H19.4616C20.394 21.9992 21.1539 21.2393 21.1539 20.3069V16.0761C21.1539 16.0626 21.1471 16.0524 21.1471 16.0406ZM19.4616 20.3069H2.5385V16.4941C7.50373 12.5595 14.4963 12.5595 19.4616 16.4941V20.3069Z" fill="#E1DCDC"/>
</svg>
