<svg width="24" height="24" viewBox="0 0 24 24" fill="none" xmlns="http://www.w3.org/2000/svg">
<path d="M20.8944 1H3.10556C1.94452 1 1 1.94452 1 3.10556V16.3859C1 17.5469 1.94452 18.4914 3.10556 18.4914H8.37974L7.88205 21.6609H6.90373C6.54791 21.6609 6.25945 21.9494 6.25945 22.3052C6.25945 22.661 6.54791 22.9494 6.90373 22.9494C9.06242 22.9543 14.9478 22.9533 17.0962 22.9494C17.452 22.9494 17.7405 22.661 17.7405 22.3052C17.7405 21.9494 17.452 21.6609 17.0962 21.6609H16.0297L15.583 18.4914H20.8944C22.0554 18.4914 23 17.5469 23 16.3859V3.10556C23 1.94452 22.0554 1 20.8944 1ZM21.7114 3.10556V9.10146H20.1375C19.9851 8.32063 19.5003 7.65762 18.8368 7.26586C19.0757 6.92276 19.2163 6.50629 19.2163 6.05744C19.2163 4.88837 18.2653 3.93728 17.0962 3.93728C15.9272 3.93728 14.9761 4.88841 14.9761 6.05744C14.9761 6.50634 15.1167 6.92276 15.3556 7.26586C14.6921 7.65762 14.2073 8.32059 14.0549 9.10146H12.6443V2.28856H20.8944C21.3449 2.28856 21.7114 2.65503 21.7114 3.10556ZM17.1451 6.88651H17.0474C16.6116 6.86099 16.2646 6.49946 16.2646 6.0574C16.2646 5.59884 16.6377 5.2258 17.0962 5.2258C17.5547 5.2258 17.9278 5.59889 17.9278 6.0574C17.9278 6.49946 17.5809 6.86099 17.1451 6.88651ZM16.7444 8.17507C16.9427 8.17554 17.2026 8.17619 17.4481 8.17507C18.0634 8.17507 18.5906 8.55983 18.8017 9.10142H15.3908C15.6018 8.55983 16.129 8.17507 16.7444 8.17507ZM3.10556 2.28856H11.3557V9.10142H9.91759C9.76524 8.32059 9.2804 7.65758 8.61687 7.26582C8.85582 6.92271 8.99644 6.50625 8.99644 6.0574C8.99644 4.88833 8.04535 3.93724 6.87633 3.93724C5.7073 3.93724 4.75616 4.88837 4.75616 6.0574C4.75616 6.50629 4.89679 6.92271 5.13573 7.26582C4.47221 7.65758 3.98736 8.32055 3.83501 9.10142H2.28856V3.10556C2.28856 2.65503 2.65503 2.28856 3.10556 2.28856ZM6.92512 6.88651H6.82745C6.39165 6.86099 6.04469 6.49946 6.04469 6.0574C6.04469 5.59884 6.41777 5.2258 6.87628 5.2258C7.3348 5.2258 7.70784 5.59889 7.70784 6.0574C7.70784 6.49946 7.36087 6.86099 6.92512 6.88651ZM6.52438 8.17507C6.72273 8.17554 6.98259 8.17619 7.2281 8.17507C7.84344 8.17507 8.37063 8.55983 8.5817 9.10142H5.17082C5.38189 8.55983 5.90904 8.17507 6.52438 8.17507ZM2.28856 16.3859V10.39H11.3557V17.2028H9.91759C9.76524 16.422 9.2804 15.759 8.61687 15.3672C8.85582 15.0241 8.99644 14.6077 8.99644 14.1588C8.99644 12.9897 8.04535 12.0387 6.87633 12.0387C5.7073 12.0387 4.75616 12.9897 4.75616 14.1588C4.75616 14.6077 4.89679 15.0241 5.13573 15.3672C4.47217 15.759 3.98736 16.422 3.83501 17.2028H3.10556C2.65503 17.2029 2.28856 16.8364 2.28856 16.3859ZM6.8274 14.9879C6.39161 14.9624 6.04464 14.6008 6.04464 14.1588C6.04464 13.7002 6.41773 13.3272 6.87624 13.3272C7.33475 13.3272 7.70779 13.7003 7.70779 14.1588C7.70779 14.6008 7.36083 14.9624 6.92508 14.9879H6.8274ZM6.52438 16.2765C6.72273 16.277 6.98259 16.2776 7.2281 16.2765C7.84344 16.2765 8.37067 16.6613 8.5817 17.2028H5.17082C5.38185 16.6613 5.90904 16.2765 6.52438 16.2765ZM9.18638 21.6609L9.68402 18.4914H14.2816L14.7283 21.6609H9.18638ZM15.3908 17.2029C15.6018 16.6613 16.129 16.2765 16.7444 16.2765C16.9427 16.277 17.2026 16.2776 17.4481 16.2765C18.0634 16.2765 18.5907 16.6613 18.8017 17.2029H15.3908ZM17.1451 14.9879H17.0474C16.6116 14.9624 16.2646 14.6008 16.2646 14.1588C16.2646 13.7002 16.6377 13.3272 17.0962 13.3272C17.5547 13.3272 17.9278 13.7003 17.9278 14.1588C17.9278 14.6009 17.5809 14.9625 17.1451 14.9879ZM20.8944 17.2029H20.1375C19.9852 16.422 19.5004 15.759 18.8368 15.3673C19.0758 15.0242 19.2164 14.6077 19.2164 14.1588C19.2164 12.9897 18.2653 12.0387 17.0963 12.0387C15.9272 12.0387 14.9761 12.9898 14.9761 14.1588C14.9761 14.6077 15.1167 15.0241 15.3557 15.3673C14.6921 15.759 14.2073 16.422 14.055 17.2029H12.6443V10.39H21.7115V16.3859C21.7114 16.8364 21.3449 17.2029 20.8944 17.2029Z" fill="#E1DCDC"/>
</svg>
