<svg width="28" height="29" viewBox="0 0 28 29" fill="none" xmlns="http://www.w3.org/2000/svg">
<rect y="0.5" width="28" height="28" rx="4" fill="white"/>
<path d="M25.1094 5.5H2.89062C2.65449 5.50025 2.4281 5.59416 2.26113 5.76113C2.09416 5.9281 2.00025 6.15449 2 6.39062L2 23.0326C2.00025 23.2687 2.09416 23.4951 2.26113 23.6621C2.4281 23.829 2.65449 23.9229 2.89062 23.9232H25.1094C25.3455 23.9229 25.5719 23.829 25.7389 23.6621C25.9058 23.4951 25.9998 23.2687 26 23.0326V6.39062C25.9998 6.15449 25.9058 5.9281 25.7389 5.76113C25.5719 5.59416 25.3455 5.50025 25.1094 5.5ZM2.65625 6.39062C2.6563 6.32848 2.68101 6.26889 2.72495 6.22495C2.76889 6.18101 2.82848 6.1563 2.89062 6.15625H25.1094C25.1715 6.1563 25.2311 6.18101 25.275 6.22495C25.319 6.26889 25.3437 6.32848 25.3438 6.39062V8.26562H2.65625V6.39062ZM25.3438 23.0326C25.3437 23.0947 25.319 23.1543 25.275 23.1982C25.2311 23.2422 25.1715 23.2669 25.1094 23.2669H2.89062C2.82848 23.2669 2.76889 23.2422 2.72495 23.1982C2.68101 23.1543 2.6563 23.0947 2.65625 23.0326V8.92188H25.3438V23.0326Z" fill="#1D6771"/>
<path d="M4.20312 13.675H23.7969C23.8839 13.675 23.9674 13.6404 24.0289 13.5789C24.0904 13.5174 24.125 13.4339 24.125 13.3469V10.4687C24.125 10.3817 24.0904 10.2983 24.0289 10.2367C23.9674 10.1752 23.8839 10.1406 23.7969 10.1406H4.20312C4.1161 10.1406 4.03264 10.1752 3.97111 10.2367C3.90957 10.2983 3.875 10.3817 3.875 10.4687V13.3469C3.875 13.4339 3.90957 13.5174 3.97111 13.5789C4.03264 13.6404 4.1161 13.675 4.20312 13.675ZM4.53125 10.7969H23.4688V13.0187H4.53125V10.7969Z" fill="#1D6771"/>
<path d="M23.796 14.3271H11.0576C10.9706 14.3271 10.8871 14.3617 10.8256 14.4233C10.7641 14.4848 10.7295 14.5682 10.7295 14.6553V17.5334C10.7295 17.6204 10.7641 17.7039 10.8256 17.7654C10.8871 17.827 10.9706 17.8615 11.0576 17.8615H23.796C23.883 17.8615 23.9665 17.827 24.028 17.7654C24.0895 17.7039 24.1241 17.6204 24.1241 17.5334V14.6553C24.1241 14.5682 24.0895 14.4848 24.028 14.4233C23.9665 14.3617 23.883 14.3271 23.796 14.3271ZM23.4679 17.2053H11.3857V14.9834H23.4679V17.2053Z" fill="#1D6771"/>
<path d="M23.796 18.5137H11.0576C10.9706 18.5137 10.8871 18.5482 10.8256 18.6098C10.7641 18.6713 10.7295 18.7548 10.7295 18.8418V21.7199C10.7295 21.8069 10.7641 21.8904 10.8256 21.9519C10.8871 22.0135 10.9706 22.048 11.0576 22.048H23.796C23.883 22.048 23.9665 22.0135 24.028 21.9519C24.0895 21.8904 24.1241 21.8069 24.1241 21.7199V18.8418C24.1241 18.7548 24.0895 18.6713 24.028 18.6098C23.9665 18.5482 23.883 18.5137 23.796 18.5137ZM23.4679 21.3918H11.3857V19.1699H23.4679V21.3918Z" fill="#1D6771"/>
<path d="M4.20312 22.048H9.74994C9.83696 22.048 9.92042 22.0135 9.98196 21.9519C10.0435 21.8904 10.0781 21.8069 10.0781 21.7199V14.6553C10.0781 14.5682 10.0435 14.4848 9.98196 14.4233C9.92042 14.3617 9.83696 14.3271 9.74994 14.3271H4.20312C4.1161 14.3271 4.03264 14.3617 3.97111 14.4233C3.90957 14.4848 3.875 14.5682 3.875 14.6553V21.7199C3.875 21.8069 3.90957 21.8904 3.97111 21.9519C4.03264 22.0135 4.1161 22.048 4.20312 22.048ZM4.53125 14.9834H9.42181V21.3918H4.53125V14.9834Z" fill="#1D6771"/>
<path d="M23.7969 6.88281H22.9766C22.8895 6.88281 22.8061 6.91738 22.7445 6.97892C22.683 7.04045 22.6484 7.12391 22.6484 7.21094C22.6484 7.29796 22.683 7.38142 22.7445 7.44296C22.8061 7.50449 22.8895 7.53906 22.9766 7.53906H23.7969C23.8839 7.53906 23.9674 7.50449 24.0289 7.44296C24.0904 7.38142 24.125 7.29796 24.125 7.21094C24.125 7.12391 24.0904 7.04045 24.0289 6.97892C23.9674 6.91738 23.8839 6.88281 23.7969 6.88281Z" fill="#1D6771"/>
<path d="M21.2891 6.88281H20.4688C20.3817 6.88281 20.2983 6.91738 20.2367 6.97892C20.1752 7.04045 20.1406 7.12391 20.1406 7.21094C20.1406 7.29796 20.1752 7.38142 20.2367 7.44296C20.2983 7.50449 20.3817 7.53906 20.4688 7.53906H21.2891C21.3761 7.53906 21.4595 7.50449 21.5211 7.44296C21.5826 7.38142 21.6172 7.29796 21.6172 7.21094C21.6172 7.12391 21.5826 7.04045 21.5211 6.97892C21.4595 6.91738 21.3761 6.88281 21.2891 6.88281Z" fill="#1D6771"/>
<path d="M18.7812 6.88281H17.9609C17.8739 6.88281 17.7905 6.91738 17.7289 6.97892C17.6674 7.04045 17.6328 7.12391 17.6328 7.21094C17.6328 7.29796 17.6674 7.38142 17.7289 7.44296C17.7905 7.50449 17.8739 7.53906 17.9609 7.53906H18.7812C18.8683 7.53906 18.9517 7.50449 19.0133 7.44296C19.0748 7.38142 19.1094 7.29796 19.1094 7.21094C19.1094 7.12391 19.0748 7.04045 19.0133 6.97892C18.9517 6.91738 18.8683 6.88281 18.7812 6.88281Z" fill="#1D6771"/>
</svg>
