<svg width="17" height="16" viewBox="0 0 17 16" fill="none" xmlns="http://www.w3.org/2000/svg">
<path d="M14.8417 10.041C14.6205 10.041 14.4413 10.2203 14.4413 10.4415V13.9974C14.4405 14.6607 13.9031 15.1982 13.2398 15.1989H2.00245C1.33914 15.1982 0.801762 14.6607 0.800979 13.9974V3.56104C0.801762 2.89789 1.33914 2.36036 2.00245 2.35957H5.55836C5.77957 2.35957 5.95885 2.18029 5.95885 1.95908C5.95885 1.73803 5.77957 1.55859 5.55836 1.55859H2.00245C0.897034 1.55985 0.00125153 2.45563 0 3.56104V13.9976C0.00125153 15.103 0.897034 15.9988 2.00245 16H13.2398C14.3452 15.9988 15.241 15.103 15.2422 13.9976V10.4415C15.2422 10.2203 15.063 10.041 14.8417 10.041Z" fill="#969696"/>
<path d="M15.0837 0.527872C14.3799 -0.175957 13.2388 -0.175957 12.535 0.527872L5.38999 7.67286C5.34102 7.72183 5.30567 7.78253 5.28721 7.84917L4.34762 11.2413C4.30898 11.3804 4.34825 11.5293 4.45025 11.6315C4.5524 11.7335 4.70134 11.7727 4.84041 11.7342L8.23253 10.7945C8.29917 10.776 8.35987 10.7407 8.40884 10.6917L15.5537 3.54656C16.2564 2.84227 16.2564 1.70212 15.5537 0.997822L15.0837 0.527872ZM6.26262 7.93318L12.1102 2.0854L13.9961 3.9713L8.14837 9.81908L6.26262 7.93318ZM5.88591 8.6891L7.3926 10.1959L5.30848 10.7734L5.88591 8.6891ZM14.9874 2.98025L14.5626 3.40498L12.6766 1.51893L13.1015 1.09419C13.4924 0.703243 14.1263 0.703243 14.5173 1.09419L14.9874 1.56414C15.3777 1.95556 15.3777 2.58899 14.9874 2.98025Z" fill="#969696"/>
</svg>
