<svg width="84" height="88" viewBox="0 0 84 88" fill="none" xmlns="http://www.w3.org/2000/svg">
<path fill-rule="evenodd" clip-rule="evenodd" d="M42 87.4104C18.804 87.4104 0 68.0182 0 44.0968C0 20.1754 18.804 0.783203 42 0.783203C65.196 0.783203 84 20.1754 84 44.0968C84 68.0182 65.196 87.4104 42 87.4104ZM42 2.84575C19.9086 2.84575 2 21.3145 2 44.0968C2 66.8791 19.9086 85.3478 42 85.3478C64.0914 85.3478 82 66.8791 82 44.0968C82 21.3145 64.0914 2.84575 42 2.84575Z" fill="#E4E4E4"/>
<path d="M48.6794 40.7027L42.7014 33.3211C42.475 33.0414 41.9306 33.0414 41.7039 33.3211L35.7259 40.7027C35.4003 41.1033 35.6797 41.7119 36.185 41.7119H39.174V48.5716C39.174 48.9116 39.4414 49.1867 39.7718 49.1867H44.6339C44.9643 49.1867 45.2317 48.9116 45.2317 48.5716V41.7119H48.2207C48.726 41.7119 49.005 41.1033 48.6794 40.7027Z" fill="#33BD9A"/>
<path d="M51.807 45.4941H49.4159C49.0855 45.4941 48.8181 45.7693 48.8181 46.1093V50.4152H35.5868V46.1093C35.5868 45.7693 35.3194 45.4941 34.989 45.4941H32.5978C32.2674 45.4941 32 45.7693 32 46.1093V52.2606C32 53.2784 32.8042 54.106 33.7934 54.106H50.6115C51.6002 54.106 52.4048 53.2784 52.4048 52.2606V46.1093C52.4048 45.7693 52.1374 45.4941 51.807 45.4941Z" fill="#33BD9A"/>
</svg>
