<svg width="35" height="40" viewBox="0 0 35 40" fill="none" xmlns="http://www.w3.org/2000/svg">
<path d="M31.3794 6.27989V30.7248C31.3794 32.2561 30.2653 33.4969 28.8902 33.4969H2.4138C1.08093 33.4969 0 32.2931 0 30.8088V6.27989C0 4.79556 1.08093 3.5918 2.4138 3.5918H28.9656C30.2985 3.5918 31.3794 4.79556 31.3794 6.27989Z" fill="#D6F4FC"/>
<path d="M35 20.729V36.6895C35 37.8026 34.1891 38.7056 33.1897 38.7056H18.8577C17.8582 38.7056 17.0474 37.8026 17.0474 36.6895V20.729C17.0474 19.6159 17.8582 18.7129 18.8577 18.7129H33.1897C34.1891 18.7129 35 19.6159 35 20.729Z" fill="#FFAA64"/>
<path d="M28.9102 33.6191H30.0938V34.5039H28.9102V36.4844H27.8203V34.5039H23.9355V33.8652L27.7559 27.9531H28.9102V33.6191ZM25.166 33.6191H27.8203V29.4355L27.6914 29.6699L25.166 33.6191Z" fill="white"/>
<path d="M33.1852 22.073H24.8925C22.2263 22.073 20.0649 24.48 20.0649 27.4492V36.6842C20.0649 38.7988 17.233 38.9855 17.0556 36.8802C17.0432 36.7325 17.0476 20.645 17.0476 20.729C17.0476 19.6155 17.8582 18.7129 18.858 18.7129H33.1899C35.246 18.7129 35.1517 22.073 33.1852 22.073Z" fill="#FFBD7B"/>
<path d="M28.8146 18.7129V23.4549C28.8146 24.1975 28.2745 24.7989 27.6077 24.7989H24.515C23.8482 24.7989 23.3081 24.1975 23.3081 23.4549V18.7129H28.8146Z" fill="#E8F8FC"/>
<path d="M28.8146 22.0729V23.4548C28.8146 24.1974 28.2745 24.7988 27.6077 24.7988H24.515C23.8482 24.7988 23.3081 24.1974 23.3081 23.4548V22.3695C24.2978 21.9859 24.634 22.0729 28.8146 22.0729Z" fill="#D6F4FC"/>
<path d="M10.787 25.3499V28.542C10.787 29.2843 10.2467 29.8861 9.58012 29.8861H6.71374C6.04715 29.8861 5.50684 29.2843 5.50684 28.542V25.3499C5.50684 24.6076 6.04715 24.0059 6.71374 24.0059H9.58012C10.2467 24.0059 10.787 24.6076 10.787 25.3499Z" fill="white"/>
<path d="M10.787 16.1097V19.3018C10.787 20.0441 10.2467 20.6458 9.58012 20.6458H6.71374C6.04715 20.6458 5.50684 20.0441 5.50684 19.3018V16.1097C5.50684 15.3673 6.04715 14.7656 6.71374 14.7656H9.58012C10.2467 14.7656 10.787 15.3673 10.787 16.1097Z" fill="white"/>
<path d="M15.6899 6.61657C15.3566 6.61657 15.0864 6.31568 15.0864 5.94455V1.24038C15.0864 0.869258 15.3566 0.568359 15.6899 0.568359C16.0231 0.568359 16.2933 0.869258 16.2933 1.24038V5.94455C16.2933 6.31568 16.0231 6.61657 15.6899 6.61657Z" fill="#42434D"/>
<path d="M8.14642 6.61657C7.81316 6.61657 7.54297 6.31568 7.54297 5.94455V1.24038C7.54297 0.869258 7.81316 0.568359 8.14642 0.568359C8.47968 0.568359 8.74987 0.869258 8.74987 1.24038V5.94455C8.74987 6.31568 8.47968 6.61657 8.14642 6.61657Z" fill="#42434D"/>
<path d="M23.2333 6.61657C22.9001 6.61657 22.6299 6.31568 22.6299 5.94455V1.24038C22.6299 0.869258 22.9001 0.568359 23.2333 0.568359C23.5666 0.568359 23.8368 0.869258 23.8368 1.24038V5.94455C23.8368 6.31568 23.5666 6.61657 23.2333 6.61657Z" fill="#42434D"/>
<path d="M31.3794 6.27989C31.3794 7.57892 30.4338 8.63198 29.2673 8.63198H6.93968C5.60658 8.63198 4.52588 9.83549 4.52588 11.3201V31.1448C4.52588 32.4438 3.58027 33.4969 2.4138 33.4969C1.0807 33.4969 0 32.2934 0 30.8088V6.27989C0 4.79531 1.0807 3.5918 2.4138 3.5918H28.9656C30.2987 3.5918 31.3794 4.79531 31.3794 6.27989Z" fill="#E8F8FC"/>
<path d="M28.9656 3.5918C30.2985 3.5918 31.3794 4.79556 31.3794 6.27989V10.9563H0V6.27989C0 4.79556 1.08093 3.5918 2.4138 3.5918H28.9656Z" fill="#FE4F60"/>
<path d="M31.3794 6.27989V8.63197H6.93968C5.71769 8.63197 4.70691 9.64421 4.54775 10.9563H0V6.27989C0 4.79556 1.08093 3.5918 2.4138 3.5918H28.9656C30.2985 3.5918 31.3794 4.79556 31.3794 6.27989Z" fill="#FF6D7A"/>
</svg>
