<svg width="17" height="16" viewBox="0 0 17 16" fill="none" xmlns="http://www.w3.org/2000/svg">
<path d="M14.8808 10.041C14.6596 10.041 14.4803 10.2203 14.4803 10.4415V13.9974C14.4795 14.6607 13.9422 15.1982 13.2788 15.1989H2.04151C1.3782 15.1982 0.840824 14.6607 0.840042 13.9974V3.56104C0.840824 2.89789 1.3782 2.36036 2.04151 2.35957H5.59742C5.81863 2.35957 5.99791 2.18029 5.99791 1.95908C5.99791 1.73803 5.81863 1.55859 5.59742 1.55859H2.04151C0.936097 1.55985 0.040314 2.45563 0.0390625 3.56104V13.9976C0.040314 15.103 0.936097 15.9988 2.04151 16H13.2788C14.3843 15.9988 15.28 15.103 15.2813 13.9976V10.4415C15.2813 10.2203 15.102 10.041 14.8808 10.041Z" fill="#969696"/>
<path d="M15.1218 0.527872C14.418 -0.175957 13.2769 -0.175957 12.5731 0.527872L5.42808 7.67286C5.37911 7.72183 5.34375 7.78253 5.32529 7.84917L4.38571 11.2413C4.34707 11.3804 4.38633 11.5293 4.48833 11.6315C4.59049 11.7335 4.73942 11.7727 4.8785 11.7342L8.27062 10.7945C8.33726 10.776 8.39796 10.7407 8.44693 10.6917L15.5918 3.54656C16.2945 2.84227 16.2945 1.70212 15.5918 0.997822L15.1218 0.527872ZM6.30071 7.93318L12.1483 2.0854L14.0342 3.9713L8.18645 9.81908L6.30071 7.93318ZM5.924 8.6891L7.43068 10.1959L5.34657 10.7734L5.924 8.6891ZM15.0254 2.98025L14.6007 3.40498L12.7146 1.51893L13.1395 1.09419C13.5305 0.703243 14.1644 0.703243 14.5553 1.09419L15.0254 1.56414C15.4158 1.95556 15.4158 2.58899 15.0254 2.98025Z" fill="#969696"/>
</svg>
