<svg width="52" height="52" viewBox="0 0 52 52" fill="none" xmlns="http://www.w3.org/2000/svg">
<circle cx="26" cy="26" r="26" fill="#F8FFD7"/>
<circle cx="26.0006" cy="26.0006" r="20.6471" fill="#03728F"/>
<path d="M27.0781 31.0625C27.0781 32.0964 27.9193 32.9375 28.9531 32.9375H31.1562C32.1901 32.9375 33.0312 32.0964 33.0312 31.0625V28.8594C33.0312 27.8255 32.1901 26.9844 31.1562 26.9844H28.9531C27.9193 26.9844 27.0781 27.8255 27.0781 28.8594V31.0625ZM28.9531 28.8594H31.1562L31.1574 31.0625C31.1574 31.0625 31.1571 31.0625 31.1562 31.0625H28.9531V28.8594Z" fill="white"/>
<path d="M32.0938 24.7812C32.6115 24.7812 33.0312 24.3615 33.0312 23.8438C33.0312 23.326 32.6115 22.9062 32.0938 22.9062C31.576 22.9062 31.1562 23.326 31.1562 23.8438C31.1562 24.3615 31.576 24.7812 32.0938 24.7812Z" fill="white"/>
<path d="M28.0156 24.7812C28.5334 24.7812 28.9531 24.3615 28.9531 23.8438C28.9531 23.326 28.5334 22.9062 28.0156 22.9062C27.4979 22.9062 27.0781 23.326 27.0781 23.8438C27.0781 24.3615 27.4979 24.7812 28.0156 24.7812Z" fill="white"/>
<path d="M37.0625 30.5C37.5803 30.5 38 30.0803 38 29.5625V19.625C38 17.5573 36.3177 15.875 34.25 15.875H33.0312V14.9375C33.0312 14.4197 32.6115 14 32.0938 14C31.576 14 31.1562 14.4197 31.1562 14.9375V15.875H26.8906V14.9375C26.8906 14.4197 26.4709 14 25.9531 14C25.4353 14 25.0156 14.4197 25.0156 14.9375V15.875H20.7969V14.9375C20.7969 14.4197 20.3772 14 19.8594 14C19.3416 14 18.9219 14.4197 18.9219 14.9375V15.875H17.75C15.6823 15.875 14 17.5573 14 19.625V34.25C14 36.3177 15.6823 38 17.75 38H34.25C36.3177 38 38 36.3177 38 34.25C38 33.7322 37.5803 33.3125 37.0625 33.3125C36.5447 33.3125 36.125 33.7322 36.125 34.25C36.125 35.2839 35.2839 36.125 34.25 36.125H17.75C16.7161 36.125 15.875 35.2839 15.875 34.25V19.625C15.875 18.5911 16.7161 17.75 17.75 17.75H18.9219V18.6875C18.9219 19.2053 19.3416 19.625 19.8594 19.625C20.3772 19.625 20.7969 19.2053 20.7969 18.6875V17.75H25.0156V18.6875C25.0156 19.2053 25.4353 19.625 25.9531 19.625C26.4709 19.625 26.8906 19.2053 26.8906 18.6875V17.75H31.1562V18.6875C31.1562 19.2053 31.576 19.625 32.0938 19.625C32.6115 19.625 33.0312 19.2053 33.0312 18.6875V17.75H34.25C35.2839 17.75 36.125 18.5911 36.125 19.625V29.5625C36.125 30.0803 36.5447 30.5 37.0625 30.5Z" fill="white"/>
<path d="M19.8594 32.9375C20.3771 32.9375 20.7969 32.5178 20.7969 32C20.7969 31.4822 20.3771 31.0625 19.8594 31.0625C19.3416 31.0625 18.9219 31.4822 18.9219 32C18.9219 32.5178 19.3416 32.9375 19.8594 32.9375Z" fill="white"/>
<path d="M19.8594 24.7812C20.3771 24.7812 20.7969 24.3615 20.7969 23.8438C20.7969 23.326 20.3771 22.9062 19.8594 22.9062C19.3416 22.9062 18.9219 23.326 18.9219 23.8438C18.9219 24.3615 19.3416 24.7812 19.8594 24.7812Z" fill="white"/>
<path d="M19.8594 28.8594C20.3771 28.8594 20.7969 28.4396 20.7969 27.9219C20.7969 27.4041 20.3771 26.9844 19.8594 26.9844C19.3416 26.9844 18.9219 27.4041 18.9219 27.9219C18.9219 28.4396 19.3416 28.8594 19.8594 28.8594Z" fill="white"/>
<path d="M23.9375 28.8594C24.4553 28.8594 24.875 28.4396 24.875 27.9219C24.875 27.4041 24.4553 26.9844 23.9375 26.9844C23.4197 26.9844 23 27.4041 23 27.9219C23 28.4396 23.4197 28.8594 23.9375 28.8594Z" fill="white"/>
<path d="M23.9375 24.7812C24.4553 24.7812 24.875 24.3615 24.875 23.8438C24.875 23.326 24.4553 22.9062 23.9375 22.9062C23.4197 22.9062 23 23.326 23 23.8438C23 24.3615 23.4197 24.7812 23.9375 24.7812Z" fill="white"/>
<path d="M23.9375 32.9375C24.4553 32.9375 24.875 32.5178 24.875 32C24.875 31.4822 24.4553 31.0625 23.9375 31.0625C23.4197 31.0625 23 31.4822 23 32C23 32.5178 23.4197 32.9375 23.9375 32.9375Z" fill="white"/>
</svg>
