<svg width="13" height="16" viewBox="0 0 13 16" fill="none" xmlns="http://www.w3.org/2000/svg">
<path d="M8.7082 5.79688C8.50124 5.79688 8.3335 5.96462 8.3335 6.17158V13.2535C8.3335 13.4604 8.50124 13.6283 8.7082 13.6283C8.91517 13.6283 9.08291 13.4604 9.08291 13.2535V6.17158C9.08291 5.96462 8.91517 5.79688 8.7082 5.79688Z" fill="#969696"/>
<path d="M4.28682 5.79688C4.07985 5.79688 3.91211 5.96462 3.91211 6.17158V13.2535C3.91211 13.4604 4.07985 13.6283 4.28682 13.6283C4.49378 13.6283 4.66152 13.4604 4.66152 13.2535V6.17158C4.66152 5.96462 4.49378 5.79688 4.28682 5.79688Z" fill="#969696"/>
<path d="M1.06423 4.76335V13.9953C1.06423 14.541 1.26431 15.0534 1.61384 15.4211C1.96176 15.7898 2.44596 15.9991 2.95269 16H10.0422C10.5491 15.9991 11.0333 15.7898 11.3811 15.4211C11.7306 15.0534 11.9307 14.541 11.9307 13.9953V4.76335C12.6255 4.57893 13.0758 3.90768 12.9828 3.19471C12.8897 2.48189 12.2824 1.94867 11.5635 1.94852H9.645V1.48014C9.64719 1.08626 9.49146 0.708039 9.21262 0.42979C8.93379 0.151688 8.55498 -0.0031709 8.1611 4.92333e-05H4.83383C4.43995 -0.0031709 4.06114 0.151688 3.78231 0.42979C3.50348 0.708039 3.34774 1.08626 3.34993 1.48014V1.94852H1.43147C0.7125 1.94867 0.105213 2.48189 0.0121219 3.19471C-0.0808227 3.90768 0.36941 4.57893 1.06423 4.76335ZM10.0422 15.2506H2.95269C2.31203 15.2506 1.81364 14.7002 1.81364 13.9953V4.79629H11.1813V13.9953C11.1813 14.7002 10.6829 15.2506 10.0422 15.2506ZM4.09935 1.48014C4.09686 1.28503 4.17356 1.09724 4.31202 0.959502C4.45034 0.821768 4.63857 0.746095 4.83383 0.749461H8.1611C8.35636 0.746095 8.54459 0.821768 8.68291 0.959502C8.82137 1.09709 8.89807 1.28503 8.89558 1.48014V1.94852H4.09935V1.48014ZM1.43147 2.69793H11.5635C11.936 2.69793 12.2379 2.99989 12.2379 3.3724C12.2379 3.74492 11.936 4.04688 11.5635 4.04688H1.43147C1.05896 4.04688 0.756997 3.74492 0.756997 3.3724C0.756997 2.99989 1.05896 2.69793 1.43147 2.69793Z" fill="#969696"/>
<path d="M6.49726 5.79688C6.2903 5.79688 6.12256 5.96462 6.12256 6.17158V13.2535C6.12256 13.4604 6.2903 13.6283 6.49726 13.6283C6.70423 13.6283 6.87197 13.4604 6.87197 13.2535V6.17158C6.87197 5.96462 6.70423 5.79688 6.49726 5.79688Z" fill="#969696"/>
</svg>
