<svg width="20" height="24" viewBox="0 0 20 24" fill="none" xmlns="http://www.w3.org/2000/svg">
<path d="M13.8502 0H1.41216C1.06587 0 0.785156 0.280714 0.785156 0.825429V23.5714C0.785156 23.7193 1.06587 24 1.41216 24H18.5867C18.933 24 19.2137 23.7193 19.2137 23.5714V5.562C19.2137 5.26371 19.1739 5.16771 19.1036 5.097L14.1167 0.110143C14.046 0.0398571 13.95 0 13.8502 0Z" fill="#E9E9E0"/>
<path d="M14.0703 0.0644531V5.1426H19.1485L14.0703 0.0644531Z" fill="#D9D7CA"/>
<path d="M6.36303 14.2821C6.21389 14.2821 6.07075 14.2337 5.9486 14.1424C5.50246 13.8077 5.44246 13.4352 5.47075 13.1815C5.54875 12.4838 6.41146 11.7535 8.03574 11.0095C8.68032 9.59694 9.2936 7.85651 9.65917 6.40237C9.23146 5.47151 8.81574 4.26379 9.11874 3.55537C9.22503 3.30722 9.35746 3.11694 9.60474 3.03465C9.70246 3.00208 9.94932 2.96094 10.0402 2.96094C10.2562 2.96094 10.446 3.23908 10.5806 3.41051C10.707 3.57165 10.9937 3.91322 10.4207 6.32565C10.9985 7.51879 11.817 8.73422 12.6013 9.56651C13.1632 9.46494 13.6466 9.41308 14.0405 9.41308C14.7116 9.41308 15.1183 9.56951 15.2842 9.89179C15.4213 10.1584 15.3652 10.4699 15.117 10.8175C14.8783 11.1514 14.5492 11.3279 14.1656 11.3279C13.6445 11.3279 13.0376 10.9988 12.3609 10.3487C11.145 10.6028 9.72517 11.0562 8.57746 11.5581C8.21917 12.3184 7.87589 12.9308 7.55617 13.3799C7.11689 13.9949 6.73803 14.2821 6.36303 14.2821ZM7.50389 12.0852C6.58803 12.5999 6.21475 13.0229 6.18775 13.2612C6.18346 13.3007 6.17189 13.4044 6.37246 13.5578C6.43632 13.5377 6.80917 13.3675 7.50389 12.0852ZM13.3483 10.1815C13.6976 10.4502 13.7829 10.5861 14.0113 10.5861C14.1116 10.5861 14.3975 10.5818 14.5299 10.3971C14.5937 10.3075 14.6186 10.2501 14.6285 10.2192C14.5757 10.1914 14.5059 10.1348 14.1249 10.1348C13.9085 10.1352 13.6363 10.1447 13.3483 10.1815ZM10.1469 7.36065C9.84046 8.42094 9.43589 9.56565 9.00089 10.6024C9.8966 10.2548 10.8703 9.95137 11.7849 9.73665C11.2063 9.06465 10.6282 8.22551 10.1469 7.36065ZM9.88674 3.73408C9.84474 3.74822 9.31675 4.48708 9.92789 5.11237C10.3346 4.20594 9.90517 3.72808 9.88674 3.73408Z" fill="#CC4B4C"/>
<path d="M18.5867 24.0006H1.41216C1.06587 24.0006 0.785156 23.7198 0.785156 23.3736V16.7148H19.2137V23.3736C19.2137 23.7198 18.933 24.0006 18.5867 24.0006Z" fill="#CC4B4C"/>
<path d="M5.44938 22.7148H4.74609V18.3965H5.98809C6.17152 18.3965 6.35324 18.4256 6.53281 18.4843C6.71238 18.5431 6.87352 18.6309 7.01624 18.7479C7.15895 18.8649 7.27424 19.0068 7.36209 19.1726C7.44995 19.3385 7.49409 19.5249 7.49409 19.7323C7.49409 19.9513 7.45681 20.1493 7.38267 20.3272C7.30852 20.5051 7.20481 20.6546 7.07195 20.7755C6.93909 20.8963 6.77881 20.9902 6.59152 21.0566C6.40424 21.1231 6.19681 21.1561 5.97052 21.1561H5.44895V22.7148H5.44938ZM5.44938 18.9296V20.6405H6.09395C6.17967 20.6405 6.26452 20.6259 6.34895 20.5963C6.43295 20.5672 6.51009 20.5192 6.58038 20.4528C6.65067 20.3863 6.70724 20.2938 6.75009 20.1746C6.79295 20.0555 6.81438 19.9081 6.81438 19.7323C6.81438 19.6621 6.80452 19.5806 6.78524 19.4893C6.76552 19.3976 6.72567 19.3098 6.66524 19.2258C6.60438 19.1418 6.51952 19.0715 6.41024 19.0149C6.30095 18.9583 6.15609 18.9301 5.97652 18.9301H5.44938V18.9296Z" fill="white"/>
<path d="M11.8067 20.4356C11.8067 20.7909 11.7686 21.0948 11.6923 21.3468C11.616 21.5988 11.5196 21.8096 11.4022 21.9798C11.2847 22.1499 11.1532 22.2836 11.0066 22.3813C10.86 22.4791 10.7186 22.5519 10.5819 22.6012C10.4452 22.6501 10.32 22.6813 10.2069 22.6951C10.0937 22.7079 10.0097 22.7148 9.95488 22.7148H8.32031V18.3965H9.62103C9.98445 18.3965 10.3037 18.4543 10.5789 18.5692C10.854 18.6841 11.0829 18.8379 11.2646 19.0291C11.4463 19.2202 11.5817 19.4383 11.6717 19.6822C11.7617 19.9265 11.8067 20.1776 11.8067 20.4356ZM9.72088 22.1992C10.1975 22.1992 10.5412 22.0471 10.752 21.7423C10.9629 21.4376 11.0683 20.9962 11.0683 20.4181C11.0683 20.2385 11.0469 20.0606 11.004 19.8849C10.9607 19.7092 10.878 19.5502 10.755 19.4075C10.632 19.2648 10.4649 19.1495 10.254 19.0616C10.0432 18.9738 9.76974 18.9296 9.43374 18.9296H9.0236V22.1992H9.72088Z" fill="white"/>
<path d="M13.541 18.9296V20.2891H15.3457V20.7695H13.541V22.7148H12.8262V18.3965H15.527V18.9296H13.541Z" fill="white"/>
</svg>
