<svg width="14" height="16" viewBox="0 0 14 16" fill="none" xmlns="http://www.w3.org/2000/svg">
<path d="M8.74775 5.79688C8.54079 5.79688 8.37305 5.96462 8.37305 6.17158V13.2535C8.37305 13.4604 8.54079 13.6283 8.74775 13.6283C8.95472 13.6283 9.12246 13.4604 9.12246 13.2535V6.17158C9.12246 5.96462 8.95472 5.79688 8.74775 5.79688Z" fill="#969696"/>
<path d="M4.32588 5.79688C4.11891 5.79688 3.95117 5.96462 3.95117 6.17158V13.2535C3.95117 13.4604 4.11891 13.6283 4.32588 13.6283C4.53285 13.6283 4.70059 13.4604 4.70059 13.2535V6.17158C4.70059 5.96462 4.53285 5.79688 4.32588 5.79688Z" fill="#969696"/>
<path d="M1.10329 4.76335V13.9953C1.10329 14.541 1.30338 15.0534 1.65291 15.4211C2.00083 15.7898 2.48502 15.9991 2.99175 16H10.0813C10.5882 15.9991 11.0724 15.7898 11.4201 15.4211C11.7697 15.0534 11.9698 14.541 11.9698 13.9953V4.76335C12.6646 4.57893 13.1148 3.90768 13.0219 3.19471C12.9288 2.48189 12.3215 1.94867 11.6025 1.94852H9.68406V1.48014C9.68626 1.08626 9.53052 0.708039 9.25168 0.42979C8.97285 0.151688 8.59404 -0.0031709 8.20016 4.92333e-05H4.87289C4.47901 -0.0031709 4.10021 0.151688 3.82137 0.42979C3.54254 0.708039 3.3868 1.08626 3.389 1.48014V1.94852H1.47053C0.751563 1.94867 0.144276 2.48189 0.0511844 3.19471C-0.0417602 3.90768 0.408473 4.57893 1.10329 4.76335ZM10.0813 15.2506H2.99175C2.35109 15.2506 1.8527 14.7002 1.8527 13.9953V4.79629H11.2204V13.9953C11.2204 14.7002 10.722 15.2506 10.0813 15.2506ZM4.13841 1.48014C4.13592 1.28503 4.21262 1.09724 4.35108 0.959502C4.4894 0.821768 4.67763 0.746095 4.87289 0.749461H8.20016C8.39542 0.746095 8.58365 0.821768 8.72197 0.959502C8.86044 1.09709 8.93713 1.28503 8.93465 1.48014V1.94852H4.13841V1.48014ZM1.47053 2.69793H11.6025C11.975 2.69793 12.277 2.99989 12.277 3.3724C12.277 3.74492 11.975 4.04688 11.6025 4.04688H1.47053C1.09802 4.04688 0.796059 3.74492 0.796059 3.3724C0.796059 2.99989 1.09802 2.69793 1.47053 2.69793Z" fill="#969696"/>
<path d="M6.53681 5.79688C6.32985 5.79688 6.16211 5.96462 6.16211 6.17158V13.2535C6.16211 13.4604 6.32985 13.6283 6.53681 13.6283C6.74378 13.6283 6.91152 13.4604 6.91152 13.2535V6.17158C6.91152 5.96462 6.74378 5.79688 6.53681 5.79688Z" fill="#969696"/>
</svg>
