<svg width="25" height="24" viewBox="0 0 25 24" fill="none" xmlns="http://www.w3.org/2000/svg">
<path d="M19 3H6C5.3372 3.00079 4.70178 3.26444 4.23311 3.73311C3.76444 4.20178 3.50079 4.8372 3.5 5.5V18.5C3.50069 19.1628 3.7643 19.7983 4.23299 20.267C4.70168 20.7357 5.33717 20.9993 6 21H19C19.6628 20.9993 20.2983 20.7357 20.767 20.267C21.2357 19.7983 21.4993 19.1628 21.5 18.5V5.5C21.4992 4.8372 21.2356 4.20178 20.7669 3.73311C20.2982 3.26444 19.6628 3.00079 19 3ZM14.5 4V9H10.5V4H14.5ZM20.5 18.5C20.4995 18.8977 20.3414 19.279 20.0602 19.5602C19.779 19.8414 19.3977 19.9995 19 20H6C5.60231 19.9995 5.22104 19.8414 4.93984 19.5602C4.65863 19.279 4.50045 18.8977 4.5 18.5V5.5C4.50045 5.10231 4.65863 4.72104 4.93984 4.43984C5.22104 4.15863 5.60231 4.00045 6 4H9.5V9.5C9.5 9.63261 9.55268 9.75979 9.64645 9.85355C9.74021 9.94732 9.86739 10 10 10H15C15.1326 10 15.2598 9.94732 15.3536 9.85355C15.4473 9.75979 15.5 9.63261 15.5 9.5V4H19C19.3977 4.00045 19.779 4.15863 20.0602 4.43984C20.3414 4.72104 20.4995 5.10231 20.5 5.5V18.5Z" fill="#9E9494"/>
</svg>
