<svg width="24" height="18" viewBox="0 0 24 18" fill="none" xmlns="http://www.w3.org/2000/svg">
<path d="M21.75 0H5.25C4.81243 0.000614518 4.38881 0.154031 4.05231 0.433749C3.71582 0.713467 3.48758 1.10192 3.40702 1.53202C3.03504 1.60195 2.69283 1.78256 2.4252 2.0502C2.15756 2.31783 1.97695 2.66004 1.90702 3.03202C1.47692 3.11258 1.08847 3.34082 0.808748 3.67731C0.52903 4.01381 0.375615 4.43743 0.375 4.875V16.125C0.375558 16.6221 0.573282 17.0987 0.924791 17.4502C1.2763 17.8017 1.75289 17.9994 2.25 18H18.75C19.1876 17.9994 19.6112 17.846 19.9477 17.5663C20.2842 17.2865 20.5124 16.8981 20.593 16.468C20.965 16.398 21.3072 16.2174 21.5748 15.9498C21.8424 15.6822 22.023 15.34 22.093 14.968C22.5231 14.8874 22.9115 14.6592 23.1913 14.3227C23.471 13.9862 23.6244 13.5626 23.625 13.125V1.875C23.6244 1.37789 23.4267 0.901301 23.0752 0.549791C22.7237 0.198282 22.2471 0.000558307 21.75 0ZM1.125 4.875C1.12533 4.57673 1.24397 4.29078 1.45487 4.07987C1.66578 3.86897 1.95173 3.75033 2.25 3.75H18.75C19.0483 3.75033 19.3342 3.86897 19.5451 4.07987C19.756 4.29078 19.8747 4.57673 19.875 4.875V5.25H1.125V4.875ZM19.875 16.125C19.8747 16.4233 19.756 16.7092 19.5451 16.9201C19.3342 17.131 19.0483 17.2497 18.75 17.25H2.25C1.95173 17.2497 1.66578 17.131 1.45487 16.9201C1.24397 16.7092 1.12533 16.4233 1.125 16.125V6H19.875V16.125ZM21.375 14.625C21.3747 14.8576 21.3025 15.0843 21.1682 15.2742C21.0339 15.4641 20.8442 15.6077 20.625 15.6855V4.875C20.6244 4.37789 20.4267 3.9013 20.0752 3.54979C19.7237 3.19828 19.2471 3.00056 18.75 3H2.6895C2.76726 2.78083 2.91094 2.59109 3.10081 2.45681C3.29068 2.32253 3.51745 2.25029 3.75 2.25H20.25C20.5483 2.25033 20.8342 2.36897 21.0451 2.57987C21.256 2.79078 21.3747 3.07673 21.375 3.375V14.625ZM22.875 13.125C22.8747 13.3576 22.8025 13.5843 22.6682 13.7742C22.5339 13.9641 22.3442 14.1077 22.125 14.1855V3.375C22.1244 2.87789 21.9267 2.4013 21.5752 2.04979C21.2237 1.69828 20.7471 1.50056 20.25 1.5H4.1895C4.26726 1.28083 4.41094 1.09109 4.60081 0.956814C4.79068 0.822534 5.01745 0.750293 5.25 0.75H21.75C22.0483 0.750335 22.3342 0.868969 22.5451 1.07987C22.756 1.29078 22.8747 1.57673 22.875 1.875V13.125Z" fill="#999999"/>
<path d="M2.25 4.875C2.45711 4.875 2.625 4.70711 2.625 4.5C2.625 4.29289 2.45711 4.125 2.25 4.125C2.04289 4.125 1.875 4.29289 1.875 4.5C1.875 4.70711 2.04289 4.875 2.25 4.875Z" fill="#999999"/>
<path d="M3.75 4.875C3.95711 4.875 4.125 4.70711 4.125 4.5C4.125 4.29289 3.95711 4.125 3.75 4.125C3.54289 4.125 3.375 4.29289 3.375 4.5C3.375 4.70711 3.54289 4.875 3.75 4.875Z" fill="#999999"/>
<path d="M5.25 4.875C5.45711 4.875 5.625 4.70711 5.625 4.5C5.625 4.29289 5.45711 4.125 5.25 4.125C5.04289 4.125 4.875 4.29289 4.875 4.5C4.875 4.70711 5.04289 4.875 5.25 4.875Z" fill="#999999"/>
<path d="M6.375 13.875H14.625C14.7245 13.875 14.8198 13.8355 14.8902 13.7652C14.9605 13.6948 15 13.5995 15 13.5V7.5C15 7.40054 14.9605 7.30516 14.8902 7.23483C14.8198 7.16451 14.7245 7.125 14.625 7.125H6.375C6.27554 7.125 6.18016 7.16451 6.10983 7.23483C6.03951 7.30516 6 7.40054 6 7.5V13.5C6 13.5995 6.03951 13.6948 6.10983 13.7652C6.18016 13.8355 6.27554 13.875 6.375 13.875ZM6.75 7.875H14.25V13.125H6.75V7.875Z" fill="#999999"/>
<path d="M9.56719 11.2024C9.62543 11.2349 9.69129 11.2513 9.758 11.2499C9.8247 11.2485 9.88982 11.2294 9.94664 11.1944L11.7748 10.0694C11.8293 10.0358 11.8743 9.98887 11.9056 9.93297C11.9368 9.87706 11.9532 9.81409 11.9532 9.75005C11.9532 9.68601 11.9368 9.62304 11.9056 9.56714C11.8743 9.51123 11.8293 9.46426 11.7748 9.43069L9.94664 8.30569C9.88982 8.2707 9.82469 8.2515 9.75797 8.25008C9.69125 8.24867 9.62536 8.26508 9.5671 8.29762C9.50885 8.33017 9.46033 8.37768 9.42656 8.43523C9.39279 8.49279 9.37499 8.55832 9.375 8.62505V10.8751C9.37502 10.9418 9.39284 11.0073 9.42662 11.0648C9.4604 11.1224 9.50893 11.1699 9.56719 11.2024ZM10.125 9.29611L10.8626 9.75005L10.125 10.204V9.29611Z" fill="#999999"/>
<path d="M13.125 11.625H12.375C12.375 11.5255 12.3355 11.4302 12.2652 11.3598C12.1948 11.2895 12.0995 11.25 12 11.25C11.9005 11.25 11.8052 11.2895 11.7348 11.3598C11.6645 11.4302 11.625 11.5255 11.625 11.625H7.875C7.77554 11.625 7.68016 11.6645 7.60983 11.7348C7.53951 11.8052 7.5 11.9005 7.5 12C7.5 12.0995 7.53951 12.1948 7.60983 12.2652C7.68016 12.3355 7.77554 12.375 7.875 12.375H11.625C11.625 12.4745 11.6645 12.5698 11.7348 12.6402C11.8052 12.7105 11.9005 12.75 12 12.75C12.0995 12.75 12.1948 12.7105 12.2652 12.6402C12.3355 12.5698 12.375 12.4745 12.375 12.375H13.125C13.2245 12.375 13.3198 12.3355 13.3902 12.2652C13.4605 12.1948 13.5 12.0995 13.5 12C13.5 11.9005 13.4605 11.8052 13.3902 11.7348C13.3198 11.6645 13.2245 11.625 13.125 11.625Z" fill="#999999"/>
<path d="M6.375 15H14.625C14.7245 15 14.8198 14.9605 14.8902 14.8902C14.9605 14.8198 15 14.7245 15 14.625C15 14.5255 14.9605 14.4302 14.8902 14.3598C14.8198 14.2895 14.7245 14.25 14.625 14.25H6.375C6.27554 14.25 6.18016 14.2895 6.10983 14.3598C6.03951 14.4302 6 14.5255 6 14.625C6 14.7245 6.03951 14.8198 6.10983 14.8902C6.18016 14.9605 6.27554 15 6.375 15Z" fill="#999999"/>
<path d="M6.375 16.125H11.625C11.7245 16.125 11.8198 16.0855 11.8902 16.0152C11.9605 15.9448 12 15.8495 12 15.75C12 15.6505 11.9605 15.5552 11.8902 15.4848C11.8198 15.4145 11.7245 15.375 11.625 15.375H6.375C6.27554 15.375 6.18016 15.4145 6.10983 15.4848C6.03951 15.5552 6 15.6505 6 15.75C6 15.8495 6.03951 15.9448 6.10983 16.0152C6.18016 16.0855 6.27554 16.125 6.375 16.125Z" fill="#999999"/>
<path d="M13.125 15.375H12.75C12.6505 15.375 12.5552 15.4145 12.4848 15.4848C12.4145 15.5552 12.375 15.6505 12.375 15.75C12.375 15.8495 12.4145 15.9448 12.4848 16.0152C12.5552 16.0855 12.6505 16.125 12.75 16.125H13.125C13.2245 16.125 13.3198 16.0855 13.3902 16.0152C13.4605 15.9448 13.5 15.8495 13.5 15.75C13.5 15.6505 13.4605 15.5552 13.3902 15.4848C13.3198 15.4145 13.2245 15.375 13.125 15.375Z" fill="#999999"/>
</svg>
