<svg width="36" height="28" viewBox="0 0 36 28" fill="none" xmlns="http://www.w3.org/2000/svg">
<path d="M32.625 0.5H7.875C7.21864 0.500922 6.58321 0.731046 6.07847 1.15062C5.57372 1.5702 5.23136 2.15288 5.11052 2.79802C4.55255 2.90293 4.03925 3.17384 3.63779 3.57529C3.23634 3.97675 2.96543 4.49005 2.86052 5.04802C2.21538 5.16886 1.6327 5.51122 1.21312 6.01597C0.793546 6.52071 0.563422 7.15614 0.5625 7.8125V24.6875C0.563337 25.4332 0.859923 26.148 1.38719 26.6753C1.91445 27.2026 2.62934 27.4992 3.375 27.5H28.125C28.7814 27.4991 29.4168 27.269 29.9215 26.8494C30.4263 26.4298 30.7686 25.8471 30.8895 25.202C31.4474 25.0971 31.9607 24.8262 32.3622 24.4247C32.7637 24.0232 33.0346 23.5099 33.1395 22.952C33.7846 22.8311 34.3673 22.4888 34.7869 21.984C35.2065 21.4793 35.4366 20.8439 35.4375 20.1875V3.3125C35.4367 2.56684 35.1401 1.85195 34.6128 1.32469C34.0855 0.797422 33.3707 0.500837 32.625 0.5ZM1.6875 7.8125C1.688 7.3651 1.86595 6.93617 2.18231 6.61981C2.49867 6.30345 2.9276 6.1255 3.375 6.125H28.125C28.5724 6.1255 29.0013 6.30345 29.3177 6.61981C29.634 6.93617 29.812 7.3651 29.8125 7.8125V8.375H1.6875V7.8125ZM29.8125 24.6875C29.812 25.1349 29.634 25.5638 29.3177 25.8802C29.0013 26.1965 28.5724 26.3745 28.125 26.375H3.375C2.9276 26.3745 2.49867 26.1965 2.18231 25.8802C1.86595 25.5638 1.688 25.1349 1.6875 24.6875V9.5H29.8125V24.6875ZM32.0625 22.4375C32.0621 22.7863 31.9537 23.1265 31.7523 23.4113C31.5509 23.6961 31.2663 23.9116 30.9375 24.0282V7.8125C30.9367 7.06684 30.6401 6.35195 30.1128 5.82469C29.5855 5.29742 28.8707 5.00084 28.125 5H4.03425C4.15089 4.67125 4.3664 4.38664 4.65121 4.18522C4.93602 3.9838 5.27617 3.87544 5.625 3.875H30.375C30.8224 3.8755 31.2513 4.05345 31.5677 4.36981C31.884 4.68617 32.062 5.1151 32.0625 5.5625V22.4375ZM34.3125 20.1875C34.3121 20.5363 34.2037 20.8765 34.0023 21.1613C33.8009 21.4461 33.5163 21.6616 33.1875 21.7782V5.5625C33.1867 4.81684 32.8901 4.10195 32.3628 3.57469C31.8355 3.04742 31.1207 2.75084 30.375 2.75H6.28425C6.40089 2.42125 6.6164 2.13664 6.90121 1.93522C7.18602 1.7338 7.52617 1.62544 7.875 1.625H32.625C33.0724 1.6255 33.5013 1.80345 33.8177 2.11981C34.134 2.43617 34.312 2.8651 34.3125 3.3125V20.1875Z" fill="white"/>
<path d="M3.375 7.8125C3.68566 7.8125 3.9375 7.56066 3.9375 7.25C3.9375 6.93934 3.68566 6.6875 3.375 6.6875C3.06434 6.6875 2.8125 6.93934 2.8125 7.25C2.8125 7.56066 3.06434 7.8125 3.375 7.8125Z" fill="white"/>
<path d="M5.625 7.8125C5.93566 7.8125 6.1875 7.56066 6.1875 7.25C6.1875 6.93934 5.93566 6.6875 5.625 6.6875C5.31434 6.6875 5.0625 6.93934 5.0625 7.25C5.0625 7.56066 5.31434 7.8125 5.625 7.8125Z" fill="white"/>
<path d="M7.875 7.8125C8.18566 7.8125 8.4375 7.56066 8.4375 7.25C8.4375 6.93934 8.18566 6.6875 7.875 6.6875C7.56434 6.6875 7.3125 6.93934 7.3125 7.25C7.3125 7.56066 7.56434 7.8125 7.875 7.8125Z" fill="white"/>
<path d="M9.5625 21.3125H21.9375C22.0867 21.3125 22.2298 21.2532 22.3352 21.1477C22.4407 21.0423 22.5 20.8992 22.5 20.75V11.75C22.5 11.6008 22.4407 11.4577 22.3352 11.3523C22.2298 11.2468 22.0867 11.1875 21.9375 11.1875H9.5625C9.41332 11.1875 9.27024 11.2468 9.16475 11.3523C9.05926 11.4577 9 11.6008 9 11.75V20.75C9 20.8992 9.05926 21.0423 9.16475 21.1477C9.27024 21.2532 9.41332 21.3125 9.5625 21.3125ZM10.125 12.3125H21.375V20.1875H10.125V12.3125Z" fill="white"/>
<path d="M14.3508 17.3036C14.4381 17.3524 14.5369 17.377 14.637 17.3749C14.737 17.3728 14.8347 17.3441 14.92 17.2916L17.6621 15.6041C17.744 15.5538 17.8115 15.4833 17.8584 15.3995C17.9052 15.3156 17.9298 15.2211 17.9298 15.1251C17.9298 15.029 17.9052 14.9346 17.8584 14.8507C17.8115 14.7668 17.744 14.6964 17.6621 14.646L14.92 12.9585C14.8347 12.906 14.737 12.8773 14.637 12.8751C14.5369 12.873 14.438 12.8976 14.3507 12.9464C14.2633 12.9953 14.1905 13.0665 14.1398 13.1529C14.0892 13.2392 14.0625 13.3375 14.0625 13.4376V16.8126C14.0625 16.9127 14.0893 17.0109 14.1399 17.0972C14.1906 17.1836 14.2634 17.2548 14.3508 17.3036ZM15.1875 14.4442L16.2939 15.1251L15.1875 15.806V14.4442Z" fill="white"/>
<path d="M19.6875 17.9375H18.5625C18.5625 17.7883 18.5032 17.6452 18.3977 17.5398C18.2923 17.4343 18.1492 17.375 18 17.375C17.8508 17.375 17.7077 17.4343 17.6023 17.5398C17.4968 17.6452 17.4375 17.7883 17.4375 17.9375H11.8125C11.6633 17.9375 11.5202 17.9968 11.4148 18.1023C11.3093 18.2077 11.25 18.3508 11.25 18.5C11.25 18.6492 11.3093 18.7923 11.4148 18.8977C11.5202 19.0032 11.6633 19.0625 11.8125 19.0625H17.4375C17.4375 19.2117 17.4968 19.3548 17.6023 19.4602C17.7077 19.5657 17.8508 19.625 18 19.625C18.1492 19.625 18.2923 19.5657 18.3977 19.4602C18.5032 19.3548 18.5625 19.2117 18.5625 19.0625H19.6875C19.8367 19.0625 19.9798 19.0032 20.0852 18.8977C20.1907 18.7923 20.25 18.6492 20.25 18.5C20.25 18.3508 20.1907 18.2077 20.0852 18.1023C19.9798 17.9968 19.8367 17.9375 19.6875 17.9375Z" fill="white"/>
<path d="M9.5625 23H21.9375C22.0867 23 22.2298 22.9407 22.3352 22.8352C22.4407 22.7298 22.5 22.5867 22.5 22.4375C22.5 22.2883 22.4407 22.1452 22.3352 22.0398C22.2298 21.9343 22.0867 21.875 21.9375 21.875H9.5625C9.41332 21.875 9.27024 21.9343 9.16475 22.0398C9.05926 22.1452 9 22.2883 9 22.4375C9 22.5867 9.05926 22.7298 9.16475 22.8352C9.27024 22.9407 9.41332 23 9.5625 23Z" fill="white"/>
<path d="M9.5625 24.6875H17.4375C17.5867 24.6875 17.7298 24.6282 17.8352 24.5227C17.9407 24.4173 18 24.2742 18 24.125C18 23.9758 17.9407 23.8327 17.8352 23.7273C17.7298 23.6218 17.5867 23.5625 17.4375 23.5625H9.5625C9.41332 23.5625 9.27024 23.6218 9.16475 23.7273C9.05926 23.8327 9 23.9758 9 24.125C9 24.2742 9.05926 24.4173 9.16475 24.5227C9.27024 24.6282 9.41332 24.6875 9.5625 24.6875Z" fill="white"/>
<path d="M19.6875 23.5625H19.125C18.9758 23.5625 18.8327 23.6218 18.7273 23.7273C18.6218 23.8327 18.5625 23.9758 18.5625 24.125C18.5625 24.2742 18.6218 24.4173 18.7273 24.5227C18.8327 24.6282 18.9758 24.6875 19.125 24.6875H19.6875C19.8367 24.6875 19.9798 24.6282 20.0852 24.5227C20.1907 24.4173 20.25 24.2742 20.25 24.125C20.25 23.9758 20.1907 23.8327 20.0852 23.7273C19.9798 23.6218 19.8367 23.5625 19.6875 23.5625Z" fill="white"/>
</svg>
