<svg width="25" height="24" viewBox="0 0 25 24" fill="none" xmlns="http://www.w3.org/2000/svg">
<g clip-path="url(#clip0)">
<path d="M21.9373 12.0156C20.8804 10.9635 19.6585 11.9482 19.6585 11.9482V6.40932C19.6585 6.22331 19.5078 6.0724 19.3218 6.0724C19.1356 6.0724 18.9849 6.22331 18.9849 6.40932V12.4222C18.9849 12.4222 17.3784 13.6886 16.6879 13.9982V4.02511C16.6879 3.5615 17.065 3.1844 17.5286 3.1844H18.1442C18.6078 3.1844 18.9849 3.5615 18.9849 4.02511V5.03007C18.9849 5.21625 19.1356 5.36698 19.3218 5.36698C19.5078 5.36698 19.6585 5.21625 19.6585 5.03007V4.02511C19.6585 3.19001 18.9793 2.51074 18.1442 2.51074H17.5286C16.6935 2.51074 16.014 3.19001 16.014 4.02511V14.2652C15.8131 14.3216 15.6069 14.3598 15.3974 14.38V7.27723C15.3974 6.43792 14.7146 5.75514 13.8755 5.75514H13.2748C12.4357 5.75514 11.7529 6.43792 11.7529 7.27723V10.7099L11.1361 11.0373V9.89499C11.1361 9.13939 10.5214 8.52469 9.766 8.52469H8.86194C8.10634 8.52469 7.49182 9.13939 7.49182 9.89499V12.9718L6.39175 13.5556L3.30265 14.4384C2.76517 14.592 2.3163 14.944 2.03904 15.4294C1.76161 15.9149 1.68633 16.4803 1.82707 17.0213L2.17258 18.3507C2.21926 18.5307 2.40316 18.6387 2.58337 18.592C2.76341 18.5451 2.8715 18.3612 2.82465 18.181L2.47914 16.8518C2.27874 16.0807 2.72182 15.3051 3.48796 15.0863L6.31226 14.2791L8.43501 19.9446C8.57714 20.3239 8.55468 21.4063 7.4318 21.8051L5.29748 22.29C4.55363 22.4588 3.82066 22.0129 3.62869 21.2745L3.19544 19.6073C3.14858 19.4273 2.96468 19.3192 2.78464 19.3658C2.60443 19.4127 2.49651 19.5966 2.54319 19.7768L2.97662 21.4442C3.22018 22.3809 4.05229 22.9998 4.97863 22.9998C5.65931 22.9998 7.58113 22.4621 7.58113 22.4621C8.166 22.3295 8.66471 21.9504 8.94915 21.4226C9.18394 20.9871 9.25361 20.4859 9.15288 20.0084L16.537 18.2007C17.1476 18.051 17.7274 17.7609 18.2131 17.3617L21.8065 14.4091C22.902 13.4375 22.2594 12.3362 21.9373 12.0156ZM13.2748 6.42897H13.8755C14.3431 6.42897 14.7236 6.80958 14.7236 7.27723V14.3969L12.5977 14.396C12.4024 14.3942 12.5375 14.2652 12.5482 14.2565L13.1604 13.7606C13.7316 13.2978 14.1047 12.6545 14.2691 11.8482C14.3735 11.3367 14.1784 10.8247 13.7602 10.512C13.3696 10.22 12.8672 10.1638 12.4268 10.3568V7.27723C12.4268 6.80958 12.8072 6.42897 13.2748 6.42897ZM8.16565 9.89499C8.16565 9.51105 8.478 9.19852 8.86194 9.19852H9.766C10.1499 9.19852 10.4625 9.51105 10.4625 9.89499V11.395L8.16547 12.6142V9.89499H8.16565ZM21.3789 13.8887L17.7853 16.8413C17.3771 17.1768 16.89 17.4205 16.3767 17.5461L8.93827 19.3674L6.93784 14.0289L12.6496 10.997C12.8818 10.8736 13.1462 10.8942 13.3566 11.0516C13.567 11.209 13.6614 11.4564 13.6089 11.7136C13.4765 12.3627 13.1829 12.8753 12.7363 13.237L12.1241 13.733C11.8731 13.9362 11.7807 14.2642 11.8884 14.5686C11.9961 14.8729 12.2744 15.0698 12.5973 15.0698L15.0521 15.0709H15.0538C15.9277 15.0709 16.7675 14.8052 17.4824 14.3025L20.2258 12.3733C20.61 12.103 21.1271 12.1508 21.4552 12.4866C21.6442 12.6796 22.0141 13.2533 21.3789 13.8887Z" fill="#9E9494"/>
<path d="M7.14486 20.1605C7.14486 19.4286 6.54946 18.833 5.81755 18.833C5.08563 18.833 4.49023 19.4286 4.49023 20.1605C4.49023 20.8922 5.08563 21.4878 5.81755 21.4878C6.54946 21.4878 7.14486 20.8922 7.14486 20.1605ZM5.16407 20.1605C5.16407 19.8001 5.45711 19.5068 5.81755 19.5068C6.1778 19.5068 6.47102 19.8001 6.47102 20.1605C6.47102 20.5207 6.17798 20.814 5.81755 20.814C5.45711 20.814 5.16407 20.5207 5.16407 20.1605Z" fill="#9E9494"/>
<path d="M3.39454 10.5783L8.29211 5.64299L9.39375 6.21277C9.7884 6.41685 10.2687 6.34701 10.5887 6.03887L13.2546 3.47269C13.2546 3.47269 13.1812 4.7907 14.2911 4.7907C14.8625 4.7907 15.3275 4.32569 15.3275 3.75416V1.03637C15.3275 1.03321 15.3273 1.02988 15.3273 1.02654C15.3236 0.317438 14.8051 0 14.2911 0H11.597C11.0255 0 10.5607 0.465014 10.5607 1.03637C10.5607 2.17557 11.7201 2.07274 11.7201 2.07274L9.68627 4.03036L8.56866 3.45234C8.16453 3.24317 7.67759 3.31985 7.35681 3.64273L1.92334 9.11814C1.5208 9.52384 1.52325 10.1814 1.92895 10.5839C2.12444 10.7778 2.79195 11.1809 3.39454 10.5783ZM2.40151 9.59281L7.83499 4.11739C7.90518 4.04685 8.01784 3.92332 8.25912 4.05089L9.59116 4.73981C9.71944 4.80614 9.87561 4.78351 9.97967 4.68331L12.7894 1.97868C12.8884 1.8834 12.9196 1.7374 12.8682 1.61C12.8168 1.48243 12.6932 1.39908 12.5557 1.39908H11.597C11.3972 1.39908 11.2345 1.23641 11.2345 1.03637C11.2345 0.836499 11.3972 0.673832 11.597 0.673832H14.2911C14.3903 0.673832 14.6535 0.673832 14.6535 1.03426C14.6535 1.03725 14.6537 1.04023 14.6537 1.04339V3.75416C14.6537 3.95403 14.491 4.11669 14.2911 4.11669C14.0911 4.11669 13.9284 3.95403 13.9284 3.75416V2.68076C13.9284 2.54565 13.8477 2.42351 13.7235 2.3707C13.5992 2.3177 13.4553 2.34437 13.358 2.43808L10.1215 5.5535C10.0095 5.66124 9.84139 5.68581 9.70347 5.61439L8.38213 4.93091C8.2514 4.86335 8.09189 4.88844 7.98818 4.99285L2.91636 10.1036C2.69526 10.3247 2.47188 10.1735 2.40345 10.1056C2.26166 9.96464 2.26078 9.73459 2.40151 9.59281Z" fill="#9E9494"/>
</g>
<defs>
<clipPath id="clip0">
<rect width="24" height="24" fill="white" transform="translate(0.5)"/>
</clipPath>
</defs>
</svg>
