<svg width="36" height="36" viewBox="0 0 36 36" fill="none" xmlns="http://www.w3.org/2000/svg">
<path d="M33.554 18.8069C31.8997 17.1601 29.9873 18.7014 29.9873 18.7014V10.0318C29.9873 9.74066 29.7513 9.50446 29.4602 9.50446C29.1688 9.50446 28.9328 9.74066 28.9328 10.0318V19.4433C28.9328 19.4433 26.4183 21.4255 25.3375 21.91V6.3C25.3375 5.57435 25.9278 4.98411 26.6534 4.98411H27.6169C28.3426 4.98411 28.9328 5.57435 28.9328 6.3V7.87298C28.9328 8.16439 29.1688 8.40033 29.4602 8.40033C29.7513 8.40033 29.9873 8.16439 29.9873 7.87298V6.3C29.9873 4.9929 28.924 3.92969 27.6169 3.92969H26.6534C25.3463 3.92969 24.2828 4.9929 24.2828 6.3V22.328C23.9684 22.4162 23.6456 22.4761 23.3177 22.5077V11.3903C23.3177 10.0766 22.249 9.00787 20.9356 9.00787H19.9954C18.682 9.00787 17.6133 10.0766 17.6133 11.3903V16.7632L16.6478 17.2757V15.4876C16.6478 14.305 15.6857 13.3428 14.5033 13.3428H13.0883C11.9056 13.3428 10.9437 14.305 10.9437 15.4876V20.3035L9.22187 21.2173L4.38676 22.5991C3.54548 22.8395 2.8429 23.3904 2.40893 24.1501C1.9747 24.9101 1.85687 25.7951 2.07715 26.6419L2.61795 28.7227C2.69101 29.0045 2.97885 29.1734 3.26093 29.1003C3.54273 29.027 3.71192 28.7392 3.63859 28.4571L3.09778 26.3765C2.78412 25.1697 3.47764 23.9557 4.6768 23.6132L9.09745 22.3497L12.42 31.2174C12.6425 31.8112 12.6073 33.5053 10.8498 34.1296L7.50909 34.8885C6.34481 35.1527 5.19756 34.4548 4.89708 33.2991L4.21894 30.6895C4.14561 30.4077 3.85776 30.2385 3.57596 30.3116C3.29389 30.3849 3.12497 30.6728 3.19803 30.9548L3.87644 33.5647C4.25767 35.0308 5.56011 35.9995 7.01004 35.9995C8.07544 35.9995 11.0835 35.158 11.0835 35.158C11.999 34.9503 12.7795 34.357 13.2248 33.5309C13.5923 32.8492 13.7013 32.0647 13.5436 31.3174L25.1013 28.4878C26.0571 28.2536 26.9646 27.7995 27.7249 27.1747L33.3494 22.5533C35.0641 21.0325 34.0583 19.3087 33.554 18.8069ZM19.9954 10.0626H20.9356C21.6675 10.0626 22.263 10.6583 22.263 11.3903V22.534L18.9355 22.5327C18.6298 22.5299 18.8413 22.328 18.858 22.3143L19.8163 21.5381C20.7103 20.8139 21.2943 19.8069 21.5516 18.5449C21.715 17.7443 21.4096 16.9428 20.7551 16.4534C20.1437 15.9963 19.3574 15.9084 18.668 16.2106V11.3903C18.668 10.6583 19.2634 10.0626 19.9954 10.0626ZM11.9984 15.4876C11.9984 14.8867 12.4873 14.3975 13.0883 14.3975H14.5033C15.1043 14.3975 15.5934 14.8867 15.5934 15.4876V17.8354L11.9981 19.7438V15.4876H11.9984ZM32.68 21.7386L27.0553 26.3601C26.4164 26.8852 25.6539 27.2667 24.8506 27.4634L13.2077 30.3141L10.0766 21.9581L19.0168 17.2125C19.3802 17.0194 19.7941 17.0516 20.1234 17.2979C20.4527 17.5443 20.6005 17.9316 20.5184 18.3342C20.311 19.3502 19.8515 20.1525 19.1525 20.7185L18.1942 21.495C17.8014 21.8131 17.6567 22.3264 17.8253 22.8029C17.994 23.2792 18.4296 23.5874 18.9349 23.5874L22.7772 23.589H22.7799C24.1477 23.589 25.4622 23.1732 26.5812 22.3863L30.8752 19.3667C31.4765 18.9437 32.2859 19.0184 32.7995 19.5441C33.0953 19.8462 33.6743 20.7441 32.68 21.7386Z" fill="white"/>
<path d="M10.3992 31.5553C10.3992 30.4097 9.46728 29.4775 8.32167 29.4775C7.17606 29.4775 6.24414 30.4097 6.24414 31.5553C6.24414 32.7007 7.17606 33.6329 8.32167 33.6329C9.46728 33.6329 10.3992 32.7007 10.3992 31.5553ZM7.29884 31.5553C7.29884 30.9912 7.75752 30.5322 8.32167 30.5322C8.88555 30.5322 9.34451 30.9912 9.34451 31.5553C9.34451 32.1192 8.88582 32.5782 8.32167 32.5782C7.75752 32.5782 7.29884 32.1192 7.29884 31.5553Z" fill="white"/>
<path d="M4.53058 16.5573L12.1963 8.83251L13.9207 9.72433C14.5384 10.0438 15.2901 9.93445 15.7911 9.45214L19.9637 5.43552C19.9637 5.43552 19.8489 7.49849 21.5861 7.49849C22.4804 7.49849 23.2083 6.77064 23.2083 5.87607V1.62214C23.2083 1.6172 23.208 1.61198 23.208 1.60676C23.2022 0.49686 22.3906 0 21.5861 0H17.3693C16.4747 0 15.7471 0.727849 15.7471 1.62214C15.7471 3.40523 17.5618 3.24428 17.5618 3.24428L14.3785 6.30839L12.6292 5.40366C11.9967 5.07626 11.2345 5.19629 10.7324 5.70166L2.22784 14.2719C1.59777 14.9069 1.60161 15.936 2.23663 16.5661C2.5426 16.8696 3.5874 17.5005 4.53058 16.5573ZM2.97628 15.0148L11.4809 6.44462C11.5907 6.33421 11.767 6.14084 12.1447 6.34052L14.2296 7.41884C14.4304 7.52266 14.6749 7.48723 14.8377 7.3304L19.2356 3.09706C19.3905 2.94792 19.4394 2.71941 19.3589 2.52C19.2784 2.32033 19.0851 2.18986 18.8697 2.18986H17.3693C17.0564 2.18986 16.8018 1.93525 16.8018 1.62214C16.8018 1.3093 17.0564 1.05469 17.3693 1.05469H21.5861C21.7413 1.05469 22.1533 1.05469 22.1533 1.61885C22.1533 1.62351 22.1536 1.62818 22.1536 1.63313V5.87607C22.1536 6.18891 21.899 6.44352 21.5861 6.44352C21.273 6.44352 21.0184 6.18891 21.0184 5.87607V4.19598C21.0184 3.98449 20.8921 3.79333 20.6976 3.71065C20.5032 3.62771 20.2779 3.66946 20.1255 3.81612L15.0597 8.69243C14.8844 8.86108 14.6213 8.89953 14.4054 8.78774L12.3372 7.71794C12.1326 7.6122 11.883 7.65147 11.7206 7.8149L3.78214 15.8144C3.43606 16.1604 3.08642 15.9237 2.97931 15.8174C2.75738 15.5968 2.75601 15.2368 2.97628 15.0148Z" fill="white"/>
</svg>
