<svg width="36" height="31" viewBox="0 0 36 31" fill="none" xmlns="http://www.w3.org/2000/svg">
<path d="M33.9265 2.47438H32.4341V1.06152C32.4341 0.770289 32.198 0.53418 31.9068 0.53418H28.7273C28.436 0.53418 28.1999 0.770289 28.1999 1.06152V2.47438H10.7779V1.06152C10.7779 0.770289 10.5418 0.53418 10.2505 0.53418H7.071C6.77977 0.53418 6.54366 0.770289 6.54366 1.06152V2.47438H5.31164C4.02401 2.47438 2.97656 3.5219 2.97656 4.80946V17.6409C2.97656 17.9321 3.21267 18.1682 3.50391 18.1682C3.79514 18.1682 4.03125 17.9321 4.03125 17.6409V4.80953C4.03125 4.10352 4.60563 3.52914 5.31164 3.52914H33.9265C34.4889 3.52914 34.9464 3.98666 34.9464 4.54902V21.9887C34.9464 22.5511 34.4889 23.0086 33.9265 23.0086H32.8026V21.0127C32.8026 20.7215 32.5665 20.4853 32.2753 20.4853H26.609C26.3178 20.4853 26.0817 20.7215 26.0817 21.0127V23.0086H17.6295L19.6249 22.463C20.6583 22.181 21.564 21.5942 22.2442 20.7658L25.6332 16.6371C25.7007 16.5551 25.7438 16.4488 25.7519 16.3429L26.0507 12.4065C26.0803 12.0174 25.8442 11.6353 25.4854 11.4851C25.6451 11.3945 25.7531 11.2232 25.7531 11.0264C25.7531 10.7352 25.517 10.4991 25.2258 10.4991H22.9149C22.6237 10.4991 22.3876 10.7352 22.3876 11.0264C22.3876 11.3177 22.6237 11.5538 22.9149 11.5538H24.6398C24.582 11.5903 24.5274 11.6336 24.4773 11.6838L22.5421 13.619C22.1683 13.9926 21.8606 14.4619 21.5294 14.8738C21.3468 15.1007 21.3828 15.4327 21.6098 15.6152C21.8368 15.7978 22.1687 15.7618 22.3512 15.5348L22.9579 14.7805L24.5148 16.3375L21.4291 20.0967C20.8885 20.7551 20.1687 21.2215 19.347 21.4457L11.0198 23.8419C10.3748 24.0487 10.6962 25.0531 11.3417 24.8463L13.1734 24.259V28.6777H12.4407C12.1495 28.6777 11.9134 28.9138 11.9134 29.2051C11.9134 29.4963 12.1495 29.7324 12.4407 29.7324H15.6644C15.9556 29.7324 16.1917 29.4963 16.1917 29.2051C16.1917 28.9138 15.9556 28.6777 15.6644 28.6777H14.2281V24.0632H33.9265C35.0704 24.0632 36.0011 23.1325 36.0011 21.9886V4.54895C36.0011 3.40504 35.0704 2.47438 33.9265 2.47438ZM29.2546 1.58887H31.3794V2.4741H29.2546V1.58887ZM7.59834 1.58887H9.72319V2.4741H7.59834V1.58887ZM24.9723 12.6802L24.7872 15.1182L23.6608 13.9918L24.9723 12.6802ZM27.1364 23.0085V21.54H31.7479V23.0085H27.1364Z" fill="white" stroke="white"/>
<path d="M9.92152 28.6776H3.1507V25.8775C3.1507 24.0987 3.56091 22.3239 4.34355 20.7264C4.77162 19.8529 5.67647 19.2885 6.64875 19.2885H15.5348C17.3921 19.2885 19.1988 18.6321 20.6222 17.4403C20.8455 17.2533 20.875 16.9207 20.688 16.6974C20.501 16.474 20.1684 16.4446 19.9452 16.6316C18.7114 17.6648 17.1451 18.2338 15.5349 18.2338H11.7161C12.3077 17.618 12.6725 16.7828 12.6725 15.8636V13.9271C14.0281 13.8377 15.1039 12.707 15.1039 11.3291C15.1039 9.89271 13.9356 8.72405 12.4995 8.72405C11.6216 8.70345 10.7859 8.90777 10.1706 9.57722C9.86984 9.90319 9.44318 10.0901 9.00007 10.0901H7.55093C6.3405 10.0901 5.35577 11.0752 5.35577 12.286V16.2383C5.35577 16.687 5.46363 17.1274 5.73476 17.4917C5.85703 17.6559 6.0075 17.7989 6.17759 17.9129C6.36103 18.036 6.62857 18.0805 6.77587 18.2338C5.36407 18.2101 4.02321 18.9835 3.39652 20.2623C2.54327 22.0039 2.09609 23.9382 2.09609 25.8775V28.6776H0.527344C0.236109 28.6776 0 28.9137 0 29.205C0 29.4962 0.236109 29.7323 0.527344 29.7323H9.92152C10.2128 29.7323 10.4489 29.4962 10.4489 29.205C10.4489 28.9137 10.2128 28.6776 9.92152 28.6776ZM9.09773 18.2292C8.80348 18.2111 8.51752 18.1375 8.25377 18.0156C8.37612 17.9528 8.49473 17.8754 8.60084 17.7879C9.03916 17.4262 9.28062 16.8908 9.28062 16.2805V13.9335H11.6178V15.8636C11.6178 17.1705 10.5542 18.2338 9.24687 18.2338C9.1909 18.2338 9.14372 18.2324 9.09773 18.2292ZM6.41039 16.2383V12.2861C6.41039 11.6569 6.92198 11.1449 7.55086 11.1449H9C9.7368 11.1449 10.446 10.8342 10.9464 10.2917C11.3607 9.84082 11.9231 9.75736 12.4995 9.77874C13.354 9.77874 14.0491 10.4743 14.0491 11.3291C14.0491 12.1836 13.354 12.8788 12.4995 12.8788H8.7532C8.46197 12.8788 8.22586 13.1149 8.22586 13.4062V16.2805C8.22586 16.8957 7.68305 17.2819 7.09481 17.1697C6.62372 17.0798 6.41039 16.6964 6.41039 16.2383Z" fill="white" stroke="white"/>
<path d="M18.0508 8.58892H20.9228C21.214 8.58892 21.4501 8.35281 21.4501 8.06158V6.12109C21.4501 5.82986 21.214 5.59375 20.9228 5.59375H18.0508C17.7595 5.59375 17.5234 5.82986 17.5234 6.12109V8.06158C17.5234 8.35281 17.7595 8.58892 18.0508 8.58892ZM18.5781 6.64844H20.3954V7.53423H18.5781V6.64844Z" fill="white" stroke="white"/>
<path d="M17.5234 11.9962C17.5234 12.2875 17.7595 12.5236 18.0508 12.5236H20.9228C21.214 12.5236 21.4501 12.2875 21.4501 11.9962V10.0557C21.4501 9.76443 21.214 9.52832 20.9228 9.52832H18.0508C17.7595 9.52832 17.5234 9.76443 17.5234 10.0557V11.9962ZM18.5781 10.583H20.3954V11.4689H18.5781V10.583Z" fill="white" stroke="white"/>
<path d="M22.9141 7.61816H32.2744C32.5656 7.61816 32.8017 7.38205 32.8017 7.09082C32.8017 6.79959 32.5656 6.56348 32.2744 6.56348H22.9141C22.6228 6.56348 22.3867 6.79959 22.3867 7.09082C22.3867 7.38205 22.6228 7.61816 22.9141 7.61816Z" fill="white" stroke="white"/>
</svg>
