<svg width="24" height="21" viewBox="0 0 24 21" fill="none" xmlns="http://www.w3.org/2000/svg">
<path d="M22.6167 2.06007H21.6218V1.11816C21.6218 0.924008 21.4644 0.766602 21.2702 0.766602H19.1505C18.9564 0.766602 18.799 0.924008 18.799 1.11816V2.06007H7.18427V1.11816C7.18427 0.924008 7.02687 0.766602 6.83271 0.766602H4.71302C4.51887 0.766602 4.36146 0.924008 4.36146 1.11816V2.06007H3.54012C2.6817 2.06007 1.9834 2.75841 1.9834 3.61679V12.1711C1.9834 12.3652 2.1408 12.5226 2.33496 12.5226C2.52912 12.5226 2.68652 12.3652 2.68652 12.1711V3.61684C2.68652 3.14616 3.06945 2.76324 3.54012 2.76324H22.6167C22.9916 2.76324 23.2966 3.06826 23.2966 3.44316V15.0696C23.2966 15.4445 22.9916 15.7495 22.6167 15.7495H21.8674V14.4189C21.8674 14.2248 21.71 14.0674 21.5159 14.0674H17.7384C17.5442 14.0674 17.3868 14.2248 17.3868 14.4189V15.7495H11.7521L13.0823 15.3858C13.7712 15.1978 14.375 14.8066 14.8285 14.2544L17.0878 11.5019C17.1328 11.4472 17.1616 11.3764 17.167 11.3057L17.3662 8.68149C17.3859 8.42208 17.2285 8.16737 16.9893 8.06724C17.0958 8.00682 17.1678 7.89263 17.1678 7.76143C17.1678 7.56727 17.0104 7.40987 16.8162 7.40987H15.2756C15.0815 7.40987 14.9241 7.56727 14.9241 7.76143C14.9241 7.95559 15.0815 8.11299 15.2756 8.11299H16.4255C16.3871 8.13737 16.3506 8.16619 16.3172 8.19966L15.0271 9.4898C14.7779 9.7389 14.5728 10.0517 14.3519 10.3263C14.2302 10.4776 14.2542 10.6989 14.4056 10.8206C14.5569 10.9423 14.7782 10.9183 14.8999 10.767L15.3043 10.2642L16.3422 11.3021L14.2851 13.8083C13.9247 14.2472 13.4448 14.5582 12.897 14.7076L7.34552 16.3051C6.91559 16.443 7.12981 17.1125 7.56016 16.9747L8.78126 16.5832V19.529H8.29282C8.09867 19.529 7.94126 19.6864 7.94126 19.8805C7.94126 20.0747 8.09867 20.2321 8.29282 20.2321H10.4419C10.6361 20.2321 10.7935 20.0747 10.7935 19.8805C10.7935 19.6864 10.6361 19.529 10.4419 19.529H9.48443V16.4526H22.6167C23.3793 16.4526 23.9997 15.8322 23.9997 15.0696V3.44312C23.9997 2.68051 23.3793 2.06007 22.6167 2.06007ZM19.5021 1.46973H20.9186V2.05988H19.5021V1.46973ZM5.06459 1.46973H6.48115V2.05988H5.06459V1.46973ZM16.6472 8.86398L16.5238 10.4893L15.7729 9.73833L16.6472 8.86398ZM18.0899 15.7495V14.7705H21.1643V15.7495H18.0899Z" fill="#969696"/>
<path d="M6.61434 19.5289H2.10047V17.6621C2.10047 16.4763 2.37394 15.2931 2.8957 14.2281C3.18108 13.6457 3.78431 13.2695 4.4325 13.2695H10.3566C11.5948 13.2695 12.7992 12.8319 13.7482 12.0373C13.897 11.9127 13.9167 11.6909 13.792 11.5421C13.6673 11.3932 13.4456 11.3736 13.2968 11.4982C12.4742 12.187 11.43 12.5664 10.3566 12.5664H7.81073C8.20514 12.1558 8.44833 11.599 8.44833 10.9862V9.69522C9.35208 9.63559 10.0693 8.8818 10.0693 7.96323C10.0693 7.00562 9.29039 6.22651 8.33302 6.22651C7.74773 6.21278 7.19058 6.349 6.78037 6.7953C6.57989 7.01261 6.29545 7.13725 6.00005 7.13725H5.03395C4.227 7.13725 3.57052 7.79397 3.57052 8.60116V11.236C3.57052 11.5352 3.64242 11.8287 3.82317 12.0716C3.90469 12.1811 4.005 12.2764 4.11839 12.3524C4.24069 12.4345 4.41905 12.4642 4.51725 12.5664C3.57605 12.5506 2.68214 13.0661 2.26434 13.9187C1.69552 15.0797 1.39739 16.3693 1.39739 17.6621V19.5289H0.351562C0.157406 19.5289 0 19.6863 0 19.8805C0 20.0746 0.157406 20.232 0.351562 20.232H6.61434C6.8085 20.232 6.96591 20.0746 6.96591 19.8805C6.96591 19.6863 6.8085 19.5289 6.61434 19.5289ZM6.06516 12.5633C5.86898 12.5512 5.67834 12.5021 5.50252 12.4209C5.58408 12.379 5.66316 12.3274 5.73389 12.2691C6.02611 12.028 6.18708 11.671 6.18708 11.2642V9.69948H7.7452V10.9862C7.7452 11.8575 7.03613 12.5664 6.16458 12.5664C6.12727 12.5664 6.09581 12.5654 6.06516 12.5633ZM4.27359 11.236V8.6012C4.27359 8.18172 4.61466 7.84042 5.03391 7.84042H6C6.4912 7.84042 6.96398 7.63328 7.29759 7.27159C7.57383 6.97103 7.94873 6.91539 8.33297 6.92964C8.90264 6.92964 9.36609 7.39333 9.36609 7.96323C9.36609 8.5329 8.90264 8.99636 8.33297 8.99636H5.83547C5.64131 8.99636 5.48391 9.15376 5.48391 9.34792V11.2642C5.48391 11.6743 5.12203 11.9318 4.72988 11.857C4.41581 11.797 4.27359 11.5414 4.27359 11.236Z" fill="#969696"/>
<path d="M12.0342 6.13643H13.9488C14.143 6.13643 14.3004 5.97902 14.3004 5.78487V4.49121C14.3004 4.29705 14.143 4.13965 13.9488 4.13965H12.0342C11.84 4.13965 11.6826 4.29705 11.6826 4.49121V5.78487C11.6826 5.97902 11.84 6.13643 12.0342 6.13643ZM12.3857 4.84277H13.5973V5.4333H12.3857V4.84277Z" fill="#969696"/>
<path d="M11.6826 8.40796C11.6826 8.60212 11.84 8.75952 12.0342 8.75952H13.9488C14.143 8.75952 14.3004 8.60212 14.3004 8.40796V7.11426C14.3004 6.9201 14.143 6.7627 13.9488 6.7627H12.0342C11.84 6.7627 11.6826 6.9201 11.6826 7.11426V8.40796ZM12.3857 7.46582H13.5973V8.0564H12.3857V7.46582Z" fill="#969696"/>
<path d="M15.2764 5.48926H21.5166C21.7108 5.48926 21.8682 5.33185 21.8682 5.1377C21.8682 4.94354 21.7108 4.78613 21.5166 4.78613H15.2764C15.0822 4.78613 14.9248 4.94354 14.9248 5.1377C14.9248 5.33185 15.0822 5.48926 15.2764 5.48926Z" fill="#969696"/>
</svg>
