<svg width="36" height="36" viewBox="0 0 36 36" fill="none" xmlns="http://www.w3.org/2000/svg">
<path d="M31.3417 1.5H4.65833C2.91678 1.5 1.5 2.91678 1.5 4.65834V24.5788C1.5 26.3203 2.91678 27.7372 4.65833 27.7372H12.5696L11.8231 32.4913H10.3556C9.82187 32.4913 9.38917 32.924 9.38917 33.4577C9.38917 33.9915 9.82187 34.4242 10.3556 34.4242C13.5936 34.4315 22.4217 34.4299 25.6443 34.4242C26.1781 34.4242 26.6108 33.9915 26.6108 33.4577C26.6108 32.924 26.1781 32.4913 25.6443 32.4913H24.0445L23.3745 27.7372H31.3417C33.0832 27.7372 34.5 26.3204 34.5 24.5788V4.65834C34.4999 2.91678 33.0832 1.5 31.3417 1.5ZM32.5671 4.65834V13.6522H30.2062C29.9777 12.481 29.2505 11.4864 28.2552 10.8988C28.6136 10.3841 28.8245 9.75944 28.8245 9.08616C28.8245 7.33256 27.3979 5.90592 25.6443 5.90592C23.8908 5.90592 22.4641 7.33262 22.4641 9.08616C22.4641 9.7595 22.675 10.3841 23.0335 10.8988C22.0382 11.4864 21.3109 12.4809 21.0824 13.6522H18.9664V3.43285H31.3417C32.0174 3.43285 32.5671 3.98255 32.5671 4.65834ZM25.7176 10.3298H25.5711C24.9174 10.2915 24.3969 9.74919 24.3969 9.0861C24.3969 8.39826 24.9566 7.8387 25.6443 7.8387C26.3321 7.8387 26.8917 8.39833 26.8917 9.0861C26.8917 9.74919 26.3713 10.2915 25.7176 10.3298ZM25.1165 12.2626C25.4141 12.2633 25.8039 12.2643 26.1721 12.2626C27.0951 12.2626 27.8859 12.8398 28.2025 13.6521H23.0862C23.4028 12.8398 24.1935 12.2626 25.1165 12.2626ZM4.65833 3.43285H17.0336V13.6521H14.8764C14.6479 12.4809 13.9206 11.4864 12.9253 10.8987C13.2837 10.3841 13.4947 9.75937 13.4947 9.0861C13.4947 7.33249 12.068 5.90586 10.3145 5.90586C8.56095 5.90586 7.13425 7.33256 7.13425 9.0861C7.13425 9.75944 7.34518 10.3841 7.7036 10.8987C6.70831 11.4864 5.98105 12.4808 5.75252 13.6521H3.43285V4.65834C3.43285 3.98255 3.98255 3.43285 4.65833 3.43285ZM10.3877 10.3298H10.2412C9.58748 10.2915 9.06703 9.74919 9.06703 9.0861C9.06703 8.39826 9.62665 7.8387 10.3144 7.8387C11.0022 7.8387 11.5618 8.39833 11.5618 9.0861C11.5618 9.74919 11.0413 10.2915 10.3877 10.3298ZM9.78656 12.2626C10.0841 12.2633 10.4739 12.2643 10.8422 12.2626C11.7652 12.2626 12.5559 12.8398 12.8725 13.6521H7.75624C8.07284 12.8398 8.86356 12.2626 9.78656 12.2626ZM3.43285 24.5788V15.585H17.0336V25.8043H14.8764C14.6479 24.6329 13.9206 23.6385 12.9253 23.0509C13.2837 22.5362 13.4947 21.9115 13.4947 21.2382C13.4947 19.4846 12.068 18.058 10.3145 18.058C8.56095 18.058 7.13425 19.4846 7.13425 21.2382C7.13425 21.9115 7.34518 22.5361 7.7036 23.0509C6.70825 23.6385 5.98105 24.6329 5.75252 25.8043H4.65833C3.98255 25.8043 3.43285 25.2546 3.43285 24.5788ZM10.2411 22.4819C9.58741 22.4436 9.06696 21.9013 9.06696 21.2382C9.06696 20.5503 9.62659 19.9908 10.3144 19.9908C11.0021 19.9908 11.5617 20.5504 11.5617 21.2382C11.5617 21.9013 11.0412 22.4436 10.3876 22.4819H10.2411ZM9.78656 24.4147C10.0841 24.4154 10.4739 24.4164 10.8422 24.4147C11.7652 24.4147 12.556 24.9919 12.8725 25.8043H7.75624C8.07277 24.9919 8.86356 24.4147 9.78656 24.4147ZM13.7796 32.4913L14.526 27.7372H21.4224L22.0925 32.4913H13.7796ZM23.0862 25.8043C23.4027 24.992 24.1935 24.4148 25.1165 24.4148C25.4141 24.4155 25.8039 24.4165 26.1721 24.4148C27.0951 24.4148 27.886 24.992 28.2025 25.8043H23.0862ZM25.7176 22.4819H25.5711C24.9174 22.4436 24.3969 21.9013 24.3969 21.2382C24.3969 20.5503 24.9566 19.9908 25.6443 19.9908C26.3321 19.9908 26.8917 20.5504 26.8917 21.2382C26.8917 21.9013 26.3713 22.4437 25.7176 22.4819ZM31.3417 25.8043H30.2063C29.9778 24.633 29.2506 23.6386 28.2552 23.0509C28.6136 22.5363 28.8246 21.9116 28.8246 21.2382C28.8246 19.4846 27.3979 18.0581 25.6444 18.0581C23.8909 18.0581 22.4642 19.4847 22.4642 21.2382C22.4642 21.9116 22.6751 22.5362 23.0335 23.0509C22.0382 23.6386 21.311 24.633 21.0824 25.8043H18.9665V15.585H32.5672V24.5788C32.5671 25.2546 32.0174 25.8043 31.3417 25.8043Z" fill="white"/>
</svg>
