<svg width="24" height="19" viewBox="0 0 24 19" fill="none" xmlns="http://www.w3.org/2000/svg">
<path d="M21.75 0.5H5.25C4.81243 0.500615 4.38881 0.654031 4.05231 0.933749C3.71582 1.21347 3.48758 1.60192 3.40702 2.03202C3.03504 2.10195 2.69283 2.28256 2.4252 2.5502C2.15756 2.81783 1.97695 3.16004 1.90702 3.53202C1.47692 3.61258 1.08847 3.84082 0.808748 4.17731C0.52903 4.51381 0.375615 4.93743 0.375 5.375V16.625C0.375558 17.1221 0.573282 17.5987 0.924791 17.9502C1.2763 18.3017 1.75289 18.4994 2.25 18.5H18.75C19.1876 18.4994 19.6112 18.346 19.9477 18.0663C20.2842 17.7865 20.5124 17.3981 20.593 16.968C20.965 16.898 21.3072 16.7174 21.5748 16.4498C21.8424 16.1822 22.023 15.84 22.093 15.468C22.5231 15.3874 22.9115 15.1592 23.1913 14.8227C23.471 14.4862 23.6244 14.0626 23.625 13.625V2.375C23.6244 1.87789 23.4267 1.4013 23.0752 1.04979C22.7237 0.698282 22.2471 0.500558 21.75 0.5ZM1.125 5.375C1.12533 5.07673 1.24397 4.79078 1.45487 4.57987C1.66578 4.36897 1.95173 4.25033 2.25 4.25H18.75C19.0483 4.25033 19.3342 4.36897 19.5451 4.57987C19.756 4.79078 19.8747 5.07673 19.875 5.375V5.75H1.125V5.375ZM19.875 16.625C19.8747 16.9233 19.756 17.2092 19.5451 17.4201C19.3342 17.631 19.0483 17.7497 18.75 17.75H2.25C1.95173 17.7497 1.66578 17.631 1.45487 17.4201C1.24397 17.2092 1.12533 16.9233 1.125 16.625V6.5H19.875V16.625ZM21.375 15.125C21.3747 15.3576 21.3025 15.5843 21.1682 15.7742C21.0339 15.9641 20.8442 16.1077 20.625 16.1855V5.375C20.6244 4.87789 20.4267 4.4013 20.0752 4.04979C19.7237 3.69828 19.2471 3.50056 18.75 3.5H2.6895C2.76726 3.28083 2.91094 3.09109 3.10081 2.95681C3.29068 2.82253 3.51745 2.75029 3.75 2.75H20.25C20.5483 2.75033 20.8342 2.86897 21.0451 3.07987C21.256 3.29078 21.3747 3.57673 21.375 3.875V15.125ZM22.875 13.625C22.8747 13.8576 22.8025 14.0843 22.6682 14.2742C22.5339 14.4641 22.3442 14.6077 22.125 14.6855V3.875C22.1244 3.37789 21.9267 2.9013 21.5752 2.54979C21.2237 2.19828 20.7471 2.00056 20.25 2H4.1895C4.26726 1.78083 4.41094 1.59109 4.60081 1.45681C4.79068 1.32253 5.01745 1.25029 5.25 1.25H21.75C22.0483 1.25033 22.3342 1.36897 22.5451 1.57987C22.756 1.79078 22.8747 2.07673 22.875 2.375V13.625Z" fill="#969696"/>
<path d="M2.25 5.375C2.45711 5.375 2.625 5.20711 2.625 5C2.625 4.79289 2.45711 4.625 2.25 4.625C2.04289 4.625 1.875 4.79289 1.875 5C1.875 5.20711 2.04289 5.375 2.25 5.375Z" fill="#969696"/>
<path d="M3.75 5.375C3.95711 5.375 4.125 5.20711 4.125 5C4.125 4.79289 3.95711 4.625 3.75 4.625C3.54289 4.625 3.375 4.79289 3.375 5C3.375 5.20711 3.54289 5.375 3.75 5.375Z" fill="#969696"/>
<path d="M5.25 5.375C5.45711 5.375 5.625 5.20711 5.625 5C5.625 4.79289 5.45711 4.625 5.25 4.625C5.04289 4.625 4.875 4.79289 4.875 5C4.875 5.20711 5.04289 5.375 5.25 5.375Z" fill="#969696"/>
<path d="M6.375 14.375H14.625C14.7245 14.375 14.8198 14.3355 14.8902 14.2652C14.9605 14.1948 15 14.0995 15 14V8C15 7.90054 14.9605 7.80516 14.8902 7.73483C14.8198 7.66451 14.7245 7.625 14.625 7.625H6.375C6.27554 7.625 6.18016 7.66451 6.10983 7.73483C6.03951 7.80516 6 7.90054 6 8V14C6 14.0995 6.03951 14.1948 6.10983 14.2652C6.18016 14.3355 6.27554 14.375 6.375 14.375ZM6.75 8.375H14.25V13.625H6.75V8.375Z" fill="#969696"/>
<path d="M9.56719 11.7024C9.62543 11.7349 9.69129 11.7513 9.758 11.7499C9.8247 11.7485 9.88982 11.7294 9.94664 11.6944L11.7748 10.5694C11.8293 10.5358 11.8743 10.4889 11.9056 10.433C11.9368 10.3771 11.9532 10.3141 11.9532 10.2501C11.9532 10.186 11.9368 10.123 11.9056 10.0671C11.8743 10.0112 11.8293 9.96426 11.7748 9.93069L9.94664 8.80569C9.88982 8.7707 9.82469 8.7515 9.75797 8.75008C9.69125 8.74867 9.62536 8.76508 9.5671 8.79762C9.50885 8.83017 9.46033 8.87768 9.42656 8.93523C9.39279 8.99279 9.37499 9.05832 9.375 9.12505V11.3751C9.37502 11.4418 9.39284 11.5073 9.42662 11.5648C9.4604 11.6224 9.50893 11.6699 9.56719 11.7024ZM10.125 9.79611L10.8626 10.2501L10.125 10.704V9.79611Z" fill="#969696"/>
<path d="M13.125 12.125H12.375C12.375 12.0255 12.3355 11.9302 12.2652 11.8598C12.1948 11.7895 12.0995 11.75 12 11.75C11.9005 11.75 11.8052 11.7895 11.7348 11.8598C11.6645 11.9302 11.625 12.0255 11.625 12.125H7.875C7.77554 12.125 7.68016 12.1645 7.60983 12.2348C7.53951 12.3052 7.5 12.4005 7.5 12.5C7.5 12.5995 7.53951 12.6948 7.60983 12.7652C7.68016 12.8355 7.77554 12.875 7.875 12.875H11.625C11.625 12.9745 11.6645 13.0698 11.7348 13.1402C11.8052 13.2105 11.9005 13.25 12 13.25C12.0995 13.25 12.1948 13.2105 12.2652 13.1402C12.3355 13.0698 12.375 12.9745 12.375 12.875H13.125C13.2245 12.875 13.3198 12.8355 13.3902 12.7652C13.4605 12.6948 13.5 12.5995 13.5 12.5C13.5 12.4005 13.4605 12.3052 13.3902 12.2348C13.3198 12.1645 13.2245 12.125 13.125 12.125Z" fill="#969696"/>
<path d="M6.375 15.5H14.625C14.7245 15.5 14.8198 15.4605 14.8902 15.3902C14.9605 15.3198 15 15.2245 15 15.125C15 15.0255 14.9605 14.9302 14.8902 14.8598C14.8198 14.7895 14.7245 14.75 14.625 14.75H6.375C6.27554 14.75 6.18016 14.7895 6.10983 14.8598C6.03951 14.9302 6 15.0255 6 15.125C6 15.2245 6.03951 15.3198 6.10983 15.3902C6.18016 15.4605 6.27554 15.5 6.375 15.5Z" fill="#969696"/>
<path d="M6.375 16.625H11.625C11.7245 16.625 11.8198 16.5855 11.8902 16.5152C11.9605 16.4448 12 16.3495 12 16.25C12 16.1505 11.9605 16.0552 11.8902 15.9848C11.8198 15.9145 11.7245 15.875 11.625 15.875H6.375C6.27554 15.875 6.18016 15.9145 6.10983 15.9848C6.03951 16.0552 6 16.1505 6 16.25C6 16.3495 6.03951 16.4448 6.10983 16.5152C6.18016 16.5855 6.27554 16.625 6.375 16.625Z" fill="#969696"/>
<path d="M13.125 15.875H12.75C12.6505 15.875 12.5552 15.9145 12.4848 15.9848C12.4145 16.0552 12.375 16.1505 12.375 16.25C12.375 16.3495 12.4145 16.4448 12.4848 16.5152C12.5552 16.5855 12.6505 16.625 12.75 16.625H13.125C13.2245 16.625 13.3198 16.5855 13.3902 16.5152C13.4605 16.4448 13.5 16.3495 13.5 16.25C13.5 16.1505 13.4605 16.0552 13.3902 15.9848C13.3198 15.9145 13.2245 15.875 13.125 15.875Z" fill="#969696"/>
</svg>
