<svg width="20" height="18" viewBox="0 0 20 18" fill="none" xmlns="http://www.w3.org/2000/svg">
<path d="M10.1419 12.668C10.6714 12.668 11.1152 13.1118 11.1152 13.6413C11.1152 14.1708 10.6714 14.6146 10.1419 14.6146C9.63191 14.6146 9.16862 14.1708 9.19198 13.6646C9.16862 13.1079 9.60855 12.668 10.1419 12.668Z" fill="#F62E2E"/>
<path d="M1.13307 16.1157C0.521832 15.0607 0.517939 13.8032 1.12528 12.752L7.22208 2.19356C7.82553 1.1307 8.91564 0.5 10.1381 0.5C11.3606 0.5 12.4507 1.1346 13.0541 2.18966L19.1587 12.7598C19.7661 13.8226 19.7622 15.0879 19.147 16.143C18.5397 17.1864 17.4535 17.8132 16.2388 17.8132H4.06078C2.8422 17.8132 1.7482 17.1786 1.13307 16.1157ZM2.45677 15.3527C2.79548 15.9367 3.39503 16.2832 4.06467 16.2832H16.2427C16.9045 16.2832 17.5002 15.9444 17.8311 15.3721C18.1659 14.792 18.1698 14.0991 17.835 13.5151L11.7304 2.94884C11.3995 2.36875 10.8077 2.02615 10.1381 2.02615C9.47237 2.02615 8.8767 2.37264 8.54578 2.95274L2.44509 13.519C2.11806 14.0874 2.12195 14.7726 2.45677 15.3527Z" fill="#F62E2E"/>
<path d="M10.3834 5.83412C10.8467 5.96649 11.1348 6.38696 11.1348 6.89697C11.1114 7.20454 11.0919 7.51599 11.0686 7.82356C11.0024 8.99542 10.9362 10.1439 10.87 11.3158C10.8467 11.7129 10.5391 12.001 10.142 12.001C9.74488 12.001 9.43343 11.6934 9.41396 11.2924C9.41396 11.051 9.41396 10.8291 9.3906 10.5839C9.34777 9.83246 9.30106 9.08107 9.25823 8.32968C9.23487 7.84302 9.19205 7.35637 9.16869 6.86972C9.16869 6.69452 9.19205 6.53879 9.25823 6.38306C9.45679 5.94702 9.92008 5.72511 10.3834 5.83412Z" fill="#F62E2E"/>
</svg>
