<svg width="28" height="28" viewBox="0 0 28 28" fill="none" xmlns="http://www.w3.org/2000/svg">
<rect width="28" height="28" rx="4" fill="white"/>
<g clip-path="url(#clip0)">
<path d="M23.2571 13.2148H4.72296C3.42822 13.2148 2.375 14.2681 2.375 15.5628V23.6517C2.375 24.9462 3.42822 25.9995 4.72296 25.9995H23.2571C24.5518 25.9995 25.605 24.9462 25.605 23.6517V15.5628C25.605 14.2681 24.5518 13.2148 23.2571 13.2148ZM24.1988 23.6517C24.1988 24.1708 23.7764 24.5932 23.2571 24.5932H4.72296C4.20367 24.5932 3.78125 24.1708 3.78125 23.6517V15.5628C3.78125 15.0435 4.20367 14.6211 4.72296 14.6211H23.2571C23.7764 14.6211 24.1988 15.0435 24.1988 15.5628V23.6517Z" fill="#1D6771"/>
<path d="M13.992 9.53059C14.5507 9.53059 15.1093 9.31837 15.5347 8.89375C15.9472 8.48213 16.1743 7.93465 16.1743 7.35219C16.1743 6.76973 15.9472 6.22224 15.5347 5.81062C14.684 4.96156 13.2999 4.96156 12.4492 5.81062C12.0366 6.22224 11.8096 6.76973 11.8096 7.35219C11.8096 7.93465 12.0366 8.48213 12.4492 8.89375C12.8745 9.31837 13.4332 9.53059 13.992 9.53059ZM13.4425 6.8058C13.5941 6.65456 13.793 6.57912 13.992 6.57912C14.1909 6.57912 14.3897 6.65474 14.5411 6.8058C14.6874 6.95174 14.768 7.14583 14.768 7.35219C14.768 7.55855 14.6874 7.75246 14.5413 7.89857C14.2383 8.20088 13.7455 8.2007 13.4425 7.89857C13.2962 7.75246 13.2158 7.55855 13.2158 7.35219C13.2158 7.14583 13.2964 6.95192 13.4425 6.8058Z" fill="#1D6771"/>
<path d="M16.5623 10.4263C16.6996 10.564 16.8798 10.6328 17.06 10.6328C17.2398 10.6328 17.4194 10.5644 17.5568 10.4274C18.3798 9.6058 18.8332 8.51357 18.8332 7.35159C18.8332 6.1896 18.3798 5.09719 17.5568 4.27578C17.2819 4.00149 16.8366 4.00185 16.5623 4.2767C16.288 4.55154 16.2886 4.99685 16.5634 5.27114C17.1202 5.82687 17.4269 6.5657 17.4269 7.35159C17.4269 8.13729 17.1202 8.87631 16.5634 9.43203C16.2886 9.70632 16.288 10.1515 16.5623 10.4263Z" fill="#1D6771"/>
<path d="M10.4244 10.4276C10.5617 10.5645 10.7413 10.633 10.9211 10.633C11.1013 10.633 11.2815 10.5641 11.4188 10.4265C11.6931 10.1516 11.6926 9.70648 11.4177 9.43219C10.8609 8.87628 10.5542 8.13745 10.5542 7.35156C10.5542 6.56586 10.8609 5.82703 11.4177 5.27112C11.6926 4.99683 11.6931 4.5517 11.4188 4.27686C11.1445 4.00183 10.6992 4.00147 10.4244 4.27576C9.60132 5.09735 9.14813 6.18958 9.14795 7.35156C9.14795 8.51355 9.60132 9.60596 10.4244 10.4276Z" fill="#1D6771"/>
<path d="M8.48706 21.7805H6.59961V16.7324C6.59961 16.3441 6.28485 16.0293 5.89648 16.0293C5.50812 16.0293 5.19336 16.3441 5.19336 16.7324V22.4836C5.19336 22.8719 5.50812 23.1867 5.89648 23.1867H8.48706C8.87524 23.1867 9.19019 22.8719 9.19019 22.4836C9.19019 22.0954 8.87524 21.7805 8.48706 21.7805Z" fill="#1D6771"/>
<path d="M10.6655 16.0293C10.2772 16.0293 9.9624 16.3441 9.9624 16.7324V22.4836C9.9624 22.8719 10.2772 23.1867 10.6655 23.1867C11.0537 23.1867 11.3687 22.8719 11.3687 22.4836V16.7324C11.3687 16.3441 11.0537 16.0293 10.6655 16.0293Z" fill="#1D6771"/>
<path d="M16.8147 16.0595C16.4432 15.9473 16.0506 16.1577 15.9383 16.5294L14.8752 20.051L13.8119 16.5294C13.6997 16.1575 13.3073 15.9473 12.9356 16.0595C12.5639 16.1718 12.3535 16.5641 12.4657 16.9358L14.2021 22.687C14.2023 22.6875 14.2025 22.6881 14.2027 22.6886C14.394 23.3009 15.3367 23.3381 15.5478 22.6886C15.548 22.6881 15.5481 22.6877 15.5483 22.687L17.2847 16.9358C17.397 16.564 17.1864 16.1718 16.8147 16.0595Z" fill="#1D6771"/>
<path d="M22.0836 17.4355C22.4719 17.4355 22.7867 17.1208 22.7867 16.7324C22.7867 16.3441 22.4719 16.0293 22.0836 16.0293H18.9116C18.5233 16.0293 18.2085 16.3441 18.2085 16.7324V22.4836C18.2085 22.8719 18.5233 23.1867 18.9116 23.1867H21.9889C22.3773 23.1867 22.692 22.8719 22.692 22.4836C22.692 22.0954 22.3773 21.7805 21.9889 21.7805H19.6147V19.949H21.61C21.9984 19.949 22.3132 19.6343 22.3132 19.2459C22.3132 18.8575 21.9984 18.5428 21.61 18.5428H19.6147V17.4355H22.0836Z" fill="#1D6771"/>
<path d="M19.8764 7.35146C19.8764 8.91921 19.2646 10.3934 18.1537 11.5021C17.8789 11.7764 17.8783 12.2217 18.1526 12.4965C18.2902 12.6341 18.4701 12.7029 18.6503 12.7029C18.8301 12.7029 19.0098 12.6344 19.1471 12.4975C20.5242 11.1231 21.2827 9.29549 21.2827 7.35146C21.2827 5.40762 20.5242 3.57986 19.1471 2.20547C18.8722 1.93118 18.4271 1.93154 18.1526 2.20638C17.8783 2.48122 17.8789 2.92654 18.1537 3.20083C19.2646 4.30953 19.8764 5.78353 19.8764 7.35146Z" fill="#1D6771"/>
<path d="M9.33106 12.7031C9.51124 12.7031 9.69141 12.6342 9.82874 12.4967C10.103 12.2219 10.1027 11.7766 9.82764 11.5023C8.71674 10.3936 8.10498 8.91937 8.10498 7.35144C8.10498 5.78369 8.71674 4.30951 9.82764 3.20081C10.1025 2.92651 10.103 2.4812 9.82874 2.20654C9.55427 1.93152 9.10914 1.93115 8.83429 2.20544C7.45715 3.58002 6.69873 5.40759 6.69873 7.35144C6.69873 9.29547 7.45715 11.123 8.83429 12.4976C8.97162 12.6346 9.15125 12.7031 9.33106 12.7031Z" fill="#1D6771"/>
</g>
<defs>
<clipPath id="clip0">
<rect width="24" height="24" fill="white" transform="translate(2 2)"/>
</clipPath>
</defs>
</svg>
