<svg width="501" height="350" viewBox="0 0 501 350" fill="none" xmlns="http://www.w3.org/2000/svg">
<rect x="0.527344" y="0.5" width="375.173" height="349" fill="white" stroke="#EDEDED"/>
<ellipse cx="29.8595" cy="24.9434" rx="4.6603" ry="5" fill="#EC5E54"/>
<ellipse cx="45.3966" cy="24.9434" rx="4.6603" ry="5" fill="#FFAF00"/>
<ellipse cx="60.9357" cy="24.9434" rx="4.6603" ry="5" fill="#83CF8F"/>
<rect x="29.5723" y="270.5" width="308.48" height="49" rx="3.5" fill="white" stroke="#E4E4E4"/>
<path d="M53.9149 300.112C53.2149 300.112 52.5429 300.009 51.8989 299.804C51.2642 299.589 50.7555 299.305 50.3729 298.95C50.2329 298.819 50.1629 298.656 50.1629 298.46C50.1629 298.329 50.2002 298.217 50.2749 298.124C50.3495 298.021 50.4382 297.97 50.5409 297.97C50.6622 297.97 50.7929 298.021 50.9329 298.124C51.8009 298.796 52.7902 299.132 53.9009 299.132C54.7035 299.132 55.3195 298.978 55.7489 298.67C56.1782 298.362 56.3929 297.923 56.3929 297.354C56.3929 297.027 56.2902 296.766 56.0849 296.57C55.8795 296.365 55.6089 296.201 55.2729 296.08C54.9369 295.959 54.4842 295.833 53.9149 295.702C53.1495 295.525 52.5195 295.338 52.0249 295.142C51.5395 294.946 51.1429 294.666 50.8349 294.302C50.5362 293.938 50.3869 293.462 50.3869 292.874C50.3869 292.314 50.5362 291.819 50.8349 291.39C51.1429 290.951 51.5675 290.615 52.1089 290.382C52.6595 290.139 53.2849 290.018 53.9849 290.018C54.6382 290.018 55.2449 290.121 55.8049 290.326C56.3742 290.522 56.8502 290.807 57.2329 291.18C57.3822 291.329 57.4569 291.493 57.4569 291.67C57.4569 291.801 57.4195 291.917 57.3449 292.02C57.2702 292.113 57.1815 292.16 57.0789 292.16C56.9762 292.16 56.8409 292.109 56.6729 292.006C56.2155 291.633 55.7909 291.371 55.3989 291.222C55.0069 291.073 54.5355 290.998 53.9849 290.998C53.2102 290.998 52.6082 291.161 52.1789 291.488C51.7495 291.805 51.5349 292.253 51.5349 292.832C51.5349 293.327 51.7215 293.7 52.0949 293.952C52.4775 294.195 53.0609 294.409 53.8449 294.596C54.6942 294.801 55.3615 294.993 55.8469 295.17C56.3322 295.338 56.7335 295.595 57.0509 295.94C57.3775 296.285 57.5409 296.747 57.5409 297.326C57.5409 297.877 57.3869 298.362 57.0789 298.782C56.7802 299.202 56.3555 299.529 55.8049 299.762C55.2542 299.995 54.6242 300.112 53.9149 300.112ZM64.5155 298.418C64.6182 298.418 64.7068 298.46 64.7815 298.544C64.8562 298.628 64.8935 298.735 64.8935 298.866C64.8935 299.099 64.7302 299.314 64.4035 299.51C64.0675 299.706 63.7128 299.855 63.3395 299.958C62.9662 300.051 62.6022 300.098 62.2475 300.098C61.1928 300.098 60.3575 299.785 59.7415 299.16C59.1348 298.535 58.8315 297.671 58.8315 296.57C58.8315 295.87 58.9668 295.254 59.2375 294.722C59.5082 294.181 59.8862 293.761 60.3715 293.462C60.8662 293.163 61.4262 293.014 62.0515 293.014C62.9382 293.014 63.6428 293.303 64.1655 293.882C64.6882 294.461 64.9495 295.245 64.9495 296.234C64.9495 296.421 64.9122 296.556 64.8375 296.64C64.7628 296.724 64.6415 296.766 64.4735 296.766H59.9655C60.0495 298.371 60.8102 299.174 62.2475 299.174C62.6115 299.174 62.9242 299.127 63.1855 299.034C63.4468 298.931 63.7268 298.796 64.0255 298.628C64.2682 298.488 64.4315 298.418 64.5155 298.418ZM62.0655 293.896C61.4682 293.896 60.9875 294.083 60.6235 294.456C60.2688 294.829 60.0588 295.357 59.9935 296.038H63.9555C63.9368 295.347 63.7642 294.82 63.4375 294.456C63.1108 294.083 62.6535 293.896 62.0655 293.896ZM69.4063 293.014C71.1143 293.014 71.9683 293.91 71.9683 295.702V299.51C71.9683 299.678 71.917 299.813 71.8143 299.916C71.721 300.019 71.5903 300.07 71.4223 300.07C71.2543 300.07 71.119 300.019 71.0163 299.916C70.9136 299.813 70.8623 299.678 70.8623 299.51V298.838C70.685 299.239 70.4143 299.552 70.0503 299.776C69.6863 299.991 69.2663 300.098 68.7903 300.098C68.3516 300.098 67.9456 300.009 67.5723 299.832C67.2083 299.655 66.919 299.407 66.7043 299.09C66.4896 298.773 66.3823 298.423 66.3823 298.04C66.3823 297.527 66.513 297.13 66.7743 296.85C67.0356 296.561 67.465 296.355 68.0623 296.234C68.6596 296.103 69.4903 296.038 70.5543 296.038H70.8623V295.576C70.8623 295.016 70.7456 294.605 70.5123 294.344C70.2883 294.083 69.9196 293.952 69.4063 293.952C68.7716 293.952 68.1276 294.125 67.4743 294.47C67.2223 294.629 67.045 294.708 66.9423 294.708C66.8303 294.708 66.737 294.666 66.6623 294.582C66.5876 294.498 66.5503 294.391 66.5503 294.26C66.5503 294.129 66.5876 294.017 66.6623 293.924C66.7463 293.821 66.877 293.719 67.0543 293.616C67.381 293.429 67.7496 293.285 68.1603 293.182C68.5803 293.07 68.9956 293.014 69.4063 293.014ZM68.9443 299.202C69.5043 299.202 69.9616 299.015 70.3163 298.642C70.6803 298.259 70.8623 297.769 70.8623 297.172V296.766H70.6103C69.789 296.766 69.1636 296.803 68.7343 296.878C68.305 296.943 67.997 297.06 67.8103 297.228C67.633 297.387 67.5443 297.625 67.5443 297.942C67.5443 298.306 67.675 298.609 67.9363 298.852C68.207 299.085 68.543 299.202 68.9443 299.202ZM77.4181 293.042C77.8101 293.014 78.0061 293.173 78.0061 293.518C78.0061 293.667 77.9641 293.789 77.8801 293.882C77.7961 293.966 77.6515 294.017 77.4461 294.036L77.0261 294.078C76.4008 294.134 75.9341 294.358 75.6261 294.75C75.3275 295.133 75.1781 295.585 75.1781 296.108V299.51C75.1781 299.697 75.1268 299.837 75.0241 299.93C74.9215 300.023 74.7861 300.07 74.6181 300.07C74.4501 300.07 74.3101 300.023 74.1981 299.93C74.0955 299.827 74.0441 299.687 74.0441 299.51V293.602C74.0441 293.425 74.1001 293.289 74.2121 293.196C74.3241 293.093 74.4595 293.042 74.6181 293.042C74.7675 293.042 74.8935 293.093 74.9961 293.196C75.0988 293.289 75.1501 293.42 75.1501 293.588V294.372C75.3461 293.961 75.6215 293.649 75.9761 293.434C76.3401 293.219 76.7555 293.093 77.2221 293.056L77.4181 293.042ZM81.657 300.098C81.0223 300.098 80.4576 299.953 79.963 299.664C79.4776 299.375 79.0996 298.964 78.829 298.432C78.5676 297.9 78.437 297.284 78.437 296.584C78.437 295.884 78.5723 295.263 78.843 294.722C79.123 294.181 79.5103 293.761 80.005 293.462C80.4996 293.163 81.069 293.014 81.713 293.014C82.0676 293.014 82.4176 293.065 82.763 293.168C83.1176 293.261 83.4256 293.401 83.687 293.588C83.855 293.7 83.9716 293.812 84.037 293.924C84.1116 294.027 84.149 294.143 84.149 294.274C84.149 294.405 84.1116 294.512 84.037 294.596C83.9716 294.68 83.883 294.722 83.771 294.722C83.7056 294.722 83.6356 294.703 83.561 294.666C83.4863 294.629 83.421 294.591 83.365 294.554C83.3183 294.517 83.2856 294.493 83.267 294.484C83.0243 294.325 82.791 294.199 82.567 294.106C82.3523 294.013 82.0863 293.966 81.769 293.966C81.0876 293.966 80.5556 294.199 80.173 294.666C79.7996 295.123 79.613 295.763 79.613 296.584C79.613 297.405 79.7996 298.04 80.173 298.488C80.5556 298.936 81.0876 299.16 81.769 299.16C82.0863 299.16 82.357 299.113 82.581 299.02C82.8143 298.927 83.0476 298.801 83.281 298.642C83.3836 298.577 83.4816 298.521 83.575 298.474C83.6683 298.427 83.7476 298.404 83.813 298.404C83.9156 298.404 83.9996 298.446 84.065 298.53C84.1396 298.614 84.177 298.721 84.177 298.852C84.177 298.973 84.1443 299.085 84.079 299.188C84.0136 299.281 83.8923 299.389 83.715 299.51C83.4536 299.687 83.1363 299.832 82.763 299.944C82.399 300.047 82.0303 300.098 81.657 300.098ZM88.9862 293.014C89.7889 293.014 90.3955 293.243 90.8062 293.7C91.2169 294.148 91.4222 294.82 91.4222 295.716V299.51C91.4222 299.687 91.3709 299.827 91.2682 299.93C91.1655 300.023 91.0302 300.07 90.8622 300.07C90.6849 300.07 90.5449 300.023 90.4422 299.93C90.3395 299.827 90.2882 299.687 90.2882 299.51V295.744C90.2882 295.137 90.1622 294.689 89.9102 294.4C89.6675 294.111 89.2755 293.966 88.7342 293.966C88.1089 293.966 87.6095 294.157 87.2362 294.54C86.8629 294.923 86.6762 295.441 86.6762 296.094V299.51C86.6762 299.687 86.6249 299.827 86.5222 299.93C86.4289 300.023 86.2935 300.07 86.1162 300.07C85.9389 300.07 85.7989 300.023 85.6962 299.93C85.5935 299.827 85.5422 299.687 85.5422 299.51V290.606C85.5422 290.447 85.5935 290.317 85.6962 290.214C85.8082 290.111 85.9482 290.06 86.1162 290.06C86.2935 290.06 86.4289 290.111 86.5222 290.214C86.6249 290.307 86.6762 290.438 86.6762 290.606V294.274C86.9002 293.863 87.2129 293.551 87.6142 293.336C88.0155 293.121 88.4729 293.014 88.9862 293.014ZM103.451 290.284C103.563 290.144 103.698 290.074 103.857 290.074C103.987 290.074 104.104 290.125 104.207 290.228C104.309 290.331 104.361 290.457 104.361 290.606C104.361 290.746 104.319 290.863 104.235 290.956L100.833 295.254V299.482C100.833 299.669 100.777 299.813 100.665 299.916C100.562 300.019 100.427 300.07 100.259 300.07C100.091 300.07 99.9506 300.019 99.8386 299.916C99.7359 299.813 99.6846 299.669 99.6846 299.482V295.24L96.2826 290.956C96.1893 290.853 96.1426 290.737 96.1426 290.606C96.1426 290.457 96.1939 290.331 96.2966 290.228C96.4086 290.125 96.5346 290.074 96.6746 290.074C96.8333 290.074 96.9686 290.144 97.0806 290.284L100.273 294.358L103.451 290.284ZM107.278 300.098C106.634 300.098 106.065 299.953 105.57 299.664C105.085 299.375 104.707 298.964 104.436 298.432C104.175 297.891 104.044 297.265 104.044 296.556C104.044 295.847 104.175 295.226 104.436 294.694C104.707 294.153 105.085 293.737 105.57 293.448C106.065 293.159 106.634 293.014 107.278 293.014C107.922 293.014 108.492 293.159 108.986 293.448C109.481 293.737 109.859 294.153 110.12 294.694C110.391 295.226 110.526 295.847 110.526 296.556C110.526 297.265 110.391 297.891 110.12 298.432C109.859 298.964 109.481 299.375 108.986 299.664C108.492 299.953 107.922 300.098 107.278 300.098ZM107.278 299.16C107.95 299.16 108.464 298.941 108.818 298.502C109.182 298.054 109.364 297.405 109.364 296.556C109.364 295.725 109.182 295.086 108.818 294.638C108.454 294.181 107.941 293.952 107.278 293.952C106.616 293.952 106.102 294.181 105.738 294.638C105.374 295.086 105.192 295.725 105.192 296.556C105.192 297.396 105.37 298.04 105.724 298.488C106.088 298.936 106.606 299.16 107.278 299.16ZM117.396 293.042C117.573 293.042 117.709 293.093 117.802 293.196C117.905 293.299 117.956 293.434 117.956 293.602V299.524C117.956 299.683 117.905 299.813 117.802 299.916C117.709 300.019 117.573 300.07 117.396 300.07C117.228 300.07 117.093 300.023 116.99 299.93C116.897 299.827 116.85 299.697 116.85 299.538V298.838C116.635 299.249 116.332 299.561 115.94 299.776C115.557 299.991 115.123 300.098 114.638 300.098C113.826 300.098 113.215 299.874 112.804 299.426C112.393 298.969 112.188 298.297 112.188 297.41V293.602C112.188 293.434 112.239 293.299 112.342 293.196C112.445 293.093 112.585 293.042 112.762 293.042C112.939 293.042 113.075 293.093 113.168 293.196C113.271 293.299 113.322 293.434 113.322 293.602V297.382C113.322 297.989 113.443 298.437 113.686 298.726C113.929 299.006 114.311 299.146 114.834 299.146C115.431 299.146 115.912 298.955 116.276 298.572C116.64 298.18 116.822 297.667 116.822 297.032V293.602C116.822 293.434 116.873 293.299 116.976 293.196C117.079 293.093 117.219 293.042 117.396 293.042ZM123.438 293.042C123.83 293.014 124.026 293.173 124.026 293.518C124.026 293.667 123.984 293.789 123.9 293.882C123.816 293.966 123.671 294.017 123.466 294.036L123.046 294.078C122.42 294.134 121.954 294.358 121.646 294.75C121.347 295.133 121.198 295.585 121.198 296.108V299.51C121.198 299.697 121.146 299.837 121.044 299.93C120.941 300.023 120.806 300.07 120.638 300.07C120.47 300.07 120.33 300.023 120.218 299.93C120.115 299.827 120.064 299.687 120.064 299.51V293.602C120.064 293.425 120.12 293.289 120.232 293.196C120.344 293.093 120.479 293.042 120.638 293.042C120.787 293.042 120.913 293.093 121.016 293.196C121.118 293.289 121.17 293.42 121.17 293.588V294.372C121.366 293.961 121.641 293.649 121.996 293.434C122.36 293.219 122.775 293.093 123.242 293.056L123.438 293.042ZM136.295 301.82C136.36 301.923 136.393 302.03 136.393 302.142C136.393 302.273 136.341 302.38 136.239 302.464C136.136 302.548 136.015 302.59 135.875 302.59C135.632 302.59 135.436 302.469 135.287 302.226L134.475 300.896C134.139 300.373 133.616 300.112 132.907 300.112C131.992 300.112 131.194 299.907 130.513 299.496C129.841 299.085 129.323 298.502 128.959 297.746C128.595 296.99 128.413 296.099 128.413 295.072C128.413 294.036 128.59 293.14 128.945 292.384C129.309 291.619 129.827 291.035 130.499 290.634C131.18 290.223 131.983 290.018 132.907 290.018C133.821 290.018 134.615 290.223 135.287 290.634C135.968 291.035 136.491 291.619 136.855 292.384C137.219 293.14 137.401 294.031 137.401 295.058C137.401 296.253 137.158 297.265 136.673 298.096C136.197 298.917 135.515 299.491 134.629 299.818C134.834 299.883 135.016 299.991 135.175 300.14C135.333 300.299 135.497 300.513 135.665 300.784L136.295 301.82ZM129.589 295.058C129.589 296.355 129.878 297.359 130.457 298.068C131.045 298.777 131.861 299.132 132.907 299.132C133.952 299.132 134.764 298.782 135.343 298.082C135.931 297.373 136.225 296.365 136.225 295.058C136.225 293.751 135.935 292.748 135.357 292.048C134.778 291.348 133.961 290.998 132.907 290.998C131.861 290.998 131.045 291.353 130.457 292.062C129.878 292.762 129.589 293.761 129.589 295.058ZM144.48 293.042C144.657 293.042 144.793 293.093 144.886 293.196C144.989 293.299 145.04 293.434 145.04 293.602V299.524C145.04 299.683 144.989 299.813 144.886 299.916C144.793 300.019 144.657 300.07 144.48 300.07C144.312 300.07 144.177 300.023 144.074 299.93C143.981 299.827 143.934 299.697 143.934 299.538V298.838C143.719 299.249 143.416 299.561 143.024 299.776C142.641 299.991 142.207 300.098 141.722 300.098C140.91 300.098 140.299 299.874 139.888 299.426C139.477 298.969 139.272 298.297 139.272 297.41V293.602C139.272 293.434 139.323 293.299 139.426 293.196C139.529 293.093 139.669 293.042 139.846 293.042C140.023 293.042 140.159 293.093 140.252 293.196C140.355 293.299 140.406 293.434 140.406 293.602V297.382C140.406 297.989 140.527 298.437 140.77 298.726C141.013 299.006 141.395 299.146 141.918 299.146C142.515 299.146 142.996 298.955 143.36 298.572C143.724 298.18 143.906 297.667 143.906 297.032V293.602C143.906 293.434 143.957 293.299 144.06 293.196C144.163 293.093 144.303 293.042 144.48 293.042ZM152.426 298.418C152.528 298.418 152.617 298.46 152.692 298.544C152.766 298.628 152.804 298.735 152.804 298.866C152.804 299.099 152.64 299.314 152.314 299.51C151.978 299.706 151.623 299.855 151.25 299.958C150.876 300.051 150.512 300.098 150.158 300.098C149.103 300.098 148.268 299.785 147.652 299.16C147.045 298.535 146.742 297.671 146.742 296.57C146.742 295.87 146.877 295.254 147.148 294.722C147.418 294.181 147.796 293.761 148.282 293.462C148.776 293.163 149.336 293.014 149.962 293.014C150.848 293.014 151.553 293.303 152.076 293.882C152.598 294.461 152.86 295.245 152.86 296.234C152.86 296.421 152.822 296.556 152.748 296.64C152.673 296.724 152.552 296.766 152.384 296.766H147.876C147.96 298.371 148.72 299.174 150.158 299.174C150.522 299.174 150.834 299.127 151.096 299.034C151.357 298.931 151.637 298.796 151.936 298.628C152.178 298.488 152.342 298.418 152.426 298.418ZM149.976 293.896C149.378 293.896 148.898 294.083 148.534 294.456C148.179 294.829 147.969 295.357 147.904 296.038H151.866C151.847 295.347 151.674 294.82 151.348 294.456C151.021 294.083 150.564 293.896 149.976 293.896ZM156.826 300.098C156.397 300.098 155.986 300.047 155.594 299.944C155.212 299.841 154.871 299.697 154.572 299.51C154.404 299.398 154.283 299.295 154.208 299.202C154.143 299.099 154.11 298.978 154.11 298.838C154.11 298.717 154.143 298.619 154.208 298.544C154.283 298.46 154.376 298.418 154.488 298.418C154.6 298.418 154.764 298.488 154.978 298.628C155.258 298.796 155.534 298.931 155.804 299.034C156.084 299.127 156.43 299.174 156.84 299.174C157.344 299.174 157.736 299.085 158.016 298.908C158.296 298.731 158.436 298.474 158.436 298.138C158.436 297.933 158.385 297.769 158.282 297.648C158.18 297.517 158.002 297.405 157.75 297.312C157.498 297.209 157.13 297.107 156.644 297.004C155.823 296.827 155.235 296.589 154.88 296.29C154.526 295.991 154.348 295.585 154.348 295.072C154.348 294.671 154.46 294.316 154.684 294.008C154.908 293.7 155.216 293.457 155.608 293.28C156.01 293.103 156.462 293.014 156.966 293.014C157.33 293.014 157.68 293.065 158.016 293.168C158.362 293.261 158.665 293.397 158.926 293.574C159.244 293.798 159.402 294.031 159.402 294.274C159.402 294.395 159.365 294.498 159.29 294.582C159.216 294.666 159.127 294.708 159.024 294.708C158.912 294.708 158.744 294.629 158.52 294.47C158.259 294.302 158.012 294.171 157.778 294.078C157.545 293.985 157.256 293.938 156.91 293.938C156.472 293.938 156.117 294.036 155.846 294.232C155.585 294.428 155.454 294.689 155.454 295.016C155.454 295.221 155.501 295.389 155.594 295.52C155.697 295.641 155.86 295.753 156.084 295.856C156.318 295.949 156.649 296.043 157.078 296.136C157.713 296.276 158.203 296.43 158.548 296.598C158.903 296.766 159.155 296.971 159.304 297.214C159.454 297.457 159.528 297.765 159.528 298.138C159.528 298.726 159.281 299.202 158.786 299.566C158.292 299.921 157.638 300.098 156.826 300.098ZM164.339 299.174C164.665 299.202 164.829 299.351 164.829 299.622C164.829 299.781 164.768 299.902 164.647 299.986C164.535 300.061 164.362 300.089 164.129 300.07L163.751 300.042C163.004 299.986 162.453 299.762 162.099 299.37C161.744 298.978 161.567 298.385 161.567 297.592V294.078H160.629C160.47 294.078 160.344 294.041 160.251 293.966C160.167 293.882 160.125 293.775 160.125 293.644C160.125 293.504 160.167 293.392 160.251 293.308C160.344 293.224 160.47 293.182 160.629 293.182H161.567V291.6C161.567 291.423 161.618 291.287 161.721 291.194C161.823 291.091 161.963 291.04 162.141 291.04C162.309 291.04 162.444 291.091 162.547 291.194C162.649 291.287 162.701 291.423 162.701 291.6V293.182H164.255C164.404 293.182 164.521 293.224 164.605 293.308C164.698 293.392 164.745 293.504 164.745 293.644C164.745 293.775 164.698 293.882 164.605 293.966C164.521 294.041 164.404 294.078 164.255 294.078H162.701V297.648C162.701 298.161 162.803 298.535 163.009 298.768C163.223 298.992 163.541 299.118 163.961 299.146L164.339 299.174ZM166.52 300.07C166.352 300.07 166.212 300.023 166.1 299.93C165.998 299.827 165.946 299.687 165.946 299.51V293.602C165.946 293.425 165.998 293.289 166.1 293.196C166.212 293.093 166.352 293.042 166.52 293.042C166.688 293.042 166.824 293.093 166.926 293.196C167.029 293.289 167.08 293.425 167.08 293.602V299.51C167.08 299.697 167.029 299.837 166.926 299.93C166.824 300.023 166.688 300.07 166.52 300.07ZM166.52 291.572C166.296 291.572 166.114 291.507 165.974 291.376C165.834 291.245 165.764 291.073 165.764 290.858C165.764 290.653 165.834 290.485 165.974 290.354C166.114 290.223 166.296 290.158 166.52 290.158C166.744 290.158 166.926 290.223 167.066 290.354C167.206 290.485 167.276 290.653 167.276 290.858C167.276 291.073 167.206 291.245 167.066 291.376C166.926 291.507 166.744 291.572 166.52 291.572ZM172.028 300.098C171.384 300.098 170.815 299.953 170.32 299.664C169.835 299.375 169.457 298.964 169.186 298.432C168.925 297.891 168.794 297.265 168.794 296.556C168.794 295.847 168.925 295.226 169.186 294.694C169.457 294.153 169.835 293.737 170.32 293.448C170.815 293.159 171.384 293.014 172.028 293.014C172.672 293.014 173.242 293.159 173.736 293.448C174.231 293.737 174.609 294.153 174.87 294.694C175.141 295.226 175.276 295.847 175.276 296.556C175.276 297.265 175.141 297.891 174.87 298.432C174.609 298.964 174.231 299.375 173.736 299.664C173.242 299.953 172.672 300.098 172.028 300.098ZM172.028 299.16C172.7 299.16 173.214 298.941 173.568 298.502C173.932 298.054 174.114 297.405 174.114 296.556C174.114 295.725 173.932 295.086 173.568 294.638C173.204 294.181 172.691 293.952 172.028 293.952C171.366 293.952 170.852 294.181 170.488 294.638C170.124 295.086 169.942 295.725 169.942 296.556C169.942 297.396 170.12 298.04 170.474 298.488C170.838 298.936 171.356 299.16 172.028 299.16ZM180.396 293.014C182.029 293.014 182.846 293.915 182.846 295.716V299.51C182.846 299.687 182.795 299.827 182.692 299.93C182.599 300.023 182.463 300.07 182.286 300.07C182.109 300.07 181.969 300.023 181.866 299.93C181.763 299.827 181.712 299.687 181.712 299.51V295.786C181.712 295.151 181.586 294.689 181.334 294.4C181.091 294.111 180.699 293.966 180.158 293.966C179.533 293.966 179.033 294.157 178.66 294.54C178.287 294.923 178.1 295.441 178.1 296.094V299.51C178.1 299.687 178.049 299.827 177.946 299.93C177.853 300.023 177.717 300.07 177.54 300.07C177.363 300.07 177.223 300.023 177.12 299.93C177.017 299.827 176.966 299.687 176.966 299.51V293.602C176.966 293.434 177.017 293.299 177.12 293.196C177.223 293.093 177.363 293.042 177.54 293.042C177.708 293.042 177.839 293.093 177.932 293.196C178.035 293.299 178.086 293.429 178.086 293.588V294.302C178.31 293.882 178.623 293.565 179.024 293.35C179.425 293.126 179.883 293.014 180.396 293.014ZM196.316 290.06C196.494 290.06 196.629 290.116 196.722 290.228C196.825 290.331 196.876 290.471 196.876 290.648V299.482C196.876 299.659 196.825 299.804 196.722 299.916C196.629 300.019 196.494 300.07 196.316 300.07C196.139 300.07 195.999 300.019 195.896 299.916C195.794 299.804 195.742 299.659 195.742 299.482V295.478H189.834V299.482C189.834 299.659 189.783 299.804 189.68 299.916C189.578 300.019 189.438 300.07 189.26 300.07C189.083 300.07 188.943 300.019 188.84 299.916C188.747 299.804 188.7 299.659 188.7 299.482V290.648C188.7 290.471 188.747 290.331 188.84 290.228C188.943 290.116 189.083 290.06 189.26 290.06C189.438 290.06 189.578 290.116 189.68 290.228C189.783 290.331 189.834 290.471 189.834 290.648V294.498H195.742V290.648C195.742 290.471 195.794 290.331 195.896 290.228C195.999 290.116 196.139 290.06 196.316 290.06ZM204.42 298.418C204.522 298.418 204.611 298.46 204.686 298.544C204.76 298.628 204.798 298.735 204.798 298.866C204.798 299.099 204.634 299.314 204.308 299.51C203.972 299.706 203.617 299.855 203.244 299.958C202.87 300.051 202.506 300.098 202.152 300.098C201.097 300.098 200.262 299.785 199.646 299.16C199.039 298.535 198.736 297.671 198.736 296.57C198.736 295.87 198.871 295.254 199.142 294.722C199.412 294.181 199.79 293.761 200.276 293.462C200.77 293.163 201.33 293.014 201.956 293.014C202.842 293.014 203.547 293.303 204.07 293.882C204.592 294.461 204.854 295.245 204.854 296.234C204.854 296.421 204.816 296.556 204.742 296.64C204.667 296.724 204.546 296.766 204.378 296.766H199.87C199.954 298.371 200.714 299.174 202.152 299.174C202.516 299.174 202.828 299.127 203.09 299.034C203.351 298.931 203.631 298.796 203.93 298.628C204.172 298.488 204.336 298.418 204.42 298.418ZM201.97 293.896C201.372 293.896 200.892 294.083 200.528 294.456C200.173 294.829 199.963 295.357 199.898 296.038H203.86C203.841 295.347 203.668 294.82 203.342 294.456C203.015 294.083 202.558 293.896 201.97 293.896ZM209.899 293.042C210.291 293.014 210.487 293.173 210.487 293.518C210.487 293.667 210.445 293.789 210.361 293.882C210.277 293.966 210.132 294.017 209.927 294.036L209.507 294.078C208.881 294.134 208.415 294.358 208.107 294.75C207.808 295.133 207.659 295.585 207.659 296.108V299.51C207.659 299.697 207.607 299.837 207.505 299.93C207.402 300.023 207.267 300.07 207.099 300.07C206.931 300.07 206.791 300.023 206.679 299.93C206.576 299.827 206.525 299.687 206.525 299.51V293.602C206.525 293.425 206.581 293.289 206.693 293.196C206.805 293.093 206.94 293.042 207.099 293.042C207.248 293.042 207.374 293.093 207.477 293.196C207.579 293.289 207.631 293.42 207.631 293.588V294.372C207.827 293.961 208.102 293.649 208.457 293.434C208.821 293.219 209.236 293.093 209.703 293.056L209.899 293.042ZM216.601 298.418C216.704 298.418 216.793 298.46 216.867 298.544C216.942 298.628 216.979 298.735 216.979 298.866C216.979 299.099 216.816 299.314 216.489 299.51C216.153 299.706 215.799 299.855 215.425 299.958C215.052 300.051 214.688 300.098 214.333 300.098C213.279 300.098 212.443 299.785 211.827 299.16C211.221 298.535 210.917 297.671 210.917 296.57C210.917 295.87 211.053 295.254 211.323 294.722C211.594 294.181 211.972 293.761 212.457 293.462C212.952 293.163 213.512 293.014 214.137 293.014C215.024 293.014 215.729 293.303 216.251 293.882C216.774 294.461 217.035 295.245 217.035 296.234C217.035 296.421 216.998 296.556 216.923 296.64C216.849 296.724 216.727 296.766 216.559 296.766H212.051C212.135 298.371 212.896 299.174 214.333 299.174C214.697 299.174 215.01 299.127 215.271 299.034C215.533 298.931 215.813 298.796 216.111 298.628C216.354 298.488 216.517 298.418 216.601 298.418ZM214.151 293.896C213.554 293.896 213.073 294.083 212.709 294.456C212.355 294.829 212.145 295.357 212.079 296.038H216.041C216.023 295.347 215.85 294.82 215.523 294.456C215.197 294.083 214.739 293.896 214.151 293.896Z" fill="#999999"/>
<g opacity="0.4">
<path d="M323.954 305.703L315.826 297.588C317.087 295.959 317.769 293.969 317.769 291.875C317.769 289.369 316.79 287.019 315.018 285.247C313.247 283.475 310.887 282.5 308.38 282.5C305.873 282.5 303.513 283.478 301.741 285.247C299.967 287.016 298.99 289.369 298.99 291.875C298.99 294.378 299.97 296.734 301.741 298.503C303.513 300.275 305.87 301.25 308.38 301.25C310.477 301.25 312.467 300.569 314.098 299.313L322.226 307.425C322.25 307.449 322.278 307.468 322.31 307.481C322.341 307.493 322.374 307.5 322.408 307.5C322.442 307.5 322.475 307.493 322.506 307.481C322.537 307.468 322.565 307.449 322.589 307.425L323.954 306.066C323.978 306.042 323.997 306.014 324.01 305.982C324.023 305.951 324.029 305.918 324.029 305.884C324.029 305.851 324.023 305.817 324.01 305.786C323.997 305.755 323.978 305.727 323.954 305.703ZM313.337 296.825C312.01 298.147 310.251 298.875 308.38 298.875C306.508 298.875 304.749 298.147 303.422 296.825C302.098 295.5 301.369 293.744 301.369 291.875C301.369 290.006 302.098 288.247 303.422 286.925C304.749 285.603 306.508 284.875 308.38 284.875C310.251 284.875 312.014 285.6 313.337 286.925C314.661 288.25 315.391 290.006 315.391 291.875C315.391 293.744 314.661 295.503 313.337 296.825Z" fill="#666666"/>
</g>
<g filter="url(#filter0_d)">
<rect x="27.5703" y="58.5" width="315.155" height="180" rx="4.5" fill="#F3FBD6" stroke="#1D7DEA" stroke-dasharray="8 4"/>
</g>
<path d="M169.383 95H200.243C203.603 95 206.346 97.9953 206.346 101.665V136.335C206.346 140.005 203.603 143 200.243 143H169.383C166.022 143 163.279 140.005 163.279 136.335V101.59C163.279 97.9953 166.022 95 169.383 95Z" fill="#DBEDFF"/>
<path d="M183.167 126.506C180.23 126.497 177.228 116.699 174.183 116.699C171.139 116.699 163.279 128.512 163.279 128.512V131.038V136.387C163.279 140.028 166.022 143 169.383 143H200.243C203.603 143 206.346 140.028 206.346 136.387V131.038V123.683C206.346 123.683 199.629 112.538 196.128 112.538C192.627 112.538 186.104 126.515 183.167 126.506Z" fill="url(#paint0_linear)"/>
<path d="M181.808 109.769C183.744 109.769 185.314 108.323 185.314 106.538C185.314 104.754 183.744 103.308 181.808 103.308C179.872 103.308 178.303 104.754 178.303 106.538C178.303 108.323 179.872 109.769 181.808 109.769Z" fill="url(#paint1_linear)"/>
<rect x="99.1797" y="163.005" width="171.266" height="44.6647" rx="4" fill="#33BD9A"/>
<path d="M466.094 337.589L469.007 342.622L472.715 341.907L470.17 336.011" fill="#F6B381"/>
<path d="M472.716 341.54C471.932 342.04 471.011 342.283 470.081 342.235C469.682 342.11 469.267 342.043 468.849 342.036C468.55 342.106 468.043 342.94 467.855 343.178C467.248 343.695 466.58 344.135 465.866 344.488C465.349 344.736 463.381 345.421 463.023 346.176C462.99 346.25 462.976 346.331 462.982 346.412C462.988 346.493 463.015 346.572 463.06 346.64C463.104 346.708 463.165 346.764 463.237 346.802C463.309 346.841 463.389 346.861 463.47 346.861C464.067 346.861 465.697 346.811 466.841 346.801C467.554 346.803 468.265 346.699 468.948 346.493C470.636 346.023 472.296 345.456 473.919 344.796C473.974 344.2 473.897 343.599 473.693 343.036C473.488 342.473 473.161 341.962 472.736 341.54H472.716Z" fill="#35434A"/>
<path d="M439.927 288.693C425.661 279.541 427.42 293.21 427.42 293.21L467.644 340.717C468.449 340.658 469.226 340.4 469.907 339.967C470.587 339.534 471.149 338.939 471.542 338.235C471.542 338.235 456.023 299.106 439.927 288.693Z" fill="#393C63"/>
<path d="M444.581 247.936C445.639 250.441 446.065 253.168 445.823 255.877C445.446 259.907 444.521 263.321 444.183 266.994C443.845 270.667 439.61 292.604 439.61 292.604C439.61 292.604 428.058 296.108 427.223 292.673C425.542 285.725 423.146 248.174 423.146 248.174C423.146 248.174 434.271 250.497 444.62 247.936H444.581Z" fill="#393C63"/>
<path d="M448.996 246.864C448.996 246.864 452.426 256.075 440.973 266.657C437.99 269.406 435.286 270.458 431.638 273.833C428.923 276.345 412.281 292.802 412.281 292.802C412.281 292.802 401.992 284.633 403.334 281.348C405.948 274.697 424.41 241.404 424.41 241.404C424.41 241.404 439.094 243.032 449.045 246.864H448.996Z" fill="#393C63"/>
<path d="M389.435 337.648L388.023 343.336L391.801 343.515L394.863 338.125" fill="#F6B381"/>
<path d="M415.331 285.229C414.337 266.101 403.282 281.348 403.282 281.348L388.707 339.674C389.95 340.825 391.575 341.476 393.27 341.501C393.27 341.501 416.325 304.357 415.331 285.229Z" fill="#393C63"/>
<path d="M452.862 183.664C448.119 185.986 440.166 183.971 440.166 183.971L442.83 175.494L443.984 171.871C443.984 171.871 444.789 171.176 445.972 170.213C449.68 167.236 457.047 161.806 455.128 167.107C452.583 174.124 452.842 183.664 452.842 183.664H452.862Z" fill="#F6B381"/>
<path d="M448.467 171.324C446.985 173.179 445.041 174.613 442.83 175.483L443.983 171.86C443.983 171.86 444.789 171.165 445.972 170.202L446.369 170.133L448.447 171.324H448.467Z" fill="#F69C72"/>
<path d="M438.298 155.513C438.298 155.513 435.216 170.918 437.652 173.499C440.088 176.08 451.54 171.325 451.54 171.325C451.54 171.325 460.488 163.007 459.832 155.443C459.295 149.101 445.913 143.79 440.207 150.351C439.153 151.562 438.775 153.389 438.328 155.473L438.298 155.513Z" fill="#F6B381"/>
<path d="M437.085 145.159C437.085 145.159 434.57 153.1 440.515 155.949C444.492 157.845 448.965 158.272 448.965 160.217C448.965 162.163 449.79 160.753 450.665 160.396C452.514 159.632 453.429 162.183 452.286 164.575C451.421 166.401 451.52 169.27 454.274 169.955C455.966 167.751 457.532 165.455 458.967 163.076C460.209 160.872 463.42 153.08 458.221 151.383C457.949 150.432 457.47 149.553 456.819 148.809C456.168 148.064 455.36 147.472 454.453 147.075C449.482 144.792 444.79 145.477 441.221 145.626C439.57 145.695 437.781 142.27 437.065 145.159H437.085Z" fill="#282966"/>
<path d="M427.231 197.302C425.372 196.547 422.678 195.316 419.854 193.986C417.637 192.924 415.341 191.803 413.293 190.79C409.505 188.924 406.572 187.425 406.572 187.425C406.572 187.425 409.028 179.871 410.609 179.554C411.543 179.355 418.562 180.646 424.159 181.718C425.342 181.946 426.466 182.164 427.43 182.373C429.577 182.78 431.019 183.077 431.019 183.077L427.231 197.302Z" fill="#F6B381"/>
<path d="M406.574 187.416C403.024 185.639 401.603 183.317 397.706 175.981C396.324 173.341 393.553 167.295 392.35 164.744L392.35 161.092C393.065 161.538 404.158 171.276 405.48 172.815C407.588 175.267 410.61 179.545 410.61 179.545C412.121 182.195 410.123 189.213 406.574 187.416Z" fill="#F6B381"/>
<path d="M440.246 184.775C434.45 182.849 421.357 180.507 421.357 180.507C421.357 180.507 417.798 188.517 417.648 194.404C421.864 197.054 432.432 200.28 432.432 200.28" fill="#FFC3BD"/>
<path d="M455.655 220.113L455.168 221.105C454.323 222.773 453.508 224.46 452.782 226.148C446.936 239.658 448.994 246.854 448.994 246.854C439.391 248.105 423.325 243.301 423.325 243.301C423.325 243.301 423.325 241.931 423.325 240.859C423.071 230.693 423.402 220.522 424.319 210.395C424.438 209.402 424.558 208.41 424.697 207.487C425.333 202.762 426.258 198.622 427.6 195.932C433.058 184.904 440.166 183.942 440.166 183.942C444.393 184.401 448.662 184.298 452.862 183.634C464.324 190.195 461.322 208.201 455.655 220.093V220.113Z" fill="#FFC3BD"/>
<path d="M406.105 205.5C406.105 205.5 405.618 197.559 406.97 196.705C407.775 196.179 414.814 194.799 420.371 193.727L423.662 193.132L427.261 192.477L428.951 207.108C422.479 207.108 406.085 205.46 406.085 205.46L406.105 205.5Z" fill="#F6B381"/>
<path d="M406.97 196.667C404.926 194.907 402.726 193.336 400.399 191.972C398.609 191.029 391.76 188.358 386.968 186.205C385.252 185.447 383.591 184.571 381.997 183.584L380.516 185.867C380.516 185.867 387.375 192.627 393.629 198.056C399.882 203.486 402.119 205.104 406.076 205.471C410.032 205.839 409.317 198.583 406.941 196.667H406.97Z" fill="#F6B381"/>
<path d="M447.126 206.494C438.179 210.187 423.873 208.221 423.873 208.221C422.636 203.319 422.114 198.264 422.322 193.213C426.05 191.972 437.314 190.165 437.314 190.165C437.314 190.165 448.757 188.726 450.437 196.459C452.167 204.449 447.126 206.494 447.126 206.494Z" fill="#FFC3BD"/>
<g filter="url(#filter1_d)">
<rect x="262.434" y="185.707" width="231.284" height="49.0159" transform="rotate(-27.2327 262.434 185.707)" fill="white"/>
</g>
<path opacity="0.5" d="M377.351 155.367C377.815 156.267 377.33 157.457 376.275 157.993L291.353 201.674C290.306 202.217 289.068 201.918 288.604 201.018C288.141 200.118 288.626 198.928 289.68 198.392L374.603 154.711C375.65 154.168 376.888 154.467 377.351 155.367Z" fill="#CCCCCC"/>
<path opacity="0.5" d="M359.821 173.317C360.285 174.217 359.8 175.407 358.745 175.943L295.059 208.696C294.013 209.239 292.774 208.939 292.311 208.039C291.847 207.139 292.332 205.95 293.387 205.413L357.073 172.661C358.12 172.118 359.358 172.417 359.821 173.317Z" fill="#CCCCCC"/>
<path d="M381.331 186.641C380.767 186.067 380.016 185.715 379.213 185.648C378.69 185.641 378.176 185.501 377.721 185.243C377.266 184.984 376.883 184.615 376.609 184.169C376.499 183.624 378.169 180.933 378.468 180.755C378.766 180.576 380.277 181.747 380.764 181.886C381.251 182.025 381.172 183.028 382.753 184.04" fill="#F6B381"/>
<path fill-rule="evenodd" clip-rule="evenodd" d="M376.055 183.673C373.491 180.958 374.737 181.015 376.674 182.624C374.281 179.788 375.095 179.089 377.789 181.422C375.852 179.073 376.658 177.122 380.182 182.137C384.333 188.061 379.572 187.403 376.055 183.673Z" fill="#F6B381"/>
<path fill-rule="evenodd" clip-rule="evenodd" d="M380.759 183.934C380.442 183.934 380.069 183.292 379.947 182.496C379.825 181.699 379.947 180.171 380.28 180.163C380.613 180.155 380.962 181.667 381.093 182.463C381.223 183.259 381.093 183.926 380.767 183.934H380.759Z" fill="#F6B381"/>
<path d="M381.48 183.039C381.473 182.399 381.306 181.771 380.993 181.212C380.854 180.914 380.496 179.872 380.317 179.872C380.138 179.872 379.9 180.1 379.83 180.368C379.791 180.791 379.791 181.216 379.83 181.639" fill="#F6B381"/>
<path d="M440.166 183.961L441.657 182.025C445.349 182.783 449.153 182.827 452.862 182.154V183.663L448.159 184.656C445.495 185.127 442.754 184.898 440.206 183.991L440.166 183.961Z" fill="#FBAE23"/>
<path d="M441.656 182.026L442.024 186.483C442.024 186.483 449.54 186.195 453.716 184.18L452.87 181.619C452.87 181.619 448.774 182.731 441.656 182.026Z" fill="#BED9FF"/>
<path d="M392.1 343C391.085 343.334 390.008 343.439 388.948 343.308C388.948 343.308 388.57 342.484 387.954 342.474C387.337 342.464 386.572 343.337 386.144 343.526C385.717 343.714 377.704 346.176 380.398 346.722C380.488 346.831 389.912 346.861 391.98 346.871C392.1 346.871 392.216 346.829 392.309 346.753C392.401 346.677 392.464 346.572 392.487 346.454C392.684 345.886 392.753 345.282 392.687 344.685C392.622 344.087 392.424 343.512 392.109 343H392.1Z" fill="#35434A"/>
<path d="M438.306 189.549L438.524 189.469C440.625 188.741 442.926 188.851 444.947 189.777C448.267 191.316 450.673 193.946 450.673 197.976C450.665 198.95 450.541 199.92 450.305 200.865L450.395 201.014L450.544 200.924C450.79 199.951 450.917 198.951 450.922 197.946C450.922 193.807 448.426 191.077 445.046 189.519C443.892 188.99 442.638 188.715 441.368 188.715C440.285 188.698 439.211 188.897 438.206 189.301L438.137 189.459L438.306 189.519V189.549Z" fill="white"/>
<path d="M449.203 186.035V186.253C449.203 186.392 449.203 186.601 449.203 186.849C449.224 187.65 449.055 188.444 448.709 189.167C448.364 189.89 447.852 190.521 447.215 191.008V191.177H447.384C448.042 190.661 448.57 189.998 448.924 189.241C449.278 188.484 449.449 187.654 449.422 186.819C449.424 186.53 449.401 186.241 449.352 185.956L449.213 185.856L449.114 186.005L449.203 186.035Z" fill="white"/>
<defs>
<filter id="filter0_d" x="10.0703" y="45" width="370.155" height="235" filterUnits="userSpaceOnUse" color-interpolation-filters="sRGB">
<feFlood flood-opacity="0" result="BackgroundImageFix"/>
<feColorMatrix in="SourceAlpha" type="matrix" values="0 0 0 0 0 0 0 0 0 0 0 0 0 0 0 0 0 0 127 0"/>
<feOffset dx="10" dy="14"/>
<feGaussianBlur stdDeviation="13.5"/>
<feColorMatrix type="matrix" values="0 0 0 0 0.2 0 0 0 0 0.2 0 0 0 0 0.2 0 0 0 0.05 0"/>
<feBlend mode="normal" in2="BackgroundImageFix" result="effect1_dropShadow"/>
<feBlend mode="normal" in="SourceGraphic" in2="effect1_dropShadow" result="shape"/>
</filter>
<filter id="filter1_d" x="252.434" y="71.8701" width="248.077" height="169.419" filterUnits="userSpaceOnUse" color-interpolation-filters="sRGB">
<feFlood flood-opacity="0" result="BackgroundImageFix"/>
<feColorMatrix in="SourceAlpha" type="matrix" values="0 0 0 0 0 0 0 0 0 0 0 0 0 0 0 0 0 0 127 0"/>
<feOffset dy="2"/>
<feGaussianBlur stdDeviation="5"/>
<feColorMatrix type="matrix" values="0 0 0 0 0 0 0 0 0 0 0 0 0 0 0 0 0 0 0.15 0"/>
<feBlend mode="normal" in2="BackgroundImageFix" result="effect1_dropShadow"/>
<feBlend mode="normal" in="SourceGraphic" in2="effect1_dropShadow" result="shape"/>
</filter>
<linearGradient id="paint0_linear" x1="184.813" y1="112.538" x2="184.813" y2="143" gradientUnits="userSpaceOnUse">
<stop stop-color="#33BD9A"/>
<stop offset="1" stop-color="#33D2A1"/>
</linearGradient>
<linearGradient id="paint1_linear" x1="181.808" y1="103.308" x2="181.808" y2="109.769" gradientUnits="userSpaceOnUse">
<stop stop-color="#FFDD42"/>
<stop offset="1" stop-color="#FFDD42"/>
</linearGradient>
</defs>
</svg>
