<svg width="912" height="589" viewBox="0 0 912 589" fill="none" xmlns="http://www.w3.org/2000/svg">
<path d="M0.00109863 588.519V0.000183105C44.7947 6.62421 88.6282 19.6226 129.678 38.6689C209.915 75.8978 282.337 136.435 370.177 146.727C437.857 154.656 505.153 131.175 567.303 103.239C629.454 75.2833 690.337 42.1633 757.172 28.877C811.95 17.9905 880.513 27.9745 904.148 78.5666C920.929 114.471 907.739 157.978 884.737 190.253C861.735 222.528 829.998 247.431 803.847 277.21C777.697 307.008 756.462 345.216 761.742 384.48C767.348 426.375 801.351 459.053 813.255 499.603C821.895 529.075 817.499 561.869 802.369 588.519H0.00109863Z" fill="#Fafafa"/>
</svg>
