<svg width="690" height="754" viewBox="0 0 690 754" fill="none" xmlns="http://www.w3.org/2000/svg">
<g opacity="0.3">
<path d="M27.3801 67.9894L81.7337 15.5006L98.565 90.4184L27.3801 67.9894Z" stroke="#1D7DEA" stroke-opacity="0.4" stroke-width="2"/>
<path d="M671.904 520.801L671.997 519.026L670.463 519.831L668.265 520.984L668.721 521.888L664.325 524.193L663.868 523.29L659.472 525.595L659.929 526.499L655.532 528.805L655.076 527.901L650.679 530.207L651.136 531.111L646.739 533.417L646.283 532.513L641.886 534.819L642.343 535.723L637.947 538.029L637.49 537.125L635.292 538.278L633.788 539.067L635.215 540.028L637.281 541.418L637.814 540.572L641.945 543.353L641.412 544.198L645.543 546.979L646.076 546.133L650.207 548.914L649.674 549.76L653.805 552.54L654.338 551.694L658.47 554.475L657.936 555.321L662.067 558.101L662.601 557.256L666.732 560.036L666.198 560.882L668.264 562.272L669.691 563.233L669.782 561.493L669.915 558.95L668.93 558.883L669.195 553.797L670.18 553.863L670.445 548.777L669.46 548.71L669.726 543.624L670.711 543.69L670.976 538.604L669.991 538.537L670.256 533.451L671.241 533.517L671.506 528.431L670.522 528.364L670.787 523.278L671.772 523.344L671.904 520.801Z" stroke="#1D7DEA" stroke-opacity="0.4" stroke-width="2" stroke-dasharray="5 5"/>
<path d="M44.9278 335.524L45.0204 333.749L43.4862 334.554L41.288 335.707L41.7448 336.611L37.3484 338.917L36.8917 338.013L32.4953 340.319L32.952 341.222L28.5557 343.528L28.099 342.624L23.7026 344.93L24.1593 345.834L19.7629 348.14L19.3062 347.236L14.9099 349.542L15.3666 350.446L10.9702 352.752L10.5135 351.848L8.31531 353.001L6.81112 353.79L8.23861 354.751L10.3042 356.141L10.8376 355.295L14.9686 358.076L14.4352 358.922L18.5663 361.702L19.0997 360.856L23.2308 363.637L22.6974 364.483L26.8285 367.263L27.3619 366.417L31.493 369.198L30.9596 370.044L35.0906 372.825L35.624 371.979L39.7551 374.759L39.2217 375.605L41.2873 376.995L42.7148 377.956L42.8055 376.216L42.9382 373.673L41.9533 373.606L42.2186 368.52L43.2034 368.586L43.4687 363.5L42.4839 363.433L42.7492 358.347L43.734 358.413L43.9993 353.327L43.0144 353.26L43.2797 348.174L44.2646 348.24L44.5299 343.154L43.545 343.087L43.8103 338.001L44.7952 338.067L44.9278 335.524Z" stroke="#9C9C9C" stroke-opacity="0.5" stroke-width="2" stroke-dasharray="5 5"/>
<path opacity="0.6" d="M574.633 237.642L585.106 246.673L572.046 251.225L574.633 237.642Z" fill="#F3B740"/>
<path d="M213.812 102.962L204.564 99.563L190.967 97.8937L205.452 89.1382L213.812 102.962Z" fill="#5AC8E0" fill-opacity="0.6"/>
<path opacity="0.6" d="M577.087 170.805L572.506 162.084L563.538 151.731L580.157 154.946L577.087 170.805Z" fill="#5AC8E0"/>
<path d="M271.625 464.518L258.744 459.482L269.547 450.847L271.625 464.518Z" fill="#F3B740"/>
</g>
</svg>
