<svg width="18" height="18" viewBox="0 0 18 18" fill="none" xmlns="http://www.w3.org/2000/svg">
<g clip-path="url(#clip0)">
<path d="M13.7468 8.84018H15.0024C15.2862 8.84018 15.5172 8.60924 15.5172 8.32539V7.06982C15.5172 6.78596 15.2862 6.55502 15.0024 6.55502H13.7468C13.463 6.55502 13.232 6.78596 13.232 7.06982V8.32539C13.232 8.60924 13.463 8.84018 13.7468 8.84018ZM13.7594 7.08237H14.9898V8.31284H13.7594V7.08237ZM13.7468 12.18H15.0024C15.2862 12.18 15.5172 11.9491 15.5172 11.6652V10.4097C15.5172 10.1258 15.2862 9.89487 15.0024 9.89487H13.7468C13.463 9.89487 13.232 10.1258 13.232 10.4097V11.6652C13.232 11.9491 13.463 12.18 13.7468 12.18ZM13.7594 10.4222H14.9898V11.6527H13.7594V10.4222ZM10.1638 8.84018H11.4194C11.7032 8.84018 11.9342 8.60924 11.9342 8.32539V7.06982C11.9342 6.78596 11.7032 6.55502 11.4194 6.55502H10.1638C9.87997 6.55502 9.64903 6.78596 9.64903 7.06982V8.32539C9.64903 8.60924 9.87997 8.84018 10.1638 8.84018ZM10.1764 7.08237H11.4068V8.31284H10.1764V7.08237ZM4.25342 13.0781H2.99785C2.714 13.0781 2.48306 13.3091 2.48306 13.5929V14.8485C2.48306 15.1323 2.714 15.3633 2.99785 15.3633H4.25342C4.53727 15.3633 4.76821 15.1323 4.76821 14.8485V13.5929C4.76821 13.3091 4.53727 13.0781 4.25342 13.0781ZM4.24087 14.8359H3.0104V13.6055H4.24087V14.8359ZM4.25342 6.55502H2.99785C2.714 6.55502 2.48306 6.78596 2.48306 7.06982V8.32539C2.48306 8.60924 2.714 8.84018 2.99785 8.84018H4.25342C4.53727 8.84018 4.76821 8.60924 4.76821 8.32539V7.06982C4.76821 6.78593 4.53727 6.55502 4.25342 6.55502ZM4.24087 8.31284H3.0104V7.08237H4.24087V8.31284ZM10.1638 12.1017H11.4194C11.7032 12.1017 11.9342 11.8708 11.9342 11.5869V10.3314C11.9342 10.0475 11.7032 9.81657 11.4194 9.81657H10.1638C9.87997 9.81657 9.64903 10.0475 9.64903 10.3314V11.5869C9.64903 11.8708 9.87997 12.1017 10.1638 12.1017ZM10.1764 10.3439H11.4068V11.5744H10.1764V10.3439ZM15.779 1.20495H14.6517V0.801809C14.6517 0.359684 14.292 0 13.8499 0H13.7288C13.2867 0 12.9271 0.359684 12.9271 0.801809V1.20495H5.07316V0.801809C5.07316 0.359684 4.71348 0 4.27135 0H4.15027C3.70815 0 3.34846 0.359684 3.34846 0.801809V1.20495H2.22118C1.49327 1.20495 0.901062 1.79715 0.901062 2.52506V16.6816C0.901062 17.4086 1.49246 18 2.21942 18H15.7809C16.5078 18 17.0992 17.4086 17.0992 16.6816V2.52506C17.0992 1.79715 16.507 1.20495 15.779 1.20495ZM13.4544 0.801809C13.4544 0.650461 13.5775 0.527344 13.7289 0.527344H13.85C14.0013 0.527344 14.1244 0.650461 14.1244 0.801809V1.20495H13.4544V0.801809ZM3.87584 0.801809C3.87584 0.650461 3.99896 0.527344 4.15031 0.527344H4.27139C4.42273 0.527344 4.54585 0.650461 4.54585 0.801809V1.20495H3.87588V0.801809H3.87584ZM16.5719 16.6816C16.5719 17.1178 16.217 17.4727 15.7808 17.4727H2.21939C1.7832 17.4727 1.42837 17.1178 1.42837 16.6816V16.68C1.64929 16.8465 1.9239 16.9453 2.22118 16.9453H12.9116C13.2642 16.9453 13.5957 16.808 13.8451 16.5586L16.5719 13.8318V16.6816ZM13.576 16.0819C13.5967 15.9966 13.6079 15.9076 13.6079 15.816V14.056C13.6079 13.7241 13.878 13.4541 14.2099 13.4541H15.9699C16.0615 13.4541 16.1505 13.4428 16.2358 13.4221L13.576 16.0819ZM16.5719 4.97299H5.33683C5.19121 4.97299 5.07316 5.09105 5.07316 5.23666C5.07316 5.38228 5.19121 5.50034 5.33683 5.50034H16.5719V12.3248C16.5719 12.6567 16.3018 12.9267 15.9699 12.9267H14.2099C13.5872 12.9267 13.0806 13.4333 13.0806 14.056V15.8161C13.0806 16.148 12.8106 16.418 12.4787 16.418H2.22118C1.78405 16.418 1.42841 16.0624 1.42841 15.6252V5.50034H4.28214C4.42776 5.50034 4.54582 5.38228 4.54582 5.23666C4.54582 5.09105 4.42776 4.97299 4.28214 4.97299H1.42837V2.52506C1.42837 2.08793 1.78401 1.73229 2.22114 1.73229H3.34846V2.50755C3.34846 2.94968 3.70815 3.30936 4.15027 3.30936C4.29589 3.30936 4.41394 3.19131 4.41394 3.04569C4.41394 2.90007 4.29589 2.78202 4.15027 2.78202C3.99893 2.78202 3.87581 2.6589 3.87581 2.50755V1.73229H12.9271V2.50755C12.9271 2.94968 13.2867 3.30936 13.7289 3.30936C13.8745 3.30936 13.9925 3.19131 13.9925 3.04569C13.9925 2.90007 13.8745 2.78202 13.7289 2.78202C13.5775 2.78202 13.4544 2.6589 13.4544 2.50755V1.73229H15.7791C16.2162 1.73229 16.5719 2.08793 16.5719 2.52506V4.97299ZM4.25342 9.81657H2.99785C2.714 9.81657 2.48306 10.0475 2.48306 10.3314V11.5869C2.48306 11.8708 2.714 12.1017 2.99785 12.1017H4.25342C4.53727 12.1017 4.76821 11.8708 4.76821 11.5869V10.3314C4.76821 10.0475 4.53727 9.81657 4.25342 9.81657ZM4.24087 11.5744H3.0104V10.3439H4.24087V11.5744ZM6.58083 8.84018H7.83641C8.12026 8.84018 8.3512 8.60924 8.3512 8.32539V7.06982C8.3512 6.78596 8.12026 6.55502 7.83641 6.55502H6.58083C6.29698 6.55502 6.06604 6.78596 6.06604 7.06982V8.32539C6.06604 8.60924 6.29698 8.84018 6.58083 8.84018ZM6.59339 7.08237H7.82385V8.31284H6.59339V7.08237ZM10.1761 14.8359C10.1695 14.6961 10.0541 14.5848 9.91266 14.5848C9.76705 14.5848 9.64899 14.7029 9.64899 14.8485C9.64899 15.1323 9.87993 15.3633 10.1638 15.3633H11.4194C11.7032 15.3633 11.9341 15.1323 11.9341 14.8485V13.5929C11.9341 13.3091 11.7032 13.0781 11.4194 13.0781H10.1638C9.87993 13.0781 9.64899 13.3091 9.64899 13.5929V13.955C9.64899 14.1006 9.76705 14.2187 9.91266 14.2187C10.0583 14.2187 10.1763 14.1006 10.1763 13.955V13.6055H11.4068V14.8359H10.1761ZM6.58083 12.1017H7.83641C8.12026 12.1017 8.3512 11.8708 8.3512 11.5869V10.3314C8.3512 10.0475 8.12026 9.81657 7.83641 9.81657H6.58083C6.29698 9.81657 6.06604 10.0475 6.06604 10.3314V11.5869C6.06604 11.8708 6.29698 12.1017 6.58083 12.1017ZM6.59339 10.3439H7.82385V11.5744H6.59339V10.3439ZM6.58083 15.3633H7.83641C8.12026 15.3633 8.3512 15.1323 8.3512 14.8485V13.5929C8.3512 13.3091 8.12026 13.0781 7.83641 13.0781H6.58083C6.29698 13.0781 6.06604 13.3091 6.06604 13.5929V14.8485C6.06604 15.1323 6.29698 15.3633 6.58083 15.3633ZM6.59339 13.6055H7.82385V14.8359H6.59339V13.6055Z" fill="#969696"/>
</g>
<defs>
<clipPath id="clip0">
<rect width="18" height="18" fill="white"/>
</clipPath>
</defs>
</svg>
