<svg width="13" height="17" viewBox="0 0 13 17" fill="none" xmlns="http://www.w3.org/2000/svg">
<path d="M8.7082 5.81055C8.50124 5.81055 8.3335 5.97829 8.3335 6.18525V13.2672C8.3335 13.474 8.50124 13.6419 8.7082 13.6419C8.91517 13.6419 9.08291 13.474 9.08291 13.2672V6.18525C9.08291 5.97829 8.91517 5.81055 8.7082 5.81055Z" fill="#969696"/>
<path d="M4.28682 5.81055C4.07985 5.81055 3.91211 5.97829 3.91211 6.18525V13.2672C3.91211 13.474 4.07985 13.6419 4.28682 13.6419C4.49378 13.6419 4.66152 13.474 4.66152 13.2672V6.18525C4.66152 5.97829 4.49378 5.81055 4.28682 5.81055Z" fill="#969696"/>
<path d="M1.06423 4.77703V14.009C1.06423 14.5547 1.26431 15.0671 1.61384 15.4348C1.96176 15.8035 2.44596 16.0128 2.95269 16.0137H10.0422C10.5491 16.0128 11.0333 15.8035 11.3811 15.4348C11.7306 15.0671 11.9307 14.5547 11.9307 14.009V4.77703C12.6255 4.5926 13.0758 3.92135 12.9828 3.20838C12.8897 2.49556 12.2824 1.96234 11.5635 1.96219H9.645V1.49381C9.64719 1.09993 9.49146 0.721711 9.21262 0.443462C8.93379 0.16536 8.55498 0.010501 8.1611 0.0137211H4.83383C4.43995 0.010501 4.06114 0.16536 3.78231 0.443462C3.50348 0.721711 3.34774 1.09993 3.34993 1.49381V1.96219H1.43147C0.7125 1.96234 0.105213 2.49556 0.0121219 3.20838C-0.0808227 3.92135 0.36941 4.5926 1.06423 4.77703ZM10.0422 15.2643H2.95269C2.31203 15.2643 1.81364 14.7139 1.81364 14.009V4.80996H11.1813V14.009C11.1813 14.7139 10.6829 15.2643 10.0422 15.2643ZM4.09935 1.49381C4.09686 1.2987 4.17356 1.11091 4.31202 0.973174C4.45034 0.83544 4.63857 0.759767 4.83383 0.763133H8.1611C8.35636 0.759767 8.54459 0.83544 8.68291 0.973174C8.82137 1.11076 8.89807 1.2987 8.89558 1.49381V1.96219H4.09935V1.49381ZM1.43147 2.71161H11.5635C11.936 2.71161 12.2379 3.01357 12.2379 3.38608C12.2379 3.75859 11.936 4.06055 11.5635 4.06055H1.43147C1.05896 4.06055 0.756997 3.75859 0.756997 3.38608C0.756997 3.01357 1.05896 2.71161 1.43147 2.71161Z" fill="#969696"/>
<path d="M6.49726 5.81055C6.2903 5.81055 6.12256 5.97829 6.12256 6.18525V13.2672C6.12256 13.474 6.2903 13.6419 6.49726 13.6419C6.70423 13.6419 6.87197 13.474 6.87197 13.2672V6.18525C6.87197 5.97829 6.70423 5.81055 6.49726 5.81055Z" fill="#969696"/>
</svg>
