<svg width="44" height="44" viewBox="0 0 44 44" fill="none" xmlns="http://www.w3.org/2000/svg">
<path d="M22 42.625C33.3909 42.625 42.625 33.3909 42.625 22C42.625 10.6091 33.3909 1.375 22 1.375C10.6091 1.375 1.375 10.6091 1.375 22C1.375 33.3909 10.6091 42.625 22 42.625Z" fill="#3F65A6"/>
<path d="M18.8652 15.2161C18.8652 15.8123 18.8652 18.4709 18.8652 18.4709H16.4805V22.4509H18.8652V33.3596H23.7637V22.4429H27.0508C27.0508 22.4429 27.3569 20.5334 27.51 18.4468C27.083 18.4468 23.7878 18.4468 23.7878 18.4468C23.7878 18.4468 23.7878 16.1345 23.7878 15.7236C23.7878 15.3208 24.3196 14.7729 24.8513 14.7729C25.375 14.7729 26.4868 14.7729 27.5181 14.7729C27.5181 14.2332 27.5181 12.356 27.5181 10.6318C26.1404 10.6318 24.5774 10.6318 23.8926 10.6318C18.7444 10.6399 18.8652 14.6199 18.8652 15.2161Z" fill="white"/>
</svg>
