<svg width="277" height="326" viewBox="0 0 277 326" fill="none" xmlns="http://www.w3.org/2000/svg">
<path d="M33.5597 120.971C33.5597 120.971 31.7281 132.17 23.4743 134.175C16.8086 135.787 10.5371 129.399 8.36932 126.872C7.84766 126.269 7.56944 125.887 7.56944 125.887C7.56944 125.887 7.07096 125.933 6.32904 125.921C4.59017 125.898 1.50657 125.539 0.30095 123.406C-1.42633 120.369 4.84521 118.282 4.84521 118.282C4.84521 118.282 1.63408 115.407 2.43396 113.32C3.22224 111.269 7.53467 110.84 7.53467 110.84C7.53467 110.84 2.88609 107.826 4.45107 105.194C6.79274 101.241 11.592 105.588 11.9746 105.832C11.6732 105.484 5.65669 99.2588 8.94895 98.146C11.8239 97.1722 16.5536 100.406 19.6604 103.606C20.1588 104.116 20.437 104.406 20.437 104.406C20.437 104.406 20.6225 104.267 20.9471 104.047C22.5005 103.003 27.2766 100.221 30.3138 102.76C33.977 105.855 33.5597 120.971 33.5597 120.971Z" fill="#FFD3C0"/>
<path d="M24.9584 127.858C24.7497 127.95 24.5063 127.95 24.3092 127.811C24.0078 127.614 23.9266 127.208 24.1353 126.907C25.225 125.296 25.5612 123.638 25.1323 122.003C24.0426 117.807 18.4318 114.909 18.3738 114.874C18.0492 114.712 17.9217 114.318 18.084 113.993C18.2463 113.668 18.6405 113.541 18.9651 113.703C19.2201 113.831 25.1554 116.903 26.3958 121.667C26.9175 123.684 26.5234 125.69 25.2134 127.626C25.1439 127.73 25.0511 127.8 24.9584 127.858Z" fill="white"/>
<path d="M19.2325 111.71C19.2325 112.486 18.9079 113.101 18.3051 113.495C18.1775 113.576 18.0384 113.646 17.8762 113.715C17.54 113.843 17.1342 113.935 16.6937 113.982C17.0183 114.19 17.3081 114.422 17.5284 114.666C17.7602 114.909 17.9341 115.164 18.0385 115.431C18.1776 115.825 18.2355 116.416 17.7487 117.077C16.6937 118.468 14.2709 119.036 12.3002 119.268C13.7145 120.103 14.9433 121.239 15.349 122.375C15.604 123.105 15.5229 123.8 15.094 124.369C14.7926 124.763 14.2941 125.11 13.6797 125.412C12.1379 126.165 9.87738 126.629 8.37036 126.884C7.8487 126.281 7.57048 125.899 7.57048 125.899C7.57048 125.899 7.072 125.957 6.33008 125.945C6.42282 125.864 6.53875 125.818 6.66627 125.806C9.08909 125.528 13.2392 124.67 14.0507 123.592C14.155 123.453 14.2593 123.232 14.1202 122.815C13.6681 121.563 11.3148 119.905 9.28614 119.407C8.96155 119.326 8.75291 119.024 8.79928 118.688C8.83405 118.352 9.12384 118.109 9.46002 118.12C11.083 118.155 15.5345 117.877 16.7169 116.289C16.8908 116.057 16.8444 115.929 16.8212 115.871C16.7169 115.57 16.3459 115.268 15.8359 114.967C14.7925 114.353 13.1464 113.796 11.964 113.506C11.8249 113.472 11.709 113.402 11.6278 113.298C11.4887 113.147 11.4308 112.927 11.4771 112.718C11.5583 112.37 11.9176 112.15 12.2654 112.231C12.4857 112.289 12.961 112.405 13.5406 112.591C14.6419 112.718 15.6968 112.776 16.4966 112.695C16.9719 112.649 17.3545 112.544 17.6095 112.394C17.7602 112.301 17.9341 112.127 17.9341 111.698C17.9457 111.153 17.6675 110.446 17.227 109.716C17.0879 109.484 17.111 109.194 17.2849 108.985L17.2965 108.974C17.5747 108.614 18.1196 108.649 18.3514 109.043C18.8847 109.948 19.2325 110.887 19.2325 111.71Z" fill="white"/>
<path d="M14.4325 99.4559C15.557 100.151 16.5423 100.801 17.5045 101.705C18.4319 102.586 19.0231 103.038 19.6607 103.629C19.7071 103.56 19.6143 103.699 19.6607 103.629L7.07127 50.2343C6.88579 49.4113 5.65699 49.6663 5.8077 50.4894L14.4325 99.4559C14.4325 99.4559 14.4209 99.4443 14.4325 99.4559Z" fill="#999999"/>
<path d="M25.3734 129.109C21.0146 131.926 19.7858 129.84 19.7858 129.84L17.5717 117.297C17.6412 117.227 17.6992 117.157 17.7571 117.076C18.244 116.416 18.1861 115.813 18.047 115.43C17.9426 115.152 17.7687 114.897 17.5369 114.665C17.3862 114.503 17.2123 114.364 17.0268 114.213L16.9805 113.935C17.3051 113.877 17.618 113.807 17.8731 113.703C18.0354 113.633 18.1745 113.575 18.302 113.483C18.6961 113.228 18.9744 112.857 19.1135 112.428C19.6467 112.938 20.2959 113.228 21.0726 113.309C21.2813 113.332 21.4899 113.332 21.7102 113.332L25.3734 129.109Z" fill="#999999"/>
<path d="M29.1643 109.53C29.0368 109.646 27.1125 111.327 24.8635 112.417C23.6231 113.019 22.2668 113.448 21.0728 113.321C20.0874 113.216 19.2876 112.764 18.7079 111.988C16.6329 109.206 18.4065 105.565 19.6585 103.641C20.157 104.151 20.4352 104.441 20.4352 104.441C20.4352 104.441 20.6207 104.302 20.9453 104.082C19.8788 105.67 18.0819 108.95 19.7628 111.211C20.1222 111.698 20.5975 111.965 21.2119 112.034C23.5188 112.277 27.1124 109.611 28.2949 108.568C28.5615 108.324 28.9789 108.348 29.2223 108.626C29.4541 108.869 29.4309 109.287 29.1643 109.53Z" fill="white"/>
<path d="M96.5294 96.5696V96.5464C96.5294 96.5464 96.5294 96.5233 96.5294 96.5464L96.5178 96.616L96.483 96.7783L96.4018 97.1608L96.228 98.0071C96.17 98.2969 96.1004 98.5983 96.0425 98.8997C95.9729 99.2011 95.915 99.5025 95.8338 99.8039C95.5556 101.021 95.2542 102.262 94.918 103.502C94.2341 105.983 93.5153 108.475 92.6807 110.921C91.8344 113.367 90.965 115.813 89.9797 118.19C89.4696 119.372 88.9827 120.566 88.4378 121.725C87.9278 122.908 87.3597 124.055 86.8149 125.203C85.6672 127.487 84.4732 129.736 83.1749 131.892C82.8735 132.448 82.5257 132.97 82.1895 133.515C81.8533 134.048 81.5403 134.593 81.181 135.115C80.4854 136.158 79.8131 137.213 79.0711 138.221C77.6569 140.285 76.0919 142.209 74.5385 144.122C72.9271 145.977 71.281 147.82 69.5305 149.524C69.09 149.953 68.6611 150.393 68.2206 150.811L66.8643 152.04L66.1919 152.654L66.018 152.805L66.0992 152.723L66.2151 152.619C66.3774 152.492 66.5397 152.376 66.7252 152.26C67.4439 151.75 68.3365 151.356 69.1596 151.124C69.3682 151.066 69.5421 151.008 69.7392 150.985C69.8319 150.961 69.9363 150.95 70.029 150.938L70.2725 150.892C70.4348 150.869 70.6086 150.857 70.7593 150.857C70.8869 150.845 71.0144 150.834 71.1419 150.845C71.1999 150.845 71.281 150.857 71.3158 150.857C71.3622 150.857 71.4085 150.857 71.4549 150.857C71.536 150.857 71.6404 150.88 71.7099 150.892C71.7679 150.892 71.8143 150.903 71.8722 150.915L71.9418 150.938C71.9534 150.938 71.965 150.938 71.9766 150.938C72.162 150.996 71.7911 150.938 71.223 150.695C70.6434 150.451 69.8783 150.046 69.0437 149.559C68.209 149.06 67.2932 148.457 66.3658 147.797C64.4994 146.475 62.5403 144.899 60.5928 143.218C58.6336 141.525 56.6629 139.728 54.7038 137.85C52.7447 135.984 50.7856 134.036 48.8612 132.054C46.9253 130.072 44.9893 128.043 43.0998 125.991C42.1376 124.971 41.187 123.939 40.2596 122.908L37.5238 119.917L16.4023 135.764L17.1095 136.83L17.7818 137.816L19.115 139.752C20.0192 141.027 20.9234 142.29 21.8392 143.542C23.694 146.035 25.5952 148.504 27.5659 150.938C29.5598 153.361 31.5884 155.772 33.733 158.137C34.8111 159.32 35.9008 160.502 37.0253 161.661C38.1498 162.832 39.309 163.991 40.503 165.139C42.9027 167.446 45.4298 169.706 48.2816 171.932C49.7075 173.045 51.2261 174.135 52.8722 175.213C54.5299 176.291 56.3267 177.346 58.4366 178.343C60.5464 179.328 62.9576 180.29 66.0412 180.939L66.6093 181.055C66.8063 181.09 67.0266 181.125 67.2353 181.16C67.6526 181.218 68.0699 181.276 68.4872 181.334C68.9161 181.38 69.3915 181.415 69.8436 181.438L70.5275 181.473C70.7594 181.484 71.0144 181.484 71.2578 181.484C71.7563 181.484 72.2548 181.473 72.7417 181.45C73.2633 181.415 73.7966 181.357 74.3298 181.287C74.5965 181.252 74.8515 181.218 75.1297 181.183C75.4079 181.137 75.6862 181.079 75.9644 181.021C76.5208 180.905 77.0657 180.789 77.6221 180.626C79.871 179.989 82.0968 178.946 84.0559 177.624C84.5312 177.299 84.9833 176.952 85.4354 176.592L85.7716 176.326L86.073 176.071L86.3164 175.85L87.2902 174.993L89.2261 173.265C89.8521 172.674 90.4665 172.071 91.0925 171.468C93.5849 169.08 95.8802 166.507 98.1175 163.899C100.297 161.244 102.395 158.543 104.296 155.726C106.244 152.932 107.994 150.022 109.664 147.09L110.869 144.864C111.275 144.122 111.634 143.368 112.017 142.615C112.399 141.861 112.77 141.119 113.13 140.354L114.196 138.082C116.955 131.985 119.181 125.713 120.908 119.326C121.755 116.126 122.52 112.903 123.099 109.623C123.389 107.977 123.667 106.33 123.888 104.638C123.946 104.221 123.992 103.792 124.05 103.363C124.096 102.934 124.154 102.505 124.201 102.064C124.247 101.636 124.293 101.172 124.328 100.72L124.456 99.1084L96.5294 96.5696Z" fill="#0065C4"/>
<path d="M30.209 132.553C30.2901 133.55 31.1712 134.303 32.1797 134.21C33.1766 134.129 33.9301 133.248 33.8374 132.24C33.7563 131.243 32.8753 130.489 31.8667 130.582C30.8582 130.675 30.1163 131.556 30.209 132.553Z" fill="#33A5B5"/>
<path d="M68.0815 163.864C68.4293 163.864 68.7423 163.632 68.8351 163.272C70.2957 157.43 70.1103 150.092 70.0987 149.779C70.0871 149.35 69.7277 149.014 69.2988 149.025C68.8699 149.037 68.5336 149.396 68.5452 149.825C68.5452 149.895 68.7307 157.256 67.328 162.89C67.2237 163.307 67.4787 163.724 67.8961 163.829C67.954 163.852 68.012 163.864 68.0815 163.864Z" fill="#33A5B5"/>
<path d="M73.054 158.218C73.1699 158.218 73.2858 158.195 73.4017 158.137C73.7843 157.94 73.9466 157.476 73.7495 157.094C73.6452 156.885 71.1296 151.854 69.9356 150.347C69.669 150.011 69.1821 149.953 68.8459 150.219C68.5097 150.486 68.4518 150.973 68.7184 151.309C69.8081 152.677 72.3352 157.731 72.3584 157.778C72.4975 158.067 72.7642 158.218 73.054 158.218Z" fill="#33A5B5"/>
<path d="M24.6108 147.669C24.8194 147.669 25.0165 147.588 25.1672 147.437C31.6822 140.713 46.393 130.095 46.5437 129.99C46.8915 129.735 46.9726 129.248 46.7176 128.901C46.4625 128.553 45.9756 128.472 45.6279 128.727C45.4772 128.831 30.662 139.531 24.0543 146.347C23.7529 146.66 23.7645 147.147 24.0659 147.449C24.2166 147.599 24.4137 147.669 24.6108 147.669Z" fill="#33A5B5"/>
<path d="M30.9051 141.931C31.079 141.931 31.2529 141.873 31.4036 141.745C31.7282 141.467 31.7746 140.98 31.508 140.644L23.6483 131.208C23.3701 130.883 22.8832 130.837 22.547 131.103C22.2224 131.382 22.176 131.868 22.4427 132.205L30.3023 141.641C30.4646 141.838 30.6849 141.931 30.9051 141.931Z" fill="#33A5B5"/>
<path d="M115.761 325.578L126.31 263.35L127.179 258.261L96.8186 247.549L95.0914 246.935L87.8576 244.385C87.8576 244.385 87.278 247.051 86.3854 251.618C86.2811 252.175 86.1652 252.755 86.0492 253.357C83.1975 268.08 77.8649 298.406 76.4043 325.567H115.761V325.578Z" fill="#585859"/>
<path d="M110.384 325.578C114.94 300.771 120.806 264.509 121.154 262.388C121.223 261.936 120.922 261.518 120.47 261.449C120.029 261.379 119.6 261.681 119.531 262.133C119.449 262.655 113.363 300.295 108.715 325.578H110.384Z" fill="#999999"/>
<path d="M177.179 224.515C177.179 224.515 179.463 246.193 174.536 258.261C169.609 270.329 105.769 264.115 89.5052 253.253C82.8279 248.802 97.0403 207.695 97.0403 207.695L177.179 224.515Z" fill="#585859"/>
<path d="M86.0508 253.369C87.013 253.195 87.9635 252.952 88.8793 252.639C90.34 252.14 91.7427 251.468 93.0758 250.61C94.4553 249.718 95.7073 248.686 96.8202 247.55C103.857 240.455 105.932 229.721 106.025 229.199C106.106 228.758 105.816 228.329 105.364 228.237C104.923 228.156 104.494 228.445 104.402 228.898C104.378 229.025 102.222 240.189 95.0813 246.935C94.1887 247.782 93.2149 248.558 92.1716 249.231C90.908 250.042 89.5633 250.68 88.1606 251.143C87.581 251.329 86.9782 251.491 86.3754 251.619C86.271 252.175 86.1551 252.755 86.0508 253.369Z" fill="#999999"/>
<path d="M125.431 259.42C125.408 259.849 125.755 260.22 126.207 260.255C126.207 260.255 126.207 260.255 126.219 260.255C126.671 260.278 127.054 259.942 127.077 259.501C127.216 256.534 127.402 253.508 127.587 250.471C127.622 249.938 127.657 249.404 127.691 248.871C128.341 238.971 129.152 229.245 129.766 222.371C129.813 221.814 129.859 221.281 129.917 220.759C130.056 219.252 130.184 217.919 130.288 216.783C129.743 216.702 129.198 216.609 128.665 216.517C128.561 217.653 128.433 218.997 128.294 220.516C128.248 221.038 128.201 221.571 128.143 222.127C127.529 228.932 126.718 238.577 126.08 248.419C126.045 248.964 126.01 249.509 125.976 250.054C125.767 253.207 125.581 256.36 125.431 259.42Z" fill="#999999"/>
<path d="M123.1 248.976C123.355 249.103 124.503 249.636 125.964 250.077C126.474 250.228 127.019 250.378 127.587 250.483C128.097 250.587 128.618 250.657 129.14 250.68C130.137 250.738 131.087 250.633 131.887 250.251C132.884 249.775 133.533 248.906 133.754 247.747C134.345 244.686 135.597 232.074 136.443 223.148C136.501 222.603 136.548 222.058 136.594 221.548C136.733 220.122 136.849 218.824 136.953 217.722C136.408 217.653 135.864 217.595 135.319 217.514C135.214 218.627 135.098 219.936 134.959 221.386C134.913 221.907 134.855 222.44 134.809 222.985C133.962 231.888 132.722 244.489 132.142 247.445C132.015 248.129 131.702 248.57 131.157 248.825C130.288 249.242 128.989 249.149 127.691 248.871C127.134 248.755 126.59 248.593 126.08 248.431C125.141 248.129 124.329 247.782 123.831 247.55C123.425 247.353 122.938 247.515 122.729 247.909C122.521 248.303 122.695 248.779 123.1 248.976Z" fill="#999999"/>
<path d="M169.25 325.578C171.777 302.486 174.698 271.569 176.344 253.67C176.402 253.114 176.449 252.569 176.495 252.035C177.225 244.129 177.666 239.156 177.666 239.156C173.748 237.522 166.641 238.646 159.083 240.791C158.538 240.942 157.993 241.104 157.437 241.266C144.013 245.289 129.777 252.082 129.777 252.082V325.578H169.25Z" fill="#585859"/>
<path d="M165.388 325.578C167.568 299.901 170.153 262.805 170.188 262.318C170.222 261.866 169.875 261.472 169.422 261.437C168.97 261.414 168.576 261.75 168.553 262.202C168.518 262.689 165.922 299.924 163.742 325.578H165.388Z" fill="#999999"/>
<path d="M152.916 229.187C152.985 229.57 154.11 235.377 157.437 241.255C159.396 244.721 162.132 248.199 165.864 250.598C169.006 252.615 172.507 253.635 176.332 253.659C176.39 253.102 176.437 252.557 176.483 252.024C172.913 252.024 169.655 251.085 166.757 249.23C163.418 247.086 160.926 243.956 159.083 240.791C155.686 234.948 154.539 228.99 154.527 228.897C154.446 228.457 154.017 228.155 153.576 228.236C153.136 228.318 152.834 228.746 152.916 229.187Z" fill="#999999"/>
<path d="M87.2656 223.148C104.933 239.644 146.723 248.408 178.927 232.723C182.463 223.067 186.346 188.614 187.39 178.308C187.598 176.256 187.761 174.204 187.9 172.153C188.549 162.276 188.41 152.318 187.934 141.908C187.911 141.34 187.876 140.772 187.853 140.204C187.436 131.637 186.798 122.757 186.207 113.321C185.036 94.6454 178.8 83.1457 167.972 81.43C162.941 80.6301 158.953 79.2158 156.02 77.8248C155.661 77.6509 155.325 77.4886 154.989 77.3147C151.499 75.5294 149.517 73.9297 149.517 73.9297H125.37C123.295 76.9553 120.675 78.8681 117.858 80.2128C117.545 80.3635 117.232 80.5026 116.908 80.6417C108.341 84.3397 98.3364 83.6094 96.2846 93.9383C94.9862 100.43 99.9594 113.773 99.4377 140.841C99.4029 142.824 99.3333 144.887 99.229 147.02C99.1363 149.026 99.0088 151.089 98.8465 153.222C98.6958 155.204 98.5219 157.268 98.3132 159.378C98.1278 161.221 97.9191 163.122 97.6872 165.058C97.4438 167.052 97.1771 169.092 96.8757 171.19C95.276 182.47 90.9636 208.68 87.2656 223.148Z" fill="#0065C4"/>
<path d="M170.025 228.782C169.967 228.782 169.898 228.77 169.828 228.758C169.446 228.654 169.214 228.26 169.318 227.866C182.73 178.691 180.018 128.716 179.995 128.217C179.971 127.823 180.273 127.475 180.679 127.452C181.084 127.429 181.421 127.73 181.444 128.136C181.467 128.634 184.191 178.853 170.721 228.26C170.64 228.573 170.338 228.782 170.025 228.782Z" fill="#FAFAFA"/>
<path d="M97.2581 164.919C97.6522 164.919 97.9884 164.629 98.0348 164.223C99.6345 150 99.6577 121.714 99.6577 121.424C99.6577 120.995 99.3099 120.647 98.881 120.647C98.4521 120.647 98.1043 120.995 98.1043 121.424C98.1043 121.702 98.0812 149.918 96.493 164.05C96.4466 164.479 96.748 164.861 97.1769 164.907C97.2001 164.919 97.2233 164.919 97.2581 164.919Z" fill="#FAFAFA"/>
<path d="M130.33 218.488C130.411 219.485 131.292 220.238 132.301 220.145C133.298 220.064 134.051 219.183 133.959 218.175C133.878 217.178 132.997 216.424 131.988 216.517C130.991 216.598 130.249 217.479 130.33 218.488Z" fill="#FAFAFA"/>
<path d="M130.041 227.286C130.122 228.283 131.003 229.037 132.012 228.944C133.009 228.863 133.762 227.982 133.67 226.973C133.577 225.965 132.707 225.223 131.699 225.315C130.702 225.408 129.96 226.289 130.041 227.286Z" fill="#FAFAFA"/>
<path d="M108.78 130.408C104.038 124.901 105.812 112.648 105.893 112.127C105.951 111.744 106.276 111.466 106.658 111.466H122.737C123.119 111.466 123.444 111.744 123.502 112.127C123.583 112.648 125.357 124.901 120.615 130.408C119.108 132.158 117.115 133.039 114.692 133.039C112.28 133.051 110.287 132.158 108.78 130.408ZM107.354 113.019C107.052 115.604 106.264 125.099 109.962 129.388C111.179 130.802 112.733 131.486 114.703 131.486C116.686 131.486 118.239 130.802 119.445 129.388C123.143 125.099 122.354 115.604 122.053 113.019H107.354Z" fill="#FAFAFA"/>
<path d="M151.708 14.4139C147.21 11.5042 133.032 10.0435 133.032 10.0435C133.032 10.0435 130.702 3.92269 128.071 2.17223C122.101 -1.80398 121.359 6.25277 121.359 6.25277C121.359 6.25277 115.528 -1.91991 110.276 0.421768C105.025 2.75185 111.737 10.3449 111.737 10.3449C111.737 10.3449 103.866 8.88426 104.735 15.5963C105.604 22.3083 113.198 25.218 113.198 25.218C113.198 25.218 110.867 29.0088 112.027 35.1412C113.198 41.262 115.817 41.5634 115.817 41.5634L148.497 44.4847C148.497 44.4847 155.209 44.4847 156.959 36.0222C158.71 27.5597 152.878 24.0588 152.878 24.0588C152.878 24.0588 156.669 17.6134 151.708 14.4139Z" fill="#B39E6D"/>
<path d="M125.021 69.8374V75.9698C125.74 76.5494 126.471 77.0595 127.189 77.4884C137.843 83.8874 149.342 75.9698 149.342 75.9698V54.686L127.92 68.029L125.021 69.8374Z" fill="#FFD3C0"/>
<path d="M125.021 69.6637V75.9816C125.74 76.5612 126.471 77.0713 127.189 77.5002C136.266 73.9066 142.874 64.3892 142.874 64.3892L127.92 68.0408L125.021 69.6637Z" fill="#838C94"/>
<path d="M149.297 69.7446C149.297 69.7446 156.472 70.9502 158.443 79.1577C151.453 86.4725 145.274 92.802 135.281 94.6568V79.9692C135.27 79.9692 144.092 77.755 149.297 69.7446Z" fill="#0065C4"/>
<path d="M124.804 71.8662C124.804 71.8662 118.393 73.2457 115.912 81.4416C122.369 89.3013 125.824 92.2573 135.283 94.657V79.9693C135.271 79.9693 129.997 79.8766 124.804 71.8662Z" fill="#0065C4"/>
<path d="M121.186 185.994L125.336 196.021L127.202 200.519L132.477 213.247L135.015 208.332L135.92 206.593L137.96 202.652L138.852 200.913L140.904 196.972L141.797 195.233L143.837 191.291L144.741 189.552L146.666 185.854L146.619 185.449L146.318 182.516L145.646 175.85L145.344 172.906L144.66 166.252L144.37 163.307L143.687 156.653L143.385 153.709L142.713 147.055L142.411 144.11L141.739 137.456L141.438 134.511L140.754 127.857L140.464 124.913L139.78 118.259L139.478 115.314L138.806 108.649L138.505 105.716L137.798 98.8299L132.72 98.6328L132.569 99.7805L132.256 102.111L131.561 107.397L131.248 109.727L130.552 115.013L130.251 117.343L129.544 122.629L129.242 124.959L128.547 130.245L128.234 132.576L127.538 137.862L127.225 140.192L126.53 145.478L126.228 147.808L125.533 153.094L125.22 155.424L124.524 160.71L124.211 163.04L123.516 168.327L123.214 170.668L122.507 175.943L122.206 178.285L121.51 183.559L121.197 185.901L121.186 185.994Z" fill="#8BCAFF"/>
<path d="M132.256 102.111L138.806 108.649L138.504 105.716L132.569 99.7808L132.256 102.111Z" fill="#585859"/>
<path d="M131.248 109.727L139.78 118.259L139.479 115.315L131.561 107.397L131.248 109.727Z" fill="#585859"/>
<path d="M130.25 117.343L140.753 127.858L140.463 124.913L130.551 115.013L130.25 117.343Z" fill="#585859"/>
<path d="M129.244 124.959L141.741 137.456L141.439 134.512L129.546 122.629L129.244 124.959Z" fill="#585859"/>
<path d="M128.234 132.576L142.713 147.055L142.412 144.11L128.547 130.246L128.234 132.576Z" fill="#585859"/>
<path d="M127.225 140.192L143.686 156.653L143.384 153.709L127.538 137.862L127.225 140.192Z" fill="#585859"/>
<path d="M126.229 147.808L144.661 166.252L144.371 163.307L126.53 145.478L126.229 147.808Z" fill="#585859"/>
<path d="M125.221 155.424L145.647 175.85L145.345 172.906L125.534 153.094L125.221 155.424Z" fill="#585859"/>
<path d="M124.211 163.041L146.619 185.449L146.318 182.516L124.524 160.711L124.211 163.041Z" fill="#585859"/>
<path d="M123.213 170.669L143.836 191.292L144.74 189.553L123.514 168.327L123.213 170.669Z" fill="#585859"/>
<path d="M122.207 178.285L140.906 196.972L141.798 195.233L122.508 175.943L122.207 178.285Z" fill="#585859"/>
<path d="M121.197 185.901L137.96 202.652L138.853 200.913L121.51 183.56L121.197 185.901Z" fill="#585859"/>
<path d="M125.336 196.021L127.202 200.519L135.016 208.332L135.92 206.593L125.336 196.021Z" fill="#585859"/>
<path d="M137.807 98.8299L135.268 102.597L132.718 98.6328L132.266 102.018L135.233 105.032L138.073 101.45L137.807 98.8299Z" fill="#585859"/>
<path d="M142.064 92.5006L135.271 102.598L128.768 92.5006L135.271 84.0845L142.064 92.5006Z" fill="#8BCAFF"/>
<path d="M146.005 99.4094C146.178 99.4094 146.352 99.3515 146.491 99.2355C153.215 93.8798 158.93 80.0268 159.174 79.4356C159.336 79.0415 159.15 78.5778 158.745 78.4155C158.351 78.2532 157.887 78.4387 157.725 78.8444C157.667 78.9835 152.276 92.025 146.132 97.4851L135.908 83.5973C135.757 83.4002 135.525 83.2727 135.27 83.2843C135.015 83.2843 134.783 83.4118 134.644 83.6089L125.103 97.1489C123.643 94.5174 119.817 87.5387 116.606 81.0702C116.421 80.6876 115.945 80.5253 115.563 80.7224C115.18 80.9079 115.018 81.3831 115.215 81.7657C119.272 89.9384 124.304 98.9109 124.35 99.0037C124.477 99.2355 124.721 99.3862 124.987 99.3978C125.254 99.4094 125.509 99.2819 125.66 99.0732L135.293 85.4057L145.367 99.0848C145.495 99.2587 145.68 99.363 145.889 99.3978C145.935 99.4094 145.97 99.4094 146.005 99.4094Z" fill="#1D6771"/>
<path d="M135.295 84.8612C135.723 84.8612 136.071 84.5134 136.071 84.0845V80.6068C136.071 80.1778 135.723 79.8301 135.295 79.8301C134.866 79.8301 134.518 80.1778 134.518 80.6068V84.0845C134.506 84.5134 134.854 84.8612 135.295 84.8612Z" fill="#1D6771"/>
<path d="M117.349 42.641C117.349 42.641 113.86 38.5257 111.889 42.641C109.918 46.7564 111.437 55.0913 116.735 53.735L117.349 42.641Z" fill="#E6C6C3"/>
<path d="M113.625 57.0853C113.625 57.0853 113.602 69.7791 126.806 69.7443C139.928 69.7211 148.866 59.4154 149.33 58.9401C149.341 58.9286 149.341 58.9286 149.341 58.9286L149.48 56.2623L150.222 42.4209L150.617 35.0249C150.617 35.0249 152.297 21.7052 139.627 19.2708C130.376 17.4971 121.705 19.0273 117.323 23.8614C117.184 24.0121 117.045 24.1744 116.917 24.3367C115.538 26.0292 114.657 28.1042 114.425 30.5386L114.019 43.8236L113.915 47.0811L113.625 57.0853Z" fill="#FFD3C0"/>
<path d="M128.792 34.295C128.792 34.295 134.334 38.4219 137.626 35.7904C140.918 33.1589 133.244 30.2956 130.717 30.5159C128.19 30.7245 127.146 33.356 128.792 34.295Z" fill="#9D8B5F"/>
<path d="M122.762 34.295C122.762 34.295 117.221 38.4219 113.929 35.7904C110.636 33.1589 118.311 30.2956 120.838 30.5159C123.353 30.7245 124.408 33.356 122.762 34.295Z" fill="#9D8B5F"/>
<path d="M127.121 58.7437C129.231 58.9292 130.819 57.6076 130.9 57.5381C131.144 57.3294 131.167 56.9585 130.958 56.715C130.75 56.4716 130.379 56.4484 130.135 56.6571C130.054 56.7266 128.223 58.2452 126.078 57.2831C125.788 57.1555 125.44 57.283 125.313 57.5845C125.185 57.8743 125.313 58.222 125.614 58.3496C126.136 58.5698 126.646 58.6973 127.121 58.7437Z" fill="#E6C6C3"/>
<path d="M132.846 49.6777C132.846 49.6777 124.79 51.3007 120.721 50.9297C120.721 50.9297 122.239 56.923 128.233 55.416C132.893 54.2336 132.846 49.6777 132.846 49.6777Z" fill="white"/>
<path d="M116.941 24.3254C119.016 23.5951 120.512 24.2791 123.735 25.6934C128.395 27.7452 133.611 25.902 138.225 23.5372C142.839 21.1839 145.598 24.4645 144.033 26.6091C142.468 28.7653 142.63 30.5042 144.381 33.24C146.12 35.9759 141.088 37.2626 143.871 39.4072C145.042 40.3114 144.972 41.6677 144.497 42.9313C143.975 44.3108 145.192 45.7135 146.63 45.4469C148.137 45.0643 150.247 42.4097 150.247 42.4097L150.641 35.0137C150.641 35.0137 152.322 21.694 139.651 19.2595C130.4 17.4859 121.729 19.0161 117.347 23.8501C117.208 24.0008 117.069 24.1631 116.941 24.3254Z" fill="#B59F69"/>
<path d="M129.418 40.369C129.418 41.6326 129.998 42.6643 130.705 42.6643C131.412 42.6643 131.991 41.6326 131.991 40.369C131.991 39.1055 131.412 38.0737 130.705 38.0737C129.998 38.0737 129.418 39.1055 129.418 40.369Z" fill="#333333"/>
<path d="M116.662 40.369C116.662 41.6326 117.242 42.6643 117.949 42.6643C118.656 42.6643 119.236 41.6326 119.236 40.369C119.236 39.1055 118.656 38.0737 117.949 38.0737C117.242 38.0737 116.662 39.1055 116.662 40.369Z" fill="#333333"/>
<path d="M145.205 53.793C145.263 53.9321 146.932 57.804 149.332 58.94C149.344 58.9284 149.344 58.9284 149.344 58.9284L149.483 56.2622C149.494 56.2622 147.408 55.9028 145.205 53.793Z" fill="#94896F"/>
<path d="M147.521 44.9715C147.521 44.9715 152.599 38.1551 156.309 43.5109C159.369 47.9276 153.584 59.4273 147.521 55.4859V44.9715Z" fill="#FFD3C0"/>
<path d="M148.219 53.4339C148.486 53.4339 148.706 53.2368 148.741 52.9702C149.309 47.8116 153.621 46.0147 153.807 45.9452C154.073 45.8408 154.201 45.5278 154.096 45.2612C153.992 44.9946 153.691 44.8671 153.424 44.9714C153.215 45.0526 148.335 47.0581 147.709 52.8543C147.674 53.1441 147.883 53.3991 148.173 53.4339C148.184 53.4339 148.207 53.4339 148.219 53.4339Z" fill="#94896F"/>
<path d="M153.089 50.2695C153.24 50.2695 153.39 50.1999 153.495 50.0724C153.68 49.8521 153.646 49.516 153.414 49.3421C153.205 49.1682 151.339 47.6959 149.762 48.1017C149.484 48.1712 149.31 48.461 149.391 48.7393C149.461 49.0175 149.75 49.1914 150.029 49.1102C150.933 48.8784 152.301 49.7826 152.765 50.1535C152.869 50.2347 152.985 50.2695 153.089 50.2695Z" fill="#94896F"/>
<path d="M125.302 46.7571C125.591 46.7571 125.823 46.5252 125.823 46.2354C125.823 45.9456 125.591 45.7137 125.302 45.7137C123.377 45.7137 122.485 44.6936 122.183 44.2647C124.27 39.9755 126.333 35.6515 126.357 35.6051C126.484 35.3501 126.368 35.0371 126.113 34.9096C125.858 34.7821 125.545 34.898 125.418 35.153C125.394 35.1994 123.25 39.6857 121.128 44.0676C121.059 44.2067 121.059 44.369 121.128 44.5197C121.163 44.6009 122.206 46.7571 125.302 46.7571Z" fill="#94896F"/>
<path d="M251.602 93.8103C251.602 93.8103 258.627 100.905 265.571 98.1459C271.17 95.9086 272.41 88.1184 272.689 85.2087C272.758 84.5132 272.758 84.0958 272.758 84.0958C272.758 84.0958 273.141 83.8756 273.662 83.493C274.891 82.5888 276.931 80.7572 276.711 78.6126C276.398 75.5522 270.834 77.2563 270.834 77.2563C270.834 77.2563 271.68 73.5583 270.034 72.4686C268.423 71.4021 265.107 73.2917 265.107 73.2917C265.107 73.2917 266.904 68.759 264.446 67.6693C260.748 66.0232 259.531 71.5992 259.369 71.9585C259.404 71.5528 261.166 54.4771 258.233 55.3581C255.671 56.1232 253.318 70.3936 252.715 74.277C252.622 74.8914 252.576 75.2392 252.576 75.2392C252.576 75.2392 252.367 75.2276 252.019 75.2392C250.373 75.2856 245.539 75.7261 244.647 79.0879C243.592 83.1684 251.602 93.8103 251.602 93.8103Z" fill="#EFC4B1"/>
<path d="M265.977 81.7426C265.386 83.0641 265.085 84.5016 265.374 85.5217C265.56 86.1825 265.977 86.6346 266.58 86.8201C266.997 86.9476 267.531 86.9476 268.122 86.8433C269.617 86.5998 271.472 85.7768 272.689 85.1855C272.759 84.49 272.759 84.0727 272.759 84.0727C272.759 84.0727 273.141 83.8524 273.675 83.4699C273.57 83.4583 273.454 83.493 273.362 83.5394C271.484 84.5711 268.075 86.0782 266.928 85.7188C266.777 85.6724 266.592 85.5681 266.487 85.1971C266.174 84.0727 267.02 81.6846 268.214 80.2819C268.412 80.0617 268.4 79.7255 268.203 79.5168C268.006 79.2966 267.67 79.2618 267.438 79.4473C266.29 80.2935 262.963 82.3686 261.305 81.8353C261.062 81.7542 261.027 81.6498 261.016 81.5919C260.946 81.3253 261.05 80.9079 261.271 80.4326C261.711 79.4589 262.604 78.2185 263.311 77.407C263.392 77.3143 263.438 77.1983 263.45 77.094C263.473 76.9085 263.404 76.7231 263.265 76.5955C263.021 76.3869 262.662 76.41 262.453 76.6535C262.14 77.0129 261.039 78.3112 260.378 79.6559C260.135 80.1428 259.961 80.6413 259.891 81.0934C259.845 81.3832 259.856 81.6614 259.926 81.9049C260.03 82.2526 260.285 82.7163 260.981 82.9366C262.418 83.4119 264.447 82.5888 265.977 81.7426Z" fill="white"/>
<path d="M257.166 76.8967C257.398 76.9663 257.56 77.1518 257.583 77.3952C257.641 78.1487 257.815 78.7979 258.093 79.1805C258.314 79.4819 258.522 79.5166 258.685 79.5166C258.94 79.505 259.264 79.3775 259.635 79.1689C260.551 78.6472 261.71 77.6155 262.719 76.6069C262.707 76.7229 262.661 76.8272 262.58 76.9199C261.873 77.7314 260.98 78.9718 260.539 79.9456C260.424 80.0267 260.308 80.0963 260.192 80.1542C259.821 80.3629 259.473 80.5136 259.148 80.6063C258.998 80.6411 258.87 80.6643 258.731 80.6643C258.105 80.6875 257.56 80.4093 257.154 79.8528C256.737 79.2732 256.505 78.4154 256.424 77.4764C256.389 77.0822 256.76 76.7808 257.143 76.8852C257.154 76.8968 257.166 76.8967 257.166 76.8967Z" fill="white"/>
<path d="M248.912 83.3541C249.063 83.3657 251.3 83.5975 253.468 83.2266C254.673 83.0295 255.856 82.647 256.644 81.9398C257.293 81.3602 257.641 80.6299 257.664 79.772C257.734 76.7116 254.604 75.0075 252.726 74.2656C252.633 74.88 252.587 75.2278 252.587 75.2278C252.587 75.2278 252.378 75.2162 252.03 75.2278C253.607 75.819 256.563 77.2565 256.517 79.7373C256.505 80.2705 256.296 80.6994 255.891 81.0704C254.36 82.4267 250.419 82.3456 249.039 82.1949C248.726 82.1601 248.437 82.3919 248.402 82.7049C248.367 83.0295 248.599 83.3193 248.912 83.3541Z" fill="white"/>
<path d="M261.282 94.3546C261.479 94.3199 261.653 94.1924 261.722 93.9953C261.838 93.6939 261.688 93.3693 261.386 93.2534C259.786 92.6506 258.697 91.6304 258.175 90.2509C256.819 86.692 259.357 81.7421 259.392 81.6957C259.543 81.4175 259.427 81.0697 259.149 80.919C258.871 80.7683 258.523 80.8842 258.372 81.1624C258.256 81.3827 255.567 86.6225 257.109 90.6567C257.758 92.3723 259.068 93.6011 260.992 94.3315C261.085 94.3662 261.189 94.3662 261.282 94.3546Z" fill="white"/>
<path d="M175.752 85.5215L187.761 95.9547C189.686 97.7515 191.61 99.5252 193.546 101.299C195.47 103.072 197.395 104.835 199.331 106.573C201.266 108.312 203.191 110.04 205.115 111.732C207.04 113.425 208.976 115.082 210.888 116.67C212.789 118.27 214.702 119.812 216.487 121.133C217.368 121.794 218.238 122.397 218.933 122.849L219.397 123.151L219.583 123.267C219.617 123.29 219.629 123.301 219.652 123.324C219.722 123.394 219.768 123.44 219.803 123.487C219.861 123.568 219.861 123.626 219.93 123.695C220 123.765 220.185 123.811 220.522 123.788C221.194 123.742 222.446 123.313 223.895 122.478C225.332 121.644 226.932 120.438 228.509 119.024C230.085 117.598 231.697 115.998 233.25 114.259C236.368 110.77 239.371 106.84 242.211 102.725C245.063 98.6094 247.08 95.433 249.653 91.0511C253.815 96.0822 260.214 98.5746 267.158 97.7399C265.199 103.061 262.938 108.231 260.388 113.367C257.803 118.479 254.951 123.545 251.485 128.506C249.746 130.987 247.868 133.456 245.7 135.867C243.533 138.279 241.121 140.655 238.177 142.904C236.705 144.017 235.093 145.107 233.273 146.092C231.453 147.066 229.436 147.958 227.187 148.631C224.938 149.292 222.446 149.744 219.849 149.79C217.253 149.848 214.563 149.5 212.071 148.793C210.819 148.445 209.613 148.016 208.477 147.518L207.642 147.135L206.935 146.788C206.692 146.672 206.495 146.567 206.274 146.451C206.066 146.335 205.834 146.22 205.637 146.115C204.014 145.234 202.623 144.388 201.29 143.542C198.647 141.861 196.27 140.191 193.94 138.499C191.622 136.806 189.396 135.091 187.193 133.375C185.002 131.659 182.834 129.921 180.713 128.17C178.592 126.408 176.482 124.658 174.407 122.872C172.332 121.087 170.28 119.29 168.228 117.482C166.199 115.662 164.171 113.842 162.165 111.999L159.163 109.216L157.679 107.802C157.18 107.327 156.694 106.863 156.172 106.353L175.752 85.5215Z" fill="#0065C4"/>
<path d="M187.215 134.813C187.076 134.813 186.925 134.766 186.798 134.685C178.869 129.133 164.761 117.436 164.621 117.32C164.308 117.065 164.274 116.613 164.529 116.3C164.784 115.987 165.236 115.952 165.549 116.207C165.688 116.323 179.75 127.985 187.632 133.503C187.957 133.735 188.038 134.187 187.806 134.511C187.667 134.697 187.447 134.813 187.215 134.813Z" fill="#0065C4"/>
<path d="M170.812 122.154C170.777 122.154 170.742 122.154 170.708 122.142L165.12 121.331C164.726 121.273 164.448 120.902 164.506 120.508C164.564 120.114 164.935 119.835 165.329 119.893L170.916 120.705C171.31 120.763 171.589 121.134 171.531 121.528C171.473 121.899 171.171 122.154 170.812 122.154Z" fill="#0065C4"/>
<path d="M263.275 106.771C263.565 106.62 263.727 106.295 263.657 105.959C263.576 105.565 263.182 105.31 262.776 105.391C252.25 107.686 247.011 97.6473 246.964 97.5429C246.779 97.1836 246.338 97.0329 245.967 97.2183C245.967 97.2183 245.967 97.2183 245.956 97.2183C245.596 97.4038 245.457 97.8443 245.643 98.2037C245.701 98.3196 251.462 109.356 263.089 106.817C263.147 106.817 263.217 106.805 263.275 106.771Z" fill="#0065C4"/>
<path d="M257.86 106.967C258.011 106.886 258.127 106.77 258.197 106.608L261.663 98.5166C261.825 98.1456 261.651 97.7051 261.28 97.5428C260.909 97.3805 260.469 97.5544 260.306 97.9254L256.84 106.017C256.678 106.388 256.852 106.828 257.223 106.991C257.443 107.083 257.675 107.06 257.86 106.967Z" fill="#0065C4"/>
<path d="M251.659 99.1894C251.984 99.8154 252.761 100.059 253.387 99.7342C254.013 99.4097 254.256 98.633 253.931 98.007C253.607 97.381 252.83 97.1375 252.204 97.4621C251.578 97.7867 251.335 98.5634 251.659 99.1894Z" fill="#0065C4"/>
<path d="M218.272 132.795C218.469 132.691 218.62 132.494 218.655 132.262C218.666 132.216 219.443 127.602 220.811 124.913C220.997 124.553 220.857 124.101 220.486 123.916C220.127 123.73 219.675 123.881 219.49 124.24C218.017 127.138 217.229 131.822 217.194 132.019C217.125 132.424 217.403 132.795 217.797 132.865C217.971 132.888 218.133 132.865 218.272 132.795Z" fill="#0065C4"/>
<path d="M223.059 131.138C223.106 131.114 223.152 131.08 223.198 131.045C223.511 130.778 223.546 130.315 223.291 130.002C223.268 129.978 221.216 127.498 220.729 125.086C220.648 124.692 220.254 124.426 219.86 124.507C219.466 124.588 219.199 124.982 219.28 125.376C219.848 128.158 222.062 130.825 222.167 130.941C222.387 131.219 222.758 131.288 223.059 131.138Z" fill="#0065C4"/>
</svg>
