<svg width="36" height="36" viewBox="0 0 36 36" fill="none" xmlns="http://www.w3.org/2000/svg">
<circle cx="18" cy="18" r="17.5" fill="white" stroke="#F1F1F1"/>
<path d="M26.9856 12.8778C26.9856 12.8572 26.9998 12.8372 26.9988 12.8169L21.5059 18.1097L26.9923 23.2334C26.9955 23.1968 26.9856 23.1599 26.9856 23.1225V12.8778Z" fill="#666666"/>
<path d="M20.6688 18.9243L18.4264 21.0818C18.3129 21.191 18.1663 21.2457 18.0197 21.2457C17.8761 21.2457 17.7325 21.1933 17.6199 21.0883L15.3836 19.0044L9.86133 24.3272C9.9956 24.3755 10.1397 24.4129 10.2907 24.4129H25.7488C25.973 24.4129 26.1832 24.3446 26.3659 24.2428L20.6688 18.9243Z" fill="#666666"/>
<path d="M18.0121 19.8513L26.3952 11.776C26.2054 11.6631 25.9844 11.5874 25.7476 11.5874H10.2895C9.98113 11.5874 9.69858 11.7071 9.47852 11.8897L18.0121 19.8513Z" fill="#666666"/>
<path d="M9 13.0747V23.1226C9 23.2379 9.02651 23.3491 9.05529 23.4554L14.509 18.2036L9 13.0747Z" fill="#666666"/>
</svg>
