<svg width="18" height="18" viewBox="0 0 18 18" fill="none" xmlns="http://www.w3.org/2000/svg">
<path d="M8.99998 0C4.03749 0 0 4.03749 0 8.99998C0 13.9625 4.03749 18 8.99998 18C13.9625 18 18 13.9625 18 8.99998C18 4.03749 13.9625 0 8.99998 0ZM8.99998 17.2174C4.46868 17.2174 0.782596 13.5313 0.782596 8.99998C0.782596 4.46868 4.46868 0.782596 8.99998 0.782596C13.5313 0.782596 17.2174 4.46868 17.2174 8.99998C17.2174 13.5313 13.5313 17.2174 8.99998 17.2174Z" fill="#969696"/>
<path d="M12.7986 12.2454L9.39115 8.83794V2.73909C9.39115 2.52309 9.21584 2.34778 8.99984 2.34778C8.78384 2.34778 8.60852 2.52309 8.60852 2.73909V8.99997C8.60852 9.10405 8.65001 9.20346 8.72279 9.27702L12.2445 12.7988C12.3212 12.8747 12.4214 12.913 12.5216 12.913C12.6218 12.913 12.7219 12.8747 12.7986 12.7988C12.9512 12.6461 12.9512 12.398 12.7986 12.2454Z" fill="#969696"/>
</svg>
