<svg width="44" height="49" viewBox="0 0 44 49" fill="none" xmlns="http://www.w3.org/2000/svg">
<path d="M35.3794 11.2803V35.7251C35.3794 37.2565 34.2653 38.4972 32.8902 38.4972H6.4138C5.08093 38.4972 4 37.2935 4 35.8091V11.2803C4 9.79593 5.08093 8.59216 6.4138 8.59216H32.9656C34.2985 8.59216 35.3794 9.79593 35.3794 11.2803Z" fill="#D6F4FC"/>
<path d="M39 25.7296V41.6901C39 42.8032 38.1891 43.7062 37.1897 43.7062H22.8577C21.8582 43.7062 21.0474 42.8032 21.0474 41.6901V25.7296C21.0474 24.6165 21.8582 23.7135 22.8577 23.7135H37.1897C38.1891 23.7135 39 24.6165 39 25.7296Z" fill="#FFAA64"/>
<path d="M32.9102 38.6184H34.0938V39.5032H32.9102V41.4836H31.8203V39.5032H27.9355V38.8645L31.7559 32.9524H32.9102V38.6184ZM29.166 38.6184H31.8203V34.4348L31.6914 34.6692L29.166 38.6184Z" fill="white"/>
<path d="M37.1852 27.0736H28.8925C26.2263 27.0736 24.0649 29.4806 24.0649 32.4498V41.6849C24.0649 43.7994 21.233 43.9861 21.0556 41.8808C21.0432 41.7331 21.0476 25.6456 21.0476 25.7296C21.0476 24.6161 21.8582 23.7135 22.858 23.7135H37.1899C39.246 23.7135 39.1517 27.0736 37.1852 27.0736Z" fill="#FFBD7B"/>
<path d="M32.8146 23.7135V28.4555C32.8146 29.1981 32.2745 29.7995 31.6077 29.7995H28.515C27.8482 29.7995 27.3081 29.1981 27.3081 28.4555V23.7135H32.8146Z" fill="#E8F8FC"/>
<path d="M32.8146 27.0731V28.455C32.8146 29.1975 32.2745 29.799 31.6077 29.799H28.515C27.8482 29.799 27.3081 29.1975 27.3081 28.455V27.3696C28.2978 26.9861 28.634 27.0731 32.8146 27.0731Z" fill="#D6F4FC"/>
<path d="M14.787 30.35V33.5421C14.787 34.2844 14.2467 34.8861 13.5801 34.8861H10.7137C10.0472 34.8861 9.50684 34.2844 9.50684 33.5421V30.35C9.50684 29.6076 10.0472 29.0059 10.7137 29.0059H13.5801C14.2467 29.0059 14.787 29.6076 14.787 30.35Z" fill="white"/>
<path d="M14.787 21.1086V24.3007C14.787 25.043 14.2467 25.6447 13.5801 25.6447H10.7137C10.0472 25.6447 9.50684 25.043 9.50684 24.3007V21.1086C9.50684 20.3662 10.0472 19.7645 10.7137 19.7645H13.5801C14.2467 19.7645 14.787 20.3662 14.787 21.1086Z" fill="white"/>
<path d="M19.6899 11.6164C19.3566 11.6164 19.0864 11.3155 19.0864 10.9444V6.2402C19.0864 5.86907 19.3566 5.56818 19.6899 5.56818C20.0231 5.56818 20.2933 5.86907 20.2933 6.2402V10.9444C20.2933 11.3155 20.0231 11.6164 19.6899 11.6164Z" fill="#42434D"/>
<path d="M12.1464 11.6164C11.8132 11.6164 11.543 11.3155 11.543 10.9444V6.2402C11.543 5.86907 11.8132 5.56818 12.1464 5.56818C12.4797 5.56818 12.7499 5.86907 12.7499 6.2402V10.9444C12.7499 11.3155 12.4797 11.6164 12.1464 11.6164Z" fill="#42434D"/>
<path d="M27.2333 11.6164C26.9001 11.6164 26.6299 11.3155 26.6299 10.9444V6.2402C26.6299 5.86907 26.9001 5.56818 27.2333 5.56818C27.5666 5.56818 27.8368 5.86907 27.8368 6.2402V10.9444C27.8368 11.3155 27.5666 11.6164 27.2333 11.6164Z" fill="#42434D"/>
<path d="M35.3794 11.2803C35.3794 12.5793 34.4338 13.6323 33.2673 13.6323H10.9397C9.60658 13.6323 8.52588 14.8359 8.52588 16.3204V36.1451C8.52588 37.4442 7.58027 38.4972 6.4138 38.4972C5.0807 38.4972 4 37.2937 4 35.8091V11.2803C4 9.79567 5.0807 8.59216 6.4138 8.59216H32.9656C34.2987 8.59216 35.3794 9.79567 35.3794 11.2803Z" fill="#E8F8FC"/>
<path d="M32.9656 8.59216C34.2985 8.59216 35.3794 9.79592 35.3794 11.2803V15.9567H4V11.2803C4 9.79592 5.08093 8.59216 6.4138 8.59216H32.9656Z" fill="#FE4F60"/>
<path d="M35.3794 11.2803V13.6323H10.9397C9.71769 13.6323 8.70691 14.6446 8.54775 15.9567H4V11.2803C4 9.79592 5.08093 8.59216 6.4138 8.59216H32.9656C34.2985 8.59216 35.3794 9.79592 35.3794 11.2803Z" fill="#FF6D7A"/>
</svg>
