<svg width="16" height="15" viewBox="0 0 16 15" fill="none" xmlns="http://www.w3.org/2000/svg">
<path d="M12.6684 10.6523C11.5683 10.6523 10.6733 11.5473 10.6733 12.6474C10.6733 13.7474 11.5683 14.6424 12.6684 14.6424C13.7684 14.6424 14.6634 13.7474 14.6634 12.6474C14.6634 11.5473 13.7684 10.6523 12.6684 10.6523ZM12.6684 13.4454C12.2283 13.4454 11.8703 13.0875 11.8703 12.6474C11.8703 12.2073 12.2283 11.8494 12.6684 11.8494C13.1085 11.8494 13.4664 12.2073 13.4664 12.6474C13.4664 13.0875 13.1085 13.4454 12.6684 13.4454Z" fill="#111111"/>
<path d="M15.8728 2.94283C15.7595 2.7978 15.5857 2.7132 15.4016 2.7132H3.6944L3.15574 0.45944C3.0913 0.190126 2.85049 2.73329e-09 2.57358 2.73329e-09H0.598504C0.267939 -3.12475e-05 0 0.267908 0 0.598472C0 0.929037 0.267939 1.19698 0.598504 1.19698H2.10117L4.04631 9.33587C4.11074 9.6054 4.35156 9.79531 4.62847 9.79531H13.9452C14.2204 9.79531 14.4602 9.60778 14.5262 9.34084L15.9826 3.45552C16.0266 3.2768 15.9861 3.08786 15.8728 2.94283ZM13.477 8.59833H5.10088L3.98046 3.91021H14.6369L13.477 8.59833Z" fill="#111111"/>
<path d="M5.42616 10.6523C4.3261 10.6523 3.43115 11.5473 3.43115 12.6474C3.43115 13.7474 4.32613 14.6424 5.42616 14.6424C6.5262 14.6424 7.42118 13.7474 7.42118 12.6474C7.42118 11.5473 6.5262 10.6523 5.42616 10.6523ZM5.42616 13.4454C4.98607 13.4454 4.62816 13.0875 4.62816 12.6474C4.62816 12.2073 4.98607 11.8494 5.42616 11.8494C5.86626 11.8494 6.22417 12.2073 6.22417 12.6474C6.22417 13.0875 5.86626 13.4454 5.42616 13.4454Z" fill="#111111"/>
</svg>
