<svg width="690" height="754" viewBox="0 0 690 754" fill="none" xmlns="http://www.w3.org/2000/svg">
<g opacity="0.3">
<path d="M27.3786 67.9894L81.7322 15.5006L98.5635 90.4184L27.3786 67.9894Z" stroke="#1D7DEA" stroke-opacity="0.4" stroke-width="2"/>
<path d="M671.905 520.801L671.998 519.026L670.464 519.831L668.266 520.984L668.722 521.888L664.326 524.193L663.869 523.29L659.473 525.595L659.93 526.499L655.533 528.805L655.076 527.901L650.68 530.207L651.137 531.111L646.74 533.417L646.284 532.513L641.887 534.819L642.344 535.723L637.948 538.029L637.491 537.125L635.293 538.278L633.789 539.067L635.216 540.028L637.282 541.418L637.815 540.572L641.946 543.353L641.413 544.198L645.544 546.979L646.077 546.133L650.208 548.914L649.675 549.76L653.806 552.54L654.339 551.694L658.47 554.475L657.937 555.321L662.068 558.101L662.602 557.256L666.733 560.036L666.199 560.882L668.265 562.272L669.692 563.233L669.783 561.493L669.916 558.95L668.931 558.883L669.196 553.797L670.181 553.863L670.446 548.777L669.461 548.71L669.727 543.624L670.712 543.69L670.977 538.604L669.992 538.537L670.257 533.451L671.242 533.517L671.507 528.431L670.523 528.364L670.788 523.278L671.773 523.344L671.905 520.801Z" stroke="#1D7DEA" stroke-opacity="0.4" stroke-width="2" stroke-dasharray="5 5"/>
<path d="M44.9288 335.525L45.0214 333.75L43.4872 334.554L41.289 335.707L41.7457 336.611L37.3494 338.917L36.8927 338.013L32.4963 340.319L32.953 341.223L28.5566 343.529L28.0999 342.625L23.7036 344.931L24.1603 345.835L19.7639 348.141L19.3072 347.237L14.9108 349.543L15.3675 350.446L10.9712 352.752L10.5145 351.848L8.31628 353.001L6.8121 353.79L8.23959 354.751L10.3051 356.141L10.8385 355.296L14.9696 358.076L14.4362 358.922L18.5673 361.703L19.1007 360.857L23.2318 363.637L22.6984 364.483L26.8295 367.264L27.3629 366.418L31.4939 369.199L30.9605 370.044L35.0916 372.825L35.625 371.979L39.7561 374.76L39.2227 375.606L41.2882 376.996L42.7157 377.957L42.8065 376.216L42.9391 373.673L41.9543 373.607L42.2196 368.52L43.2044 368.587L43.4697 363.5L42.4848 363.434L42.7501 358.347L43.735 358.414L44.0003 353.327L43.0154 353.261L43.2807 348.174L44.2656 348.241L44.5309 343.154L43.546 343.088L43.8113 338.001L44.7961 338.068L44.9288 335.525Z" stroke="#9C9C9C" stroke-opacity="0.5" stroke-width="2" stroke-dasharray="5 5"/>
<path opacity="0.6" d="M574.632 237.641L585.105 246.672L572.045 251.225L574.632 237.641Z" fill="#F3B740"/>
<path d="M213.812 102.962L204.564 99.563L190.967 97.8937L205.453 89.1382L213.812 102.962Z" fill="#5AC8E0" fill-opacity="0.6"/>
<path opacity="0.6" d="M577.088 170.805L572.506 162.083L563.539 151.73L580.157 154.945L577.088 170.805Z" fill="#5AC8E0"/>
<path d="M271.626 464.518L258.745 459.482L269.548 450.847L271.626 464.518Z" fill="#F3B740"/>
</g>
</svg>
