<svg xmlns="http://www.w3.org/2000/svg" xmlns:xlink="http://www.w3.org/1999/xlink" width="272" height="374" fill="none"  xmlns:v="https://vecta.io/nano"><style><![CDATA[.B{fill:#038bad}.C{fill:#038fb3}.D{fill:#036a85}.E{fill:#037694}.F{fill:#0493b8}.G{fill:#0387a8}.H{fill:#0383a3}.I{fill:#037a99}.J{fill:#037e9e}.K{fill:#049dc5}.L{fill:#036d89}.M{fill:#03728f}.N{fill:#036e8a}.O{fill:#ff9d6f}.P{fill:#0f78fb}.Q{fill:#ff7c40}.R{opacity:.32}.S{fill:#0048c4}.T{fill:#5c6bc0}.U{fill:#047cff}.V{fill:#f3b740}]]></style><path d="M86.171 184.613v3.245c-.004.035-.004.071 0 .106v-3.244c-.004-.036-.004-.071 0-.107z" fill="#919598"/><path d="M86.208 184.816v3.245a.52.52 0 0 0 0 .106v-3.244c-.02-.034-.036-.069-.048-.107" fill="#9b9fa2"/><path d="M86.258 184.923v3.245l.077.106v-3.245c-.029-.033-.055-.069-.077-.106z" fill="#a0a4a7"/><path d="M86.334 185.028v3.274l.106.116v-3.245l-.106-.116" fill="#a5a9ac"/><path d="M86.441 185.144v3.244c.07.063.144.121.222.174v-3.245a2.28 2.28 0 0 1-.222-.173z" fill="#a9aeb1"/><path d="M178.788 166.912a.9.9 0 0 0 .367-.3.89.89 0 0 0 .164-.444v3.245c-.014.16-.07.313-.164.444a.89.89 0 0 1-.367.299l-60.839 35.103v-3.244l60.839-35.103zm-92.096 18.416l28.719 16.697a3.12 3.12 0 0 0 .551.212h.087a3.38 3.38 0 0 0 .627.068c.225-.001.448-.027.667-.078.206-.049.404-.127.589-.231v3.244a1.61 1.61 0 0 1-.261.126l-.222.077h-1.661a1.83 1.83 0 0 1-.396-.164l-28.691-16.707a.88.88 0 0 1-.361-.296.89.89 0 0 1-.161-.438v-3.244a.89.89 0 0 0 .157.436c.09.129.212.232.355.298z" fill="#2689fd"/><path d="M86.701 183.85a.78.78 0 0 0-.38.285c-.094.133-.145.291-.145.454s.05.32.145.453a.78.78 0 0 0 .38.285l28.72 16.697a2.8 2.8 0 0 0 1.279.308c.445 0 .884-.105 1.28-.308l60.839-35.103a.78.78 0 0 0 .38-.285c.094-.133.145-.291.145-.454s-.051-.32-.145-.453a.78.78 0 0 0-.38-.285l-28.768-16.736a2.76 2.76 0 0 0-2.55 0l-60.8 35.142z" fill="#f2f8fd"/><path d="M143.639 155.217l.009 1.081-.009-1.081z" class="E"/><path d="M143.648 155.273v1.13-1.13z" class="J"/><path d="M143.725 155.467v1.082l.058.058v-1.14l-.058-.058" class="B"/><path d="M143.783 155.468v1.081l.116.087v-1.081l-.116-.087z" class="C"/><path d="M143.898 155.583v1.082l.01.009v-1.081l-.01-.01z" class="F"/><path d="M153.836 155.593v1.072c.078-.032.145-.085.195-.153s.079-.149.085-.233v-1.082c-.009.085-.039.166-.088.235a.49.49 0 0 1-.192.161z" class="D"/><path d="M143.91 155.593v1.081l4.288 2.482-.01-1.081-4.278-2.482z" class="K"/><path d="M149.52 158.075l.009 1.081 4.307-2.482v-1.081l-4.316 2.482z" class="L"/><path d="M148.185 158.074v1.082c.064.04.132.072.203.096v-1.081l-.212-.097" class="F"/><path d="M148.398 158.171v1.081h.174v-1.081h-.174z" class="C"/><path d="M148.572 158.21v1.12h.126v-1.081h-.126" class="B"/><path d="M148.697 158.229v1.101h.155v-1.081h-.097" class="G"/><path d="M148.795 158.238v1.092h.096v-1.082h-.096" class="H"/><path d="M148.854 158.238v1.092h.086v-1.082h-.086" class="J"/><path d="M148.988 158.229v1.101h.097v-1.081h-.097" class="I"/><path d="M149.084 158.219v1.11h.097v-1.081h-.087" class="E"/><path d="M149.172 158.2v1.13h.096v-1.082h-.106" class="M"/><path d="M149.277 158.181v1.081h.116v-1.081h-.116z" class="N"/><path d="M149.393 158.142v1.081l.135-.067v-1.082l-.135.068z" class="D"/><path d="M143.919 154.82c-.366.213-.376.56 0 .773l4.279 2.482c.207.106.437.162.671.162a1.48 1.48 0 0 0 .671-.162l4.307-2.482c.367-.222.376-.56 0-.773l-4.278-2.491c-.205-.105-.432-.16-.662-.16s-.457.055-.661.16l-4.327 2.491z" fill="url(#A)"/><path d="M135.17 160.104l.01 1.092-.01-1.092z" class="E"/><path d="M135.181 160.162v1.159" class="J"/><path d="M135.199 160.221v1.091" class="H"/><path d="M135.219 160.297v1.082c.003.019.003.038 0 .058v-1.198z" class="G"/><path d="M135.258 160.297v1.081l.058.058v-1.081l-.058-.058z" class="B"/><path d="M135.336 160.384v1.081l.116.087v-1.081a.37.37 0 0 1-.116-.087z" class="C"/><path d="M135.432 160.471v1.081l.009.01v-1.082l-.009-.009z" class="F"/><path d="M145.367 160.48v1.082c.077-.033.144-.087.194-.155s.079-.148.086-.232v-1.081c-.009.083-.04.162-.089.23s-.115.121-.191.156z" class="D"/><path d="M135.441 160.48v1.082l4.288 2.492-.01-1.082-4.278-2.492z" class="K"/><path d="M141.061 162.972v1.082l4.307-2.492v-1.082l-4.307 2.492z" class="L"/><path d="M139.719 162.972v1.081l.202.087v-1.081l-.212-.087" class="F"/><path d="M139.93 163.059v1.1l.174.049v-1.082h-.174" class="C"/><path d="M140.104 163.106v1.053h.125v-1.082h-.125" class="B"/><path d="M140.229 163.116v1.043h.106v-1.082h-.097" class="G"/><path d="M140.324 163.126v1.082h.097v-1.082h-.097z" class="H"/><path d="M140.422 163.126v1.082h.087v-1.082h-.097" class="J"/><path d="M140.52 163.126v1.082h.096v-1.082h-.096z" class="I"/><path d="M140.613 163.106v1.053h.097v-1.062h-.087" class="E"/><path d="M140.703 163.096v1.063h.097v-1.082h-.107" class="M"/><path d="M140.809 163.068v1.092h.115v-1.082h-.115" class="N"/><path d="M140.926 163.029v1.13l.135-.058v-1.081l-.135.057" class="D"/><path d="M135.451 159.708c-.367.212-.377.56 0 .772l4.278 2.492a1.53 1.53 0 0 0 1.342 0l4.307-2.492c.367-.212.377-.56 0-.772l-4.249-2.492c-.204-.107-.431-.163-.661-.163s-.458.056-.662.163l-4.355 2.492z" fill="url(#B)"/><path d="M126.697 164.989l.01 1.091-.01-1.091z" class="E"/><path d="M126.728 165.126v1.14-1.14c-.004-.019-.004-.039 0-.058v.058z" class="H"/><path d="M126.785 165.212v1.082l.058.067v-1.081l-.058-.068z" class="B"/><path d="M126.844 165.279v1.082l.116.077v-1.072l-.116-.087z" class="C"/><path d="M126.959 165.366v1.082h.01v-1.082h-.01z" class="F"/><path d="M136.895 165.366v1.081a.46.46 0 0 0 .193-.154c.049-.068.079-.148.087-.232v-1.082c-.01.084-.04.163-.089.231a.49.49 0 0 1-.191.156z" class="D"/><path d="M126.969 165.366v1.082l4.287 2.491-.009-1.081-4.278-2.492z" class="K"/><path d="M132.59 167.858v1.081l4.307-2.491v-1.082l-4.307 2.492z" class="L"/><path d="M131.246 167.857v1.13a.63.63 0 0 0 .203.087v-1.081a.86.86 0 0 1-.213-.087" class="F"/><path d="M131.469 167.944v1.043l.174.049v-1.014l-.174-.049" class="C"/><path d="M131.633 168.021v1.082h.125v-1.082h-.125z" class="B"/><path d="M131.758 168.021v1.082h.106v-1.082h-.097" class="G"/><path d="M131.854 168.021v1.082h.096v-1.082h-.096z" class="H"/><path d="M131.953 168.021v1.082h.087v-1.082h-.097" class="J"/><path d="M132.049 168.021v1.082h.096v-1.082h-.096z" class="I"/><path d="M132.145 168.021v1.082h.096v-1.082h-.087" class="E"/><path d="M132.232 168.021v1.082h.097v-1.082h-.106" class="M"/><path d="M132.338 167.963v1.082h.116v-1.12h-.116" class="N"/><path d="M132.434 167.925v1.062l.135-.068v-1.081l-.126.067" class="D"/><path d="M126.979 164.604c-.079.028-.147.08-.194.148s-.074.15-.074.233.026.165.074.233.115.12.194.149l4.278 2.491a1.48 1.48 0 0 0 1.332 0l4.317-2.491c.367-.213.377-.561 0-.773l-4.278-2.492a1.49 1.49 0 0 0-1.323 0l-4.326 2.502z" fill="url(#C)"/><path d="M118.229 169.887l.009 1.081-.009-1.081z" class="E"/><path d="M118.238 169.953v1.081-1.13" class="J"/><path d="M118.277 170.05v1.081c.003.02.003.039 0 .058v-1.139z" class="G"/><path d="M118.314 170.107v1.082l.058.058v-1.082l-.058-.058z" class="B"/><path d="M118.373 170.166v1.082l.116.086v-1.081l-.116-.087z" class="C"/><path d="M118.488 170.253v1.082l.01.009v-1.091h-.01z" class="F"/><path d="M128.426 170.263v1.082a.47.47 0 0 0 .194-.16c.05-.069.079-.151.086-.236v-1.082c-.009.085-.039.166-.088.235a.49.49 0 0 1-.192.161z" class="D"/><path d="M118.5 170.253v1.091l4.288 2.482-.01-1.082-4.278-2.491z" class="K"/><path d="M124.109 172.744l.01 1.082 4.307-2.482v-1.091l-4.317 2.491z" class="L"/><path d="M122.775 172.745v1.072c.064.04.132.072.203.097v-1.063l-.212-.096" class="F"/><path d="M122.988 172.852v1.081h.174v-1.081h-.174z" class="C"/><path d="M123.162 172.852v1.081h.126v-1.081h-.126z" class="B"/><path d="M123.287 172.899v1.082h.106v-1.082h-.096" class="G"/><path d="M123.383 172.91v1.082h.096v-1.082h-.096z" class="H"/><path d="M123.482 172.91v1.082h.087v-1.082h-.096" class="J"/><path d="M123.576 172.9v1.081h.097v-1.129h-.097" class="I"/><path d="M123.674 172.852v1.081h.096v-1.081h-.087" class="E"/><path d="M123.742 172.852v1.081h.097v-1.081h-.107" class="M"/><path d="M123.867 172.852v1.081h.116v-1.081h-.116z" class="N"/><path d="M123.982 172.852v1.081l.136-.067v-1.082l-.126.068" class="D"/><path d="M118.509 169.49c-.367.213-.376.56 0 .773l4.278 2.482a1.45 1.45 0 0 0 .667.163c.232 0 .46-.056.666-.163l4.317-2.482c.367-.222.376-.56 0-.773l-4.278-2.491c-.205-.105-.432-.16-.662-.16s-.457.055-.661.16l-4.327 2.491z" fill="url(#D)"/><path d="M109.76 174.773l.009 1.082v.01l-.009-1.092z" class="E"/><path d="M109.771 174.83v1.14-1.14z" class="J"/><path d="M109.848 174.995v1.082l.058.058v-1.082l-.058-.058z" class="B"/><path d="M109.906 175.054v1.081l.116.087v-1.081a.38.38 0 0 1-.116-.087z" class="C"/><path d="M110.023 175.141v1.081l.01.01v-1.082l-.01-.009z" class="F"/><path d="M119.959 175.149v1.082c.077-.033.144-.087.194-.155s.079-.148.086-.232v-1.062a.48.48 0 0 1-.089.23c-.049.068-.115.122-.191.156" class="D"/><path d="M110.031 175.149v1.082l4.288 2.491-.01-1.081-4.278-2.492z" class="K"/><path d="M115.641 177.641l.009 1.081 4.307-2.491v-1.082l-4.316 2.492z" class="L"/><path d="M114.308 177.68v1.081l.203.087v-1.081l-.212-.087" class="F"/><path d="M114.52 177.729v1.081l.173.048v-1.081h-.173" class="C"/><path d="M114.695 177.775v1.082h.126v-1.082h-.126z" class="B"/><path d="M114.82 177.786v1.082h.107v-1.082h-.097" class="G"/><path d="M114.916 177.796v1.081h.097v-1.081h-.097z" class="H"/><path d="M115.051 177.796v1.081h.087v-1.081h-.087z" class="J"/><path d="M115.109 177.795v1.081h.097v-1.101h-.097" class="I"/><path d="M115.207 177.775v1.082h.097v-1.082h-.087" class="E"/><path d="M115.293 177.767v1.081h.096v-1.081h-.106" class="M"/><path d="M115.4 177.738v1.081h.116v-1.139h-.116" class="N"/><path d="M115.516 177.68v1.081l.135-.058v-1.023l-.126.058" class="D"/><path d="M110.041 174.377c-.367.212-.377.56 0 .772l4.278 2.492c.207.102.435.155.666.155s.459-.053.666-.155l4.317-2.492c.367-.212.377-.56 0-.772l-4.288-2.492c-.204-.107-.431-.163-.661-.163s-.458.056-.662.163l-4.316 2.492z" fill="url(#E)"/><path d="M101.291 179.659l.01 1.091-.01-1.091z" class="E"/><path d="M101.321 179.775v1.14-1.14z" class="H"/><path d="M101.379 179.882v1.081l.058.068v-1.082l-.058-.067z" class="B"/><path d="M101.438 179.948v1.082l.115.087v-1.082l-.115-.087z" class="C"/><path d="M101.553 180.036v1.082h.009v-1.082h-.009z" class="F"/><path d="M111.488 180.035v1.082a.46.46 0 0 0 .194-.155c.049-.068.079-.148.086-.231v-1.121c-.009.083-.04.163-.089.231a.49.49 0 0 1-.191.156" class="D"/><path d="M101.562 180.035v1.082l4.288 2.491-.009-1.081-4.279-2.492z" class="K"/><path d="M107.172 182.527l.01 1.081 4.307-2.491v-1.082l-4.317 2.492z" class="L"/><path d="M105.84 182.509v1.081a.62.62 0 0 0 .203.087v-1.081a.81.81 0 0 1-.213-.087" class="F"/><path d="M106.053 182.615v1.082l.174.048v-1.081h-.174" class="C"/><path d="M106.227 182.663v1.082h.125v-1.082h-.125z" class="B"/><path d="M106.361 182.683v1.081h.107v-1.081h-.107z" class="G"/><path d="M106.447 182.683v1.081h.097v-1.081h-.097z" class="H"/><path d="M106.545 182.683v1.081h.087v-1.081h-.097" class="J"/><path d="M106.641 182.683v1.081h.096v-1.081h-.096z" class="I"/><path d="M106.736 182.673v1.081h.097v-1.081h-.087" class="E"/><path d="M106.826 182.653v1.082h.097v-1.082h-.107" class="M"/><path d="M106.932 182.634v1.081h.116v-1.081h-.116z" class="N"/><path d="M107.047 182.596v1.081l.135-.067v-1.101l-.125.067" class="D"/><path d="M101.533 179.273c-.078.028-.146.08-.194.148s-.073.15-.073.233.025.165.073.233.116.12.194.148l4.278 2.492c.207.104.435.159.667.159s.459-.055.666-.159l4.317-2.492c.367-.212.376-.56 0-.772l-4.278-2.492a1.49 1.49 0 0 0-.662-.155c-.229 0-.456.053-.661.155l-4.327 2.502z" fill="url(#F)"/><path d="M151.895 160.008l.009 1.081v.01l-.009-1.091z" class="E"/><path d="M151.894 160.018v.057c-.004-.019-.004-.039 0-.057z" class="I"/><path d="M151.913 160.124v1.082c-.004.019-.004.038 0 .058v-1.14z" class="H"/><path d="M151.943 160.182v1.13-1.13z" class="G"/><path d="M151.982 160.23v1.082l.058.068v-1.082l-.058-.068z" class="B"/><path d="M152.039 160.298v1.081l.126.087v-1.081l-.116-.087" class="C"/><path d="M162.102 160.394v1.082c.077-.036.144-.091.193-.161s.079-.15.087-.235v-1.072c-.008.082-.037.161-.084.229s-.112.122-.187.157" class="D"/><path d="M152.174 160.394v1.081l4.278 2.482v-1.072l-4.278-2.491z" class="K"/><path d="M157.785 162.885v1.072l4.317-2.482v-1.081l-4.317 2.491z" class="L"/><path d="M156.451 162.876v1.082l.203.096v-1.081c-.071-.025-.139-.057-.203-.097z" class="F"/><path d="M156.652 162.973v1.081h.184v-1.081h-.174" class="C"/><path d="M156.828 163.012v1.081h.116v-1.081h-.126" class="B"/><path d="M156.953 163.031v1.13h.106v-1.081h-.106" class="G"/><path d="M157.059 163.04v1.12h.106v-1.081h-.097" class="H"/><path d="M157.156 163.04v1.12h.087v-1.081h-.097" class="J"/><path d="M157.254 163.031v1.13h.096v-1.081h-.096" class="I"/><path d="M157.348 163.021v1.082h.096v-1.101h-.096" class="E"/><path d="M157.447 163.002v1.082h.097v-1.082h-.097z" class="M"/><path d="M157.543 162.982v1.082h.116v-1.082h-.106" class="N"/><path d="M157.648 162.944v1.081l.126-.067v-1.082l-.135.068" class="D"/><path d="M152.175 159.621c-.367.212-.376.55 0 .773l4.278 2.481a1.47 1.47 0 0 0 1.333 0l4.317-2.481a.42.42 0 0 0 .191-.153c.046-.069.072-.15.072-.234a.42.42 0 0 0-.263-.386l-4.288-2.492c-.207-.104-.435-.158-.666-.158s-.46.054-.667.158l-4.307 2.492z" fill="url(#G)"/><path d="M160.439 164.999v1.149" class="I"/><path d="M160.517 165.126v1.082c-.004.015-.004.032 0 .048v-1.082c-.004-.016-.004-.032 0-.048z" class="G"/><path d="M160.555 165.213v1.081l.058.068v-1.082c-.005-.022-.005-.045 0-.067" class="B"/><path d="M160.604 165.28v1.082l.115.087v-1.082l-.115-.087z" class="C"/><path d="M160.719 165.367l.009 1.082h.01v-1.082h-.019z" class="F"/><path d="M170.666 165.366v1.081c.076-.034.142-.088.191-.156a.48.48 0 0 0 .089-.23v-1.082a.48.48 0 0 1-.089.231.49.49 0 0 1-.191.156z" class="D"/><path d="M160.738 165.366v1.082l4.278 2.491v-1.081l-4.278-2.492z" class="K"/><path d="M166.35 167.858v1.081l4.316-2.491v-1.082l-4.316 2.492z" class="L"/><path d="M165.016 167.857v1.13c.066.039.138.068.212.087v-1.081c-.071-.019-.14-.049-.203-.087" class="F"/><path d="M165.266 167.944v1.043l.173.049v-1.014l-.183-.049" class="C"/><path d="M165.402 168.021v1.082h.116v-1.082h-.116z" class="B"/><path d="M165.518 168.021v1.082h.106v-1.082h-.106z" class="G"/><path d="M165.623 168.021v1.082h.097v-1.082h-.097z" class="H"/><path d="M165.721 168.021v1.082h.096v-1.082h-.096z" class="J"/><path d="M165.816 168.021v1.082h.097v-1.082h-.087" class="I"/><path d="M165.902 168.021v1.082h.087v-1.082h-.096" class="E"/><path d="M166 168.021v1.082h.106v-1.082h-.096" class="M"/><path d="M166.098 167.963v1.082h.106v-1.12h-.116" class="N"/><path d="M166.232 167.925v1.062l.136-.068v-1.081l-.136.067" class="D"/><path d="M160.75 164.604c-.078.028-.146.08-.194.148s-.074.15-.074.233.026.165.074.233.116.12.194.149l4.288 2.491a1.48 1.48 0 0 0 .666.159c.232 0 .46-.055.667-.159l4.316-2.491a.41.41 0 0 0 .204-.148c.051-.069.078-.153.078-.239s-.027-.169-.078-.239-.122-.121-.204-.147l-4.288-2.492c-.205-.102-.431-.155-.661-.155a1.49 1.49 0 0 0-.662.155l-4.326 2.502z" fill="url(#H)"/><path d="M143.425 164.901v.058c-.004-.019-.004-.039 0-.058z" class="I"/><path d="M143.445 165.009v1.081c-.005.019-.005.039 0 .058v-1.139z" class="H"/><path d="M143.475 165.066v1.14-1.14z" class="G"/><path d="M143.512 165.124v1.082l.058.058v-1.082l-.058-.058z" class="B"/><path d="M143.568 165.183v1.081c.038.035.08.064.126.087v-1.081l-.116-.087" class="C"/><path d="M153.682 165.279v1.081c.076-.034.142-.088.191-.156a.49.49 0 0 0 .089-.23v-1.081c-.008.082-.037.161-.084.229s-.112.122-.187.157" class="D"/><path d="M143.693 165.279l.01 1.082 4.278 2.491v-1.081l-4.288-2.492z" class="K"/><path d="M149.316 167.771v1.081l4.317-2.491-.01-1.082-4.307 2.492z" class="L"/><path d="M147.984 167.772v1.082l.203.087v-1.082c-.071-.021-.139-.05-.203-.087z" class="F"/><path d="M148.186 167.858v1.13l.183.049v-1.082h-.174" class="C"/><path d="M148.361 167.907v1.082h.116v-1.082h-.125" class="B"/><path d="M148.486 167.916v1.072h.107v-1.062h-.107" class="G"/><path d="M148.592 167.926v1.062h.106v-1.062h-.097" class="H"/><path d="M148.689 167.926v1.062h.087v-1.062h-.096" class="J"/><path d="M148.785 167.927v1.062h.097v-1.082h-.097" class="I"/><path d="M148.854 167.907v1.082h.096v-1.082h-.096z" class="E"/><path d="M148.98 167.896v1.092h.097v-1.082h-.097" class="M"/><path d="M149.074 167.868v1.12h.116v-1.159h-.106" class="N"/><path d="M149.182 167.829v1.082l.125-.058v-1.082l-.135.058" class="D"/><path d="M143.705 164.507c-.367.212-.377.56 0 .772l4.278 2.492a1.48 1.48 0 0 0 1.332 0l4.317-2.492c.077-.03.144-.083.191-.152s.072-.151.072-.234-.025-.165-.072-.234-.114-.122-.191-.152l-4.288-2.492a1.48 1.48 0 0 0-1.332 0l-4.307 2.492z" fill="url(#I)"/><path d="M134.955 169.789l.01 1.091-.01-1.091z" class="E"/><path d="M135.039 170.012v1.081l.058.068v-1.082l-.058-.067z" class="B"/><path d="M135.098 170.078v1.082l.125.087v-1.082l-.116-.087" class="C"/><path d="M145.162 170.165v1.081a.47.47 0 0 0 .192-.155c.05-.068.08-.148.088-.231v-1.082c-.005.083-.033.163-.081.231s-.113.122-.189.156" class="D"/><path d="M135.236 170.166v1.082l4.278 2.491v-1.081l-4.278-2.492z" class="K"/><path d="M140.846 172.658v1.081l4.316-2.491v-1.082l-4.316 2.492z" class="L"/><path d="M139.514 172.657v1.082a1 1 0 0 0 .202.087v-1.082c-.072-.017-.14-.046-.202-.087z" class="F"/><path d="M139.717 172.744v1.072l.183.048v-1.081l-.174-.049" class="C"/><path d="M139.891 172.793v1.082h.115v-1.024h-.125" class="B"/><path d="M140.016 172.851v1.081h.144v-1.081h-.106" class="G"/><path d="M140.162 172.851v1.081h.106v-1.081h-.106z" class="H"/><path d="M140.219 172.851v1.081h.087v-1.081h-.097" class="J"/><path d="M140.314 172.851v1.081h.097v-1.081h-.097z" class="I"/><path d="M140.412 172.851v1.081h.097v-1.081h-.097z" class="E"/><path d="M140.51 172.782v1.082h.096v-1.082h-.096z" class="M"/><path d="M140.605 172.763v1.053h.116v-1.082h-.106" class="N"/><path d="M140.711 172.725v1.091l.125-.068v-1.091l-.135.068" class="D"/><path d="M135.236 169.393c-.367.213-.377.56 0 .773l4.278 2.491a1.47 1.47 0 0 0 1.333 0l4.316-2.491c.078-.031.144-.084.191-.153s.072-.15.072-.234-.025-.164-.072-.233-.113-.122-.191-.153l-4.287-2.482c-.206-.109-.434-.166-.667-.166a1.42 1.42 0 0 0-.666.166l-4.307 2.482z" fill="url(#J)"/><path d="M126.488 174.685v.096c-.005-.019-.005-.039 0-.058" class="I"/><path d="M126.507 174.782v1.082c-.004.019-.004.039 0 .058v-1.14z" class="H"/><path d="M126.536 174.85v1.129-1.129z" class="G"/><path d="M126.574 174.898v1.082l.058.068v-1.082l-.058-.068z" class="B"/><path d="M126.641 174.965v1.081l.125.087v-1.081l-.116-.087" class="C"/><path d="M136.684 175.062v1.082a.49.49 0 0 0 .191-.156c.049-.068.079-.148.089-.231v-1.081c-.008.084-.038.164-.087.232a.46.46 0 0 1-.193.154z" class="D"/><path d="M126.766 175.062v1.082l4.278 2.492v-1.082l-4.278-2.492z" class="K"/><path d="M132.379 177.554v1.082l4.317-2.492v-1.082l-4.317 2.492z" class="L"/><path d="M131.045 177.544v1.101l.203.096v-1.062c-.071-.024-.139-.056-.203-.096" class="F"/><path d="M131.246 177.68v1.081h.184v-1.081h-.174" class="C"/><path d="M131.469 177.68v1.081h.116v-1.081h-.126" class="B"/><path d="M131.547 177.68v1.081h.106v-1.081h-.106z" class="G"/><path d="M131.652 177.68v1.081h.107v-1.081h-.097" class="H"/><path d="M131.75 177.68v1.081h.087v-1.081h-.097" class="J"/><path d="M131.846 177.68v1.081h.096v-1.081h-.096z" class="I"/><path d="M131.943 177.68v1.081h.097v-1.081h-.097z" class="E"/><path d="M132.039 177.68v1.081h.097v-1.081h-.097z" class="M"/><path d="M132.137 177.68v1.081h.116v-1.081h-.107" class="N"/><path d="M132.242 177.612v1.081l.126-.067v-1.082l-.136.068" class="D"/><path d="M126.765 174.29c-.367.212-.376.55 0 .772l4.278 2.482a1.47 1.47 0 0 0 1.333 0l4.307-2.482c.376-.222.367-.56 0-.772l-4.249-2.492c-.207-.104-.435-.158-.667-.158s-.459.054-.666.158l-4.336 2.492z" fill="url(#K)"/><path d="M118.019 179.609c-.004-.019-.004-.038 0-.057v.057z" class="I"/><path d="M118.04 179.678v1.081c-.004.019-.004.039 0 .058v-1.139z" class="H"/><path d="M118.068 179.736v1.14-1.14z" class="G"/><path d="M118.105 179.794v1.082l.058.057v-1.081l-.058-.058z" class="B"/><path d="M118.164 179.852v1.081c.038.035.08.064.126.087v-1.082l-.116-.086" class="C"/><path d="M128.217 179.948v1.082c.076-.035.142-.088.191-.156s.08-.147.089-.23v-1.034c-.007.084-.037.164-.087.232s-.116.122-.193.155" class="D"/><path d="M118.287 179.948l.01 1.082 4.278 2.491v-1.081l-4.288-2.492z" class="K"/><path d="M123.91 182.44v1.081l4.317-2.491-.01-1.082-4.307 2.492z" class="L"/><path d="M122.578 182.439v1.082c.066.033.134.062.203.087v-1.101c-.071-.021-.139-.05-.203-.087" class="F"/><path d="M122.779 182.507v1.081l.184.049v-1.082h-.174" class="C"/><path d="M122.953 182.574v1.082h.116v-1.082h-.126" class="B"/><path d="M123.078 182.583v1.082h.106v-1.082h-.106z" class="G"/><path d="M123.184 182.594v1.081h.106v-1.081h-.097" class="H"/><path d="M123.283 182.594v1.081h.087v-1.081h-.097" class="J"/><path d="M123.379 182.594v1.081h.096v-1.081h-.096z" class="I"/><path d="M123.475 182.574v1.082h.096v-1.082h-.096z" class="E"/><path d="M123.572 182.565v1.081h.097v-1.139h-.097" class="M"/><path d="M123.67 182.507v1.081h.116v-1.081h-.106" class="N"/><path d="M123.744 182.506v1.082l.126-.058v-1.082l-.126.058z" class="D"/><path d="M118.296 179.176c-.367.212-.376.56 0 .773l4.278 2.491c.207.104.435.159.667.159a1.48 1.48 0 0 0 .666-.159l4.307-2.491a.41.41 0 0 0 .204-.148c.051-.069.078-.153.078-.239s-.027-.169-.078-.239-.122-.121-.204-.147l-4.278-2.463c-.207-.104-.435-.158-.666-.158s-.46.054-.667.158l-4.307 2.463z" fill="url(#L)"/><path d="M162.371 170.167v1.081a.47.47 0 0 0 .194-.154c.049-.068.079-.148.086-.232v-1.082a.48.48 0 0 1-.089.23c-.049.068-.115.122-.191.157z" class="D"/><path d="M126.748 184.459l.01 1.091-.01-1.091z" class="E"/><path d="M126.767 184.574v1.082c-.002.016-.002.032 0 .048v-1.13z" class="H"/><path d="M126.834 184.681v1.081l.058.058v-1.081l-.058-.058z" class="B"/><path d="M126.891 184.738v1.082l.116.087v-1.082l-.116-.087z" class="C"/><path d="M127.02 184.835l.009 1.082 4.278 2.491v-1.082l-4.287-2.491z" class="K"/><path d="M132.639 187.326v1.082l29.724-17.16-.01-1.082-29.714 17.16z" class="L"/><path d="M131.307 187.336v1.082c.066.038.138.068.212.086v-1.081a.76.76 0 0 1-.203-.087" class="F"/><path d="M131.469 187.413v1.082l.173.048v-1.082h-.183" class="C"/><path d="M131.691 187.462v1.081h.126v-1.081h-.116" class="B"/><path d="M131.807 187.48v1.082h.096v-1.082h-.106" class="G"/><path d="M131.912 187.48v1.082h.097v-1.082h-.097z" class="H"/><path d="M132.012 187.48v1.082h.096v-1.082h-.087" class="J"/><path d="M132.098 187.48v1.082h.086v-1.082h-.096" class="I"/><path d="M132.193 187.472v1.081h.097v-1.081h-.087" class="E"/><path d="M132.279 187.452v1.082h.097v-1.101h-.097" class="M"/><path d="M132.377 187.433v1.081h.116v-1.081h-.116z" class="N"/><path d="M132.492 187.394v1.081l.135-.067v-1.072l-.145.068" class="D"/><path d="M127.027 184.062c-.367.223-.367.561 0 .773l4.288 2.492a1.48 1.48 0 0 0 .666.158c.232 0 .46-.054.667-.158l29.724-17.161c.367-.212.376-.56 0-.772l-4.288-2.492a1.45 1.45 0 0 0-1.323 0l-29.734 17.16z" fill="url(#M)"/><path d="M109.545 184.458l.01 1.091-.01-1.091z" class="E"/><path d="M109.546 184.438v.047c-.004-.015-.004-.031 0-.047z" class="I"/><path d="M109.633 184.68v1.081l.058.068v-1.082l-.058-.067z" class="B"/><path d="M109.691 184.748v1.082l.126.087v-1.082l-.116-.087" class="C"/><path d="M119.744 184.834v1.082a.47.47 0 0 0 .192-.155c.05-.068.08-.148.088-.231v-1.092c-.006.085-.036.165-.085.233s-.117.122-.195.154" class="D"/><path d="M109.814 184.834l.01 1.082 4.278 2.491v-1.082l-4.288-2.491z" class="K"/><path d="M115.438 187.325v1.082l4.316-2.491v-1.082l-4.316 2.491z" class="L"/><path d="M114.086 187.335v1.082c.064.036.132.065.203.086v-1.081c-.072-.017-.141-.047-.203-.087z" class="F"/><path d="M114.309 187.412v1.082l.183.048v-1.082h-.174" class="C"/><path d="M114.482 187.461v1.082h.116v-1.082h-.125" class="B"/><path d="M114.607 187.479v1.082h.107v-1.082h-.107z" class="G"/><path d="M114.715 187.479v1.082h.106v-1.082h-.096" class="H"/><path d="M114.812 187.479v1.082h.087v-1.082h-.096" class="J"/><path d="M114.906 187.479v1.082h.097v-1.082h-.097z" class="I"/><path d="M115.053 187.471v1.081h.096v-1.081h-.096z" class="E"/><path d="M115.102 187.451v1.082h.096v-1.101h-.096" class="M"/><path d="M115.197 187.432v1.081h.116v-1.081h-.106" class="N"/><path d="M115.303 187.393v1.081l.125-.067v-1.072l-.135.068" class="D"/><path d="M109.828 184.062c-.367.212-.377.56 0 .772l4.258 2.501a1.47 1.47 0 0 0 1.333 0l4.307-2.491c.082-.026.153-.078.204-.147s.078-.154.078-.239-.027-.17-.078-.24-.122-.121-.204-.147l-4.259-2.53a1.42 1.42 0 0 0-1.332 0l-4.307 2.521z" fill="url(#N)"/><path d="M118.355 189.75v1.082l.058.067v-1.081a.43.43 0 0 1-.067-.068" class="B"/><path d="M118.424 189.817v1.082l.116.087v-1.082l-.116-.087z" class="C"/><path d="M128.475 189.915v1.072a.45.45 0 0 0 .194-.153c.05-.068.079-.149.086-.233v-1.081c-.009.084-.039.165-.088.234a.49.49 0 0 1-.192.161z" class="D"/><path d="M118.549 189.905v1.082l4.288 2.491v-1.081l-4.288-2.492z" class="K"/><path d="M124.168 192.397v1.081l4.307-2.491v-1.082l-4.307 2.492z" class="L"/><path d="M122.836 192.397v1.082a1.4 1.4 0 0 0 .203.097v-1.082a.97.97 0 0 1-.203-.097z" class="F"/><path d="M123.039 192.494v1.082h.184v-1.082h-.174" class="C"/><path d="M123.213 192.533v1.082h.116v-1.062h-.126" class="B"/><path d="M123.338 192.552v1.081h.106v-1.081h-.106z" class="G"/><path d="M123.443 192.562v1.081h.097v-1.081h-.097z" class="H"/><path d="M123.541 192.561v1.082h.097v-1.091h-.087" class="J"/><path d="M123.627 192.552v1.081h.116v-1.081h-.097" class="I"/><path d="M123.744 192.542v1.082h.097v-1.082h-.097z" class="E"/><path d="M123.82 192.522v1.082h.097v-1.082h-.097z" class="M"/><path d="M123.918 192.504v1.081h.116v-1.081h-.116z" class="N"/><path d="M124.033 192.465v1.082l.135-.068v-1.082l-.135.068z" class="D"/><path d="M118.546 189.142a.42.42 0 0 0-.191.153c-.047.069-.072.15-.072.234s.025.164.072.233a.42.42 0 0 0 .191.153l4.288 2.482c.206.107.434.162.666.162a1.44 1.44 0 0 0 .666-.162l4.307-2.482c.377-.222.377-.56 0-.773l-4.278-2.491a1.48 1.48 0 0 0-1.332 0l-4.317 2.491z" fill="url(#O)"/><path d="M92.822 184.555l.01 1.081-.01-1.081z" class="E"/><path d="M92.843 184.613v1.14-1.14z" class="J"/><path d="M92.842 184.72v1.139-1.139z" class="G"/><path d="M92.91 184.777v1.082l.058.058v-1.082l-.058-.058z" class="B"/><path d="M92.967 184.835v1.082l.116.086v-1.081l-.116-.087z" class="C"/><path d="M93.084 184.922v1.081l.01.01v-1.081l-.01-.01z" class="F"/><path d="M116.732 192.898v1.082c.079-.031.147-.084.197-.153s.078-.149.083-.234v-1.081c-.007.083-.037.164-.086.232a.46.46 0 0 1-.194.154z" class="D"/><path d="M93.094 184.932v1.081l18 10.459v-1.082l-18-10.458z" class="K"/><path d="M112.426 195.39v1.082l4.307-2.492v-1.082l-4.307 2.492z" class="L"/><path d="M111.094 195.391v1.081l.203.087v-1.081c-.071-.022-.139-.051-.203-.087z" class="F"/><path d="M111.295 195.478v1.081h.183v-1.081h-.173" class="C"/><path d="M111.469 195.526v1.082h.116v-1.082h-.126" class="B"/><path d="M111.594 195.535v1.082h.106v-1.072h-.106" class="G"/><path d="M111.701 195.545v1.081h.097v-1.081h-.097z" class="H"/><path d="M111.799 195.545v1.081h.096v-1.081h-.087" class="J"/><path d="M111.885 195.545v1.081h.087v-1.081h-.097" class="I"/><path d="M111.98 195.526v1.082h.097v-1.082h-.097z" class="E"/><path d="M112.08 195.517v1.081h.097v-1.081h-.097z" class="M"/><path d="M112.154 195.487v1.081h.116v-1.12h-.116" class="N"/><path d="M112.289 195.449v1.081l.135-.058v-1.081l-.135.058z" class="D"/><path d="M93.103 184.159c-.367.213-.377.56 0 .773l18.001 10.458a1.51 1.51 0 0 0 1.332 0l4.307-2.491c.377-.213.377-.56 0-.773l-18-10.458a1.45 1.45 0 0 0-1.323 0l-4.317 2.491z" fill="url(#P)"/><path d="M271.235 319.859v.058c-.071.183-.162.358-.271.521l-.058.087a2.97 2.97 0 0 1-.444.493 3.28 3.28 0 0 1-.405.299l-.338.242-83.437 48.487c-.351.194-.72.356-1.1.483l-.425.126a5.41 5.41 0 0 1-.56.144c-.223 0-.454.087-.686.116h-.164c-.309 0-.628.049-.966.058h-.154a7.25 7.25 0 0 1-.966-.058h-.145c-.299 0-.608-.087-.898-.154h-.164c-.271-.068-.531-.155-.783-.242l-.135-.048a6.35 6.35 0 0 1-.859-.405L31.491 285.345a2.82 2.82 0 0 1-1.651-2.308v3.042c.045.497.221.973.512 1.379a2.81 2.81 0 0 0 1.14.929l146.786 84.73a7.06 7.06 0 0 0 .821.386h.135c.167.067.338.125.512.174l.27.068h.319l.55.096h2.617l.483-.067.203-.058.56-.135.299-.078.126-.048a5.93 5.93 0 0 0 1.101-.492l83.503-48.488c.098-.062.191-.13.281-.203l.395-.289.348-.377.058-.087.058-.097a.86.86 0 0 0 .106-.154c.058-.098.107-.202.145-.309v-.048c-.006-.022-.006-.046 0-.068l.058-.203a1.69 1.69 0 0 0 0-.318v-3.1a1.75 1.75 0 0 1 .01.637z" class="P"/><path d="M269.671 316.962c2.211 1.274 2.221 3.322 0 4.596l-83.436 48.488a8.75 8.75 0 0 1-3.969.952c-1.38 0-2.74-.326-3.969-.952l-146.786-84.72c-2.192-1.275-2.202-3.322 0-4.587l83.542-48.498c1.226-.627 2.583-.954 3.96-.954s2.733.327 3.959.954l146.699 84.721z" fill="#d7e0dd"/><path d="M179.532 271.351c1.931 1.12 1.931 2.897 0 4.056l-73.644 42.8c-1.084.551-2.284.838-3.501.838a7.73 7.73 0 0 1-3.5-.838l-57.382-33.22c-1.931-1.12-1.931-2.897 0-4.047l73.644-42.799a7.72 7.72 0 0 1 3.496-.836c1.215 0 2.412.286 3.496.836l57.391 33.21z" fill="url(#Q)"/><path d="M105.919 318.246s-.464 1.864 3.273 4.201 71.037 41.612 71.037 41.612l71.461-44.422-3.273-3.274-68.227-36.455-60.752 33.645-13.519 4.693z" class="P"/><path d="M105.918 318.246s18.696-6.547 29.937 1.4 37.845 37.382 45.329 41.12l71.027-44.422s-32.727-32.689-48.623-39.198-24.026-1.671-24.026-1.671l-73.644 42.771z" fill="url(#R)"/><path d="M128.457 292.877a1.13 1.13 0 0 1 0 2.144c-.574.295-1.209.449-1.854.449a4.05 4.05 0 0 1-1.854-.449l-44.461-25.678c-.224-.077-.418-.223-.555-.416a1.14 1.14 0 0 1 0-1.322c.137-.193.332-.338.555-.415.575-.291 1.21-.442 1.854-.442s1.279.151 1.854.442l44.461 25.687zm-31.945-10.419c.224.077.418.223.555.416a1.14 1.14 0 0 1 0 1.321c-.137.193-.331.339-.555.416-.577.291-1.213.442-1.859.442s-1.282-.151-1.859-.442l-19.449-11.24a1.14 1.14 0 0 1 0-2.154 4.14 4.14 0 0 1 3.718 0l19.449 11.241zm37.102-3.226a1.13 1.13 0 0 1 .772 1.072c0 .237-.074.468-.213.66a1.13 1.13 0 0 1-.559.412c-.573.29-1.207.441-1.85.441s-1.276-.151-1.849-.441l-35.296-20.377c-1.024-.598-1.033-1.564 0-2.153a4.14 4.14 0 0 1 3.718 0l35.277 20.386zm-8.856-13.192c1.024.599 1.043 1.555 0 2.154-.573.29-1.206.441-1.849.441s-1.276-.151-1.849-.441l-19.478-11.241c-.966-.589-1.043-1.555 0-2.144a4.09 4.09 0 0 1 3.708 0l19.468 11.231zm10.912 22.694c1.024.589 1.043 1.545 0 2.134a4.09 4.09 0 0 1-3.708 0l-44.46-25.726c-1.024-.599-1.043-1.555 0-2.154.573-.29 1.207-.441 1.849-.441s1.276.151 1.849.441l44.47 25.746zm21.035-12.274c1.023.589 1.043 1.555 0 2.144a4.12 4.12 0 0 1-1.855.441c-.644 0-1.279-.151-1.854-.441l-44.489-25.688a1.14 1.14 0 0 1 0-2.153 4.06 4.06 0 0 1 1.844-.442 4.07 4.07 0 0 1 1.845.442l44.509 25.697z" fill="#eceff1"/><path style="mix-blend-mode:multiply" d="M41.071 336.739c12.517 0 22.665-6.446 22.665-14.398s-10.147-14.399-22.665-14.399-22.665 6.447-22.665 14.399 10.148 14.398 22.665 14.398z" fill="url(#S)" class="R"/><g class="S"><path d="M45.676 316.739c.654.969 1.541 1.76 2.578 2.298 1.758.966 2.771 1.845 2.771 2.588s-1.111 1.101-2.675 1.014-2.491-1.844-3.592-2.308-2.395-.55-2.762-1.1 0-2.772 0-2.772l3.679.28zm-11.559 4.047a3.06 3.06 0 0 0 .869 1.844c.743.551 1.294 1.468 2.491 1.931a2.84 2.84 0 0 1 1.252.797 2.83 2.83 0 0 1 .679 1.318c0 .647-2.578 1.111-4.046.56s-3.042-2.578-3.689-2.897a2.31 2.31 0 0 1-1.197-1.477c.015-.745.109-1.486.28-2.212l3.361.136z"/><path d="M26.441 276.47s.463 6.499 1.226 10.796 1.931 32.65 2.839 33.8 2.337.965 3.602-.232 2.443-36.175 2.443-36.175l3.863-7.967-13.974-.222z"/><path d="M44.48 273.282l1.661 42.935c0 2.395-3.689 2.762-4.606.367s-4.828-36.484-4.423-40.907 6.818-5.572 7.368-2.395z"/></g><path d="M32.06 243.404s-7.194 5.138-7.899 6.847-.869 6.46.618 9.657.966 14.833 1.468 17.112 6.721 3.023 10.497 2.231 8.411-3.486 8.266-7.919 0-12.718.193-14.717c.203-3.493-.123-6.996-.966-10.391-.193-.705-2.578-1.449-2.578-1.449s-2.521-1.67-9.599-1.371z" class="U"/><path d="M38.31 242.438a.73.73 0 0 0 0 .232l.386 2.434c.048.56-.56 1.477-2.018 1.448s-3.93-.647-4.751-2.375a40.49 40.49 0 0 0-.241-5.128l6.625 3.389z" class="Q"/><path d="M41.949 232.018c-.831-4.461-4.355-6.982-8.353-6.055a8.44 8.44 0 0 0-3.625 1.381 8.43 8.43 0 0 0-2.623 2.859c-1.931 3.795.908 6.991 2.714 9.01l1.7 1.873c.135.145.261.309.396.444a9.04 9.04 0 0 0 3.708 2.289c.83.285 1.721.347 2.583.177s1.663-.564 2.323-1.143c1.149-1.188 2.018-6.383 1.178-10.835z" class="O"/><path d="M42.038 229.43s-.56 4.143-7.88 5.254a2.63 2.63 0 0 0-1.111 0l.415 2.761-1.101.136s.27-1.652-1.111-1.796-.415 3.737.83 4.007l.116 1.787s-5.369-3.583-6.2-7.591 1.526-5.388 1.526-5.388.686-2.492 4.829-4.008 9.821 2.337 9.686 4.838z" fill="#e0a269"/><path d="M44.085 245.944s7.185 10.575 8.015 13.337l6.489-6.219a2.82 2.82 0 0 1 1.671.452c.496.323.877.793 1.091 1.344 1.111 2.076 0 2.771 0 2.771s-7.87 8.286-9.657 8.286-9.126-11.057-9.126-11.473 1.516-8.498 1.516-8.498z" class="U"/><path d="M60.685 253.158l.743-.831.386-3.361s.744 0 .966.493a4.5 4.5 0 0 1 .193 1.632s3.863-3.573 4.152-3.399.164.821.164.821l-2.82 2.819a8.26 8.26 0 0 1 .415 2.579 2.32 2.32 0 0 1-.526.802c-.23.228-.504.405-.806.521-.502.053-1.009-.003-1.487-.164l-1.091.83a4.98 4.98 0 0 1-1.41-1.748l1.12-.994z" class="O"/><path d="M75.459 124.034a2.26 2.26 0 0 1-1.391 2.096 2.26 2.26 0 0 1-1.308.131c-.439-.087-.843-.303-1.159-.619a2.26 2.26 0 0 1-.619-1.16c-.087-.439-.041-.894.131-1.307a2.26 2.26 0 0 1 .837-1.014c.373-.248.811-.379 1.259-.377a2.25 2.25 0 0 1 2.25 2.25z" fill="url(#T)"/><path d="M46.961 35.104l.116 40.125c.001.364.097.721.279 1.035s.444.576.759.758.672.278 1.035.278.721-.095 1.036-.275l57.208-33.027c.315-.184.577-.448.758-.765s.276-.676.275-1.041l-.135-40.125a2.06 2.06 0 0 0-.275-1.031c-.18-.314-.44-.575-.753-.756s-.668-.278-1.03-.28-.718.092-1.032.271L48.004 33.298c-.318.182-.581.445-.765.763a2.08 2.08 0 0 0-.278 1.043z" fill="#8ae6ff"/><path d="M55.566 39.121l.116 40.125c.003.364.101.721.284 1.035s.446.575.761.757.673.278 1.037.278.722-.094 1.038-.274l57.218-33.027a2.08 2.08 0 0 0 .765-.763c.183-.317.279-.677.278-1.043l-.116-40.125a2.09 2.09 0 0 0-.284-1.035c-.183-.314-.446-.575-.761-.757s-.673-.278-1.036-.278-.722.094-1.038.274L56.609 37.315c-.318.182-.581.445-.765.763s-.279.677-.278 1.043z" fill="#33d2a1"/><path d="M94.212 27.9v10.874a.56.56 0 0 0 .849.483l15.452-8.942a.58.58 0 0 0 .204-.21c.049-.086.075-.184.076-.283V18.948c0-.1-.026-.197-.076-.284a.55.55 0 0 0-.208-.207.56.56 0 0 0-.566.008l-15.5 8.942a.58.58 0 0 0-.232.492zm0 14.437v2.038a.57.57 0 0 0 .85.483l15.452-8.952a.55.55 0 0 0 .28-.483v-2.038c0-.1-.026-.198-.076-.284a.55.55 0 0 0-.208-.207.56.56 0 0 0-.566.008l-15.5 8.942a.58.58 0 0 0-.232.492zm0 5.939v2.038a.57.57 0 0 0 .85.492l15.452-8.952a.56.56 0 0 0 .28-.492v-2.038a.57.57 0 0 0-.569-.556.57.57 0 0 0-.281.074l-15.5 8.952a.56.56 0 0 0-.232.483z" fill="#ffdd42"/><path d="M76.693 58.627l-1.746 1.05a.57.57 0 0 1-.852-.48l-.287-17.855a.55.55 0 0 1 .27-.489l1.746-1.05a.56.56 0 0 1 .851.479l.32 17.891a.58.58 0 0 1-.303.452zm-5.089 3.059l-1.747 1.05a.57.57 0 0 1-.86-.474l-.287-17.855a.56.56 0 0 1 .278-.494l1.746-1.05a.57.57 0 0 1 .852.48l.312 17.896a.56.56 0 0 1-.294.447zm13.394-22.527l.01 3.583 3.187-1.845.01 2.569-3.187 1.844.01 3.573-2.366 1.371-.01-3.583-3.177 1.835-.01-2.569 3.177-1.835-.01-3.583 2.366-1.362z" fill="#fff"/><path d="M155.903 36.958l.203-.106.251-.135.251-.116.242-.106.251-.097h.067l.174-.058.261-.068.251-.058.27-.048h1.227a2.89 2.89 0 0 1 .415.116 2.31 2.31 0 0 1 .493.232l4.075 2.366a2.9 2.9 0 0 0-.908-.348 3.62 3.62 0 0 0-1.033-.058c-.388.038-.77.119-1.14.242-.432.149-.85.34-1.245.57L46.21 104.952l-4.075-2.365 113.768-65.629zM35.982 112.977v-.898a2.97 2.97 0 0 1 .048-.309v-.29c0-.096.048-.222.068-.328s0-.212.077-.319.048-.212.087-.328 0-.164.068-.251v-.068c0-.106.068-.212.106-.318l.106-.319.232-.599.106-.222c0-.096.097-.203.135-.299l.164-.319.183-.367.222-.396c.002-.022.002-.045 0-.067l.212-.097.454-.724.386-.56.27-.358.241-.289.232-.28.241-.261v-.058l.184-.193.261-.251.27-.251.27-.242.145-.116.106-.087.27-.202.261-.194.261-.173.261-.155h.068l4.075 2.366c-.431.25-.841.534-1.226.85a10.44 10.44 0 0 0-1.13 1.052 14.04 14.04 0 0 0-1.931 2.598v.068a15.19 15.19 0 0 0-.724 1.429 15.76 15.76 0 0 0-.551 1.506 11.26 11.26 0 0 0-.348 1.517c-.085.494-.127.995-.126 1.496l.222 77.758c0 .444.042.887.126 1.323a4.58 4.58 0 0 0 .348 1.082 3.75 3.75 0 0 0 .454.714l.174.213a3.05 3.05 0 0 0 .676.55l-4.075-2.366a3.05 3.05 0 0 1-.676-.55l-.164-.213c-.082-.086-.157-.18-.222-.28a2.82 2.82 0 0 1-.232-.415l-.135-.309-.106-.328a2.93 2.93 0 0 1-.077-.309v-1.449l-.222-77.758c-.05-.115-.092-.235-.126-.357z" class="P"/><path d="M46.179 105.03a13.52 13.52 0 0 0-6.132 10.623l.222 77.757c0 3.863 2.772 5.476 6.161 3.515l113.807-65.667c1.787-1.162 3.275-2.73 4.34-4.576a13.51 13.51 0 0 0 1.792-6.046l-.222-77.758c0-3.863-2.771-5.476-6.17-3.515L46.179 105.03z" fill="#7986cb"/><path d="M51.704 106.305c-1.61 1.047-2.949 2.46-3.909 4.123s-1.513 3.529-1.615 5.447l.193 70.216c0 3.524 2.501 4.944 5.572 3.167l102.769-59.332c1.611-1.048 2.951-2.463 3.911-4.128a12.18 12.18 0 0 0 1.613-5.452l-.193-70.216c0-3.525-2.501-4.944-5.572-3.177l-102.77 59.352z" fill="#fff"/><g fill="#1ce5ff"><path d="M69.869 115.257v1.265a.96.96 0 0 0 .132.476.98.98 0 0 0 .351.349c.145.084.31.128.477.129a.97.97 0 0 0 .479-.124l5.949-3.409a.96.96 0 0 0 .354-.355.97.97 0 0 0 .129-.485v-1.255a.96.96 0 0 0-.479-.832.96.96 0 0 0-.479-.132c-.168-.002-.334.041-.481.124l-5.949 3.428a.96.96 0 0 0-.35.347c-.085.144-.131.307-.133.474zm-18.832 17.034v1.255a.96.96 0 0 0 .479.832.96.96 0 0 0 .479.132c.168.002.334-.041.481-.124l24.78-14.205a.96.96 0 0 0 .352-.351c.085-.146.13-.311.131-.48v-1.255a.96.96 0 0 0-.132-.476.97.97 0 0 0-.351-.349c-.145-.084-.31-.128-.477-.129a.96.96 0 0 0-.479.124L51.52 131.46a.98.98 0 0 0-.352.351.96.96 0 0 0-.131.48z"/><path opacity=".281" d="M61.246 138.974v1.265c.001.169.046.335.132.481s.207.267.354.351a.97.97 0 0 0 .963-.001l14.563-8.344a.96.96 0 0 0 .354-.355c.085-.147.129-.315.129-.485v-1.255a.97.97 0 0 0-.128-.485c-.084-.147-.206-.269-.353-.355s-.314-.13-.484-.13-.337.045-.484.13l-14.553 8.353c-.148.083-.271.203-.357.349s-.133.312-.135.481z"/><path opacity=".3" d="M54.881 136.366v1.256c0 .168.045.334.129.48s.205.267.35.352a.96.96 0 0 0 .479.132c.169.001.334-.041.481-.124l20.936-11.965a.96.96 0 0 0 .352-.351c.085-.146.13-.311.131-.479v-1.265c0-.169-.045-.334-.129-.48a.97.97 0 0 0-.35-.353.96.96 0 0 0-.479-.131c-.168-.002-.334.041-.481.123l-20.936 11.965a.97.97 0 0 0-.354.355c-.085.148-.129.315-.128.485z"/><path d="M69.869 144.035v1.255a.97.97 0 0 0 .132.477c.085.144.206.265.351.348s.31.129.477.13.333-.042.479-.124l5.949-3.419a.96.96 0 0 0 .354-.355.97.97 0 0 0 .129-.485v-1.255c0-.169-.045-.334-.129-.48a.97.97 0 0 0-.35-.353.96.96 0 0 0-.479-.131c-.168-.002-.334.041-.481.123l-5.949 3.429a.96.96 0 0 0-.354.355c-.085.147-.129.315-.129.485z"/></g><path d="M51.037 161.069v1.265a.97.97 0 0 0 .483.825c.145.084.31.128.477.129s.333-.041.479-.123l24.78-14.206a.96.96 0 0 0 .352-.351c.085-.145.13-.311.131-.479v-1.265a.97.97 0 0 0-.132-.477c-.085-.145-.206-.265-.351-.349s-.31-.128-.477-.129-.333.042-.479.124l-24.78 14.196a.96.96 0 0 0-.355.355c-.085.147-.129.315-.128.485z" fill="url(#U)"/><path opacity=".281" d="M61.246 167.743v1.245c.001.169.046.335.132.481s.207.267.354.351a.96.96 0 0 0 .482.128.97.97 0 0 0 .481-.129l14.563-8.344a.96.96 0 0 0 .354-.355c.085-.147.129-.315.128-.485v-1.255a.97.97 0 0 0-.128-.485c-.085-.147-.206-.269-.353-.355s-.314-.13-.484-.13-.337.045-.484.13l-14.553 8.353c-.151.084-.276.208-.362.357a.97.97 0 0 0-.13.493z" fill="#1ce5ff"/><path d="M54.881 165.126v1.255c0 .169.045.334.129.48a.97.97 0 0 0 .829.484c.169.002.334-.041.481-.124l20.936-12.003a.96.96 0 0 0 .352-.351.97.97 0 0 0 .131-.48v-1.265a.97.97 0 0 0-.129-.48c-.084-.146-.205-.267-.35-.352a.97.97 0 0 0-.479-.132c-.168-.001-.334.042-.481.124l-20.936 12.013c-.146.085-.267.206-.352.351s-.13.311-.131.48z" fill="url(#V)"/><path d="M145 83.834l3.158-3.409 3.167-.232-.029-7.252-.338.357-.348.338-.357.328-.367.309-.367.29-.376.27-.377.261-.396.232-.222.126-.232.126-.222.106-.444.193-.222.087-.213.077-.212.068-.213.058-.212.048-.406.077-.202.019-.203.019-.193.01h-.194l.02 7.494z" fill="url(#W)"/><path d="M151.294 72.94c-.84.936-1.816 1.741-2.897 2.385-1.022.622-2.193.955-3.389.966v7.494l3.158-3.409 3.167-.232-.039-7.204z" fill="url(#X)"/><path d="M148.331 60.926a11.26 11.26 0 0 0-3.626 3.817c-.889 1.541-1.401 3.271-1.492 5.048 0 1.767.686 2.965 1.757 3.428.566.191 1.168.246 1.759.16s1.153-.309 1.641-.653a9.93 9.93 0 0 0 2.897-2.743c1.329-1.774 2.093-3.908 2.192-6.123.019-3.264-2.289-4.577-5.128-2.936z" fill="#f2f8fd"/><path d="M140.943 71.096v3.312h8.053l.136-.125.135-.116.135-.126.126-.126.135-.135.125-.126.126-.135.125-.135.049-.048h.096v-.048l.049-.058v-.048l.067-.068 1.449-.695.174-.203.057-.068.058-.068v-.135h1.642v-9.087a8.03 8.03 0 0 0 0-.85c-.02-.263-.055-.524-.106-.782l-.184-.705c-.072-.216-.156-.429-.251-.637-.092-.197-.199-.388-.318-.57a3.89 3.89 0 0 0-.377-.483 2.87 2.87 0 0 0-.425-.415 4.13 4.13 0 0 0-.473-.328c-.173-.09-.35-.171-.531-.242l-.57-.164-.608-.068c-.216-.015-.432-.015-.647 0a6.47 6.47 0 0 0-1.391.309c-.25.087-.495.187-.734.299-.261.115-.515.244-.763.386a12.46 12.46 0 0 0-1.487 1.033l-.715.618-.676.686-.647.724-.608.782-.57.821-.521.85-.473.879-.425.898c-.655 1.455-1.066 3.008-1.217 4.597 1.999-.01 1.98.309 1.98.599zm2.298-.666v-1.255c0-.212 0-.415.077-.628s.077-.425.126-.647.106-.425.174-.637l.212-.637.261-.637.289-.628.329-.608.367-.589.396-.57.425-.541.444-.512.473-.473.492-.425.512-.386.522-.328.521-.28.512-.203a3.79 3.79 0 0 1 .493-.135c.156-.034.314-.06.473-.077a3.62 3.62 0 0 1 .454 0c.142.006.284.022.425.048l.396.116.366.164a2.5 2.5 0 0 1 .329.232c.106.087.203.184.299.28a2.97 2.97 0 0 1 .261.338c.082.126.153.258.212.396l.174.444.135.492c0 .174.058.348.078.541a5.79 5.79 0 0 1 0 .589c.014.254.014.509 0 .763 0 .264-.039.525-.116.782 0 .261-.116.522-.184.792s-.164.521-.26.782l-.319.782-.377.773-.425.744-.473.705a10.52 10.52 0 0 1-.657.821 8.94 8.94 0 0 1-2.269 1.931c-.488.344-1.05.567-1.641.653a3.79 3.79 0 0 1-1.758-.16c-.134-.058-.263-.126-.386-.203-.12-.085-.233-.179-.338-.28s-.21-.217-.3-.338a2.95 2.95 0 0 1-.261-.406c-.079-.149-.146-.304-.202-.464-.06-.17-.108-.345-.145-.521-.051-.197-.089-.397-.116-.599z" fill="#1ae5ff"/><path d="M2.772 220.112c-.811.528-1.486 1.241-1.967 2.08A6.11 6.11 0 0 0 0 224.94v5.591c0 1.768 1.255 2.482 2.791 1.594l26.122-15.084 1.255 2.134 1.236-3.573 2.897-1.69a6.1 6.1 0 0 0 1.969-2.079c.482-.84.757-1.782.802-2.75v-5.581c0-1.768-1.255-2.482-2.791-1.594L2.772 220.112z" class="P"/><path d="M111.537 285.672l.744-2.453c.212-.637 1.709-2.134 2.346-2.134s-.425 1.709-.425 1.709 2.028-1.603 2.569-.965-.753 2.993-1.39 3.524a13.43 13.43 0 0 0-1.497 1.603l-2.347-1.284z" class="O"/><path d="M79.717 274.48s-6.412 9.059-6.412 15.683 8.962 4.056 8.962 4.056 3.206-8.759 1.931-13.452c-.29-1.294-.835-2.516-1.605-3.596s-1.747-1.995-2.876-2.691z" class="V"/><path d="M96.58 307.14l-.637 42.616s2.24-.965 3.525.638-5.794 3.524-7.05 3.206c-.637-.319-2.24-35.567-4.162-38.126-2.24-2.25-3.206.637-3.206.637l-.637 28.199s2.559-.647 3.197 1.274-4.829 3.207-6.403 2.569c-.966-3.206-3.525-38.125-2.897-43.253s18.271 2.24 18.271 2.24z" class="S"/><path style="mix-blend-mode:multiply" d="M89.54 362.561c13.163 0 23.834-6.338 23.834-14.157s-10.671-14.157-23.834-14.157-23.833 6.338-23.833 14.157 10.671 14.157 23.833 14.157z" fill="url(#Y)" class="R"/><path d="M97.671 307.546c-.483 2.414-7.378 3.621-11.415 2.984s-8.373-2.627-8.228-7.301l-.608-22.355c.064-2.324.873-4.565 2.308-6.393 0 0 2.26-2.579 9.358-1.13 0 0 5.794 1.255 8.44 5.533 0 0 1.835 4.694 1.226 14.486l-1.082 14.176z" class="V"/><path d="M83.534 268.165s.608 3.573 0 5.205c-.106.821 3.467 3.573 6.634 2.897 1.835-.405 1.738-1.323 1.738-1.323a9.81 9.81 0 0 1-1.333-5.002c.203-2.453-4.896-2.289-7.04-1.777z" class="Q"/><g class="O"><path d="M95.48 260.971a8.43 8.43 0 0 1-1.416 4.686c-.925 1.388-2.241 2.47-3.781 3.109a8.43 8.43 0 0 1-4.872.484c-1.636-.324-3.139-1.126-4.319-2.305s-1.984-2.681-2.31-4.316-.16-3.332.478-4.873a8.43 8.43 0 0 1 7.79-5.206 8.43 8.43 0 0 1 8.43 8.421z"/><path d="M95.479 261.53s.097 8.431-1.738 10.14-4.655-1.593-9.174-2.656 3.66-9.927 3.66-9.927l7.252 2.443z"/></g><path d="M95.005 253.187s2.897 3.602.782 5.736-7.88.386-7.88.386 1.661 2.434 1.661 3.795c.095 1.25.321 2.487.676 3.689l-1.169.203s0-3.216-1.265-3.216-1.062 3.216-.097 4.085a14.88 14.88 0 0 0 1.265 1.072l-1.748 2.134a7.26 7.26 0 0 1-3.795-.579 23.25 23.25 0 0 1-4.471-5.35c-1.448-2.723-1.931-6.509-.097-8.547 0 0 .396-2.53 2.047-3.602s6.992-2.52 10.304-.386c2.82 1.748 3.303 1.265 3.785.58z" fill="#73433b"/><path d="M97.517 278.884s-3.283-.473-2.897 5.08 6.2 15.383 9.656 15.171 10.459-9.184 10.034-12.815c-.139-.372-.373-.701-.679-.954s-.674-.421-1.065-.486a2.26 2.26 0 0 0-2.119.793c-.637 1.072-4.056 6.2-4.915 6.837 0 0-3.863-5.553-4.693-8.112s-2.202-5.05-3.322-5.514z" class="V"/><path d="M24.161 250.251s-4.713 9.454-5.678 17.904 10.623 16.9 10.623 16.9 2.994-2.627 2.221-4.568-7.726-9.917-7.726-11.125 4.829-10.622 4.829-10.622 1.41-9.01-4.268-8.489z" class="U"/><path style="mix-blend-mode:multiply" d="M165.916 257.977c10.933 0 19.797-5.266 19.797-11.762s-8.864-11.762-19.797-11.762-19.797 5.266-19.797 11.762 8.863 11.762 19.797 11.762z" fill="url(#Z)" class="R"/><path d="M157.303 221.956s.801 17.711 1.448 23.341c.08.273.226.521.427.721s.448.348.72.428a1.69 1.69 0 0 0 .838.029c.277-.06.534-.19.748-.376.647-.638.966-22.694.647-24.143s-4.828 0-4.828 0z" class="O"/><path d="M161.56 245.461a3.33 3.33 0 0 1-1.424.23 3.34 3.34 0 0 1-1.387-.394c-.483-.077-3.467 0-4.674-.405-.801.087-.724.724.483 1.371 1.472.762 3.046 1.305 4.674 1.613 1.043.077 2.009.318 2.25-.483.227-.62.254-1.296.078-1.932z" fill="#8bcaff"/><path d="M168.891 215.525s.801 17.701 1.448 23.331a1.69 1.69 0 0 0 .428.719c.2.201.447.348.718.428s.559.092.836.034.536-.186.751-.37c.647-.647.966-22.694.647-24.142s-4.828 0-4.828 0z" class="O"/><path d="M173.147 239.02c-.451.183-.937.263-1.423.234a3.28 3.28 0 0 1-1.387-.398c-1.566-.002-3.129-.135-4.674-.396-.801.077-.724.724.483 1.362a16.77 16.77 0 0 0 4.674 1.612c1.043.078 2.009.319 2.25-.483.227-.62.254-1.295.077-1.931zm-18.742-45.707c-1.637 6.224-2.449 12.637-2.414 19.072.242 9.657-.724 18.349.724 19.073 1.937.981 4.136 1.319 6.277.966 2.415-.483 5.07 1.448 13.037-.966s8.933-8.933 9.899-10.864-2.415-4.829-4.587-9.174-4.587-15.451-7.967-20.038-14.969 1.931-14.969 1.931z" fill="#8bcaff"/><path d="M153.681 173.816l-6.528-3.167-2.472-2.376a13.31 13.31 0 0 0-4.355-1.082c-.599.097-1.681.966-1.391 1.188s3.071 1.681 3.168 2.27-.966 1.39-.59 1.786 1.285-.396 1.874-.396c.79.168 1.555.434 2.279.792l6.335 3.66 1.68-2.675z" class="O"/><g fill="#ff3d9d"><path d="M167.624 167.424s-1.207-1.323-3.187 1.207-3.631 6.267-6.374 5.939-7.252-2.53-7.252-2.53-1.98 1.313-1.651 3.293c0 0 6.373 4.732 10.622 4.51s8.904-4.616 9.889-7.726-2.047-4.693-2.047-4.693z"/><path d="M154.405 195.235c.396 1.932 6.016 2.955 9.299 2.434s6.818-2.144 6.702-5.949l.502-18.203c-.067-1.9-.745-3.729-1.931-5.215 0 0-1.844-2.105-7.619-.917 0 0-4.713 1.023-6.886 4.51 0 0-1.497 3.862-.965 11.8l.898 11.54z"/></g><path d="M165.916 163.194s-.502 2.897 0 4.239c.087.666-2.829 2.897-5.407 2.327-1.497-.338-1.41-1.081-1.41-1.081a7.99 7.99 0 0 0 1.081-4.075c-.164-2.028 3.988-1.855 5.736-1.41z" class="Q"/><g class="O"><path d="M156.189 157.304c.002 1.355.406 2.68 1.161 3.806a6.85 6.85 0 0 0 3.079 2.521c1.253.518 2.631.652 3.96.386s2.551-.919 3.509-1.878 1.609-2.181 1.873-3.511.128-2.708-.392-3.96a6.86 6.86 0 0 0-2.525-3.076c-1.127-.753-2.452-1.154-3.808-1.154a6.84 6.84 0 0 0-2.626.522c-.833.346-1.589.851-2.226 1.489s-1.141 1.395-1.485 2.228a6.86 6.86 0 0 0-.52 2.627z"/><path d="M156.19 157.757s-.087 6.866 1.41 8.257 3.795-1.294 7.465-2.164-2.974-8.082-2.974-8.082l-5.901 1.989z"/></g><path d="M158.944 151.51s-2.472.54-3.225 4.297c.328 1.603 2.578.319 3.438 2.462.341.987.808 1.925 1.39 2.791l.541-.212s0-1.719.753-1.719.966 2.037.531 2.897c-.319.561-.805 1.01-1.39 1.284 0 0 1.072 1.825 1.612 2.048 1.099.063 2.198-.122 3.216-.541 1.329-.92 2.43-2.132 3.216-3.544 1.082-1.719 2.047-4.723 1.4-6.76-.147-.561-.415-1.082-.785-1.528a3.97 3.97 0 0 0-1.359-1.051c-.617-.775-1.436-1.366-2.366-1.709-1.177-.38-2.431-.462-3.648-.238s-2.359.747-3.324 1.523z" fill="#89543c"/><path d="M147.703 180.238l-10.903-5.002c-1.294-.724-2.26-3.39-2.743-3.959s-2.665-1.855-2.578-1.285 1.207 1.613 1.207 1.613a9.44 9.44 0 0 0-.965 2.26c-.165.888 1.042 2.665 1.689 3.148a5.87 5.87 0 0 0 2.183.647s7.832 5.244 9.116 5.321a2.6 2.6 0 0 0 2.157-.651c.287-.264.512-.589.657-.951a2.6 2.6 0 0 0 .18-1.141z" class="O"/><path d="M156.251 171.547s-1.207-1.323-3.187 1.207-3.631 6.258-6.374 5.929-7.252-2.52-7.252-2.52-1.98 1.313-1.651 3.293c0 0 6.373 4.722 10.622 4.51s8.904-4.616 9.889-7.726-2.047-4.693-2.047-4.693z" fill="#ff3d9d"/><path d="M158.394 156.047c.507.684.845 1.477.988 2.316s.085 1.7-.168 2.513c-.82 2.8.329 2.8 1.488 6.431s-2.144 7.909.965 13.182 11.589 4.616 15.336-.657-2.144-9.068-2.308-13.848 3.631-7.58-.657-10.883-6.103-6.924-11.376-5.437-6.576 4.075-4.268 6.383z" fill="#89543c"/><path d="M103.851 129.25c.349.551.757 1.063 1.217 1.525.367.203 5.64 2.424 5.92 2.54l2.81-7.194.299-.29 2.898 4.017 5.89-9.357c.431-.91.814-1.842 1.149-2.791 3.342 0 8.479-1.265 10.353-.203 2.124 1.207 2.955 7.832 3.109 9.155l-47.193 27.252c.145-1.497.966-9.059 3.052-12.709 1.883-3.274 7.214-8.034 10.497-11.945z" fill="#33bd9a"/><path d="M105.298 127.308h.097a33.93 33.93 0 0 0 8.479-1.332l-.058.144-2.81 7.195-5.92-2.54c-.462-.459-.867-.971-1.207-1.526v-.058l1.419-1.883zm17.337-10.004l1.458.27-.049.126c-.335.949-.718 1.88-1.149 2.791-.367.618-5.61 8.913-5.89 9.357l-2.898-4.017c2.95-2.581 5.73-5.349 8.325-8.286.135-.154.203-.241.203-.241z" fill="#beecf2"/><path d="M121.861 117.352c.181.082.368.146.56.193-2.594 2.937-5.375 5.705-8.324 8.286l-.299.289.058-.144a33.93 33.93 0 0 1-8.479 1.332c.164-.241.319-.473.463-.705a17.44 17.44 0 0 0 2.038-6.962 15.87 15.87 0 0 0 3.718.241 4.55 4.55 0 0 0 2.018-.657 8.4 8.4 0 0 0 2.028-1.68c1.468-1.62 2.839-3.326 4.104-5.108.242 2.047.802 4.287 2.115 4.915z" fill="#ff8654"/><path d="M113.344 83.302c2.723-1.574 5.437-1.767 6.547-.724 1.449 1.391 2.019 1.313 2.057 1.313s2.762-.348 3.496 1.168.493 5.253 0 6.509c-.341 1.354-.5 2.747-.473 4.143l-.715 1.796-1.043 1.516c-.397.532-.868 1.003-1.4 1.4-.27.155-.502.184-.647 0-.483-.685-.367-2.549 0-4.703s.464-4.693.222-4.973c-.01-.007-.021-.011-.034-.011s-.023.004-.033.011a2.5 2.5 0 0 0-.338.473 1.94 1.94 0 0 1-.628.647c-.483.28-1.188.251-2.221-.763-.148.045-.291.106-.425.184a4.2 4.2 0 0 0-1.622 1.931c-.841 1.854-.831 5.466-3.351 9-1.425 1.897-3.227 3.478-5.292 4.645l-1.207.628a4.22 4.22 0 0 1-.579 1.594 4.21 4.21 0 0 1-1.16 1.236 3.05 3.05 0 0 1-.299.145l-1.333-.619s-.492-5.388-1.217-6.219-.502-5.118 1.661-8.305a31.7 31.7 0 0 1 3.129-4.162c1.033-2.306 2.548-4.364 4.443-6.036.747-.701 1.574-1.314 2.462-1.825z" fill="#843837"/><path d="M117.68 91.278a2.02 2.02 0 0 1 .425-.183c1.033.966 1.738 1.043 2.221.763a1.94 1.94 0 0 0 .628-.647 2.5 2.5 0 0 1 .338-.473c.309.29.193 2.897-.155 4.983s-.473 4.017 0 4.703c.145.203.377.174.647 0a6.91 6.91 0 0 0 1.439-1.419l1.024-1.487a1.27 1.27 0 0 1 .202-.145.67.67 0 0 1 .329-.087.66.66 0 0 1 .328.087c1.207.599-1.139 7.561-2.076 8.131-.131.09-.28.15-.438.175s-.317.015-.47-.03a46.62 46.62 0 0 1-1.072 4.548c-.358.8-.798 1.561-1.313 2.269a55.2 55.2 0 0 1-4.104 5.109 8.42 8.42 0 0 1-2.028 1.68 4.56 4.56 0 0 1-2.019.657 15.87 15.87 0 0 1-3.718-.241 2.9 2.9 0 0 1-1.728-.87 19.68 19.68 0 0 1-1.101-3.293c-.217.354-.511.654-.86.879-.965.541-3.36-3.698-2.153-5.688a1.94 1.94 0 0 1 .647-.705l.154-.077 1.333.618a2.66 2.66 0 0 0 .299-.145c.467-.329.862-.75 1.16-1.236s.496-1.028.579-1.593c0 0 .473-.213 1.207-.628 2.065-1.167 3.867-2.748 5.292-4.645 2.52-3.534 2.511-7.146 3.351-9a4.2 4.2 0 0 1 1.632-2.009zm75.523 28.503l-.635-2.51c-.062-.283.245-1.614-.322-1.981s-.765 1.729-.765 1.729-2.747-2.349-3.405-2.211-.145 2.088.544 3.014c.53.678 1.122 1.305 1.767 1.875l.574.857 2.242-.773z" class="O"/><path d="M209.776 125.879s-7.429 4.308-10.36 3.367-6.251-10.406-6.251-10.406a2.82 2.82 0 0 0-2.731 1.882s3.55 10.59 6.251 12.885 12.961.253 14.966-1.347 1.798-4.422.719-5.241a7.76 7.76 0 0 0-2.594-1.14z" class="T"/><path d="M198.835 152.476l.513 33.766s-1.783-.766-2.793.505 4.591 2.792 5.578 2.54c.512-.253 1.783-28.18 3.305-30.208 1.775-1.783 2.541.505 2.541.505l.505 22.342s-2.036-.513-2.541 1.01 3.826 2.54 5.081 2.035c.765-2.54 2.793-30.208 2.295-34.27s-14.484 1.775-14.484 1.775z" class="S"/><path style="mix-blend-mode:multiply" d="M204.419 196.388c10.429 0 18.884-5.022 18.884-11.217s-8.455-11.217-18.884-11.217-18.884 5.022-18.884 11.217 8.455 11.217 18.884 11.217z" fill="url(#a)" class="R"/><path d="M197.977 152.796c.39 1.913 5.853 2.87 9.044 2.365s6.634-2.082 6.527-5.785l.482-17.713c-.051-1.841-.692-3.617-1.829-5.065 0 0-1.79-2.043-7.414-.896 0 0-4.591.995-6.688 4.385 0 0-1.461 3.718-.971 11.477l.849 11.232z" fill="#7986cb"/><path d="M209.18 121.595s-.49 2.831 0 4.124c.076.651-2.755 2.831-5.257 2.296-1.461-.322-1.377-1.048-1.377-1.048.7-1.203 1.062-2.572 1.048-3.964-.161-1.943 3.887-1.813 5.586-1.408z" class="Q"/><g class="O"><path d="M199.715 115.894c0 1.319.391 2.609 1.124 3.707a6.67 6.67 0 0 0 2.995 2.457c1.219.505 2.56.637 3.855.38s2.483-.893 3.416-1.826 1.568-2.122 1.826-3.417.125-2.635-.38-3.855a6.67 6.67 0 0 0-6.164-4.118 6.67 6.67 0 0 0-6.672 6.672z"/><path d="M199.714 116.338s-.084 6.68 1.377 8.034 3.688-1.262 7.261-2.104-2.9-7.866-2.9-7.866l-5.738 1.936z"/></g><path d="M202.774 108.388a2.38 2.38 0 0 0-1.123.162c-.356.144-.671.372-.92.665-.887 1.017-.191 1.148-.826 2.104s-1.4 1.018-1.339 2.165.191 2.365 1.4 2.617 1.025 1.469 1.53 1.661 1.087.122 1.148.382-.765 1.592-.574 2.165.765.131.834-.061.314-1.278.957-1.599 1.079.452.826 1.339-1.278 1.469-1.278 1.982a3.33 3.33 0 0 0 .26 1.53c.253.574-.451.444.253.888.52.293 1.098.468 1.693.513a4.08 4.08 0 0 0 1.75-.253c.822-.254 1.524-.798 1.974-1.53.13-.192.452-1.278 1.026-1.6a4.67 4.67 0 0 0 2.486-1.782 3.89 3.89 0 0 0 .827-2.809s.765.192.635-1.782-.888-2.166-1.401-3.191-.13-1.27-1.469-2.418c-.695-.647-1.555-1.09-2.486-1.278 0 0-.827-1.147-1.783-1.017-.807.151-1.597.384-2.357.696 0 0-.765-1.018-2.043.451z" class="S"/><path d="M184.25 119.574l-.092-2.578c0-.283.574-1.53.092-2.012s-1.148 1.53-1.148 1.53-2.196-2.869-2.869-2.869-.574 2.012-.092 3.06c.377.775.825 1.513 1.339 2.204l.383.956 2.387-.291z" class="O"/><path d="M199.2 128.977s-8.156 2.678-10.834 1.148-3.956-11.477-3.956-11.477c-.58-.136-1.187-.086-1.737.144a2.83 2.83 0 0 0-1.323 1.134s1.277 11.094 3.443 13.902 12.625 2.931 14.92 1.783 2.678-3.956 1.783-4.973a7.79 7.79 0 0 0-2.296-1.661z" class="T"/><path d="M230.86 203.936h-1.246c-.058.017-.114.043-.164.077l-1.343.772a1.14 1.14 0 0 1 .3-.106 1.01 1.01 0 0 1 .347 0 1.83 1.83 0 0 1 .367.077c.142.046.278.107.406.184l37.527 21.66 1.342-.772-37.536-21.892zm39.545 25.069v-.096c-.005-.032-.005-.065 0-.097-.004-.032-.004-.065 0-.097v-.106c.005-.035.005-.071 0-.106.004-.032.004-.065 0-.097a.47.47 0 0 1 0-.106v-.396a.47.47 0 0 0 0-.106c.002-.032.002-.064 0-.097v-.067s0-.068-.048-.097c-.012-.037-.029-.072-.049-.106a.67.67 0 0 0-.067-.116c-.019-.047-.041-.092-.068-.135l-.145-.241-.135-.184-.087-.116-.077-.096-.077-.087-.078-.087-.057-.058-.174-.174-.087-.077h-.048l-.087-.068-.087-.067-.087-.058-.087-.049-1.342.773.405.28a4.02 4.02 0 0 1 .367.348 4.35 4.35 0 0 1 .637.859l.242.473a5.02 5.02 0 0 1 .183.502 4.41 4.41 0 0 1 .116.493c.015.164.015.329 0 .492l-.067 25.63c0 .149-.017.298-.049.444a1.74 1.74 0 0 1-.115.358c-.041.084-.093.162-.155.231l-.058.068a.8.8 0 0 1-.222.183l1.352-.782a.76.76 0 0 0 .212-.183.18.18 0 0 0 .058-.068l.078-.087.077-.145s0-.067.048-.096v-.213c.005-.015.005-.032 0-.048v-.338c.005-.032.005-.065 0-.097l.068-25.639-.29-.251z" fill="#878889"/><path d="M267.044 226.378a4.43 4.43 0 0 1 1.433 1.509c.351.61.551 1.294.586 1.996l-.068 25.63c0 1.294-.917 1.806-2.038 1.159l-37.527-21.661c-.586-.384-1.074-.9-1.425-1.507a4.5 4.5 0 0 1-.593-1.989l.077-25.639c0-1.284.908-1.806 2.028-1.159l37.527 21.661z" fill="#000"/><path d="M265.218 226.803c.532.345.975.811 1.292 1.36s.5 1.165.533 1.798l-.067 23.177c0 1.168-.821 1.632-1.835 1.052l-33.886-19.565c-.53-.347-.971-.814-1.288-1.362s-.501-1.163-.537-1.796l.067-23.176c0-1.159.831-1.632 1.835-1.043l33.886 19.555z" fill="#999"/><path d="M237.272 286.889a24.23 24.23 0 0 0 .096 4.384c.29 1.149 2.009 1.343 2.955.966s1.623-1.719 2.289-2.192 3.438-2.289 3.718-3.525-2.289-1.053-3.863-.483c-1.058.385-2.139.707-3.235.966l-1.96-.116zm20.511-5.457c.547 1.347 1.216 2.64 1.999 3.863.753.908 2.385.338 3.071-.425s.715-2.25 1.111-2.964 2.095-3.554 1.815-4.829-2.52.048-3.641 1.227a28.55 28.55 0 0 1-2.51 2.269l-1.845.859z" fill="#ff4174"/><g class="T"><path d="M223.637 271.158s11.83-5.34 15.644-5.533c3.235 0 1.333 21.361.966 22.317-.377.377-1.932 1.932-3.052.377-.57-2.096-1.139-12.969-1.709-13.732s-5.34 4.577-9.734 4.577-4.018-4.577-2.115-8.006z"/><path d="M214.868 273.447s-2.106 6.286 3.428 9.917 13.732 1.526 17.74-1.149 4.722-4.384 4.722-4.384.232-4.577-5.485-7.059-9.725-1.352-9.725-1.352l-10.68 4.027z"/></g><g class="P"><path d="M231.178 248.28c-2.231-3.583-7.069-4.636-7.069-4.636-5.949-1.216-7.832.966-7.832.966a9.08 9.08 0 0 0-1.931 5.36c0 2.115 2.221 8.198 2.366 13.037-.058 3.351-2.125 8.923-2.202 9.772-.174 1.661 5.485 6.48 15.789 3.863a4.83 4.83 0 0 0 1.661-1.497l.116-12.457.135-2.202c.512-8.276-1.033-12.206-1.033-12.206z"/><path d="M216.278 244.582s-4.317 2.492-4.983 13.858c.56 2.095 3.863 3.196 6.402 1.545s-.086-13.472-1.419-15.403z"/></g><path d="M219.465 239.3s.512 2.993 0 4.355c-.087.686 2.897 2.994 5.562 2.395 1.536-.338 1.449-1.111 1.449-1.111-.742-1.271-1.125-2.719-1.111-4.191.174-2.047-4.104-1.873-5.9-1.448z" class="Q"/><g class="O"><path d="M229.47 233.273a7.06 7.06 0 0 1-1.19 3.923c-.776 1.161-1.88 2.066-3.17 2.6a7.06 7.06 0 0 1-4.08.4 7.05 7.05 0 0 1-3.614-1.935c-.987-.988-1.659-2.247-1.93-3.617a7.06 7.06 0 0 1 .406-4.079 7.05 7.05 0 0 1 2.604-3.166c1.162-.775 2.528-1.187 3.924-1.185a7.06 7.06 0 0 1 2.7.537 7.05 7.05 0 0 1 2.289 1.531 7.07 7.07 0 0 1 1.527 2.29c.354.857.535 1.775.534 2.701z"/><path d="M229.469 233.737s.222 6.663-1.314 8.092-4.036-.965-7.822-1.815 3.071-8.315 3.071-8.315l6.065 2.038z"/></g><path d="M227.856 245.122l-1.844-1.033s-4.713-.444-6.403-1.545l-.879 1.255a5.38 5.38 0 0 0 1.785 1.793 5.37 5.37 0 0 0 2.407.776c3.013.299 4.413-.879 4.413-.879l.521-.367z" fill="#fff"/><path d="M229.169 246.166c1.878.885 3.515 2.21 4.771 3.863 1.709 2.482 3.428 9.917 4.384 10.497s4.384 2.095 4.191 4.191-2.665 3.438-6.103 2.096-7.629-4.954-8.962-6.48 1.719-14.167 1.719-14.167z" class="P"/><path d="M234.885 273.823s9.348-3.052 11.444-3.245 13.355 8.585 14.881 10.681c.966 1.149-.57 3.438-1.719 3.245s-13.346-7.629-14.302-7.822-7.252 6.866-10.874 7.822-4.191-5.341.57-10.681z" class="T"/><g fill="#e0a269"><path d="M224.303 225.24s5.726.965 6.006 6.151c-.135 4.008-3.428 4.829-3.862 5.292s-1.43-1.429-2.424.425.425 2.289.965 3.003c.29.715-.859 1.574-1.999 1.719s-1.516 1.429-3.409.715-2.172-2.714-3.602-4.722c-.817-1.374-1.284-2.928-1.358-4.525s.246-3.187.933-4.63c1.584-3.004 6.896-3.67 8.75-3.428z"/><path d="M219.01 241.975s-.145-.145-1.575 3.003-2.143 4.722-.569 8.295a37.42 37.42 0 0 1 1.999 5.292s2.578-2.144 1.863-6.866-1.67-6.76-1.265-8.044 1.265-1.68-.453-1.68z"/></g><defs><linearGradient id="A" x1="-609.66" y1="1347.42" x2="-1103.39" y2="841.434" xlink:href="#b"><stop stop-color="#5155d4"/><stop offset="1" stop-color="#45f7ff"/></linearGradient><linearGradient id="B" x1="-648.373" y1="1399.68" x2="-1142.8" y2="893.706" xlink:href="#b"><stop stop-color="#5155d4"/><stop offset="1" stop-color="#45f7ff"/></linearGradient><linearGradient id="C" x1="-686.222" y1="1449.6" x2="-1180.24" y2="944.165" xlink:href="#b"><stop stop-color="#5155d4"/><stop offset="1" stop-color="#45f7ff"/></linearGradient><linearGradient id="D" x1="-725.804" y1="1500.57" x2="-1219.73" y2="994.551" xlink:href="#b"><stop stop-color="#5155d4"/><stop offset="1" stop-color="#45f7ff"/></linearGradient><linearGradient id="E" x1="-764.622" y1="1552.69" x2="-1258.93" y2="1046.75" xlink:href="#b"><stop stop-color="#5155d4"/><stop offset="1" stop-color="#45f7ff"/></linearGradient><linearGradient id="F" x1="-802.277" y1="1602.53" x2="-1296.29" y2="1097.1" xlink:href="#b"><stop stop-color="#5155d4"/><stop offset="1" stop-color="#45f7ff"/></linearGradient><linearGradient id="G" x1="-616.271" y1="1350.81" x2="-1109.79" y2="845.608" xlink:href="#b"><stop stop-color="#5155d4"/><stop offset="1" stop-color="#45f7ff"/></linearGradient><linearGradient id="H" x1="-625.674" y1="1356.5" x2="-1119.57" y2="850.494" xlink:href="#b"><stop stop-color="#5155d4"/><stop offset="1" stop-color="#45f7ff"/></linearGradient><linearGradient id="I" x1="-654.915" y1="1403.75" x2="-1149.17" y2="898.472" xlink:href="#b"><stop stop-color="#5155d4"/><stop offset="1" stop-color="#45f7ff"/></linearGradient><linearGradient id="J" x1="-693.662" y1="1454.23" x2="-1187.79" y2="949.022" xlink:href="#b"><stop stop-color="#5155d4"/><stop offset="1" stop-color="#45f7ff"/></linearGradient><linearGradient id="K" x1="-732.833" y1="1503.6" x2="-1226.34" y2="998.104" xlink:href="#b"><stop stop-color="#5155d4"/><stop offset="1" stop-color="#45f7ff"/></linearGradient><linearGradient id="L" x1="-771.774" y1="1550.21" x2="-1263.61" y2="1044.55" xlink:href="#b"><stop stop-color="#5155d4"/><stop offset="1" stop-color="#45f7ff"/></linearGradient><linearGradient id="M" x1="-2774.56" y1="4639.99" x2="-4462.42" y2="2907.89" xlink:href="#b"><stop stop-color="#5155d4"/><stop offset="1" stop-color="#45f7ff"/></linearGradient><linearGradient id="N" x1="-808.773" y1="1618.5" x2="-1306.8" y2="1113.72" xlink:href="#b"><stop stop-color="#5155d4"/><stop offset="1" stop-color="#45f7ff"/></linearGradient><linearGradient id="O" x1="-818.24" y1="1610.91" x2="-1312.05" y2="1105.53" xlink:href="#b"><stop stop-color="#5155d4"/><stop offset="1" stop-color="#45f7ff"/></linearGradient><linearGradient id="P" x1="-2174.7" y1="3585.25" x2="-3316.92" y2="2417.28" xlink:href="#b"><stop stop-color="#5155d4"/><stop offset="1" stop-color="#45f7ff"/></linearGradient><linearGradient id="Q" x1="111.557" y1="283.471" x2="122.15" y2="337.675" xlink:href="#b"><stop stop-color="#fff"/><stop offset="1" stop-color="#8ae6ff"/></linearGradient><linearGradient id="R" x1="27898.7" y1="28691.7" x2="30409" y2="35264.9" xlink:href="#b"><stop stop-color="#fff"/><stop offset="1" stop-color="#8ae6ff"/></linearGradient><linearGradient id="S" x1="-3844.4" y1="9920.38" x2="-5972.18" y2="9920.38" xlink:href="#b"><stop stop-color="#5155d4"/><stop offset="1" stop-color="#45f7ff"/></linearGradient><linearGradient id="T" x1="429.467" y1="702.309" x2="450.573" y2="702.309" xlink:href="#b"><stop stop-color="#1ae5ff"/><stop offset="1" stop-color="#eaeeee"/></linearGradient><linearGradient id="U" x1="77.748" y1="154.599" x2="51.037" y2="154.599" xlink:href="#b"><stop stop-color="#f38273"/><stop offset="1" stop-color="#ff2fcc"/></linearGradient><linearGradient id="V" x1="-11856" y1="2664.86" x2="-11314.9" y2="2664.86" xlink:href="#b"><stop stop-color="#f38273"/><stop offset="1" stop-color="#ff2fcc"/></linearGradient><linearGradient id="W" x1="151.586" y1="58.899" x2="142.895" y2="107.85" xlink:href="#b"><stop stop-color="#ff962b"/><stop offset="1" stop-color="#e34958"/></linearGradient><linearGradient id="X" x1="2247.45" y1="917.855" x2="2247.45" y2="1043" xlink:href="#b"><stop stop-color="#f38273"/><stop offset="1" stop-color="#ff2fcc"/></linearGradient><linearGradient id="Y" x1="19142.5" y1="10549.7" x2="21495.3" y2="10549.7" xlink:href="#b"><stop stop-color="#5155d4"/><stop offset="1" stop-color="#45f7ff"/></linearGradient><linearGradient id="Z" x1="-17309.2" y1="6232.45" x2="-18932.5" y2="6232.45" xlink:href="#b"><stop stop-color="#5155d4"/><stop offset="1" stop-color="#45f7ff"/></linearGradient><linearGradient id="a" x1="-30989.8" y1="4813.1" x2="-32854" y2="4813.1" xlink:href="#b"><stop stop-color="#5155d4"/><stop offset="1" stop-color="#45f7ff"/></linearGradient><linearGradient id="b" gradientUnits="userSpaceOnUse"/></defs></svg>