<svg width="453" height="426" viewBox="0 0 453 426" fill="none" xmlns="http://www.w3.org/2000/svg">
<g filter="url(#filter0_d)">
<rect x="78.1973" y="152.5" width="314.243" height="232" rx="4.5" fill="#F3F9FF" stroke="#1D7DEA" stroke-dasharray="8 4"/>
</g>
<rect x="10.9668" y="13.4033" width="306.238" height="349" fill="white" stroke="#EDEDED"/>
<ellipse cx="40.2778" cy="37.8467" rx="4.65668" ry="5" fill="#EC5E54"/>
<ellipse cx="55.8032" cy="37.8467" rx="4.65668" ry="5" fill="#FFAF00"/>
<ellipse cx="71.3286" cy="37.8467" rx="4.65668" ry="5" fill="#83CF8F"/>
<rect x="31.9824" y="63.4033" width="265.206" height="271" fill="#FCFCFC" stroke="#E4E4E4"/>
<mask id="mask0" mask-type="alpha" maskUnits="userSpaceOnUse" x="52" y="83" width="225" height="141">
<path d="M52.5 87.8297C52.5 85.6181 54.2929 83.8252 56.5045 83.8252H272.669C274.881 83.8252 276.674 85.6181 276.674 87.8297V223.982H52.5V87.8297Z" fill="#492121"/>
</mask>
<g mask="url(#mask0)">
<rect x="39.9902" y="75.1533" width="250.194" height="147.5" fill="url(#paint0_linear)"/>
<path opacity="0.6" d="M103.127 124.783C103.34 124.773 103.506 124.837 103.623 124.975C103.74 125.103 103.799 125.263 103.799 125.455C103.799 125.647 103.74 125.813 103.623 125.951C103.506 126.09 103.34 126.154 103.127 126.143L101.559 126.063L102.423 127.359C102.498 127.477 102.535 127.594 102.535 127.711C102.535 127.893 102.455 128.053 102.295 128.191C102.146 128.319 101.975 128.383 101.783 128.383C101.538 128.383 101.356 128.271 101.239 128.047L100.535 126.655L99.8311 128.047C99.7031 128.282 99.5218 128.399 99.2871 128.399C99.0951 128.399 98.9191 128.335 98.7591 128.207C98.6098 128.069 98.5351 127.909 98.5351 127.727C98.5351 127.599 98.5725 127.482 98.6471 127.375L99.5111 126.063L97.9431 126.143C97.7298 126.154 97.5645 126.095 97.4471 125.967C97.3298 125.829 97.2711 125.663 97.2711 125.471C97.2711 125.279 97.3298 125.114 97.4471 124.975C97.5645 124.837 97.7298 124.773 97.9431 124.783L99.5111 124.863L98.6471 123.567C98.5725 123.461 98.5351 123.343 98.5351 123.215C98.5351 123.034 98.6098 122.879 98.7591 122.751C98.9191 122.623 99.0951 122.559 99.2871 122.559C99.5325 122.559 99.7138 122.671 99.8311 122.895L100.535 124.287L101.239 122.895C101.356 122.661 101.543 122.543 101.799 122.543C101.98 122.543 102.146 122.613 102.295 122.751C102.455 122.879 102.535 123.034 102.535 123.215C102.535 123.343 102.498 123.461 102.423 123.567L101.559 124.863L103.127 124.783Z" fill="white"/>
<path fill-rule="evenodd" clip-rule="evenodd" d="M166.921 154.245C167.712 155.927 168.439 157.35 169.243 158.864C170.028 160.355 170.868 161.81 171.705 163.268C173.418 166.16 175.182 169.026 177.115 171.807C178.074 173.203 179.068 174.582 180.071 175.96C181.127 177.311 182.133 178.678 183.258 179.998C185.391 182.689 187.831 185.24 190.372 187.728C191.017 188.347 191.719 188.944 192.39 189.548C193.065 190.152 193.732 190.757 194.506 191.311L196.748 192.995C196.748 192.995 197.148 193.288 197.431 193.466C197.729 193.664 198.051 193.827 198.37 193.989C199.015 194.301 199.691 194.536 200.38 194.698C201.757 195.013 203.173 195.017 204.529 194.724C205.883 194.432 207.187 193.837 208.304 192.97C208.859 192.535 209.37 192.042 209.809 191.501L210.126 191.089L210.277 190.88L210.333 190.787L210.549 190.411L211.386 188.9C211.633 188.408 211.813 187.947 212.025 187.47C212.84 185.572 213.347 183.819 213.82 182.056C214.682 178.561 215.183 175.192 215.52 171.825C215.843 168.447 216.021 165.171 215.958 161.731C215.917 159.517 214.088 157.755 211.873 157.796C210.065 157.83 208.558 159.051 208.087 160.704L208.05 160.84C205.848 168.586 204.957 182.451 200.819 177.657C197.089 173.272 193.658 168.287 190.437 163.105C188.839 160.505 187.269 157.865 185.75 155.191L183.501 151.167L181.26 147.02C179.151 143.12 174.279 141.666 170.375 143.774C166.613 145.804 165.136 150.421 166.921 154.245Z" fill="#132529"/>
<path fill-rule="evenodd" clip-rule="evenodd" d="M214.875 161.243L220.553 158.007L214.448 151.775C214.448 151.775 211.899 153.592 209.502 156.23C207.991 157.891 208.443 160.522 210.431 161.458C211.845 162.124 213.502 162.044 214.875 161.243Z" fill="#EB996E"/>
<path fill-rule="evenodd" clip-rule="evenodd" d="M221.838 151.331L218.756 149.131C217.92 148.533 216.759 148.711 216.14 149.532L214.449 151.776L220.553 158.008L222.471 153.632C222.831 152.811 222.567 151.851 221.838 151.331Z" fill="#EB996E"/>
<path fill-rule="evenodd" clip-rule="evenodd" d="M179.137 149.036C178.233 145.944 175.588 143.625 172.41 143.039C169.916 142.603 168.754 142.225 165.554 141.987C160.043 141.595 150.981 141.959 144.723 142.368C141.088 142.609 137.376 143.12 134.42 143.606L134.313 143.625C131.052 144.16 128.817 147.269 129.376 150.497C130.831 158.902 135.106 173.51 135.569 187.303C136.178 205.404 135.903 215.828 136.224 220.193L182.862 219.297C186.106 175.033 182.066 159.048 179.137 149.036Z" fill="#FFFFFE"/>
<path fill-rule="evenodd" clip-rule="evenodd" d="M133.069 142.924L133.181 142.909C136.298 142.396 140.207 141.855 144.041 141.599C144.708 141.55 145.401 141.513 146.118 141.476C148.157 149.907 160.298 164.071 163.981 185.561C165.401 167.605 166.5 148.833 164.416 141.509C165.678 141.487 171.744 141.907 174.264 142.342C177.61 142.96 180.433 145.62 181.651 149.203C184.514 157.631 189.98 176.503 186.616 222.902H134.79C134.445 218.292 135.657 208.475 133.79 193.438C131.979 178.862 129.389 159.041 127.859 150.179C127.273 146.771 129.629 143.492 133.069 142.924Z" fill="#132529"/>
<path fill-rule="evenodd" clip-rule="evenodd" d="M165.122 220.508C165.281 220.508 165.418 220.384 165.431 220.223C166.532 207.136 164.481 188.336 164.46 188.147C164.443 187.988 164.305 187.87 164.152 187.87C164.14 187.87 164.128 187.871 164.117 187.872C163.946 187.892 163.823 188.045 163.842 188.216C163.863 188.403 165.907 207.144 164.811 220.17C164.797 220.341 164.924 220.491 165.095 220.507L165.122 220.508Z" fill="#415051"/>
<path fill-rule="evenodd" clip-rule="evenodd" d="M133.744 193.104C133.745 193.1 133.745 193.097 133.746 193.092C133.12 188.057 132.403 182.419 131.671 176.833H131.67C132.402 182.427 133.118 188.07 133.744 193.104Z" fill="#275C9B"/>
<path fill-rule="evenodd" clip-rule="evenodd" d="M131.669 176.83H131.67C130.606 168.704 129.507 160.691 128.605 154.812C128.605 154.812 128.605 154.813 128.604 154.813C129.506 160.688 130.604 168.705 131.669 176.83Z" fill="#35639F"/>
<path fill-rule="evenodd" clip-rule="evenodd" d="M133.744 193.089C135.786 182.092 136.813 170.042 134.887 161.346C133.74 156.119 131.962 154.259 130.25 154.259C129.686 154.259 129.13 154.461 128.604 154.811C129.507 160.691 130.605 168.704 131.669 176.83C132.402 182.415 133.118 188.054 133.744 193.089Z" fill="#051317"/>
<path fill-rule="evenodd" clip-rule="evenodd" d="M164.562 141.931C158.513 140.611 157.472 136.888 157.904 132.77C157.996 131.768 158.176 130.728 158.405 129.699L150.851 123.541L145.303 119.024C146.809 125.701 148.48 137.88 143.916 142.432C143.916 142.432 147.636 148.547 158.006 147.799C166.765 147.166 164.562 141.931 164.562 141.931Z" fill="#F6B381"/>
<path fill-rule="evenodd" clip-rule="evenodd" d="M155.373 146.256L157.049 147.849L151.698 149.858L152.392 147.824L155.373 146.256Z" fill="#D4D5CF"/>
<path fill-rule="evenodd" clip-rule="evenodd" d="M151.279 152.697C151.279 152.697 153.38 147.374 155.375 146.257C148.394 144.382 145.004 140.518 145.004 140.518L141.82 141.779C141.82 141.779 140.818 147.892 151.279 152.697Z" fill="#F1F0EC"/>
<path fill-rule="evenodd" clip-rule="evenodd" d="M158.312 145.848L157.05 147.847L162.688 148.332L161.554 146.552L158.312 145.848Z" fill="#D4D5CF"/>
<path fill-rule="evenodd" clip-rule="evenodd" d="M165.517 151.196C165.517 151.196 162.543 147.86 158.311 145.848C161.374 144.934 161.558 140.72 161.558 140.72L164.524 141.286C164.524 141.286 169.978 146.584 165.517 151.196Z" fill="#F1F0EC"/>
<path fill-rule="evenodd" clip-rule="evenodd" d="M154.651 126.64H154.652L151.732 124.259L154.651 126.64Z" fill="#3365A1"/>
<path fill-rule="evenodd" clip-rule="evenodd" d="M158.405 129.697C158.406 129.697 158.406 129.697 158.406 129.697L154.653 126.638H154.652L158.405 129.697Z" fill="#416BA6"/>
<path fill-rule="evenodd" clip-rule="evenodd" d="M157.905 132.769C157.997 131.769 158.176 130.728 158.404 129.699L150.851 123.542C150.773 124.295 150.792 125.346 150.934 126.428C151.313 129.31 155.077 132.254 157.905 132.769Z" fill="#D8894F"/>
<path fill-rule="evenodd" clip-rule="evenodd" d="M167.567 99.238C170.269 102.561 170.008 114.551 164.293 114.694C158.577 114.837 162.655 93.1908 167.567 99.238Z" fill="#132529"/>
<path fill-rule="evenodd" clip-rule="evenodd" d="M142.937 107.969C143.511 117.054 143.386 122.395 147.975 127.095C154.875 134.165 166.057 130.102 168.202 121.057C170.133 112.915 168.869 99.4256 159.989 95.7358C151.24 92.1008 142.363 98.8833 142.937 107.969Z" fill="#F6B381"/>
<path fill-rule="evenodd" clip-rule="evenodd" d="M147.404 100.399C153.123 106.072 145.692 110.224 148.596 113.279C143.203 116.091 145.181 118.166 145.181 118.166C145.181 118.166 146.087 120.345 145.122 122.958C139.052 121.391 127.767 101.223 140.077 98.1196C147.495 101.417 147.404 100.399 147.404 100.399Z" fill="#132529"/>
<path fill-rule="evenodd" clip-rule="evenodd" d="M145.07 104.472C150.486 105.314 157.297 102.727 161.518 100.545C165.74 98.3635 166.366 102.484 164.81 103.745C167.518 103.842 170.957 101.69 170.107 96.909C169.33 92.5455 163.604 88.4241 155.461 92.1092C149.702 94.7145 142.595 91.2842 139.83 94.2909C137.064 97.2965 141.453 103.911 145.07 104.472Z" fill="#132529"/>
<path fill-rule="evenodd" clip-rule="evenodd" d="M141.381 98.5559C137.742 98.0718 137.588 95.7888 138.607 91.7651C134.677 97.3411 136.249 99.0515 138.615 100.399C141.186 99.5263 141.381 98.5559 141.381 98.5559Z" fill="#132529"/>
<path fill-rule="evenodd" clip-rule="evenodd" d="M140.495 114.932C141.385 116.896 142.962 118.323 144.458 118.995C146.708 120.006 147.851 117.937 147.242 115.501C146.695 113.308 144.863 110.139 142.598 110.163C140.366 110.184 139.478 112.687 140.495 114.932Z" fill="#F6B381"/>
<path fill-rule="evenodd" clip-rule="evenodd" d="M157.13 110.71C157.131 111.45 157.524 112.053 158.007 112.058C158.489 112.061 158.879 111.466 158.877 110.726C158.876 109.987 158.483 109.384 158.001 109.38C157.519 109.376 157.129 109.973 157.13 110.71Z" fill="#132529"/>
<path fill-rule="evenodd" clip-rule="evenodd" d="M165.473 110.785C165.475 111.525 165.868 112.127 166.35 112.131C166.832 112.135 167.222 111.539 167.221 110.8C167.22 110.06 166.827 109.457 166.345 109.453C165.862 109.45 165.472 110.045 165.473 110.785Z" fill="#132529"/>
<path fill-rule="evenodd" clip-rule="evenodd" d="M162.381 111.039C162.381 111.039 164.068 115.318 165.92 117.393C164.617 118.602 162.395 118.025 162.395 118.025L162.381 111.039Z" fill="#D8894F"/>
<path fill-rule="evenodd" clip-rule="evenodd" d="M159.386 119.994C156.51 119.626 155.175 117.619 155.115 117.526L155.18 117.225L155.479 117.284C155.495 117.306 157.013 119.593 160.258 119.618C160.378 119.618 160.471 119.717 160.467 119.837C160.463 119.957 160.363 120.053 160.243 120.052C159.944 120.05 159.658 120.029 159.386 119.994Z" fill="#132529"/>
<path fill-rule="evenodd" clip-rule="evenodd" d="M153.087 107.775L152.888 107.696C152.699 107.554 152.663 107.281 152.81 107.088C154.26 105.177 156.264 105.312 156.348 105.319C156.575 105.314 156.759 105.546 156.734 105.786C156.71 106.024 156.497 106.202 156.259 106.183C156.176 106.179 154.635 106.101 153.497 107.603C153.397 107.735 153.238 107.795 153.087 107.775Z" fill="#132529"/>
<path fill-rule="evenodd" clip-rule="evenodd" d="M168.844 108.126C168.706 108.108 168.582 108.026 168.517 107.893C167.664 106.134 166.074 105.901 166.057 105.899C165.821 105.866 165.659 105.649 165.697 105.411C165.735 105.174 165.955 105.007 166.191 105.037L166.193 105.038C166.277 105.049 168.252 105.338 169.299 107.499C169.403 107.712 169.311 107.973 169.095 108.082L168.844 108.126Z" fill="#132529"/>
<path fill-rule="evenodd" clip-rule="evenodd" d="M126.502 148.176C125.088 151.168 123.894 153.966 122.736 156.91C121.569 159.82 120.526 162.782 119.5 165.756C117.522 171.74 115.792 177.836 114.569 184.224C114.301 185.842 113.994 187.428 113.804 189.093L113.643 190.327L113.564 190.944L113.526 191.258L113.489 191.691C113.393 192.838 113.376 194.044 113.505 195.301C113.755 197.8 114.662 200.483 116.149 202.668C117.62 204.872 119.551 206.485 121.435 207.613C123.332 208.751 125.216 209.484 127.05 209.979C128.883 210.478 130.66 210.786 132.408 210.938C134.151 211.106 135.859 211.134 137.545 211.067C139.261 210.997 140.825 210.833 142.651 210.529C144.833 210.162 146.304 208.098 145.938 205.918C145.66 204.259 144.399 203.012 142.851 202.671L142.43 202.579C141.22 202.314 139.748 201.988 138.441 201.639C137.106 201.281 135.805 200.881 134.574 200.438C132.13 199.554 129.91 198.372 128.696 197.176C128.09 196.578 127.797 196.031 127.683 195.642C127.579 195.235 127.608 194.922 127.671 194.396C127.695 194.14 127.757 193.823 127.848 193.467L128.265 191.576C128.528 190.238 128.92 188.869 129.262 187.516C129.992 184.789 130.806 182.048 131.739 179.311C132.617 176.567 133.625 173.827 134.632 171.091C135.647 168.352 136.719 165.626 137.801 162.899C138.896 160.21 140.029 157.402 141.108 154.864L141.159 154.741C142.893 150.661 140.989 145.949 136.905 144.215C132.925 142.527 128.337 144.307 126.502 148.176Z" fill="#132529"/>
<path fill-rule="evenodd" clip-rule="evenodd" d="M146.401 205.985L151.529 208.423L142.654 211.57C142.654 211.57 136.741 209.689 139.613 206.41L141.203 205.91C143.766 205.106 145.023 205.198 146.401 205.985Z" fill="#EB996E"/>
<path fill-rule="evenodd" clip-rule="evenodd" d="M150.842 214.716L146.943 215.456C145.799 215.674 144.645 215.135 144.078 214.12L142.653 211.568L151.528 208.421L152.752 210.848C153.56 212.452 152.607 214.381 150.842 214.716Z" fill="#EB996E"/>
</g>
<rect opacity="0.4" x="52.5" y="200.903" width="223.173" height="21" fill="#C4C4C4"/>
<path opacity="0.6" fill-rule="evenodd" clip-rule="evenodd" d="M180.215 200.903H276.67V198.903H180.215V200.903Z" fill="white"/>
<path fill-rule="evenodd" clip-rule="evenodd" d="M148.574 200.903H206.619V198.903H148.574V200.903Z" fill="#FFFFF9"/>
<path fill-rule="evenodd" clip-rule="evenodd" d="M52.5 200.903H178.598V198.903H52.5V200.903Z" fill="white"/>
<path fill-rule="evenodd" clip-rule="evenodd" d="M182.468 200.103C182.468 201.347 181.459 202.356 180.213 202.356C178.968 202.356 177.959 201.347 177.959 200.103C177.959 198.859 178.968 197.851 180.213 197.851C181.459 197.851 182.468 198.859 182.468 200.103Z" fill="white"/>
<path fill-rule="evenodd" clip-rule="evenodd" d="M71.6997 211.479L67.3594 207.945V215.013L71.6997 211.479Z" fill="#FBFAF7"/>
<path fill-rule="evenodd" clip-rule="evenodd" d="M82.5591 211.479L78.2188 207.945V215.013L82.5591 211.479Z" fill="#FBFAF7"/>
<path opacity="0.6" fill-rule="evenodd" clip-rule="evenodd" d="M115.707 212.288H132.519V210.668H115.707V212.288Z" fill="white"/>
<path fill-rule="evenodd" clip-rule="evenodd" d="M108.627 212.288H115.706V210.668H108.627V212.288Z" fill="#FBFAF7"/>
<path fill-rule="evenodd" clip-rule="evenodd" d="M117.962 211.48C117.962 212.724 116.953 213.732 115.708 213.732C114.462 213.732 113.453 212.724 113.453 211.48C113.453 210.236 114.462 209.227 115.708 209.227C116.953 209.227 117.962 210.236 117.962 211.48Z" fill="#FBFAF7"/>
<path fill-rule="evenodd" clip-rule="evenodd" d="M83.6797 215.013H84.741V207.945H83.6797V215.013Z" fill="#FBFAF7"/>
<path fill-rule="evenodd" clip-rule="evenodd" d="M97.7009 215.013L95.6016 213.707V209.251L97.7009 207.945V215.013Z" fill="#FBFAF7"/>
<path fill-rule="evenodd" clip-rule="evenodd" d="M94.0078 212.701H95.0697V210.252H94.0078V212.701Z" fill="#FBFAF7"/>
<path fill-rule="evenodd" clip-rule="evenodd" d="M101.618 209.04L101.08 209.555C101.559 210.055 101.854 210.729 101.854 211.476C101.854 212.223 101.559 212.898 101.08 213.398L101.618 213.913C102.226 213.28 102.6 212.423 102.6 211.476C102.6 210.53 102.226 209.673 101.618 209.04Z" fill="#FBFAF7"/>
<path fill-rule="evenodd" clip-rule="evenodd" d="M99.9629 210.627C100.176 210.85 100.306 211.148 100.306 211.48C100.306 211.812 100.176 212.11 99.9629 212.332L100.501 212.847C100.841 212.492 101.052 212.011 101.052 211.48C101.052 210.949 100.841 210.468 100.501 210.112L99.9629 210.627Z" fill="#FBFAF7"/>
<path opacity="0.6" fill-rule="evenodd" clip-rule="evenodd" d="M102.765 207.945L102.227 208.46C102.979 209.245 103.44 210.306 103.44 211.479C103.44 212.652 102.979 213.713 102.227 214.498L102.765 215.013C103.645 214.096 104.186 212.851 104.187 211.479C104.186 210.107 103.645 208.863 102.765 207.945Z" fill="white"/>
<path d="M140.964 213.71H140.117V210.447L139.106 210.76V210.072L140.873 209.439H140.964V213.71ZM145.276 213.71H142.353V213.13L143.732 211.66C143.922 211.453 144.062 211.272 144.151 211.118C144.243 210.963 144.289 210.817 144.289 210.678C144.289 210.489 144.241 210.34 144.146 210.233C144.05 210.124 143.913 210.069 143.735 210.069C143.544 210.069 143.393 210.135 143.281 210.268C143.172 210.399 143.117 210.572 143.117 210.787H142.268C142.268 210.527 142.329 210.29 142.452 210.075C142.577 209.86 142.753 209.692 142.979 209.571C143.206 209.448 143.463 209.386 143.75 209.386C144.189 209.386 144.53 209.492 144.772 209.703C145.017 209.914 145.139 210.211 145.139 210.596C145.139 210.807 145.084 211.022 144.975 211.241C144.865 211.459 144.678 211.714 144.412 212.005L143.442 213.028H145.276V213.71ZM145.874 213.294C145.874 213.16 145.919 213.05 146.009 212.966C146.101 212.882 146.215 212.84 146.352 212.84C146.49 212.84 146.604 212.882 146.694 212.966C146.786 213.05 146.832 213.16 146.832 213.294C146.832 213.427 146.787 213.536 146.697 213.62C146.607 213.702 146.492 213.743 146.352 213.743C146.213 213.743 146.099 213.702 146.009 213.62C145.919 213.536 145.874 213.427 145.874 213.294ZM145.874 210.895C145.874 210.76 145.919 210.651 146.009 210.567C146.101 210.483 146.215 210.441 146.352 210.441C146.49 210.441 146.604 210.483 146.694 210.567C146.786 210.651 146.832 210.76 146.832 210.895C146.832 211.028 146.787 211.136 146.697 211.22C146.607 211.302 146.492 211.343 146.352 211.343C146.213 211.343 146.099 211.302 146.009 211.22C145.919 211.136 145.874 211.028 145.874 210.895ZM148.353 211.203H148.804C149.019 211.203 149.178 211.149 149.281 211.042C149.385 210.934 149.437 210.792 149.437 210.614C149.437 210.442 149.385 210.308 149.281 210.212C149.18 210.117 149.039 210.069 148.859 210.069C148.697 210.069 148.562 210.114 148.452 210.204C148.343 210.292 148.288 210.407 148.288 210.549H147.441C147.441 210.327 147.501 210.127 147.62 209.952C147.741 209.774 147.909 209.635 148.124 209.536C148.341 209.436 148.579 209.386 148.839 209.386C149.29 209.386 149.644 209.495 149.899 209.711C150.155 209.926 150.283 210.223 150.283 210.602C150.283 210.797 150.224 210.977 150.104 211.141C149.985 211.305 149.829 211.431 149.636 211.519C149.876 211.605 150.055 211.734 150.172 211.906C150.291 212.078 150.351 212.281 150.351 212.515C150.351 212.894 150.212 213.198 149.935 213.426C149.659 213.655 149.294 213.769 148.839 213.769C148.413 213.769 148.064 213.657 147.793 213.432C147.523 213.208 147.389 212.911 147.389 212.542H148.235C148.235 212.702 148.295 212.833 148.414 212.934C148.535 213.036 148.684 213.086 148.859 213.086C149.061 213.086 149.218 213.034 149.331 212.928C149.446 212.821 149.504 212.679 149.504 212.503C149.504 212.078 149.27 211.865 148.801 211.865H148.353V211.203ZM153.717 210.579C153.717 210.786 153.665 210.969 153.562 211.129C153.458 211.29 153.315 211.417 153.134 211.513C153.341 211.613 153.505 211.75 153.626 211.926C153.747 212.1 153.808 212.305 153.808 212.542C153.808 212.92 153.679 213.22 153.421 213.441C153.163 213.66 152.812 213.769 152.369 213.769C151.926 213.769 151.574 213.659 151.314 213.438C151.055 213.217 150.925 212.918 150.925 212.542C150.925 212.305 150.985 212.099 151.106 211.923C151.228 211.748 151.391 211.611 151.596 211.513C151.414 211.417 151.271 211.29 151.168 211.129C151.066 210.969 151.016 210.786 151.016 210.579C151.016 210.215 151.137 209.926 151.379 209.711C151.621 209.495 151.95 209.386 152.366 209.386C152.78 209.386 153.108 209.494 153.351 209.708C153.595 209.921 153.717 210.211 153.717 210.579ZM152.958 212.48C152.958 212.294 152.904 212.146 152.797 212.035C152.689 211.923 152.545 211.868 152.363 211.868C152.184 211.868 152.04 211.923 151.933 212.035C151.825 212.144 151.771 212.292 151.771 212.48C151.771 212.662 151.824 212.808 151.93 212.919C152.035 213.031 152.182 213.086 152.369 213.086C152.553 213.086 152.696 213.033 152.8 212.925C152.905 212.818 152.958 212.669 152.958 212.48ZM152.87 210.62C152.87 210.454 152.826 210.321 152.738 210.221C152.65 210.12 152.526 210.069 152.366 210.069C152.208 210.069 152.085 210.118 151.997 210.215C151.909 210.313 151.865 210.448 151.865 210.62C151.865 210.79 151.909 210.926 151.997 211.03C152.085 211.133 152.209 211.185 152.369 211.185C152.529 211.185 152.652 211.133 152.738 211.03C152.826 210.926 152.87 210.79 152.87 210.62ZM156.178 214.077H155.548L157.118 209.445H157.748L156.178 214.077ZM160.476 211.203H160.927C161.142 211.203 161.301 211.149 161.404 211.042C161.508 210.934 161.56 210.792 161.56 210.614C161.56 210.442 161.508 210.308 161.404 210.212C161.303 210.117 161.162 210.069 160.982 210.069C160.82 210.069 160.685 210.114 160.575 210.204C160.466 210.292 160.411 210.407 160.411 210.549H159.564C159.564 210.327 159.624 210.127 159.743 209.952C159.864 209.774 160.032 209.635 160.247 209.536C160.464 209.436 160.702 209.386 160.962 209.386C161.413 209.386 161.767 209.495 162.022 209.711C162.278 209.926 162.406 210.223 162.406 210.602C162.406 210.797 162.347 210.977 162.228 211.141C162.108 211.305 161.952 211.431 161.759 211.519C161.999 211.605 162.178 211.734 162.295 211.906C162.414 212.078 162.474 212.281 162.474 212.515C162.474 212.894 162.335 213.198 162.058 213.426C161.782 213.655 161.417 213.769 160.962 213.769C160.536 213.769 160.188 213.657 159.916 213.432C159.646 213.208 159.512 212.911 159.512 212.542H160.358C160.358 212.702 160.418 212.833 160.537 212.934C160.658 213.036 160.807 213.086 160.982 213.086C161.184 213.086 161.341 213.034 161.454 212.928C161.569 212.821 161.627 212.679 161.627 212.503C161.627 212.078 161.393 211.865 160.924 211.865H160.476V211.203ZM165.96 209.919L164.311 213.71H163.417L165.069 210.13H162.948V209.445H165.96V209.919ZM166.581 213.294C166.581 213.16 166.626 213.05 166.716 212.966C166.808 212.882 166.922 212.84 167.059 212.84C167.197 212.84 167.312 212.882 167.401 212.966C167.493 213.05 167.539 213.16 167.539 213.294C167.539 213.427 167.494 213.536 167.404 213.62C167.314 213.702 167.199 213.743 167.059 213.743C166.92 213.743 166.806 213.702 166.716 213.62C166.626 213.536 166.581 213.427 166.581 213.294ZM166.581 210.895C166.581 210.76 166.626 210.651 166.716 210.567C166.808 210.483 166.922 210.441 167.059 210.441C167.197 210.441 167.312 210.483 167.401 210.567C167.493 210.651 167.539 210.76 167.539 210.895C167.539 211.028 167.494 211.136 167.404 211.22C167.314 211.302 167.199 211.343 167.059 211.343C166.92 211.343 166.806 211.302 166.716 211.22C166.626 211.136 166.581 211.028 166.581 210.895ZM171.069 211.947C171.069 212.537 170.947 212.988 170.703 213.3C170.459 213.613 170.102 213.769 169.631 213.769C169.166 213.769 168.811 213.616 168.564 213.309C168.318 213.002 168.192 212.563 168.187 211.991V211.206C168.187 210.61 168.31 210.158 168.556 209.849C168.804 209.541 169.16 209.386 169.625 209.386C170.09 209.386 170.445 209.54 170.691 209.846C170.938 210.151 171.063 210.589 171.069 211.162V211.947ZM170.223 211.085C170.223 210.732 170.174 210.475 170.076 210.315C169.98 210.153 169.83 210.072 169.625 210.072C169.426 210.072 169.278 210.149 169.183 210.303C169.089 210.456 169.039 210.695 169.033 211.021V212.058C169.033 212.406 169.08 212.665 169.174 212.834C169.27 213.002 169.422 213.086 169.631 213.086C169.838 213.086 169.987 213.005 170.079 212.843C170.171 212.681 170.219 212.433 170.223 212.099V211.085ZM174.148 212.105H174.632V212.788H174.148V213.71H173.302V212.788H171.553L171.515 212.254L173.293 209.445H174.148V212.105ZM172.358 212.105H173.302V210.599L173.246 210.696L172.358 212.105Z" fill="#FBFAF7"/>
<path fill-rule="evenodd" clip-rule="evenodd" d="M264.832 215.368H262.078V214.761H264.224V212.616H264.832V215.368Z" fill="#FBFAF7"/>
<path fill-rule="evenodd" clip-rule="evenodd" d="M257.706 210.391H257.098V207.639H259.852V208.246H257.706V210.391Z" fill="#FBFAF7"/>
<path fill-rule="evenodd" clip-rule="evenodd" d="M259.852 215.368H257.098V212.616H257.706V214.761H259.852V215.368Z" fill="#FBFAF7"/>
<path fill-rule="evenodd" clip-rule="evenodd" d="M264.832 210.391H264.224V208.246H262.078V207.639H264.832V210.391Z" fill="#FBFAF7"/>
<path fill-rule="evenodd" clip-rule="evenodd" d="M246.19 212.108C245.902 213.129 244.971 213.795 243.961 213.795C243.752 213.795 243.54 213.767 243.329 213.707C242.307 213.419 241.641 212.489 241.64 211.48C241.641 211.271 241.669 211.059 241.729 210.847C242.017 209.826 242.948 209.161 243.959 209.16C244.167 209.16 244.379 209.189 244.591 209.249C245.612 209.537 246.279 210.467 246.279 211.476C246.279 211.685 246.251 211.897 246.19 212.108ZM243.009 214.833L243.036 214.739L243.009 214.833ZM247.786 211.248C247.751 210.668 247.584 210.111 247.307 209.614L247.781 209.35C247.543 208.923 247.234 208.536 246.865 208.207L246.504 208.614C246.086 208.243 245.582 207.957 245.01 207.793L245.158 207.273L245.151 207.271C244.754 207.16 244.352 207.105 243.957 207.105C243.872 207.105 243.786 207.108 243.701 207.113L243.733 207.655C243.152 207.689 242.594 207.855 242.097 208.132L241.832 207.658C241.406 207.895 241.018 208.203 240.689 208.573L241.096 208.933C240.725 209.351 240.437 209.853 240.273 210.425L239.753 210.277L239.75 210.288C239.638 210.684 239.584 211.085 239.584 211.48C239.584 211.564 239.587 211.648 239.591 211.733L240.134 211.701C240.168 212.281 240.334 212.839 240.61 213.336L240.135 213.6C240.372 214.027 240.68 214.414 241.049 214.743L241.412 214.338C241.829 214.709 242.332 214.996 242.904 215.16L242.755 215.68L242.769 215.685C243.166 215.796 243.567 215.851 243.962 215.851C244.05 215.851 244.138 215.847 244.225 215.842L244.193 215.301C244.773 215.265 245.331 215.098 245.828 214.821L246.093 215.295C246.519 215.057 246.907 214.748 247.235 214.377L246.828 214.018C247.198 213.6 247.485 213.097 247.648 212.524L248.169 212.671L248.169 212.668C248.282 212.271 248.336 211.87 248.336 211.476C248.336 211.388 248.333 211.302 248.328 211.216L247.786 211.248Z" fill="#FBFAF7"/>
<path d="M379.2 240.783C379.2 240.783 374.206 242.069 371.062 241.115C367.918 240.162 362.421 241.722 361.541 242.882C360.66 244.043 360.986 244.501 362.554 244.9C364.123 245.299 369.694 247.672 373.348 246.297C376.074 245.411 378.916 244.933 381.782 244.878L379.237 240.783H379.2Z" fill="#E49963"/>
<path d="M422.391 197.404C422.391 197.404 416.783 237.279 407.484 240.849C402.897 242.609 382.626 246.608 376.626 247.007C376.626 247.007 375.146 245.817 375.516 240.968C375.516 240.968 396.756 233.176 399.775 228.94C404.265 222.634 396.986 203.178 402.623 197.256C408.261 191.335 417.745 188.785 422.391 197.404Z" fill="#FFC3BD"/>
<path d="M421.673 351.033V342.34H435.375C435.553 342.34 435.725 342.269 435.851 342.143C435.977 342.017 436.048 341.846 436.048 341.667V340.277C436.048 340.189 436.031 340.102 435.997 340.02C435.963 339.938 435.913 339.864 435.851 339.802C435.788 339.739 435.714 339.69 435.632 339.656C435.551 339.622 435.463 339.605 435.375 339.605H421.673V290.12C421.673 289.451 421.408 288.809 420.935 288.335C420.462 287.861 419.82 287.594 419.151 287.592H416.443C415.773 287.594 415.13 287.861 414.656 288.334C414.182 288.808 413.915 289.45 413.913 290.12V339.605H400.219C400.04 339.605 399.869 339.676 399.743 339.802C399.617 339.928 399.546 340.099 399.546 340.277V341.667C399.546 341.846 399.617 342.017 399.743 342.143C399.869 342.269 400.04 342.34 400.219 342.34H413.883V351.033C403.977 351.773 396.032 355.343 393.805 359.948H441.722C439.503 355.343 431.557 351.78 421.644 351.033H421.673Z" fill="#519AEC"/>
<path d="M375.071 350.456C375.071 350.456 374.487 359.852 372.667 359.985C372.423 359.985 363.434 359.985 363.434 359.985L351.967 359.911C351.967 359.911 352.041 357.154 355.392 356.57C358.743 355.986 364.359 353.613 366.393 349.177C368.524 344.52 375.071 350.412 375.071 350.412V350.456Z" fill="#35434A"/>
<path d="M420.541 281.405C418.892 284.139 417.061 286.76 415.059 289.248C409.022 296.862 402.482 303.131 401.306 309.067C401.049 310.358 400.696 311.629 400.248 312.867C399.767 314.22 399.182 315.654 398.494 317.125C395.547 323.195 392.134 329.027 388.285 334.571C381.634 344.358 375.412 352.527 375.412 352.527L364.012 352.039C364.47 350.901 369.442 337.387 376.085 320.873C378.793 314.168 381.656 307.041 384.431 300.174L385.533 297.439C386.384 295.332 387.212 293.255 388.026 291.244L399.242 263.389C399.242 263.389 424.203 253.949 426.792 260.07C428.93 265.112 427.192 270.057 420.489 281.412L420.541 281.405Z" fill="#282A4D"/>
<path d="M401.461 323.606C401.461 323.606 409.384 328.692 408.615 330.348C408.511 330.57 404.132 338.406 404.132 338.406L398.48 348.385C398.48 348.385 396.105 346.973 397.229 343.765C398.354 340.557 399.034 334.51 396.157 330.577C393.123 326.445 401.461 323.606 401.461 323.606Z" fill="#35434A"/>
<path d="M390.735 258.903C390.735 258.903 359.411 278.397 355.912 291.503C352.413 304.61 397.608 332.553 397.608 332.553C397.608 332.553 402.557 328.184 403.43 324.983C403.43 324.983 383.019 300.544 378.587 295.066C375.865 291.703 418.803 283.416 424.049 275.27C429.294 267.123 427.415 260.256 427.415 260.256L390.757 258.903H390.735Z" fill="#393C63"/>
<path d="M449.852 283.94H385.77C385.152 283.942 384.561 284.188 384.124 284.625C383.688 285.061 383.441 285.652 383.439 286.269V299.08C383.441 299.697 383.688 300.288 384.124 300.724C384.561 301.161 385.152 301.407 385.77 301.409H449.882C450.499 301.407 451.091 301.161 451.528 300.724C451.964 300.288 452.21 299.697 452.212 299.08V286.269C452.21 285.652 451.964 285.061 451.528 284.625C451.091 284.188 450.499 283.942 449.882 283.94H449.852Z" fill="#ABCEF5"/>
<path d="M405.219 190.573C403.376 191.707 401.759 193.171 400.447 194.89C407.949 196.835 420.422 189.886 420.422 189.886C417.094 187.295 414.757 183.642 413.801 179.536C413.712 179.174 413.623 178.797 413.557 178.435C413.305 177.149 413.169 175.842 413.15 174.532L409.702 177.614L403.969 182.745C404.133 184.692 404.414 186.627 404.812 188.54C404.938 189.176 405.086 189.864 405.249 190.595L405.219 190.573Z" fill="#E49963"/>
<path d="M428.303 225.947C427.23 240.392 429.043 262.354 427.815 266.161C426.764 269.444 414.38 267.5 409.593 266.405C407.825 265.999 405.679 265.422 403.46 264.735C397.275 262.82 390.543 260.092 389.818 258.082C389.789 258.007 389.766 257.931 389.751 257.852C389.685 257.573 389.685 257.282 389.751 257.002C389.988 255.967 390.92 254.851 391.031 252.293C391.149 249.433 391.135 246.069 391.238 242.454C391.238 242.048 391.238 241.597 391.297 241.197V240.813C391.401 236.784 391.608 232.541 391.852 228.335C392.015 225.688 392.193 223.071 392.4 220.565C392.94 214.097 393.665 208.338 394.619 204.701C396.188 198.787 399.657 194.906 402.809 192.068L405.087 190.116C407.894 190.652 410.798 190.266 413.366 189.015C416.325 187.617 417.331 186.612 417.805 186.989C424.611 192.238 429.501 208.309 428.236 225.969L428.303 225.947Z" fill="#FFC3BD"/>
<path d="M403.939 182.724C404.104 184.671 404.385 186.606 404.783 188.519C410.383 186.708 412.921 181.659 413.772 179.515C414.008 178.909 414.112 178.539 414.112 178.539L413.527 178.414L409.673 177.593L403.939 182.724Z" fill="#D68D5D"/>
<path d="M401.675 182.67C401.675 182.67 413.971 184.053 414.718 176.387C415.465 168.721 417.552 163.738 409.732 162.533C401.912 161.328 400.114 164.101 399.226 166.599C398.339 169.098 398.487 182.123 401.675 182.67Z" fill="#E49963"/>
<path d="M414.659 176.92C414.659 176.92 413.919 166.741 402.689 165.691C395.024 164.952 399.293 158.373 400.114 157.323C400.114 157.323 405.988 158.129 412.01 159.12C424.646 161.204 415.902 175.339 414.659 176.92Z" fill="#263238"/>
<path d="M385.11 248.604L354.023 249.27L354.06 251.125L385.155 250.467L385.11 248.604Z" fill="#4A75CB"/>
<path d="M381.775 246.918C381.775 246.918 376.951 248.744 373.689 248.138C370.426 247.532 365.158 249.705 364.411 250.947C363.664 252.189 364.034 252.618 365.647 252.84C367.26 253.062 373.045 254.814 376.529 253.047C379.138 251.863 381.908 251.073 384.749 250.703L381.789 246.918H381.775Z" fill="#E49963"/>
<path d="M419.919 199.045C419.919 199.045 418.736 239.289 409.888 243.858C405.523 246.12 385.821 252.322 379.903 253.379C379.903 253.379 378.312 252.359 378.135 247.502C378.135 247.502 398.383 237.419 400.914 232.873C404.679 226.109 395.298 207.576 400.248 201.085C405.197 194.595 414.349 191.002 419.919 199.06V199.045Z" fill="#FFC3BD"/>
<g opacity="0.6" clip-path="url(#clip0)" filter="url(#filter1_d)">
<path d="M214.125 113.903C211.059 113.903 209.404 119.85 209.404 125.403C209.404 130.956 211.059 136.903 214.125 136.903C217.191 136.903 218.845 130.956 218.845 125.403C218.845 119.85 217.191 113.903 214.125 113.903ZM214.125 135.556C212.533 135.556 210.753 131.188 210.753 125.403C210.753 119.619 212.533 115.251 214.125 115.251C215.716 115.251 217.497 119.619 217.497 125.403C217.497 131.188 215.716 135.556 214.125 135.556Z" fill="#FFFAE9"/>
<path d="M214.386 126.449C215.108 126.449 215.694 125.864 215.694 125.142C215.694 124.42 215.108 123.835 214.386 123.835C213.664 123.835 213.078 124.42 213.078 125.142C213.078 125.864 213.664 126.449 214.386 126.449Z" fill="white"/>
<path d="M216.483 121.318C215.718 120.876 214.923 120.472 214.123 120.105C209.891 118.169 205.484 117.445 204.195 119.675C202.359 122.854 208.557 127.639 211.763 129.488C212.411 129.862 213.226 130.279 214.123 130.681C217.685 132.281 222.596 133.648 224.051 131.13C225.887 127.952 219.688 123.167 216.483 121.318ZM222.883 130.456C222.179 131.679 218.453 131.326 214.123 129.214C213.569 128.944 213.006 128.649 212.437 128.32C209.982 126.905 204.127 122.486 205.363 120.349C206.293 118.739 210.851 120.084 214.123 121.617C214.74 121.906 215.316 122.201 215.809 122.485C218.263 123.901 224.119 128.319 222.883 130.456Z" fill="#F1DED4"/>
<path d="M224.051 119.676C222.763 117.445 218.356 118.17 214.123 120.106C213.322 120.472 212.528 120.877 211.762 121.318C208.541 123.177 202.362 127.957 204.194 131.131C205.644 133.64 210.552 132.283 214.123 130.681C215.018 130.28 215.832 129.864 216.483 129.488C219.705 127.63 225.884 122.849 224.051 119.676ZM215.809 128.321C215.24 128.649 214.677 128.944 214.123 129.214C209.793 131.325 206.069 131.677 205.363 130.457C204.168 128.391 209.8 124.007 212.437 122.486C212.92 122.207 213.498 121.91 214.123 121.616C217.335 120.105 221.922 118.687 222.883 120.35C224.078 122.416 218.445 126.8 215.809 128.321Z" fill="#FFF2F2"/>
</g>
<rect x="52.6758" y="261.902" width="173.134" height="4" rx="2" fill="#CCCCCC"/>
<rect x="52.6758" y="275.902" width="133.103" height="4" rx="2" fill="#CCCCCC"/>
<rect x="52.6758" y="289.902" width="93.0722" height="4" rx="2" fill="#CCCCCC"/>
<path d="M59.6158 249.432C59.6424 249.486 59.6558 249.542 59.6558 249.602C59.6558 249.702 59.6158 249.786 59.5358 249.852C59.4624 249.919 59.3724 249.952 59.2658 249.952C59.0991 249.952 58.9824 249.872 58.9158 249.712L58.2058 248.092H54.4358L53.7158 249.712C53.6491 249.872 53.5324 249.952 53.3658 249.952C53.2591 249.952 53.1658 249.919 53.0858 249.852C53.0058 249.779 52.9658 249.692 52.9658 249.592C52.9658 249.539 52.9791 249.486 53.0058 249.432L55.8658 243.072C55.9058 242.979 55.9658 242.909 56.0458 242.862C56.1258 242.816 56.2124 242.792 56.3058 242.792C56.4058 242.792 56.4958 242.819 56.5758 242.872C56.6558 242.919 56.7158 242.986 56.7558 243.072L59.6158 249.432ZM54.7358 247.412H57.9058L56.3158 243.822L54.7358 247.412ZM63.1414 244.912C64.3081 244.912 64.8914 245.556 64.8914 246.842V249.552C64.8914 249.679 64.8547 249.779 64.7814 249.852C64.7147 249.919 64.6181 249.952 64.4914 249.952C64.3647 249.952 64.2647 249.919 64.1914 249.852C64.1181 249.779 64.0814 249.679 64.0814 249.552V246.892C64.0814 246.439 63.9914 246.109 63.8114 245.902C63.6381 245.696 63.3581 245.592 62.9714 245.592C62.5247 245.592 62.1681 245.729 61.9014 246.002C61.6347 246.276 61.5014 246.646 61.5014 247.112V249.552C61.5014 249.679 61.4647 249.779 61.3914 249.852C61.3247 249.919 61.2281 249.952 61.1014 249.952C60.9747 249.952 60.8747 249.919 60.8014 249.852C60.7281 249.779 60.6914 249.679 60.6914 249.552V245.332C60.6914 245.212 60.7281 245.116 60.8014 245.042C60.8747 244.969 60.9747 244.932 61.1014 244.932C61.2214 244.932 61.3147 244.969 61.3814 245.042C61.4547 245.116 61.4914 245.209 61.4914 245.322V245.832C61.6514 245.532 61.8747 245.306 62.1614 245.152C62.4481 244.992 62.7747 244.912 63.1414 244.912ZM68.015 249.972C67.7083 249.972 67.415 249.936 67.135 249.862C66.8617 249.789 66.6183 249.686 66.405 249.552C66.285 249.472 66.1983 249.399 66.145 249.332C66.0983 249.259 66.075 249.172 66.075 249.072C66.075 248.986 66.0983 248.916 66.145 248.862C66.1983 248.802 66.265 248.772 66.345 248.772C66.425 248.772 66.5417 248.822 66.695 248.922C66.895 249.042 67.0917 249.139 67.285 249.212C67.485 249.279 67.7317 249.312 68.025 249.312C68.385 249.312 68.665 249.249 68.865 249.122C69.065 248.996 69.165 248.812 69.165 248.572C69.165 248.426 69.1283 248.309 69.055 248.222C68.9817 248.129 68.855 248.049 68.675 247.982C68.495 247.909 68.2317 247.836 67.885 247.762C67.2983 247.636 66.8783 247.466 66.625 247.252C66.3717 247.039 66.245 246.749 66.245 246.382C66.245 246.096 66.325 245.842 66.485 245.622C66.645 245.402 66.865 245.229 67.145 245.102C67.4317 244.976 67.755 244.912 68.115 244.912C68.375 244.912 68.625 244.949 68.865 245.022C69.1117 245.089 69.3283 245.186 69.515 245.312C69.7417 245.472 69.855 245.639 69.855 245.812C69.855 245.899 69.8283 245.972 69.775 246.032C69.7217 246.092 69.6583 246.122 69.585 246.122C69.505 246.122 69.385 246.066 69.225 245.952C69.0383 245.832 68.8617 245.739 68.695 245.672C68.5283 245.606 68.3217 245.572 68.075 245.572C67.7617 245.572 67.5083 245.642 67.315 245.782C67.1283 245.922 67.035 246.109 67.035 246.342C67.035 246.489 67.0683 246.609 67.135 246.702C67.2083 246.789 67.325 246.869 67.485 246.942C67.6517 247.009 67.8883 247.076 68.195 247.142C68.6483 247.242 68.9983 247.352 69.245 247.472C69.4983 247.592 69.6783 247.739 69.785 247.912C69.8917 248.086 69.945 248.306 69.945 248.572C69.945 248.992 69.7683 249.332 69.415 249.592C69.0617 249.846 68.595 249.972 68.015 249.972ZM77.7518 245.192C77.8185 245.032 77.9285 244.952 78.0818 244.952C78.1818 244.952 78.2718 244.986 78.3518 245.052C78.4318 245.119 78.4718 245.202 78.4718 245.302C78.4718 245.349 78.4618 245.399 78.4418 245.452L76.7818 249.652C76.7418 249.739 76.6818 249.809 76.6018 249.862C76.5285 249.909 76.4451 249.932 76.3518 249.932C76.2651 249.932 76.1818 249.909 76.1018 249.862C76.0285 249.809 75.9718 249.739 75.9318 249.652L74.5518 246.142L73.1818 249.652C73.1485 249.739 73.0918 249.809 73.0118 249.862C72.9318 249.909 72.8451 249.932 72.7518 249.932C72.6651 249.932 72.5818 249.909 72.5018 249.862C72.4218 249.809 72.3618 249.739 72.3218 249.652L70.6618 245.462C70.6418 245.409 70.6318 245.362 70.6318 245.322C70.6318 245.216 70.6751 245.126 70.7618 245.052C70.8551 244.979 70.9551 244.942 71.0618 244.942C71.2218 244.942 71.3351 245.022 71.4018 245.182L72.7718 248.872L74.1818 245.212C74.2218 245.126 74.2751 245.059 74.3418 245.012C74.4151 244.966 74.4918 244.942 74.5718 244.942C74.6585 244.942 74.7351 244.966 74.8018 245.012C74.8751 245.059 74.9285 245.126 74.9618 245.212L76.3718 248.862L77.7518 245.192ZM83.2212 248.772C83.2945 248.772 83.3578 248.802 83.4112 248.862C83.4645 248.922 83.4912 248.999 83.4912 249.092C83.4912 249.259 83.3745 249.412 83.1412 249.552C82.9012 249.692 82.6478 249.799 82.3812 249.872C82.1145 249.939 81.8545 249.972 81.6012 249.972C80.8478 249.972 80.2512 249.749 79.8112 249.302C79.3778 248.856 79.1612 248.239 79.1612 247.452C79.1612 246.952 79.2578 246.512 79.4512 246.132C79.6445 245.746 79.9145 245.446 80.2612 245.232C80.6145 245.019 81.0145 244.912 81.4612 244.912C82.0945 244.912 82.5978 245.119 82.9712 245.532C83.3445 245.946 83.5312 246.506 83.5312 247.212C83.5312 247.346 83.5045 247.442 83.4512 247.502C83.3978 247.562 83.3112 247.592 83.1912 247.592H79.9712C80.0312 248.739 80.5745 249.312 81.6012 249.312C81.8612 249.312 82.0845 249.279 82.2712 249.212C82.4578 249.139 82.6578 249.042 82.8712 248.922C83.0445 248.822 83.1612 248.772 83.2212 248.772ZM81.4712 245.542C81.0445 245.542 80.7012 245.676 80.4412 245.942C80.1878 246.209 80.0378 246.586 79.9912 247.072H82.8212C82.8078 246.579 82.6845 246.202 82.4512 245.942C82.2178 245.676 81.8912 245.542 81.4712 245.542ZM87.1346 244.932C87.4146 244.912 87.5546 245.026 87.5546 245.272C87.5546 245.379 87.5246 245.466 87.4646 245.532C87.4046 245.592 87.3013 245.629 87.1546 245.642L86.8546 245.672C86.4079 245.712 86.0746 245.872 85.8546 246.152C85.6413 246.426 85.5346 246.749 85.5346 247.122V249.552C85.5346 249.686 85.4979 249.786 85.4246 249.852C85.3513 249.919 85.2546 249.952 85.1346 249.952C85.0146 249.952 84.9146 249.919 84.8346 249.852C84.7613 249.779 84.7246 249.679 84.7246 249.552V245.332C84.7246 245.206 84.7646 245.109 84.8446 245.042C84.9246 244.969 85.0213 244.932 85.1346 244.932C85.2413 244.932 85.3313 244.969 85.4046 245.042C85.4779 245.109 85.5146 245.202 85.5146 245.322V245.882C85.6546 245.589 85.8513 245.366 86.1046 245.212C86.3646 245.059 86.6613 244.969 86.9946 244.942L87.1346 244.932Z" fill="#666666"/>
<defs>
<filter id="filter0_d" x="60.6973" y="139" width="369.243" height="287" filterUnits="userSpaceOnUse" color-interpolation-filters="sRGB">
<feFlood flood-opacity="0" result="BackgroundImageFix"/>
<feColorMatrix in="SourceAlpha" type="matrix" values="0 0 0 0 0 0 0 0 0 0 0 0 0 0 0 0 0 0 127 0"/>
<feOffset dx="10" dy="14"/>
<feGaussianBlur stdDeviation="13.5"/>
<feColorMatrix type="matrix" values="0 0 0 0 0.2 0 0 0 0 0.2 0 0 0 0 0.2 0 0 0 0.05 0"/>
<feBlend mode="normal" in2="BackgroundImageFix" result="effect1_dropShadow"/>
<feBlend mode="normal" in="SourceGraphic" in2="effect1_dropShadow" result="shape"/>
</filter>
<filter id="filter1_d" x="188.615" y="101.903" width="51.0178" height="51" filterUnits="userSpaceOnUse" color-interpolation-filters="sRGB">
<feFlood flood-opacity="0" result="BackgroundImageFix"/>
<feColorMatrix in="SourceAlpha" type="matrix" values="0 0 0 0 0 0 0 0 0 0 0 0 0 0 0 0 0 0 127 0"/>
<feOffset dy="2"/>
<feGaussianBlur stdDeviation="7"/>
<feColorMatrix type="matrix" values="0 0 0 0 1 0 0 0 0 1 0 0 0 0 1 0 0 0 0.47 0"/>
<feBlend mode="normal" in2="BackgroundImageFix" result="effect1_dropShadow"/>
<feBlend mode="normal" in="SourceGraphic" in2="effect1_dropShadow" result="shape"/>
</filter>
<linearGradient id="paint0_linear" x1="165.087" y1="75.1533" x2="170.583" y2="314.404" gradientUnits="userSpaceOnUse">
<stop stop-color="#33BD9A"/>
<stop offset="1" stop-color="#387B9B" stop-opacity="0"/>
</linearGradient>
<clipPath id="clip0">
<rect width="23.0178" height="23" fill="white" transform="translate(202.615 113.903)"/>
</clipPath>
</defs>
</svg>
