<svg width="52" height="52" viewBox="0 0 52 52" fill="none" xmlns="http://www.w3.org/2000/svg">
<circle cx="26" cy="26" r="26" fill="#F8FFD7"/>
<circle cx="26.0006" cy="26.0006" r="20.6471" fill="#FF6890"/>
<g clip-path="url(#clip0)">
<path d="M26 13C21.2389 13 17.0625 17.1764 17.0625 21.9375C17.0625 26.6865 21.2163 30.875 26 30.875C30.8282 30.875 34.9375 26.6389 34.9375 21.9375C34.9375 17.1764 30.7611 13 26 13ZM26 29.8594C24.4062 29.8594 22.7951 29.3115 21.4355 28.3126C21.5528 25.8937 23.5482 23.9688 26 23.9688C28.4508 23.9688 30.4472 25.8928 30.5645 28.3126C29.205 29.3115 27.5938 29.8594 26 29.8594ZM23.4609 20.4141C23.4609 19.014 24.6 17.875 26 17.875C27.4 17.875 28.5391 19.014 28.5391 20.4141C28.5391 21.8141 27.4 22.9531 26 22.9531C24.6 22.9531 23.4609 21.8141 23.4609 20.4141ZM31.4935 27.5207C31.1377 25.5786 29.7775 24.0117 28.0279 23.331C28.9498 22.6881 29.5547 21.6207 29.5547 20.4141C29.5547 18.454 27.9601 16.8594 26 16.8594C24.0399 16.8594 22.4453 18.454 22.4453 20.4141C22.4453 21.6207 23.0502 22.6881 23.9721 23.331C22.2253 24.0106 20.8629 25.5752 20.5065 27.5207C18.972 26.0098 18.0781 23.9828 18.0781 21.9375C18.0781 17.7174 21.7799 14.0156 26 14.0156C30.2201 14.0156 33.9219 17.7174 33.9219 21.9375C33.9219 23.9828 33.028 26.0098 31.4935 27.5207Z" fill="white"/>
<path d="M29.3797 34.9289C29.32 34.7451 29.1611 34.6112 28.9698 34.5833L27.2317 34.3307L26.4546 32.7558C26.369 32.5824 26.1925 32.4727 25.9992 32.4727C25.8058 32.4727 25.6293 32.5824 25.5438 32.7558L24.7666 34.3307L23.0285 34.5833C22.8372 34.6111 22.6783 34.7451 22.6186 34.9289C22.5589 35.1128 22.6087 35.3146 22.7471 35.4495L24.0047 36.6754L23.7076 38.4064C23.6749 38.5969 23.7532 38.7894 23.9096 38.9031C24.0661 39.0167 24.2734 39.0317 24.4444 38.9418L25.9992 38.1245L27.5539 38.9417C27.7274 39.0329 27.9345 39.0151 28.0888 38.903C28.2451 38.7894 28.3234 38.5968 28.2907 38.4063L27.9937 36.6753L29.2513 35.4495C29.3897 35.3146 29.4394 35.1128 29.3797 34.9289ZM27.0936 36.1344C26.9739 36.2511 26.9192 36.4192 26.9476 36.584L27.1157 37.5639L26.2356 37.1013C26.1616 37.0624 26.0804 37.043 25.9993 37.043C25.9181 37.043 25.837 37.0624 25.763 37.1013L24.8828 37.5639L25.051 36.584C25.0793 36.4192 25.0246 36.2511 24.905 36.1344L24.193 35.4404L25.1771 35.2974C25.3425 35.2734 25.4855 35.1694 25.5594 35.0196L25.9992 34.1281L26.4391 35.0196C26.513 35.1695 26.656 35.2734 26.8214 35.2974L27.8055 35.4404L27.0936 36.1344Z" fill="white"/>
<path d="M21.2546 34.9289C21.1949 34.7451 21.036 34.6112 20.8447 34.5833L19.1066 34.3307L18.3295 32.7558C18.2439 32.5824 18.0674 32.4727 17.8741 32.4727C17.6807 32.4727 17.5042 32.5824 17.4187 32.7558L16.6416 34.3307L14.9035 34.5833C14.7122 34.6111 14.5533 34.7451 14.4936 34.9289C14.4339 35.1128 14.4837 35.3146 14.6221 35.4495L15.8797 36.6754L15.5826 38.4064C15.5499 38.5969 15.6282 38.7894 15.7846 38.9031C15.941 39.0167 16.1484 39.0317 16.3194 38.9418L17.8741 38.1245L19.4288 38.9417C19.6023 39.0329 19.8094 39.0151 19.9637 38.903C20.12 38.7894 20.1983 38.5968 20.1656 38.4063L19.8686 36.6753L21.1262 35.4495C21.2646 35.3146 21.3143 35.1128 21.2546 34.9289ZM18.9685 36.1344C18.8488 36.2511 18.7941 36.4192 18.8225 36.584L18.9906 37.5639L18.1105 37.1013C18.0365 37.0624 17.9553 37.043 17.8742 37.043C17.793 37.043 17.7119 37.0624 17.6379 37.1013L16.7577 37.5639L16.9259 36.584C16.9542 36.4192 16.8995 36.2511 16.7799 36.1344L16.0678 35.4404L17.0519 35.2974C17.2173 35.2734 17.3603 35.1694 17.4343 35.0196L17.8741 34.1281L18.314 35.0196C18.3879 35.1695 18.5309 35.2734 18.6963 35.2974L19.6804 35.4404L18.9685 36.1344Z" fill="white"/>
<path d="M37.5047 34.9289C37.4449 34.7451 37.2861 34.6112 37.0948 34.5833L35.3567 34.3307L34.5796 32.7558C34.494 32.5824 34.3175 32.4727 34.1242 32.4727C33.9308 32.4727 33.7543 32.5824 33.6688 32.7558L32.8916 34.3307L31.1535 34.5833C30.9622 34.6111 30.8033 34.7451 30.7436 34.9289C30.6839 35.1128 30.7337 35.3146 30.8721 35.4495L32.1297 36.6754L31.8326 38.4064C31.7999 38.5969 31.8782 38.7894 32.0346 38.9031C32.1911 39.0167 32.3984 39.0317 32.5694 38.9418L34.1242 38.1245L35.6789 38.9417C35.8524 39.0329 36.0595 39.0151 36.2138 38.903C36.3701 38.7894 36.4484 38.5968 36.4157 38.4063L36.1186 36.6753L37.3762 35.4495C37.5147 35.3146 37.5644 35.1128 37.5047 34.9289ZM35.2185 36.1344C35.0989 36.2511 35.0442 36.4192 35.0726 36.584L35.2407 37.5639L34.3605 37.1013C34.2866 37.0624 34.2054 37.043 34.1243 37.043C34.0431 37.043 33.962 37.0624 33.888 37.1013L33.0078 37.5639L33.176 36.584C33.2043 36.4192 33.1496 36.2511 33.03 36.1344L32.318 35.4404L33.3021 35.2974C33.4675 35.2734 33.6105 35.1694 33.6844 35.0196L34.1242 34.1281L34.5641 35.0196C34.638 35.1695 34.781 35.2734 34.9464 35.2974L35.9305 35.4404L35.2185 36.1344Z" fill="white"/>
</g>
<defs>
<clipPath id="clip0">
<rect width="26" height="26" fill="white" transform="translate(13 13)"/>
</clipPath>
</defs>
</svg>
