<svg width="690" height="789" viewBox="0 0 690 789" fill="none" xmlns="http://www.w3.org/2000/svg">
<g opacity="0.31">
<path d="M27.3806 67.9894L81.7342 15.5006L98.5654 90.4184L27.3806 67.9894Z" stroke="#1D7DEA" stroke-opacity="0.4" stroke-width="2"/>
<path d="M671.905 520.801L671.998 519.026L670.464 519.831L668.266 520.984L668.722 521.888L664.326 524.193L663.869 523.29L659.473 525.595L659.93 526.499L655.533 528.805L655.076 527.901L650.68 530.207L651.137 531.111L646.74 533.417L646.284 532.513L641.887 534.819L642.344 535.723L637.948 538.029L637.491 537.125L635.293 538.278L633.789 539.067L635.216 540.028L637.282 541.418L637.815 540.572L641.946 543.353L641.413 544.198L645.544 546.979L646.077 546.133L650.208 548.914L649.675 549.76L653.806 552.54L654.339 551.694L658.47 554.475L657.937 555.321L662.068 558.101L662.602 557.256L666.733 560.036L666.199 560.882L668.265 562.272L669.692 563.233L669.783 561.493L669.916 558.95L668.931 558.883L669.196 553.797L670.181 553.863L670.446 548.777L669.461 548.71L669.727 543.624L670.712 543.69L670.977 538.604L669.992 538.537L670.257 533.451L671.242 533.517L671.507 528.431L670.523 528.364L670.788 523.278L671.773 523.344L671.905 520.801Z" stroke="#1D7DEA" stroke-opacity="0.4" stroke-width="2" stroke-dasharray="5 5"/>
<path d="M44.9268 335.524L45.0194 333.749L43.4853 334.554L41.2871 335.707L41.7438 336.611L37.3474 338.917L36.8907 338.013L32.4943 340.319L32.9511 341.222L28.5547 343.528L28.098 342.624L23.7016 344.93L24.1583 345.834L19.762 348.14L19.3052 347.236L14.9089 349.542L15.3656 350.446L10.9692 352.752L10.5125 351.848L8.31433 353.001L6.81014 353.79L8.23764 354.751L10.3032 356.141L10.8366 355.295L14.9677 358.076L14.4343 358.922L18.5653 361.702L19.0987 360.856L23.2298 363.637L22.6964 364.483L26.8275 367.263L27.3609 366.417L31.492 369.198L30.9586 370.044L35.0897 372.825L35.6231 371.979L39.7541 374.759L39.2207 375.605L41.2863 376.995L42.7138 377.956L42.8045 376.216L42.9372 373.673L41.9523 373.606L42.2176 368.52L43.2025 368.586L43.4678 363.5L42.4829 363.433L42.7482 358.347L43.733 358.413L43.9983 353.327L43.0135 353.26L43.2788 348.174L44.2636 348.24L44.5289 343.154L43.544 343.087L43.8093 338.001L44.7942 338.067L44.9268 335.524Z" stroke="#9C9C9C" stroke-opacity="0.5" stroke-width="2" stroke-dasharray="5 5"/>
<path opacity="0.6" d="M574.632 237.642L585.105 246.673L572.045 251.225L574.632 237.642Z" fill="#F3B740"/>
<path d="M213.812 102.962L204.564 99.563L190.967 97.8937L205.453 89.1382L213.812 102.962Z" fill="#5AC8E0" fill-opacity="0.6"/>
<path opacity="0.6" d="M577.088 170.805L572.506 162.084L563.539 151.731L580.157 154.946L577.088 170.805Z" fill="#5AC8E0"/>
<path d="M271.624 464.518L258.743 459.482L269.546 450.847L271.624 464.518Z" fill="#F3B740"/>
<path d="M648.498 772.419L655.72 779.121L667.621 785.904L650.878 788.396L648.498 772.419Z" fill="#5AC8E0"/>
</g>
</svg>
