<svg width="63" height="62" viewBox="0 0 63 62" fill="none" xmlns="http://www.w3.org/2000/svg">
<path opacity="0.4" d="M56.3755 0H6.70748C3.54234 0 0.976562 2.6023 0.976562 5.8125V56.1875C0.976562 59.3977 3.54234 62 6.70748 62H56.3755C59.5406 62 62.1064 59.3977 62.1064 56.1875V5.8125C62.1064 2.6023 59.5406 0 56.3755 0ZM58.2858 56.1875C58.2858 57.2576 57.4305 58.125 56.3755 58.125H6.70748C5.6524 58.125 4.79718 57.2576 4.79718 56.1875V5.8125C4.79718 4.74239 5.6524 3.875 6.70748 3.875H56.3755C57.4305 3.875 58.2858 4.74239 58.2858 5.8125V56.1875Z" fill="#33BD9A"/>
<path opacity="0.4" d="M42.4491 33.4992C41.7039 32.7479 40.5007 32.7479 39.7556 33.4992L35.3618 37.9554L27.1666 29.6435C26.4215 28.8923 25.2182 28.8923 24.4731 29.6435L11.1009 43.206C10.3624 43.9701 10.3742 45.1968 11.1276 45.9459C11.478 46.2944 11.9473 46.4928 12.4382 46.4998H50.6443C51.6993 46.506 52.5595 45.6436 52.5657 44.5735C52.5687 44.053 52.365 43.5532 52.0006 43.1867L42.4491 33.4992Z" fill="#33BD9A"/>
<path opacity="0.4" d="M37.2739 27.125C40.439 27.125 43.0048 24.5227 43.0048 21.3125C43.0048 18.1023 40.439 15.5 37.2739 15.5C34.1088 15.5 31.543 18.1023 31.543 21.3125C31.543 24.5227 34.1088 27.125 37.2739 27.125Z" fill="#33BD9A"/>
</svg>
