<svg width="78" height="78" viewBox="0 0 78 78" fill="none" xmlns="http://www.w3.org/2000/svg">
<path d="M23.0007 36.735C21.934 35.6683 20.2007 35.6683 19.134 36.735C18.0673 37.8017 18.0673 39.535 19.134 40.6017L31.734 53.2017C32.2673 53.735 32.934 54.0017 33.6673 54.0017C33.734 54.0017 33.734 54.0017 33.8007 54.0017C34.534 53.935 35.2673 53.6017 35.8007 53.0017L67.334 15.2017C68.2673 14.0683 68.134 12.335 67.0007 11.335C65.8673 10.4017 64.134 10.535 63.134 11.6683L33.4673 47.2017L23.0007 36.735Z" fill="#30BE76"/>
<path d="M59.1 5.91611C43.7667 -3.68389 24.1 -1.41722 11.3 11.3828C-3.76667 26.4495 -3.76667 51.0495 11.3 66.1161C18.8333 73.6495 28.7667 77.4495 38.6333 77.4495C48.5 77.4495 58.4333 73.6495 65.9667 66.1161C78.8333 53.2495 81.0333 33.5161 71.3667 18.1828C70.5667 16.9161 68.9 16.5161 67.6333 17.3161C66.3667 18.1161 65.9667 19.7828 66.7667 21.0495C75.1 34.2495 73.1667 51.1828 62.1 62.2495C49.1667 75.1828 28.0333 75.1828 15.1 62.2495C2.16667 49.3161 2.16667 28.1828 15.1 15.2495C26.1667 4.24945 43.0333 2.31611 56.2333 10.5161C57.5 11.3161 59.1667 10.9161 59.9667 9.64945C60.7667 8.38278 60.3667 6.71611 59.1 5.91611Z" fill="#30BE76"/>
</svg>
