<svg width="52" height="52" viewBox="0 0 52 52" fill="none" xmlns="http://www.w3.org/2000/svg">
<circle cx="26" cy="26" r="26" fill="#F8FFD7"/>
<circle cx="25.9986" cy="26.0006" r="20.6471" fill="#33BD9A"/>
<path d="M25.9989 36.7067C31.9115 36.7067 36.7047 31.9135 36.7047 26.0008C36.7047 20.0881 31.9115 15.2949 25.9989 15.2949C20.0862 15.2949 15.293 20.0881 15.293 26.0008C15.293 31.9135 20.0862 36.7067 25.9989 36.7067Z" stroke="white" stroke-width="2"/>
<path fill-rule="evenodd" clip-rule="evenodd" d="M28.4347 31.3295L28.2507 32.0823C27.6987 32.2997 27.2582 32.4656 26.9292 32.5799C26.6002 32.6942 26.2183 32.7514 25.7834 32.7514C25.1142 32.7514 24.5943 32.5883 24.2235 32.2621C23.8527 31.9359 23.6673 31.5219 23.6673 31.02C23.6673 30.8249 23.6812 30.6255 23.7091 30.422C23.737 30.2185 23.7816 29.9885 23.8429 29.732L24.5288 27.2897C24.5901 27.0555 24.6417 26.8339 24.6835 26.6248C24.7253 26.4157 24.7462 26.2247 24.7462 26.0518C24.7462 25.7396 24.6821 25.5221 24.5539 25.3994C24.4256 25.2768 24.1803 25.2154 23.8178 25.2154C23.6394 25.2154 23.4568 25.2433 23.27 25.2991C23.0832 25.3548 22.9229 25.4078 22.7891 25.458L22.9731 24.7052C23.4247 24.5212 23.8569 24.3637 24.2695 24.2327C24.6821 24.1016 25.0724 24.0361 25.4404 24.0361C26.104 24.0361 26.6156 24.1964 26.9752 24.517C27.3349 24.8377 27.5147 25.2545 27.5147 25.7675C27.5147 25.8734 27.5022 26.0602 27.4771 26.3278C27.452 26.5955 27.406 26.8408 27.3391 27.0639L26.6532 29.4978C26.5975 29.693 26.5473 29.916 26.5027 30.1669C26.4581 30.4178 26.4358 30.6074 26.4358 30.7357C26.4358 31.0591 26.5082 31.2793 26.6532 31.3964C26.7982 31.5135 27.0491 31.5721 27.406 31.5721C27.5733 31.5721 27.7628 31.5428 27.9747 31.4842C28.1866 31.4257 28.34 31.3741 28.4347 31.3295ZM28.6104 21.1171C28.6104 21.5409 28.4501 21.9019 28.1295 22.2002C27.8088 22.4985 27.4227 22.6477 26.971 22.6477C26.5194 22.6477 26.1319 22.4985 25.8085 22.2002C25.485 21.9019 25.3233 21.5409 25.3233 21.1171C25.3233 20.6933 25.485 20.3309 25.8085 20.0298C26.1319 19.7287 26.5194 19.5781 26.971 19.5781C27.4227 19.5781 27.8088 19.7287 28.1295 20.0298C28.4501 20.3309 28.6104 20.6933 28.6104 21.1171Z" fill="white"/>
</svg>
