<svg width="52" height="52" viewBox="0 0 52 52" fill="none" xmlns="http://www.w3.org/2000/svg">
<circle cx="26" cy="26" r="26" fill="#F8FFD7"/>
<circle cx="26.0006" cy="26.0006" r="20.6471" fill="#F3B740"/>
<path d="M27.9438 35.4098C27.8578 35.4098 27.7753 35.3756 27.7145 35.3148L17.9174 25.5176C17.8812 25.4814 17.854 25.4372 17.8382 25.3886C17.8224 25.3399 17.8183 25.2882 17.8262 25.2377L18.9568 18.0782C18.9675 18.0105 18.9994 17.9479 19.0478 17.8994C19.0963 17.8509 19.1589 17.8191 19.2266 17.8084L26.3858 16.6778C26.4363 16.6698 26.488 16.6739 26.5367 16.6898C26.5853 16.7056 26.6295 16.7327 26.6657 16.7689L36.4629 26.5661C36.5237 26.6269 36.5578 26.7094 36.5578 26.7954C36.5578 26.8814 36.5237 26.9639 36.4629 27.0247L28.1728 35.3148C28.1121 35.3755 28.0297 35.4097 27.9438 35.4098ZM18.4927 25.1754L27.9438 34.6269L35.775 26.7954L26.3242 17.3446L19.5607 18.4123L18.4927 25.1754Z" fill="white"/>
<path d="M22.2913 22.7996C21.9083 22.7994 21.5372 22.6663 21.2412 22.4231C20.9453 22.18 20.7428 21.8417 20.6683 21.466C20.5938 21.0903 20.6519 20.7004 20.8326 20.3627C21.0134 20.025 21.3056 19.7604 21.6596 19.614C22.0135 19.4676 22.4073 19.4484 22.7737 19.5598C23.1402 19.6712 23.4568 19.9061 23.6694 20.2247C23.8821 20.5433 23.9777 20.9257 23.94 21.3069C23.9024 21.688 23.7337 22.0443 23.4627 22.3151C23.309 22.469 23.1264 22.5911 22.9254 22.6742C22.7243 22.7574 22.5088 22.8 22.2913 22.7996ZM22.2913 20.136C22.0581 20.1361 21.8322 20.217 21.652 20.365C21.4718 20.513 21.3485 20.7189 21.3031 20.9476C21.2577 21.1763 21.293 21.4137 21.4029 21.6193C21.5129 21.8249 21.6907 21.9861 21.9062 22.0753C22.1216 22.1645 22.3613 22.1762 22.5844 22.1086C22.8075 22.0409 23.0003 21.8979 23.1299 21.7041C23.2594 21.5102 23.3178 21.2774 23.295 21.0454C23.2722 20.8133 23.1696 20.5963 23.0048 20.4314C22.9114 20.3373 22.8002 20.2627 22.6777 20.212C22.5552 20.1612 22.4239 20.1352 22.2913 20.1356V20.136Z" fill="white"/>
<path d="M15.8847 25.4892L15.4738 24.6077C15.4522 24.5613 15.4418 24.5105 15.4435 24.4594C15.4453 24.4083 15.4591 24.3583 15.4839 24.3135L18.996 17.9727L19.5635 18.2869L16.1312 24.4831L16.4727 25.2148L15.8847 25.4892Z" fill="white"/>
<path d="M21.6203 37.3505C21.5586 37.3505 21.4982 37.3329 21.4461 37.2997C21.3941 37.2666 21.3526 37.2193 21.3265 37.1634L16.4688 26.7451L17.0567 26.4707L21.7773 36.5951L27.1189 34.1043L27.3933 34.691L21.7578 37.3181C21.7149 37.3389 21.668 37.3499 21.6203 37.3505Z" fill="white"/>
<path d="M21.5003 21.7497C21.3002 21.7479 21.1008 21.7234 20.9062 21.6768L21.0512 21.0447C21.3184 21.1056 21.8052 21.1702 22.063 20.9127C22.3157 20.66 22.3147 20.1314 22.0598 19.4626C21.6848 18.5759 21.133 17.775 20.4382 17.1087C18.8386 15.5091 17.1495 14.9681 16.6342 15.4835C16.1188 15.9988 16.6598 17.6889 18.2594 19.2875C18.3675 19.3943 18.4756 19.4972 18.5837 19.5962L18.1484 20.0772C18.0315 19.9713 17.9156 19.8609 17.8008 19.7461C15.9914 17.9373 15.2928 15.9074 16.1753 15.0249C17.0577 14.1424 19.0877 14.841 20.8968 16.6501C21.6563 17.381 22.2583 18.2596 22.666 19.2317C23.0227 20.1635 22.9702 20.9234 22.522 21.3722C22.3861 21.501 22.2255 21.6009 22.0499 21.6658C21.8743 21.7307 21.6873 21.7593 21.5003 21.7497Z" fill="white"/>
</svg>
