<svg width="36" height="36" viewBox="0 0 36 36" fill="none" xmlns="http://www.w3.org/2000/svg">
<circle cx="18" cy="18" r="17.5" fill="white" stroke="#F1F1F1"/>
<path d="M18.0022 9H17.9978C13.0354 9 9 13.0365 9 18C9 19.9688 9.6345 21.7935 10.7134 23.2751L9.59175 26.6186L13.0511 25.5128C14.4742 26.4555 16.1719 27 18.0022 27C22.9646 27 27 22.9624 27 18C27 13.0376 22.9646 9 18.0022 9Z" fill="#4CAF50"/>
<path d="M23.2396 21.709C23.0225 22.3221 22.1607 22.8306 21.4734 22.9791C21.0031 23.0792 20.3889 23.1591 18.3211 22.3018C15.6762 21.2061 13.973 18.5185 13.8402 18.3441C13.7131 18.1697 12.7715 16.921 12.7715 15.6295C12.7715 14.338 13.4274 13.7091 13.6917 13.4391C13.9089 13.2175 14.2677 13.1162 14.612 13.1162C14.7234 13.1162 14.8235 13.1218 14.9135 13.1263C15.1779 13.1376 15.3106 13.1533 15.485 13.5707C15.7021 14.0938 16.2309 15.3853 16.2939 15.5181C16.358 15.6508 16.4221 15.8308 16.3321 16.0052C16.2477 16.1852 16.1735 16.2651 16.0407 16.4181C15.908 16.5711 15.782 16.6881 15.6492 16.8523C15.5277 16.9952 15.3905 17.1482 15.5435 17.4126C15.6965 17.6713 16.2252 18.5342 17.0037 19.2272C18.0084 20.1216 18.8229 20.4073 19.1142 20.5288C19.3314 20.6188 19.5901 20.5975 19.7487 20.4287C19.9501 20.2116 20.1987 19.8516 20.4519 19.4972C20.6319 19.243 20.8591 19.2115 21.0976 19.3015C21.3406 19.3858 22.6265 20.0215 22.8909 20.1531C23.1552 20.2858 23.3296 20.3488 23.3937 20.4602C23.4567 20.5716 23.4567 21.0947 23.2396 21.709Z" fill="#FAFAFA"/>
</svg>
