<svg width="52" height="52" viewBox="0 0 52 52" fill="none" xmlns="http://www.w3.org/2000/svg">
<circle cx="26" cy="26" r="26" fill="#F8FFD7"/>
<circle cx="26.0006" cy="26.0006" r="20.6471" fill="#049DC5"/>
<path d="M37.5348 18.8235C37.5332 18.8235 37.5317 18.8235 37.5301 18.8235H35.9531V18.2839C35.9616 18.0703 35.8234 17.8783 35.6181 17.8187C34.5233 17.5317 33.3959 17.3879 32.264 17.3907C30.4032 17.3907 27.8678 17.8094 25.993 19.7167C24.1322 17.7907 21.5782 17.3907 19.722 17.3907C18.5902 17.3879 17.4628 17.5317 16.3679 17.8187C16.1626 17.8783 16.0245 18.0703 16.033 18.2839V18.8188H14.4652C14.2083 18.8188 14 19.0271 14 19.2841V34.1427C14 34.3997 14.2083 34.608 14.4652 34.608C14.5451 34.6077 14.6236 34.5869 14.6932 34.5475C14.7397 34.5242 19.3917 31.9795 25.886 33.6171H25.9558H25.9977C26.0348 33.6215 26.0722 33.6215 26.1093 33.6171C32.6222 31.9656 37.2743 34.5056 37.3022 34.5475C37.4461 34.6306 37.6235 34.6306 37.7674 34.5475C37.9104 34.4649 37.999 34.3126 38 34.1474V19.2887C38 19.0318 37.7918 18.8235 37.5348 18.8235ZM14.9304 33.4031V19.7539H16.0423V31.4213C16.0393 31.6782 16.2453 31.8888 16.5022 31.8917C16.5273 31.892 16.5524 31.8903 16.5772 31.8865C17.5396 31.7396 18.5113 31.6618 19.4848 31.6539C20.8333 31.6305 22.1762 31.8333 23.4576 32.254C20.5638 31.9041 17.6284 32.2996 14.9304 33.4031ZM19.4848 30.7281C18.6386 30.7301 17.7935 30.7844 16.9541 30.891V18.6514C17.8598 18.4496 18.7848 18.3466 19.7127 18.3443C21.4526 18.3443 23.8531 18.7444 25.5185 20.6238L25.5325 32.2121C24.5648 31.5795 22.6761 30.7281 19.4848 30.7281ZM26.4629 20.6238C28.1283 18.763 30.5288 18.3443 32.2687 18.3443C33.1966 18.3471 34.1215 18.45 35.0273 18.6514V30.891C34.1926 30.7834 33.3521 30.7275 32.5106 30.7235C29.3379 30.7235 27.4445 31.5748 26.4629 32.2075V20.6238ZM37.0649 33.4031C34.3612 32.2966 31.4191 31.901 28.5191 32.254C29.8066 31.8318 31.1559 31.6289 32.5106 31.6539C33.4902 31.6594 34.4681 31.7355 35.4367 31.8818C35.6907 31.9204 35.9279 31.7457 35.9665 31.4917C35.9702 31.4669 35.972 31.4418 35.9717 31.4166V19.7539H37.0835L37.0649 33.4031Z" fill="white"/>
</svg>
