<svg width="12" height="12" viewBox="0 0 12 12" fill="none" xmlns="http://www.w3.org/2000/svg">
<g clip-path="url(#clip0)">
<path d="M9.67415 4.33863L6.20787 0.119883C6.07661 -0.0399609 5.76095 -0.0399609 5.62946 0.119883L2.16318 4.33863C1.97438 4.56762 2.13637 4.91543 2.42939 4.91543H4.16253V8.83594C4.16253 9.03023 4.31759 9.1875 4.50916 9.1875H7.3284C7.51997 9.1875 7.67503 9.03023 7.67503 8.83594V4.91543H9.40817C9.70119 4.91543 9.86295 4.56762 9.67415 4.33863Z" fill="white"/>
<path d="M11.4889 7.07812H10.1023C9.91078 7.07812 9.75572 7.23539 9.75572 7.42969V9.89062H2.08368V7.42969C2.08368 7.23539 1.92862 7.07812 1.73705 7.07812H0.350535C0.158965 7.07812 0.00390625 7.23539 0.00390625 7.42969V10.9453C0.00390625 11.527 0.470237 12 1.04379 12H10.7956C11.3689 12 11.8355 11.527 11.8355 10.9453V7.42969C11.8355 7.23539 11.6804 7.07812 11.4889 7.07812Z" fill="white"/>
</g>
<defs>
<clipPath id="clip0">
<rect width="11.8316" height="12" fill="white" transform="translate(0.00390625)"/>
</clipPath>
</defs>
</svg>
