<svg width="24" height="24" viewBox="0 0 24 24" fill="none" xmlns="http://www.w3.org/2000/svg">
<path d="M18.5807 14.9436C17.1813 14.9436 15.9284 15.582 15.0972 16.5827L9.68972 13.5126C9.85788 13.0394 9.9503 12.5306 9.9503 12.0003C9.9503 11.4702 9.85788 10.9614 9.68972 10.4882L15.0967 7.41729C15.9279 8.41831 17.181 9.05693 18.5805 9.05693C21.0769 9.05693 23.1079 7.02521 23.1079 4.52778C23.1081 2.03109 21.0771 0 18.5807 0C16.084 0 14.0528 2.03109 14.0528 4.52767C14.0528 5.05792 14.1451 5.56683 14.3134 6.04014L8.90608 9.11112C8.07491 8.11063 6.82218 7.47243 5.42305 7.47243C2.92604 7.47243 0.894531 9.50352 0.894531 12.0002C0.894531 14.4968 2.92604 16.5279 5.42305 16.5279C6.82218 16.5279 8.0748 15.8897 8.90597 14.8893L14.3134 17.9595C14.1451 18.4329 14.0527 18.9419 14.0527 19.4722C14.0527 21.9688 16.0839 23.9999 18.5806 23.9999C21.077 23.9999 23.108 21.9687 23.108 19.4722C23.1081 16.9752 21.0771 14.9436 18.5807 14.9436ZM18.5807 1.5844C20.2035 1.5844 21.5237 2.90473 21.5237 4.52767C21.5237 6.15147 20.2035 7.47243 18.5807 7.47243C16.9577 7.47243 15.6372 6.15147 15.6372 4.52767C15.6372 2.90473 16.9577 1.5844 18.5807 1.5844ZM5.42316 14.9436C3.79978 14.9436 2.47903 13.6232 2.47903 12.0003C2.47903 10.3773 3.79978 9.05693 5.42316 9.05693C7.04589 9.05693 8.36601 10.3773 8.36601 12.0003C8.36601 13.6232 7.04579 14.9436 5.42316 14.9436ZM18.5807 22.4156C16.9577 22.4156 15.6372 21.0952 15.6372 19.4723C15.6372 17.8488 16.9577 16.528 18.5807 16.528C20.2035 16.528 21.5237 17.8488 21.5237 19.4723C21.5237 21.0952 20.2035 22.4156 18.5807 22.4156Z" fill="#1D6771"/>
</svg>
