<svg width="562" height="244" viewBox="0 0 562 244" fill="none" xmlns="http://www.w3.org/2000/svg">
<rect width="562" height="244" rx="4" fill="#FAFAFA"/>
<mask id="mask0" mask-type="alpha" maskUnits="userSpaceOnUse" x="16" y="17" width="530" height="192">
<path d="M16 21.0045C16 18.7929 17.7929 17 20.0045 17H541.996C544.207 17 546 18.7929 546 21.0045V209H16V21.0045Z" fill="#492121"/>
</mask>
<g mask="url(#mask0)">
<rect x="-13.9648" y="5.20312" width="879.786" height="219.989" fill="url(#paint0_linear)"/>
</g>
<path fill-rule="evenodd" clip-rule="evenodd" d="M236.031 122.792C236.859 124.556 237.62 126.047 238.462 127.634C239.284 129.196 240.164 130.722 241.041 132.25C242.835 135.28 244.682 138.284 246.707 141.199C247.71 142.662 248.752 144.107 249.802 145.551C250.908 146.967 251.961 148.4 253.14 149.784C255.374 152.604 257.929 155.278 260.59 157.886C261.265 158.534 262.001 159.16 262.703 159.793C263.41 160.426 264.108 161.06 264.919 161.64L267.267 163.405C267.267 163.405 267.686 163.712 267.983 163.899C268.295 164.106 268.631 164.277 268.965 164.448C269.641 164.775 270.35 165.021 271.07 165.191C272.513 165.521 273.996 165.525 275.416 165.217C276.834 164.911 278.2 164.288 279.369 163.38C279.951 162.923 280.485 162.406 280.945 161.839L281.278 161.408L281.435 161.189L281.494 161.092L281.721 160.698L282.597 159.114C282.856 158.598 283.044 158.115 283.266 157.615C284.119 155.626 284.651 153.788 285.146 151.94C286.049 148.278 286.573 144.746 286.927 141.218C287.265 137.678 287.451 134.244 287.385 130.639C287.343 128.318 285.427 126.472 283.107 126.514C281.213 126.55 279.635 127.83 279.142 129.562L279.103 129.704C276.797 137.823 275.864 152.355 271.53 147.33C267.624 142.734 264.031 137.51 260.658 132.079C258.985 129.353 257.34 126.586 255.749 123.784L253.394 119.567L251.047 115.22C248.838 111.132 243.736 109.609 239.648 111.818C235.708 113.946 234.161 118.785 236.031 122.792Z" fill="#132529"/>
<path fill-rule="evenodd" clip-rule="evenodd" d="M286.253 130.126L292.199 126.735L285.806 120.203C285.806 120.203 283.137 122.108 280.626 124.873C279.044 126.613 279.517 129.37 281.599 130.352C283.08 131.05 284.815 130.966 286.253 130.126Z" fill="#EB996E"/>
<path fill-rule="evenodd" clip-rule="evenodd" d="M293.548 119.737L290.321 117.431C289.446 116.804 288.23 116.991 287.581 117.852L285.81 120.203L292.203 126.735L294.212 122.148C294.589 121.289 294.312 120.282 293.548 119.737Z" fill="#EB996E"/>
<path fill-rule="evenodd" clip-rule="evenodd" d="M248.827 117.333C247.879 114.093 245.109 111.663 241.781 111.048C239.169 110.592 237.952 110.196 234.601 109.946C228.83 109.535 219.339 109.916 212.786 110.346C208.978 110.598 205.092 111.133 201.995 111.643L201.883 111.663C198.468 112.224 196.128 115.482 196.713 118.865C198.237 127.674 202.713 142.984 203.199 157.44C203.837 176.411 203.549 187.337 203.884 191.912L252.727 190.973C256.124 144.58 251.894 127.828 248.827 117.333Z" fill="#FFFFFE"/>
<path fill-rule="evenodd" clip-rule="evenodd" d="M200.581 110.927L200.699 110.911C203.963 110.373 208.057 109.806 212.072 109.537C212.771 109.486 213.496 109.447 214.248 109.408C216.383 118.245 229.098 133.09 232.955 155.613C234.442 136.794 235.593 117.119 233.41 109.444C234.732 109.42 241.085 109.861 243.724 110.317C247.227 110.964 250.185 113.752 251.46 117.507C254.458 126.34 260.183 146.12 256.659 194.75H202.384C202.023 189.918 203.292 179.629 201.336 163.869C199.44 148.592 196.728 127.818 195.125 118.53C194.512 114.958 196.979 111.522 200.581 110.927Z" fill="#132529"/>
<path fill-rule="evenodd" clip-rule="evenodd" d="M234.152 192.242C234.319 192.242 234.462 192.113 234.477 191.943C235.629 178.227 233.482 158.523 233.46 158.325C233.441 158.158 233.297 158.035 233.136 158.035C233.124 158.035 233.112 158.036 233.1 158.038C232.921 158.058 232.793 158.218 232.812 158.397C232.834 158.594 234.974 178.236 233.827 191.888C233.812 192.068 233.945 192.225 234.124 192.241L234.152 192.242Z" fill="#415051"/>
<path fill-rule="evenodd" clip-rule="evenodd" d="M201.287 163.52C201.288 163.516 201.288 163.512 201.289 163.507C200.633 158.23 199.883 152.321 199.116 146.467H199.115C199.882 152.329 200.632 158.244 201.287 163.52Z" fill="#275C9B"/>
<path fill-rule="evenodd" clip-rule="evenodd" d="M199.116 146.464H199.117C198.003 137.947 196.853 129.549 195.907 123.387C195.907 123.387 195.907 123.388 195.906 123.388C196.851 129.545 198.001 137.948 199.116 146.464Z" fill="#35639F"/>
<path fill-rule="evenodd" clip-rule="evenodd" d="M201.291 163.504C203.428 151.978 204.504 139.348 202.487 130.235C201.286 124.757 199.423 122.807 197.631 122.807C197.04 122.807 196.458 123.019 195.908 123.386C196.853 129.548 198.003 137.946 199.117 146.463C199.884 152.317 200.634 158.227 201.291 163.504Z" fill="#051317"/>
<path fill-rule="evenodd" clip-rule="evenodd" d="M233.568 109.887C227.233 108.504 226.143 104.601 226.596 100.285C226.692 99.2353 226.88 98.145 227.12 97.0669L219.209 90.6131L213.399 85.8789C214.976 92.8766 216.726 105.641 211.947 110.412C211.947 110.412 215.842 116.821 226.702 116.037C235.875 115.373 233.568 109.887 233.568 109.887Z" fill="#F6B381"/>
<path fill-rule="evenodd" clip-rule="evenodd" d="M223.94 114.42L225.695 116.089L220.092 118.194L220.818 116.063L223.94 114.42Z" fill="#D4D5CF"/>
<path fill-rule="evenodd" clip-rule="evenodd" d="M219.656 121.171C219.656 121.171 221.856 115.592 223.945 114.421C216.634 112.456 213.084 108.406 213.084 108.406L209.75 109.728C209.75 109.728 208.7 116.134 219.656 121.171Z" fill="#F1F0EC"/>
<path fill-rule="evenodd" clip-rule="evenodd" d="M227.016 113.99L225.694 116.085L231.598 116.594L230.411 114.728L227.016 113.99Z" fill="#D4D5CF"/>
<path fill-rule="evenodd" clip-rule="evenodd" d="M234.565 119.597C234.565 119.597 231.45 116.1 227.019 113.992C230.226 113.034 230.419 108.617 230.419 108.617L233.525 109.211C233.525 109.211 239.237 114.764 234.565 119.597Z" fill="#F1F0EC"/>
<path fill-rule="evenodd" clip-rule="evenodd" d="M223.186 93.8604H223.188L220.129 91.3652L223.186 93.8604Z" fill="#3365A1"/>
<path fill-rule="evenodd" clip-rule="evenodd" d="M227.12 97.0636C227.121 97.0636 227.121 97.0636 227.121 97.0636L223.191 93.8574H223.189L227.12 97.0636Z" fill="#416BA6"/>
<path fill-rule="evenodd" clip-rule="evenodd" d="M226.598 100.284C226.694 99.2354 226.882 98.1451 227.121 97.0658L219.211 90.6133C219.129 91.4023 219.149 92.5036 219.298 93.6377C219.694 96.6585 223.637 99.7439 226.598 100.284Z" fill="#D8894F"/>
<path fill-rule="evenodd" clip-rule="evenodd" d="M236.713 65.1413C239.543 68.6243 239.269 81.1904 233.284 81.3404C227.298 81.4904 231.569 58.8034 236.713 65.1413Z" fill="#132529"/>
<path fill-rule="evenodd" clip-rule="evenodd" d="M210.923 74.2904C211.524 83.8125 211.393 89.4102 216.198 94.3359C223.425 101.746 235.135 97.4884 237.382 88.0077C239.404 79.4746 238.081 65.3366 228.78 61.4694C219.618 57.6596 210.321 64.7683 210.923 74.2904Z" fill="#F6B381"/>
<path fill-rule="evenodd" clip-rule="evenodd" d="M215.597 66.3578C221.586 72.3031 213.804 76.6556 216.846 79.8569C211.198 82.8045 213.269 84.9789 213.269 84.9789C213.269 84.9789 214.218 87.2631 213.208 90.0009C206.851 88.3594 195.032 67.2212 207.924 63.9688C215.692 67.4249 215.597 66.3578 215.597 66.3578Z" fill="#132529"/>
<path fill-rule="evenodd" clip-rule="evenodd" d="M213.154 70.6266C218.826 71.5083 225.959 68.7973 230.38 66.5106C234.8 64.224 235.457 68.5424 233.827 69.8644C236.663 69.9656 240.264 67.7107 239.374 62.6996C238.56 58.1263 232.564 53.8067 224.036 57.669C218.005 60.3995 210.562 56.8044 207.666 59.9556C204.769 63.1057 209.366 70.0387 213.154 70.6266Z" fill="#132529"/>
<path fill-rule="evenodd" clip-rule="evenodd" d="M209.289 64.4258C205.478 63.9185 205.317 61.5257 206.384 57.3086C202.268 63.1526 203.915 64.9453 206.393 66.3575C209.085 65.4429 209.289 64.4258 209.289 64.4258Z" fill="#132529"/>
<path fill-rule="evenodd" clip-rule="evenodd" d="M208.362 81.5876C209.293 83.6462 210.946 85.1426 212.512 85.8463C214.868 86.906 216.066 84.7377 215.428 82.184C214.855 79.8864 212.936 76.5644 210.564 76.59C208.226 76.6119 207.297 79.2352 208.362 81.5876Z" fill="#F6B381"/>
<path fill-rule="evenodd" clip-rule="evenodd" d="M225.78 77.1635C225.781 77.9391 226.192 78.5708 226.698 78.5757C227.203 78.5794 227.612 77.955 227.609 77.1793C227.608 76.4049 227.197 75.7732 226.692 75.7696C226.187 75.7647 225.779 76.3903 225.78 77.1635Z" fill="#132529"/>
<path fill-rule="evenodd" clip-rule="evenodd" d="M234.521 77.2421C234.523 78.0177 234.934 78.6482 235.439 78.6531C235.944 78.6567 236.353 78.0323 236.352 77.2579C236.35 76.4823 235.939 75.8506 235.434 75.8457C234.928 75.8433 234.52 76.4665 234.521 77.2421Z" fill="#132529"/>
<path fill-rule="evenodd" clip-rule="evenodd" d="M231.286 77.5078C231.286 77.5078 233.053 81.9933 234.992 84.1677C233.628 85.4348 231.301 84.8299 231.301 84.8299L231.286 77.5078Z" fill="#D8894F"/>
<path fill-rule="evenodd" clip-rule="evenodd" d="M228.142 86.8947C225.129 86.5093 223.732 84.4056 223.668 84.308L223.737 83.9922L224.05 84.0544C224.067 84.0776 225.656 86.4739 229.055 86.5008C229.181 86.5008 229.278 86.6044 229.273 86.73C229.27 86.8557 229.165 86.9569 229.039 86.9557C228.726 86.9532 228.427 86.9313 228.142 86.8947Z" fill="#132529"/>
<path fill-rule="evenodd" clip-rule="evenodd" d="M221.545 74.0889L221.337 74.006C221.139 73.8572 221.101 73.5706 221.255 73.3682C222.773 71.3657 224.872 71.5072 224.96 71.5145C225.198 71.5096 225.391 71.7523 225.365 72.0035C225.339 72.2535 225.116 72.4401 224.867 72.4206C224.781 72.4157 223.166 72.334 221.975 73.9084C221.87 74.0462 221.704 74.1096 221.545 74.0889Z" fill="#132529"/>
<path fill-rule="evenodd" clip-rule="evenodd" d="M238.053 74.4562C237.909 74.4379 237.778 74.3513 237.71 74.2123C236.817 72.3683 235.151 72.1244 235.134 72.122C234.887 72.0878 234.717 71.8598 234.758 71.611C234.797 71.3622 235.027 71.1878 235.275 71.2183L235.277 71.2195C235.365 71.2317 237.433 71.5342 238.53 73.7988C238.638 74.022 238.542 74.2964 238.316 74.4098L238.053 74.4562Z" fill="#132529"/>
<path fill-rule="evenodd" clip-rule="evenodd" d="M193.707 116.431C192.227 119.567 190.977 122.5 189.763 125.585C188.541 128.635 187.449 131.739 186.374 134.856C184.304 141.128 182.491 147.517 181.211 154.212C180.93 155.907 180.608 157.57 180.41 159.315L180.241 160.609L180.158 161.255L180.118 161.584L180.079 162.038C179.979 163.241 179.961 164.504 180.096 165.821C180.358 168.441 181.308 171.253 182.866 173.543C184.406 175.853 186.428 177.543 188.401 178.725C190.388 179.918 192.361 180.686 194.282 181.206C196.201 181.729 198.062 182.051 199.893 182.21C201.719 182.386 203.506 182.415 205.272 182.346C207.07 182.273 208.708 182.101 210.62 181.781C212.905 181.397 214.446 179.234 214.063 176.949C213.771 175.21 212.45 173.903 210.83 173.546L210.388 173.449C209.121 173.171 207.58 172.83 206.211 172.464C204.812 172.09 203.45 171.67 202.161 171.205C199.601 170.278 197.277 169.041 196.005 167.787C195.371 167.16 195.064 166.587 194.944 166.178C194.835 165.753 194.866 165.425 194.932 164.874C194.957 164.605 195.022 164.272 195.117 163.899L195.554 161.917C195.829 160.515 196.24 159.081 196.598 157.662C197.362 154.804 198.215 151.932 199.192 149.062C200.111 146.187 201.167 143.315 202.222 140.447C203.284 137.577 204.408 134.719 205.541 131.862C206.687 129.044 207.874 126.101 209.004 123.44L209.058 123.312C210.874 119.035 208.88 114.097 204.603 112.28C200.434 110.51 195.629 112.376 193.707 116.431Z" fill="#132529"/>
<path fill-rule="evenodd" clip-rule="evenodd" d="M214.543 177.019L219.914 179.574L210.619 182.873C210.619 182.873 204.427 180.901 207.435 177.465L209.099 176.941C211.783 176.099 213.101 176.195 214.543 177.019Z" fill="#EB996E"/>
<path fill-rule="evenodd" clip-rule="evenodd" d="M219.196 186.17L215.111 186.946C213.914 187.174 212.705 186.609 212.111 185.546L210.619 182.871L219.914 179.572L221.196 182.116C222.042 183.797 221.043 185.819 219.196 186.17Z" fill="#EB996E"/>
<path d="M280.874 102.268C274.878 102.268 270 107.112 270 113.066C270 119.021 274.878 123.865 280.874 123.865C286.87 123.865 291.747 119.021 291.747 113.066C291.747 107.112 286.87 102.268 280.874 102.268ZM280.874 122.965C275.377 122.965 270.906 118.525 270.906 113.066C270.906 107.608 275.377 103.167 280.874 103.167C286.37 103.167 290.841 107.608 290.841 113.066C290.841 118.525 286.37 122.965 280.874 122.965Z" fill="white"/>
<path d="M285.195 112.688L278.852 108.638C278.714 108.548 278.534 108.543 278.391 108.621C278.245 108.701 278.154 108.852 278.154 109.016V117.116C278.154 117.28 278.245 117.432 278.391 117.511C278.458 117.547 278.533 117.566 278.607 117.566C278.692 117.566 278.778 117.542 278.852 117.494L285.195 113.444C285.325 113.362 285.403 113.219 285.403 113.066C285.403 112.913 285.325 112.77 285.195 112.688Z" fill="white"/>
<defs>
<linearGradient id="paint0_linear" x1="425.928" y1="5.20313" x2="429.406" y2="362.187" gradientUnits="userSpaceOnUse">
<stop stop-color="#35A8E0"/>
<stop offset="1" stop-color="#387B9B" stop-opacity="0"/>
</linearGradient>
</defs>
</svg>
