<svg width="24" height="25" viewBox="0 0 24 25" fill="none" xmlns="http://www.w3.org/2000/svg">
<g clip-path="url(#clip0)">
<path d="M12 0.5C5.38332 0.5 0 5.88332 0 12.5C0 19.1166 5.38332 24.5 12 24.5C18.6166 24.5 24 19.1166 24 12.5C24 5.88332 18.6167 0.5 12 0.5ZM12 23.4565C5.95824 23.4565 1.04346 18.5417 1.04346 12.5C1.04346 6.45824 5.95824 1.54346 12 1.54346C18.0417 1.54346 22.9565 6.45824 22.9565 12.5C22.9565 18.5417 18.0417 23.4565 12 23.4565Z" fill="#969696"/>
<path d="M17.0643 16.8268L12.521 12.2834V4.15164C12.521 3.86364 12.2873 3.62988 11.9993 3.62988C11.7113 3.62988 11.4775 3.86364 11.4775 4.15164V12.4995C11.4775 12.6382 11.5329 12.7708 11.6299 12.8689L16.3256 17.5645C16.4278 17.6657 16.5614 17.7169 16.6949 17.7169C16.8285 17.7169 16.9621 17.6658 17.0643 17.5645C17.2678 17.361 17.2678 17.0302 17.0643 16.8268Z" fill="#969696"/>
</g>
<defs>
<clipPath id="clip0">
<rect width="24" height="24" fill="white" transform="translate(0 0.5)"/>
</clipPath>
</defs>
</svg>
